<?xml version="1.0" standalone="no"?>
<!DOCTYPE svg PUBLIC "-//W3C//DTD SVG 20010904//EN"
 "http://www.w3.org/TR/2001/REC-SVG-20010904/DTD/svg10.dtd">
<svg version="1.0" xmlns="http://www.w3.org/2000/svg"
 width="829.000000pt" height="762.000000pt" viewBox="0 0 829.000000 762.000000"
 preserveAspectRatio="xMidYMid meet">

<g transform="translate(0.000000,762.000000) scale(0.100000,-0.100000)"
fill="#000000" stroke="none">
<path d="M3239 7559 c17 -7 21 -13 14 -20 -12 -12 -6 -49 9 -49 5 0 5 8 -1 18
-7 13 -7 22 1 30 15 15 1 32 -25 31 -21 0 -21 -1 2 -10z"/>
<path d="M3341 7542 c-1 -40 -27 -54 -48 -26 -14 19 -15 19 -11 -1 4 -24 40
-31 57 -11 7 8 11 27 8 43 -4 27 -4 26 -6 -5z"/>
<path d="M3360 7530 c0 -37 2 -40 28 -39 23 2 24 2 5 6 -18 3 -23 11 -23 33 0
22 5 30 23 33 19 4 18 4 -5 6 -26 1 -28 -2 -28 -39z"/>
<path d="M3456 7563 c-12 -13 -5 -30 17 -41 l22 -11 -22 0 c-13 -1 -23 -5 -23
-11 0 -5 18 -9 40 -8 26 1 40 6 40 15 0 7 9 13 20 13 11 0 20 -7 20 -15 0 -8
5 -15 10 -15 6 0 10 18 10 40 0 22 -4 40 -10 40 -5 0 -10 -7 -10 -15 0 -8 -9
-15 -20 -15 -11 0 -20 6 -20 13 0 14 -62 22 -74 10z m54 -23 c0 -13 -11 -13
-30 0 -12 8 -11 10 8 10 12 0 22 -4 22 -10z"/>
<path d="M3600 7530 c0 -40 0 -40 40 -40 23 0 40 5 40 11 0 8 4 8 14 0 17 -14
116 -12 116 3 0 6 5 5 12 -2 18 -18 27 -14 22 11 l-5 22 17 -22 c19 -27 46
-30 65 -7 11 14 13 14 21 0 12 -21 55 -20 67 2 10 16 10 16 11 0 0 -10 5 -18
10 -18 6 0 10 5 10 12 0 9 3 9 12 0 14 -14 88 -16 88 -2 0 6 -10 11 -22 11
-17 1 -19 2 -5 6 9 2 17 8 17 13 0 5 -8 11 -17 13 -14 4 -12 5 5 6 39 2 24 21
-18 21 -27 0 -42 -6 -49 -17 -10 -17 -10 -17 -11 0 0 9 -4 17 -10 17 -5 0 -10
-8 -10 -17 -1 -17 -1 -17 -11 0 -12 21 -55 22 -67 1 -8 -14 -10 -14 -21 0 -17
21 -48 20 -59 0 -8 -14 -10 -14 -15 -1 -4 12 -29 15 -126 16 l-121 1 0 -40z
m60 1 c0 -25 -3 -28 -22 -23 -19 5 -20 7 -5 10 9 2 17 8 17 13 0 5 -8 9 -17
10 -15 0 -15 2 2 9 11 5 21 9 23 9 1 1 2 -12 2 -28z m420 -3 c-1 -28 -2 -30
-11 -15 -6 10 -8 25 -5 33 9 24 16 16 16 -18z m-380 12 c0 -5 -4 -10 -10 -10
-5 0 -10 5 -10 10 0 6 5 10 10 10 6 0 10 -4 10 -10z m65 0 c-3 -5 -10 -10 -16
-10 -5 0 -9 5 -9 10 0 6 7 10 16 10 8 0 12 -4 9 -10z m65 0 c0 -5 -4 -10 -10
-10 -5 0 -10 5 -10 10 0 6 5 10 10 10 6 0 10 -4 10 -10z m80 -10 c0 -13 -7
-20 -20 -20 -13 0 -20 7 -20 20 0 13 7 20 20 20 13 0 20 -7 20 -20z m88 3 c5
-17 -26 -29 -40 -15 -6 6 -7 15 -3 22 9 14 37 9 43 -7z m-281 -25 c-3 -8 -6
-5 -6 6 -1 11 2 17 5 13 3 -3 4 -12 1 -19z m50 6 c-3 -3 -12 -4 -19 -1 -8 3
-5 6 6 6 11 1 17 -2 13 -5z"/>
<path d="M4185 7560 c-9 -14 3 -30 22 -30 9 0 13 -6 9 -15 -3 -8 -1 -15 4 -15
18 0 10 29 -10 40 -11 6 -18 15 -15 21 4 5 4 9 1 9 -3 0 -8 -4 -11 -10z"/>
<path d="M4292 7535 c0 -29 2 -34 7 -20 8 19 8 19 19 0 8 -15 12 -16 12 -5 0
8 3 25 6 38 4 13 2 22 -5 22 -5 0 -8 -7 -5 -15 4 -9 0 -15 -9 -15 -9 0 -18 8
-20 18 -3 9 -5 -1 -5 -23z"/>
<path d="M4352 7535 c0 -22 2 -32 5 -22 2 9 10 17 16 17 9 0 9 2 1 8 -6 4 -14
14 -17 22 -3 8 -5 -3 -5 -25z"/>
<path d="M4400 7535 c0 -19 4 -35 10 -35 5 0 7 6 4 14 -3 8 2 16 13 19 17 4
17 5 -1 6 -12 1 -16 6 -12 16 3 8 1 15 -4 15 -6 0 -10 -16 -10 -35z"/>
<path d="M1348 7138 l-3 -123 -432 0 -433 1 0 -246 c-1 -1151 1 -2424 3 -2427
2 -1 280 -4 618 -5 l614 -3 0 -200 0 -200 -81 -3 -82 -3 -6 -342 c-3 -188 -8
-1011 -11 -1829 l-5 -1488 1150 0 c1016 0 1150 2 1150 15 0 13 -133 15 -1135
15 l-1135 0 2 718 3 717 663 3 662 2 0 -61 c0 -44 3 -60 13 -57 9 4 12 59 12
233 0 174 -3 229 -12 232 -10 4 -13 -32 -13 -156 l0 -161 -666 0 -667 0 7 38
c3 20 6 88 6 150 l0 112 75 0 c60 0 75 3 75 15 0 12 -15 15 -75 15 l-75 0 2
903 3 902 83 3 82 3 0 229 0 230 -216 0 -215 0 2 188 2 187 -138 0 c-102 0
-139 -3 -142 -12 -4 -10 26 -13 126 -13 l131 0 0 -175 0 -175 -185 0 -185 0 0
190 c0 162 -2 190 -15 190 -13 0 -15 -28 -15 -190 l0 -190 -190 0 -190 0 0
175 0 175 135 0 c83 0 135 4 135 10 0 6 -52 10 -135 10 l-135 0 0 880 0 880
185 0 c158 0 185 2 185 15 0 13 -27 15 -185 15 l-185 0 0 230 0 230 418 -2
417 -3 3 -142 c1 -84 7 -143 12 -143 6 0 10 100 10 265 l0 265 525 0 525 0 0
-255 0 -255 -130 0 c-109 0 -130 -2 -130 -15 0 -13 26 -15 170 -15 144 0 170
2 170 15 0 9 -9 15 -25 15 l-25 0 0 255 0 255 385 0 385 0 0 -105 0 -105 238
-2 237 -3 3 -232 2 -233 220 0 220 0 0 -245 c0 -211 2 -245 15 -245 9 0 15 9
15 25 l0 25 195 0 195 0 0 -245 0 -245 115 0 115 0 0 -150 0 -150 -170 0
c-144 0 -170 -2 -170 -15 0 -12 14 -15 65 -15 l65 0 0 -1125 0 -1125 330 0
c287 0 330 2 330 15 0 13 -42 15 -320 15 l-320 0 0 1110 0 1110 380 0 380 0 0
-1115 c0 -984 2 -1115 15 -1115 13 0 15 124 15 1060 l0 1060 100 0 100 0 0
-1310 0 -1310 45 0 45 0 2 -247 c1 -137 3 -229 5 -205 l4 43 115 -2 c63 -1
118 1 121 5 4 3 -48 6 -115 6 -101 0 -122 3 -122 15 0 12 23 15 123 18 l122 3
-122 2 c-102 2 -123 5 -123 17 0 13 20 15 122 15 67 0 119 3 115 6 -3 4 -58 6
-122 5 -111 -2 -115 -1 -115 19 0 20 4 21 115 19 64 -1 119 1 122 5 4 3 -48 6
-115 6 -101 0 -122 3 -122 15 0 12 22 15 118 18 l117 3 -117 2 -118 2 0 115 0
116 118 -3 117 -3 -3 -102 -3 -103 96 0 95 0 1 -97 c0 -54 3 -92 6 -85 3 9 45
12 158 12 113 0 155 -3 158 -12 3 -7 6 31 6 85 l1 97 90 0 90 0 0 -140 0 -141
-350 3 c-193 2 -350 0 -350 -4 0 -5 159 -8 354 -8 l355 0 3 43 3 42 115 0 115
0 6 -40 c3 -22 7 71 8 208 l1 247 70 0 70 0 0 270 c0 233 -2 270 -15 270 -13
0 -15 -36 -15 -260 l0 -260 -685 0 -685 0 0 677 0 676 700 -7 700 -6 0 370 c0
322 -2 370 -15 370 -13 0 -15 -46 -15 -355 l0 -355 -685 0 -685 0 0 670 0 670
685 0 685 0 0 -150 c0 -127 2 -150 15 -150 12 0 15 17 15 95 l0 95 115 0 115
0 0 -630 0 -631 117 3 c82 2 118 7 121 16 3 9 -22 12 -102 12 l-106 0 0 670 0
670 375 0 375 0 0 -585 0 -585 -225 0 -225 0 0 -155 c0 -131 2 -155 15 -155
13 0 15 22 15 140 l0 140 210 0 210 0 0 -515 0 -515 -210 0 -210 0 0 80 c0 64
-3 80 -15 80 -12 0 -15 -17 -15 -95 l0 -95 223 -2 222 -3 -3 -915 c-1 -503 -5
-1116 -9 -1362 l-6 -448 -363 0 -364 0 0 695 c0 611 -2 695 -15 695 -13 0 -15
-84 -15 -695 l0 -695 -260 0 -260 0 0 370 0 370 45 0 45 0 0 226 c0 176 -3
225 -12 222 -10 -4 -14 -57 -16 -211 l-2 -207 -285 0 -285 0 0 200 0 200 215
0 c184 0 215 2 215 15 0 13 -54 15 -425 15 -371 0 -425 -2 -425 -15 0 -13 28
-15 195 -15 l195 0 0 -200 0 -200 -285 0 -285 0 -2 207 c-2 154 -6 207 -15
211 -9 2 -13 -11 -13 -48 0 -49 -1 -51 -22 -43 -75 26 -143 -15 -143 -88 0
-34 6 -46 34 -71 34 -30 66 -34 114 -13 15 6 17 0 17 -64 l0 -71 -27 11 c-39
15 -89 3 -113 -28 -24 -31 -26 -89 -5 -120 21 -30 85 -49 113 -34 11 6 23 11
26 11 3 0 6 -142 6 -315 l0 -315 -495 0 -495 0 0 220 0 220 135 0 c113 0 135
2 135 15 0 13 -23 15 -150 15 l-150 0 0 -235 0 -235 -60 0 c-47 0 -60 -3 -60
-15 0 -13 94 -15 790 -15 696 0 790 2 790 15 0 13 -29 15 -205 15 l-205 0 0
370 0 370 540 0 540 0 0 -370 0 -370 -180 0 c-153 0 -180 -2 -180 -15 0 -13
111 -15 940 -15 l940 0 0 2685 0 2685 -1027 1 c-566 1 -1383 5 -1818 8 l-790
6 -1 240 -1 240 -207 3 -206 2 0 220 0 220 -225 0 -225 0 0 230 0 230 -235 0
-235 0 0 110 0 110 -950 0 -949 0 -3 -122z m3492 -1588 c0 -63 -2 -70 -20 -70
-18 0 -20 7 -20 70 0 63 2 70 20 70 18 0 20 -7 20 -70z m50 0 c0 -63 -2 -70
-20 -70 -18 0 -20 7 -20 70 0 63 2 70 20 70 18 0 20 -7 20 -70z m60 0 c0 -68
-1 -70 -25 -70 -24 0 -25 2 -25 70 0 68 1 70 25 70 24 0 25 -2 25 -70z m50 0
c0 -63 -2 -70 -20 -70 -18 0 -20 7 -20 70 0 63 2 70 20 70 18 0 20 -7 20 -70z
m50 0 c0 -63 -2 -70 -20 -70 -18 0 -20 7 -20 70 0 63 2 70 20 70 18 0 20 -7
20 -70z m50 0 c0 -63 -2 -70 -20 -70 -18 0 -20 7 -20 70 0 63 2 70 20 70 18 0
20 -7 20 -70z m60 0 c0 -68 -1 -70 -25 -70 -24 0 -25 2 -25 70 0 68 1 70 25
70 24 0 25 -2 25 -70z m40 0 c0 -56 -3 -70 -15 -70 -12 0 -15 14 -15 70 0 56
3 70 15 70 12 0 15 -14 15 -70z m2512 60 l478 0 0 -2655 0 -2655 -77 0 -76 0
6 743 c4 408 10 1537 14 2510 l6 1767 -406 0 c-265 0 -407 -3 -407 -10 0 -6
-45 -10 -115 -10 -70 0 -115 4 -115 10 0 7 -245 10 -715 10 -470 0 -715 -3
-715 -10 0 -6 -40 -10 -100 -10 -60 0 -100 4 -100 10 0 6 -30 10 -70 10 l-70
0 0 152 0 151 992 -6 c545 -4 1207 -7 1470 -7z m-2872 -215 c0 -68 -2 -75 -20
-75 -18 0 -20 7 -20 75 0 68 2 75 20 75 18 0 20 -7 20 -75z m50 0 c0 -68 -2
-75 -20 -75 -18 0 -20 7 -20 68 0 71 4 82 27 82 10 0 13 -19 13 -75z m58 -3
c3 -71 3 -72 -23 -72 -24 0 -25 2 -25 68 0 72 4 85 30 80 11 -3 16 -20 18 -76z
m52 3 c0 -68 -2 -75 -20 -75 -18 0 -20 7 -20 75 0 68 2 75 20 75 18 0 20 -7
20 -75z m50 0 c0 -68 -2 -75 -20 -75 -18 0 -20 7 -20 75 0 68 2 75 20 75 18 0
20 -7 20 -75z m50 0 c0 -68 -2 -75 -20 -75 -18 0 -20 7 -20 75 0 68 2 75 20
75 18 0 20 -7 20 -75z m58 -3 c3 -71 3 -72 -23 -72 -24 0 -25 2 -25 68 0 72 4
85 30 80 11 -3 16 -20 18 -76z m42 3 c0 -60 -3 -75 -15 -75 -12 0 -15 15 -15
75 0 60 3 75 15 75 12 0 15 -15 15 -75z m343 -112 c-29 -2 -77 -2 -105 0 -29
2 -6 3 52 3 58 0 81 -1 53 -3z m1655 0 c-32 -2 -86 -2 -120 0 -35 2 -9 3 57 3
66 0 94 -1 63 -3z m-1613 -23 c4 -6 -30 -10 -94 -10 -61 0 -101 4 -101 10 0 6
38 10 94 10 53 0 98 -4 101 -10z m1660 0 c4 -6 -35 -10 -109 -10 -71 0 -116 4
-116 10 0 6 43 10 109 10 63 0 112 -4 116 -10z m-1655 -30 c0 -6 -40 -10 -100
-10 -60 0 -100 4 -100 10 0 6 40 10 100 10 60 0 100 -4 100 -10z m1660 0 c0
-6 -45 -10 -115 -10 -70 0 -115 4 -115 10 0 6 45 10 115 10 70 0 115 -4 115
-10z m-1660 -30 c0 -6 -40 -10 -100 -10 -60 0 -100 4 -100 10 0 6 40 10 100
10 60 0 100 -4 100 -10z m1660 0 c0 -6 -45 -10 -115 -10 -70 0 -115 4 -115 10
0 6 45 10 115 10 70 0 115 -4 115 -10z m-1280 -2740 c0 -80 -3 -100 -14 -100
-24 0 -26 13 -19 109 4 67 10 91 19 91 11 0 14 -23 14 -100z m40 0 c0 -82 -3
-100 -15 -100 -12 0 -15 18 -15 100 0 82 3 100 15 100 12 0 15 -18 15 -100z
m45 -1 c0 -81 -2 -94 -17 -97 -16 -3 -18 6 -18 91 0 51 3 97 7 101 20 20 28
-7 28 -95z m45 1 c0 -82 -3 -100 -15 -100 -12 0 -15 18 -15 100 0 82 3 100 15
100 12 0 15 -18 15 -100z m340 11 c0 -49 -3 -103 -6 -120 l-6 -31 -153 0 -152
0 -7 31 c-3 17 -6 71 -6 120 l0 89 165 0 165 0 0 -89z m44 71 c-1 -7 -2 -50
-2 -97 -2 -68 -5 -85 -17 -85 -12 0 -15 17 -15 93 0 52 3 97 7 101 10 9 28 1
27 -12z m44 -86 c2 -89 1 -97 -15 -94 -15 3 -19 15 -21 68 -4 80 5 133 21 127
8 -2 13 -37 15 -101z m42 4 c0 -82 -3 -100 -15 -100 -12 0 -15 18 -15 100 0
82 3 100 15 100 12 0 15 -18 15 -100z m298 -17 l3 -113 -121 0 c-114 0 -120 1
-120 20 0 17 -5 19 -25 14 l-25 -6 0 94 c0 52 2 97 6 100 3 3 67 5 142 4 l137
-1 3 -112z m2 -138 c0 -12 -20 -15 -120 -15 -100 0 -120 3 -120 15 0 13 20 15
120 15 100 0 120 -2 120 -15z m-442 -12 c-3 -16 -20 -18 -156 -21 -147 -2
-152 -2 -152 18 0 19 6 20 156 20 143 0 155 -1 152 -17z m440 -35 c3 -16 -8
-18 -117 -18 -94 0 -121 3 -121 13 0 25 14 28 124 25 96 -3 111 -5 114 -20z
m-438 -13 c0 -13 -24 -15 -155 -15 -131 0 -155 2 -155 15 0 13 24 15 155 15
131 0 155 -2 155 -15z m440 -30 c0 -12 -20 -15 -120 -15 -100 0 -120 3 -120
15 0 13 20 15 120 15 100 0 120 -2 120 -15z m-440 -10 c0 -13 -24 -15 -155
-15 -131 0 -155 2 -155 15 0 13 24 15 155 15 131 0 155 -2 155 -15z m440 -30
c0 -12 -20 -15 -120 -15 -100 0 -120 3 -120 15 0 13 20 15 120 15 100 0 120
-2 120 -15z m-1322 -817 c27 -27 3 -88 -34 -88 -20 0 -17 20 4 21 13 0 12 2
-5 9 -15 6 -23 18 -23 34 0 33 35 47 58 24z m-48 -328 c0 -22 5 -40 10 -40 6
0 10 -4 10 -10 0 -5 -13 -10 -30 -10 -16 0 -30 5 -30 10 0 6 5 10 10 10 6 0
10 14 10 30 0 17 -4 30 -10 30 -5 0 -10 5 -10 10 0 6 9 10 20 10 17 0 20 -7
20 -40z m99 26 c31 -37 -9 -103 -46 -80 -37 23 -24 94 17 94 10 0 23 -6 29
-14z"/>
<path d="M5467 5573 c-4 -3 -7 -38 -7 -76 0 -60 2 -68 15 -57 9 8 13 21 9 37
-5 20 -1 26 25 36 17 6 31 17 31 24 0 7 4 13 10 13 5 0 7 -13 4 -30 -5 -23 -3
-30 10 -30 12 0 16 10 16 45 l0 45 -53 0 c-30 0 -57 -3 -60 -7z"/>
<path d="M7110 5498 c0 -51 3 -68 10 -58 5 8 7 23 4 33 -4 12 4 22 25 35 17 9
31 23 31 30 0 6 4 12 8 12 17 0 21 -13 9 -32 -9 -16 -9 -22 1 -25 19 -7 14
-23 -8 -23 -15 0 -20 -7 -20 -29 0 -35 -20 -53 -21 -19 0 22 -1 22 -12 4 -7
-11 -23 -30 -36 -43 l-24 -23 60 0 c84 0 93 12 93 123 l0 87 -60 0 -60 0 0
-72z"/>
<path d="M5386 5528 c-9 -12 -16 -31 -16 -41 0 -15 4 -16 23 -7 l22 11 -22
-17 c-28 -20 -32 -66 -5 -58 15 5 14 3 -2 -10 -11 -9 -17 -19 -13 -22 10 -11
57 25 58 44 2 28 7 56 14 78 6 19 4 21 -22 16 -25 -5 -27 -4 -14 11 8 10 9 17
3 17 -6 0 -18 -10 -26 -22z"/>
<path d="M7026 5528 c-9 -12 -16 -31 -16 -41 0 -15 3 -16 23 -6 l22 11 -23
-22 c-24 -23 -26 -57 -2 -52 11 3 11 0 0 -13 -15 -19 -9 -28 13 -19 17 6 40
71 31 85 -2 4 0 10 6 14 5 3 10 14 10 24 0 14 -6 17 -27 15 -16 -2 -22 -1 -15
2 6 3 12 10 12 15 0 16 -19 9 -34 -13z"/>
<path d="M5530 5443 c0 -17 -4 -35 -10 -38 -6 -4 -10 6 -10 22 -1 26 -1 26
-12 8 -6 -11 -22 -32 -36 -47 l-26 -28 60 0 c33 0 65 5 72 12 7 7 12 32 12 58
0 41 -2 45 -25 45 -21 0 -25 -5 -25 -32z"/>
<path d="M5510 1336 c0 -9 7 -16 16 -16 17 0 14 22 -4 28 -7 2 -12 -3 -12 -12z"/>
<path d="M5554 1036 c-8 -22 3 -49 19 -43 6 2 12 14 12 27 0 27 -22 39 -31 16z"/>
<path d="M1550 7000 c0 -5 5 -10 10 -10 6 0 10 -9 10 -20 0 -11 -4 -20 -10
-20 -5 0 -10 -4 -10 -10 0 -5 14 -10 30 -10 17 0 30 5 30 10 0 6 -4 10 -10 10
-5 0 -10 14 -10 30 0 23 -4 30 -20 30 -11 0 -20 -4 -20 -10z"/>
<path d="M1621 6997 c-15 -15 -14 -42 2 -55 16 -13 117 -15 117 -2 0 6 -4 10
-10 10 -5 0 -10 13 -10 29 0 28 -2 29 -44 29 -24 0 -49 -5 -55 -11z m39 -27
c0 -11 -7 -20 -15 -20 -8 0 -15 9 -15 20 0 11 7 20 15 20 8 0 15 -9 15 -20z
m40 0 c0 -11 -4 -20 -10 -20 -5 0 -10 9 -10 20 0 11 5 20 10 20 6 0 10 -9 10
-20z"/>
<path d="M1780 6992 c0 -11 10 -24 23 -30 l22 -11 -22 0 c-13 -1 -23 -6 -23
-12 0 -6 12 -9 27 -7 36 4 43 35 11 47 -16 7 -18 10 -6 10 31 2 30 21 -1 21
-23 0 -31 -5 -31 -18z"/>
<path d="M1940 7000 c0 -5 5 -10 10 -10 6 0 10 -9 10 -20 0 -11 -4 -20 -10
-20 -5 0 -10 -5 -10 -10 0 -6 24 -9 56 -8 41 2 60 8 68 21 15 24 -4 52 -35 52
-20 0 -25 -6 -27 -33 -4 -39 -22 -33 -22 9 0 22 -5 29 -20 29 -11 0 -20 -4
-20 -10z m110 -30 c0 -11 -7 -20 -15 -20 -8 0 -15 9 -15 20 0 11 7 20 15 20 8
0 15 -9 15 -20z"/>
<path d="M2070 7000 c0 -5 5 -10 10 -10 6 0 10 -9 10 -20 0 -11 -4 -20 -10
-20 -5 0 -10 -4 -10 -10 0 -5 14 -10 32 -10 25 0 29 3 20 12 -7 7 -12 25 -12
40 0 21 -5 28 -20 28 -11 0 -20 -4 -20 -10z"/>
<path d="M2150 7000 c0 -5 7 -10 15 -10 12 0 13 -4 5 -19 -12 -24 -13 -41 -1
-41 5 0 15 15 22 33 7 17 14 35 17 40 2 4 -10 7 -27 7 -17 0 -31 -4 -31 -10z"/>
<path d="M1735 6970 c-3 -5 3 -10 14 -10 12 0 21 5 21 10 0 6 -6 10 -14 10 -8
0 -18 -4 -21 -10z"/>
<path d="M1870 6970 c0 -5 9 -10 21 -10 11 0 17 5 14 10 -3 6 -13 10 -21 10
-8 0 -14 -4 -14 -10z"/>
<path d="M2120 6970 c0 -5 9 -10 21 -10 11 0 17 5 14 10 -3 6 -13 10 -21 10
-8 0 -14 -4 -14 -10z"/>
<path d="M660 6849 c0 -48 3 -68 11 -63 6 3 8 15 6 26 -4 12 3 27 16 39 12 11
29 27 38 35 13 11 19 12 24 4 4 -7 1 -16 -6 -21 -12 -8 -11 -12 4 -23 24 -18
21 -26 -9 -26 -22 0 -25 -3 -20 -23 3 -14 -1 -31 -10 -43 -15 -18 -15 -18 -11
9 5 31 -9 37 -18 7 -3 -11 -17 -28 -31 -39 -13 -10 -24 -22 -24 -25 0 -13 102
-5 125 10 24 15 25 21 25 110 l0 94 -60 0 -60 0 0 -71z"/>
<path d="M592 6891 c-6 -4 -15 -21 -18 -39 -6 -28 -4 -32 12 -26 18 5 18 5 2
-6 -19 -11 -26 -66 -8 -55 6 3 10 1 10 -4 0 -6 -4 -11 -10 -11 -5 0 -10 -4
-10 -10 0 -19 30 -10 45 14 20 29 33 137 15 119 -7 -6 -19 -9 -27 -6 -12 5
-12 7 -2 14 8 4 11 10 8 13 -2 3 -10 2 -17 -3z"/>
<path d="M1470 6705 c0 -13 31 -15 220 -15 189 0 220 2 220 15 0 13 -31 15
-220 15 -189 0 -220 -2 -220 -15z"/>
<path d="M2677 6713 c-31 -3 -47 -8 -44 -16 4 -12 110 -16 460 -17 l137 0 0
-695 0 -695 468 -2 c257 -2 468 -3 468 -3 1 0 5 39 9 88 6 76 5 87 -9 87 -13
0 -16 -12 -16 -70 l0 -70 -210 0 -210 0 0 130 0 130 220 0 220 0 0 175 c0 149
-2 175 -15 175 -13 0 -15 -24 -15 -160 l0 -160 -217 -2 -218 -3 -3 -142 -3
-143 -224 0 -225 0 0 695 0 695 -92 0 c-51 0 -169 2 -263 4 -93 2 -192 2 -218
-1z"/>
<path d="M1090 6350 l0 -140 435 0 435 0 0 140 0 140 -435 0 -435 0 0 -140z
m480 95 c36 -19 50 -43 50 -89 0 -49 -34 -86 -87 -93 -37 -5 -45 -2 -73 25
-48 49 -40 125 18 156 35 19 56 20 92 1z"/>
<path d="M1512 6394 c-33 -23 -30 -72 4 -80 17 -4 31 -1 41 9 20 20 11 44 -19
50 l-23 4 23 8 c24 8 30 25 9 25 -7 0 -23 -7 -35 -16z m33 -54 c-3 -5 -13 -10
-21 -10 -8 0 -14 5 -14 10 0 6 9 10 21 10 11 0 17 -4 14 -10z"/>
<path d="M2090 6120 l0 -370 435 0 435 0 0 370 0 370 -435 0 -435 0 0 -370z
m497 76 c23 -20 28 -32 28 -71 0 -60 -35 -95 -95 -95 -60 0 -95 35 -95 95 0
60 35 95 95 95 27 0 48 -8 67 -24z"/>
<path d="M2490 6155 c0 -18 7 -26 25 -31 14 -3 22 -11 19 -16 -4 -5 -15 -8
-25 -5 -12 3 -19 0 -19 -9 0 -17 41 -19 58 -2 19 19 14 38 -15 50 l-28 12 28
4 c39 5 33 22 -8 22 -31 0 -35 -3 -35 -25z"/>
<path d="M764 6290 c0 -13 4 -16 10 -10 7 7 7 13 0 20 -6 6 -10 3 -10 -10z"/>
<path d="M764 6200 c0 -13 4 -16 10 -10 7 7 7 13 0 20 -6 6 -10 3 -10 -10z"/>
<path d="M683 6163 c15 -2 39 -2 55 0 15 2 2 4 -28 4 -30 0 -43 -2 -27 -4z"/>
<path d="M764 6120 c0 -13 4 -16 10 -10 7 7 7 13 0 20 -6 6 -10 3 -10 -10z"/>
<path d="M3390 6110 c0 -5 5 -10 10 -10 6 0 10 -9 10 -20 0 -11 -4 -20 -10
-20 -5 0 -10 -5 -10 -10 0 -6 24 -9 58 -8 l57 3 0 35 c0 31 -3 35 -25 35 -21
0 -26 -5 -28 -33 -4 -39 -22 -33 -22 9 0 22 -5 29 -20 29 -11 0 -20 -4 -20
-10z m100 -30 c0 -11 -4 -20 -10 -20 -5 0 -10 9 -10 20 0 11 5 20 10 20 6 0
10 -9 10 -20z"/>
<path d="M3520 6110 c0 -5 10 -10 22 -10 l21 0 -21 -23 c-29 -31 -28 -37 8
-37 17 0 30 5 30 10 0 6 -8 10 -17 10 -14 0 -15 2 -5 9 7 4 25 6 39 3 18 -3
24 -1 19 7 -4 6 -13 11 -21 11 -7 0 -15 7 -19 15 -6 17 -56 21 -56 5z"/>
<path d="M3610 6110 c0 -5 5 -10 10 -10 6 0 10 -9 10 -20 0 -11 -4 -20 -10
-20 -5 0 -10 -4 -10 -10 0 -5 14 -10 30 -10 17 0 30 5 30 10 0 6 -4 10 -10 10
-5 0 -10 14 -10 30 0 23 -4 30 -20 30 -11 0 -20 -4 -20 -10z"/>
<path d="M3770 6110 c0 -5 5 -10 10 -10 6 0 10 -9 10 -20 0 -11 -4 -20 -10
-20 -5 0 -10 -4 -10 -10 0 -5 14 -10 30 -10 17 0 30 5 30 10 0 6 -4 10 -10 10
-5 0 -10 14 -10 30 0 23 -4 30 -20 30 -11 0 -20 -4 -20 -10z"/>
<path d="M3842 6108 c-16 -16 -15 -43 1 -56 16 -13 117 -15 117 -2 0 6 -8 10
-17 10 -14 0 -15 2 -5 9 7 4 24 6 38 3 15 -3 24 0 24 8 0 7 -8 10 -19 7 -13
-3 -21 1 -24 14 -5 20 -47 27 -47 9 0 -5 7 -10 17 -10 14 0 14 -2 -3 -21 l-19
-21 -5 28 c-6 32 -36 44 -58 22z m38 -28 c0 -11 -7 -20 -15 -20 -8 0 -15 9
-15 20 0 11 7 20 15 20 8 0 15 -9 15 -20z"/>
<path d="M4010 6111 c0 -6 8 -11 18 -11 14 0 15 -2 2 -10 -13 -9 -13 -11 0
-20 12 -8 11 -10 -7 -10 -13 0 -23 -5 -23 -11 0 -6 12 -9 28 -7 24 3 27 7 27
38 0 29 -4 36 -22 38 -13 2 -23 -1 -23 -7z"/>
<path d="M1090 5870 l0 -220 435 0 435 0 0 220 0 220 -435 0 -435 0 0 -220z
m503 52 c38 -40 37 -93 -2 -133 -39 -38 -87 -39 -130 -3 -67 56 -25 164 64
164 32 0 47 -6 68 -28z"/>
<path d="M1490 5885 c0 -18 7 -26 25 -31 14 -3 22 -11 19 -16 -4 -5 -15 -8
-25 -5 -12 3 -19 0 -19 -9 0 -17 41 -19 58 -2 19 19 14 38 -15 50 l-28 12 28
4 c39 5 33 22 -8 22 -31 0 -35 -3 -35 -25z"/>
<path d="M3705 6080 c-3 -5 3 -10 14 -10 12 0 21 5 21 10 0 6 -6 10 -14 10 -8
0 -18 -4 -21 -10z"/>
<path d="M683 6073 c15 -2 39 -2 55 0 15 2 2 4 -28 4 -30 0 -43 -2 -27 -4z"/>
<path d="M764 6030 c0 -13 4 -16 10 -10 7 7 7 13 0 20 -6 6 -10 3 -10 -10z"/>
<path d="M683 5983 c15 -2 39 -2 55 0 15 2 2 4 -28 4 -30 0 -43 -2 -27 -4z"/>
<path d="M644 5959 c-3 -6 -2 -15 3 -20 5 -5 9 -1 9 11 0 23 -2 24 -12 9z"/>
<path d="M683 5673 c15 -2 39 -2 55 0 15 2 2 4 -28 4 -30 0 -43 -2 -27 -4z"/>
<path d="M644 5639 c-3 -6 -2 -15 3 -20 5 -5 9 -1 9 11 0 23 -2 24 -12 9z"/>
<path d="M764 5630 c0 -13 4 -16 10 -10 7 7 7 13 0 20 -6 6 -10 3 -10 -10z"/>
<path d="M2090 5270 l0 -370 435 0 435 0 0 370 0 370 -435 0 -435 0 0 -370z
m496 66 c24 -24 34 -43 34 -65 0 -43 -45 -90 -92 -98 -33 -5 -41 -2 -73 30
-47 47 -48 86 -1 133 25 25 43 34 66 34 23 0 42 -9 66 -34z"/>
<path d="M2490 5296 c0 -16 7 -27 20 -31 11 -3 20 -11 20 -16 0 -5 -9 -9 -20
-9 -11 0 -20 -4 -20 -10 0 -11 20 -13 44 -4 23 9 20 45 -4 51 -11 3 -20 9 -20
14 0 5 9 9 20 9 11 0 20 5 20 10 0 6 -13 10 -30 10 -25 0 -30 -4 -30 -24z"/>
<path d="M683 5583 c15 -2 39 -2 55 0 15 2 2 4 -28 4 -30 0 -43 -2 -27 -4z"/>
<path d="M3920 5450 l0 -90 60 0 60 0 0 90 0 90 -60 0 -60 0 0 -90z m108 -12
l3 -68 -51 0 -50 0 0 71 0 70 48 -3 47 -3 3 -67z"/>
<path d="M3963 5471 c-15 -23 -6 -91 12 -91 17 0 29 68 16 84 -6 7 -8 16 -4
19 3 4 2 7 -3 7 -5 0 -15 -9 -21 -19z"/>
<path d="M1090 5215 l0 -315 435 0 435 0 0 315 0 315 -435 0 -435 0 0 -315z
m501 66 c73 -73 0 -193 -97 -161 -43 15 -64 45 -64 93 0 53 43 97 95 97 27 0
44 -8 66 -29z"/>
<path d="M1490 5245 c0 -18 7 -26 25 -31 14 -3 22 -11 19 -16 -4 -5 -15 -8
-25 -5 -12 3 -19 0 -19 -9 0 -17 41 -19 58 -2 19 19 14 38 -15 50 l-28 12 28
4 c39 5 33 22 -8 22 -31 0 -35 -3 -35 -25z"/>
<path d="M4703 5515 c-8 -22 0 -27 28 -16 18 7 20 10 6 10 -10 1 -15 6 -12 11
3 6 1 10 -5 10 -6 0 -13 -7 -17 -15z"/>
<path d="M700 5500 c0 -5 5 -10 10 -10 6 0 10 5 10 10 0 6 -4 10 -10 10 -5 0
-10 -4 -10 -10z"/>
<path d="M644 5469 c-3 -6 -2 -15 3 -20 5 -5 9 -1 9 11 0 23 -2 24 -12 9z"/>
<path d="M764 5460 c0 -13 4 -16 10 -10 7 7 7 13 0 20 -6 6 -10 3 -10 -10z"/>
<path d="M4715 5450 c-16 -7 -17 -9 -3 -9 9 -1 18 -7 21 -13 3 -10 7 -10 17
-1 7 6 9 16 6 22 -8 13 -14 13 -41 1z"/>
<path d="M683 5413 c15 -2 39 -2 55 0 15 2 2 4 -28 4 -30 0 -43 -2 -27 -4z"/>
<path d="M4933 5155 c0 -22 2 -30 4 -17 2 12 2 30 0 40 -3 9 -5 -1 -4 -23z"/>
<path d="M4730 5150 c0 -16 5 -30 10 -30 6 0 10 14 10 30 0 17 -4 30 -10 30
-5 0 -10 -13 -10 -30z"/>
<path d="M4802 5150 c0 -19 2 -27 5 -17 2 9 2 25 0 35 -3 9 -5 1 -5 -18z"/>
<path d="M4990 5150 c0 -16 5 -30 10 -30 6 0 10 14 10 30 0 17 -4 30 -10 30
-5 0 -10 -13 -10 -30z"/>
<path d="M5120 5150 c0 -16 5 -30 10 -30 6 0 10 14 10 30 0 17 -4 30 -10 30
-5 0 -10 -13 -10 -30z"/>
<path d="M5193 5145 c0 -22 2 -30 4 -17 2 12 2 30 0 40 -3 9 -5 -1 -4 -23z"/>
<path d="M4704 5159 c-3 -6 -2 -15 3 -20 5 -5 9 -1 9 11 0 23 -2 24 -12 9z"/>
<path d="M5094 5159 c-3 -6 -2 -15 3 -20 5 -5 9 -1 9 11 0 23 -2 24 -12 9z"/>
<path d="M4730 5061 c0 -17 5 -33 10 -36 6 -4 10 8 10 29 0 20 -4 36 -10 36
-5 0 -10 -13 -10 -29z"/>
<path d="M4803 5055 c0 -22 2 -30 4 -17 2 12 2 30 0 40 -3 9 -5 -1 -4 -23z"/>
<path d="M4933 5055 c0 -22 2 -30 4 -17 2 12 2 30 0 40 -3 9 -5 -1 -4 -23z"/>
<path d="M4990 5061 c0 -16 6 -33 13 -39 10 -8 12 -2 9 29 -5 45 -22 53 -22
10z"/>
<path d="M5120 5061 c0 -17 5 -33 10 -36 6 -4 10 8 10 29 0 20 -4 36 -10 36
-5 0 -10 -13 -10 -29z"/>
<path d="M5193 5055 c0 -22 2 -30 4 -17 2 12 2 30 0 40 -3 9 -5 -1 -4 -23z"/>
<path d="M4730 4971 c0 -17 5 -33 10 -36 6 -4 10 8 10 29 0 20 -4 36 -10 36
-5 0 -10 -13 -10 -29z"/>
<path d="M4803 4965 c0 -22 2 -30 4 -17 2 12 2 30 0 40 -3 9 -5 -1 -4 -23z"/>
<path d="M4933 4965 c0 -22 2 -30 4 -17 2 12 2 30 0 40 -3 9 -5 -1 -4 -23z"/>
<path d="M4990 4971 c0 -17 5 -33 10 -36 6 -4 10 8 10 29 0 20 -4 36 -10 36
-5 0 -10 -13 -10 -29z"/>
<path d="M5120 4971 c0 -17 5 -33 10 -36 6 -4 10 8 10 29 0 20 -4 36 -10 36
-5 0 -10 -13 -10 -29z"/>
<path d="M5193 4965 c0 -22 2 -30 4 -17 2 12 2 30 0 40 -3 9 -5 -1 -4 -23z"/>
<path d="M4737 4903 c-11 -10 -8 -63 3 -63 6 0 10 16 10 35 0 36 -2 40 -13 28z"/>
<path d="M4803 4875 c0 -22 2 -30 4 -17 2 12 2 30 0 40 -3 9 -5 -1 -4 -23z"/>
<path d="M4933 4875 c0 -22 2 -30 4 -17 2 12 2 30 0 40 -3 9 -5 -1 -4 -23z"/>
<path d="M4997 4903 c-11 -10 -8 -63 3 -63 6 0 10 16 10 35 0 36 -2 40 -13 28z"/>
<path d="M5127 4903 c-11 -10 -8 -63 3 -63 6 0 10 16 10 35 0 36 -2 40 -13 28z"/>
<path d="M5193 4875 c0 -22 2 -30 4 -17 2 12 2 30 0 40 -3 9 -5 -1 -4 -23z"/>
<path d="M5094 4879 c-3 -6 -2 -15 3 -20 5 -5 9 -1 9 11 0 23 -2 24 -12 9z"/>
<path d="M6990 4820 c0 -56 3 -70 15 -70 12 0 15 14 15 70 0 56 -3 70 -15 70
-12 0 -15 -14 -15 -70z"/>
<path d="M5002 4818 c-14 -14 -16 -68 -3 -68 5 0 11 18 13 40 2 22 3 40 3 40
-1 0 -6 -5 -13 -12z"/>
<path d="M4803 4785 c0 -22 2 -30 4 -17 2 12 2 30 0 40 -3 9 -5 -1 -4 -23z"/>
<path d="M4933 4785 c0 -22 2 -30 4 -17 2 12 2 30 0 40 -3 9 -5 -1 -4 -23z"/>
<path d="M5193 4785 c0 -22 2 -30 4 -17 2 12 2 30 0 40 -3 9 -5 -1 -4 -23z"/>
<path d="M4730 4780 c0 -16 5 -30 10 -30 6 0 10 14 10 30 0 17 -4 30 -10 30
-5 0 -10 -13 -10 -30z"/>
<path d="M5120 4780 c0 -16 5 -30 10 -30 6 0 10 14 10 30 0 17 -4 30 -10 30
-5 0 -10 -13 -10 -30z"/>
<path d="M4704 4789 c-3 -6 -2 -15 3 -20 5 -5 9 -1 9 11 0 23 -2 24 -12 9z"/>
<path d="M5094 4789 c-3 -6 -2 -15 3 -20 5 -5 9 -1 9 11 0 23 -2 24 -12 9z"/>
<path d="M2090 4415 l0 -365 435 0 435 0 0 365 0 365 -435 0 -435 0 0 -365z
m498 82 c12 -13 25 -40 29 -60 5 -32 1 -41 -30 -72 -22 -22 -45 -35 -61 -35
-85 0 -135 90 -85 154 40 51 103 57 147 13z"/>
<path d="M2490 4455 c0 -18 7 -26 25 -31 14 -3 22 -11 19 -16 -4 -5 -15 -8
-25 -5 -12 3 -19 0 -19 -9 0 -17 41 -19 58 -2 19 19 14 38 -15 50 l-28 12 28
4 c39 5 33 22 -8 22 -31 0 -35 -3 -35 -25z"/>
<path d="M3100 4455 l0 -325 433 2 432 3 3 323 2 322 -435 0 -435 0 0 -325z
m505 63 c35 -42 34 -91 -4 -129 -39 -38 -87 -39 -130 -3 -56 47 -37 144 32
162 46 12 74 4 102 -30z"/>
<path d="M3500 4485 c0 -18 7 -26 25 -31 14 -3 22 -11 19 -16 -4 -5 -15 -8
-25 -5 -12 3 -19 0 -19 -9 0 -17 41 -19 58 -2 19 19 14 38 -15 50 l-28 12 28
4 c39 5 33 22 -8 22 -31 0 -35 -3 -35 -25z"/>
<path d="M4730 4691 c0 -17 5 -33 10 -36 6 -4 10 8 10 29 0 20 -4 36 -10 36
-5 0 -10 -13 -10 -29z"/>
<path d="M4803 4685 c0 -22 2 -30 4 -17 2 12 2 30 0 40 -3 9 -5 -1 -4 -23z"/>
<path d="M4933 4685 c0 -22 2 -30 4 -17 2 12 2 30 0 40 -3 9 -5 -1 -4 -23z"/>
<path d="M4990 4690 c0 -16 5 -30 10 -30 6 0 10 14 10 30 0 17 -4 30 -10 30
-5 0 -10 -13 -10 -30z"/>
<path d="M5120 4690 c0 -16 5 -30 10 -30 6 0 10 14 10 30 0 17 -4 30 -10 30
-5 0 -10 -13 -10 -30z"/>
<path d="M5193 4685 c0 -22 2 -30 4 -17 2 12 2 30 0 40 -3 9 -5 -1 -4 -23z"/>
<path d="M4704 4699 c-3 -6 -2 -15 3 -20 5 -5 9 -1 9 11 0 23 -2 24 -12 9z"/>
<path d="M5094 4699 c-3 -6 -2 -15 3 -20 5 -5 9 -1 9 11 0 23 -2 24 -12 9z"/>
<path d="M4730 4601 c0 -17 5 -33 10 -36 6 -4 10 8 10 29 0 20 -4 36 -10 36
-5 0 -10 -13 -10 -29z"/>
<path d="M4803 4595 c0 -22 2 -30 4 -17 2 12 2 30 0 40 -3 9 -5 -1 -4 -23z"/>
<path d="M4933 4595 c0 -22 2 -30 4 -17 2 12 2 30 0 40 -3 9 -5 -1 -4 -23z"/>
<path d="M4990 4601 c0 -17 5 -33 10 -36 6 -4 10 8 10 29 0 20 -4 36 -10 36
-5 0 -10 -13 -10 -29z"/>
<path d="M5120 4601 c0 -17 5 -33 10 -36 6 -4 10 8 10 29 0 20 -4 36 -10 36
-5 0 -10 -13 -10 -29z"/>
<path d="M5193 4595 c0 -22 2 -30 4 -17 2 12 2 30 0 40 -3 9 -5 -1 -4 -23z"/>
<path d="M550 4600 c0 -5 5 -10 10 -10 6 0 10 -9 10 -20 0 -11 -4 -20 -10 -20
-5 0 -10 -4 -10 -9 0 -5 41 -9 90 -9 50 0 90 4 90 9 0 5 -4 9 -10 9 -5 0 -10
13 -10 29 0 28 -2 29 -44 29 -46 0 -60 -9 -69 -43 -3 -13 -5 -9 -6 13 -1 25
-5 32 -21 32 -11 0 -20 -4 -20 -10z m100 -30 c0 -11 -7 -20 -15 -20 -8 0 -15
9 -15 20 0 11 7 20 15 20 8 0 15 -9 15 -20z m40 0 c0 -11 -4 -20 -10 -20 -5 0
-10 9 -10 20 0 11 5 20 10 20 6 0 10 -9 10 -20z"/>
<path d="M781 4583 c-14 -29 -6 -41 28 -45 27 -3 36 10 20 32 -8 11 -12 12
-16 3 -2 -7 -9 -13 -15 -13 -6 0 -3 11 6 25 13 20 14 25 3 25 -8 0 -19 -12
-26 -27z"/>
<path d="M960 4600 c0 -5 5 -10 10 -10 6 0 10 -9 10 -20 0 -11 -4 -20 -10 -20
-5 0 -10 -5 -10 -10 0 -6 24 -9 56 -8 41 2 60 8 68 21 15 24 -4 52 -35 52 -19
0 -25 -6 -27 -27 -4 -38 -22 -36 -22 2 0 23 -4 30 -20 30 -11 0 -20 -4 -20
-10z m110 -30 c0 -11 -7 -20 -15 -20 -8 0 -15 9 -15 20 0 11 7 20 15 20 8 0
15 -9 15 -20z"/>
<path d="M1090 4600 c0 -5 5 -10 10 -10 6 0 10 -9 10 -20 0 -11 -4 -20 -10
-20 -5 0 -10 -4 -10 -10 0 -5 14 -10 32 -10 25 0 29 3 20 12 -7 7 -12 25 -12
40 0 21 -5 28 -20 28 -11 0 -20 -4 -20 -10z"/>
<path d="M1180 4601 c0 -6 10 -11 23 -11 18 0 19 -2 7 -10 -13 -9 -13 -11 0
-20 12 -8 11 -10 -7 -10 -13 0 -23 -5 -23 -11 0 -6 12 -9 28 -7 24 3 27 7 27
38 0 31 -3 35 -27 38 -16 2 -28 -1 -28 -7z"/>
<path d="M725 4570 c-3 -5 3 -10 14 -10 12 0 21 5 21 10 0 6 -6 10 -14 10 -8
0 -18 -4 -21 -10z"/>
<path d="M1140 4570 c0 -5 9 -10 21 -10 11 0 17 5 14 10 -3 6 -13 10 -21 10
-8 0 -14 -4 -14 -10z"/>
<path d="M4737 4533 c-11 -10 -8 -63 3 -63 6 0 10 16 10 35 0 36 -2 40 -13 28z"/>
<path d="M4803 4505 c0 -22 2 -30 4 -17 2 12 2 30 0 40 -3 9 -5 -1 -4 -23z"/>
<path d="M4933 4505 c0 -22 2 -30 4 -17 2 12 2 30 0 40 -3 9 -5 -1 -4 -23z"/>
<path d="M4997 4533 c-11 -10 -8 -51 3 -58 6 -4 10 8 10 29 0 37 -2 41 -13 29z"/>
<path d="M5127 4533 c-11 -10 -8 -51 3 -58 6 -4 10 8 10 29 0 37 -2 41 -13 29z"/>
<path d="M5193 4505 c0 -22 2 -30 4 -17 2 12 2 30 0 40 -3 9 -5 -1 -4 -23z"/>
<path d="M5002 4448 c-14 -14 -16 -68 -3 -68 5 0 11 18 13 40 2 22 3 40 3 40
-1 0 -6 -5 -13 -12z"/>
<path d="M4803 4415 c0 -22 2 -30 4 -17 2 12 2 30 0 40 -3 9 -5 -1 -4 -23z"/>
<path d="M4933 4415 c0 -22 2 -30 4 -17 2 12 2 30 0 40 -3 9 -5 -1 -4 -23z"/>
<path d="M5127 4443 c-11 -10 -8 -63 3 -63 6 0 10 16 10 35 0 36 -2 40 -13 28z"/>
<path d="M5193 4415 c0 -22 2 -30 4 -17 2 12 2 30 0 40 -3 9 -5 -1 -4 -23z"/>
<path d="M4730 4410 c0 -16 5 -30 10 -30 6 0 10 14 10 30 0 17 -4 30 -10 30
-5 0 -10 -13 -10 -30z"/>
<path d="M4704 4419 c-3 -6 -2 -15 3 -20 5 -5 9 -1 9 11 0 23 -2 24 -12 9z"/>
<path d="M5024 4410 c0 -13 4 -16 10 -10 7 7 7 13 0 20 -6 6 -10 3 -10 -10z"/>
<path d="M5094 4419 c-3 -6 -2 -15 3 -20 5 -5 9 -1 9 11 0 23 -2 24 -12 9z"/>
<path d="M4933 4325 c0 -22 2 -30 4 -17 2 12 2 30 0 40 -3 9 -5 -1 -4 -23z"/>
<path d="M5193 4325 c0 -22 2 -30 4 -17 2 12 2 30 0 40 -3 9 -5 -1 -4 -23z"/>
<path d="M4730 4320 c0 -16 5 -30 10 -30 6 0 10 14 10 30 0 17 -4 30 -10 30
-5 0 -10 -13 -10 -30z"/>
<path d="M4803 4315 c0 -22 2 -30 4 -17 2 12 2 30 0 40 -3 9 -5 -1 -4 -23z"/>
<path d="M4990 4320 c0 -16 5 -30 10 -30 6 0 10 14 10 30 0 17 -4 30 -10 30
-5 0 -10 -13 -10 -30z"/>
<path d="M5120 4320 c0 -16 5 -30 10 -30 6 0 10 14 10 30 0 17 -4 30 -10 30
-5 0 -10 -13 -10 -30z"/>
<path d="M4704 4329 c-3 -6 -2 -15 3 -20 5 -5 9 -1 9 11 0 23 -2 24 -12 9z"/>
<path d="M5024 4320 c0 -13 4 -16 10 -10 7 7 7 13 0 20 -6 6 -10 3 -10 -10z"/>
<path d="M5094 4329 c-3 -6 -2 -15 3 -20 5 -5 9 -1 9 11 0 23 -2 24 -12 9z"/>
<path d="M1550 4188 c0 -51 3 -68 10 -58 5 8 7 23 4 33 -4 12 4 22 25 35 17 9
31 23 31 30 0 6 4 12 8 12 17 0 21 -13 9 -32 -9 -16 -9 -22 1 -25 19 -7 14
-23 -8 -23 -15 0 -20 -7 -20 -27 0 -16 -5 -35 -10 -43 -7 -12 -10 -8 -10 15
-1 27 -2 28 -13 11 -7 -11 -23 -30 -36 -43 l-24 -23 57 0 c92 0 96 5 96 115
l0 95 -60 0 -60 0 0 -72z"/>
<path d="M1474 4225 c-10 -8 -15 -15 -10 -15 5 0 4 -6 -2 -12 -14 -19 -10 -94
6 -90 17 3 15 -9 -5 -24 -12 -9 -14 -13 -5 -14 24 0 52 20 52 39 0 10 3 21 6
24 4 4 8 25 11 49 2 32 0 39 -8 31 -6 -6 -18 -9 -26 -6 -12 5 -12 7 -2 14 8 4
11 10 8 13 -3 3 -14 -1 -25 -9z"/>
<path d="M4380 4110 l0 -80 85 0 85 0 0 80 0 80 -85 0 -85 0 0 -80z m150 39
c0 -27 -2 -30 -15 -19 -13 11 -20 9 -40 -10 -13 -12 -29 -19 -35 -15 -6 4 -17
1 -25 -5 -13 -11 -15 -6 -15 34 l0 46 65 0 65 0 0 -31z"/>
<path d="M4420 4150 c0 -5 5 -10 10 -10 6 0 10 5 10 10 0 6 -4 10 -10 10 -5 0
-10 -4 -10 -10z"/>
<path d="M4834 4177 c-3 -8 -4 -41 -2 -73 l3 -59 53 -3 c47 -3 52 -5 52 -27 0
-17 -7 -25 -22 -28 -13 -2 6 -4 42 -4 36 0 55 2 43 4 -16 3 -23 11 -23 29 0
23 3 24 55 24 l56 0 -3 73 -3 72 -123 3 c-97 2 -123 0 -128 -11z m236 -62 l0
-65 -110 0 -110 0 0 65 0 65 110 0 110 0 0 -65z"/>
<path d="M12 4140 c0 -14 2 -19 5 -12 2 6 2 18 0 25 -3 6 -5 1 -5 -13z"/>
<path d="M82 4140 c0 -14 2 -19 5 -12 2 6 2 18 0 25 -3 6 -5 1 -5 -13z"/>
<path d="M40 4135 c0 -8 4 -15 10 -15 5 0 7 7 4 15 -4 8 -8 15 -10 15 -2 0 -4
-7 -4 -15z"/>
<path d="M38 4093 c39 -5 53 -30 27 -49 -16 -12 -16 -14 -3 -14 22 0 33 37 18
55 -7 8 -27 14 -44 13 l-31 -1 33 -4z"/>
<path d="M3100 3880 l0 -140 435 0 435 0 0 140 0 140 -435 0 -435 0 0 -140z
m503 72 c59 -56 16 -162 -66 -162 -54 0 -97 41 -97 92 0 51 14 77 53 93 40 17
74 10 110 -23z"/>
<path d="M3510 3931 c0 -6 9 -11 20 -11 11 0 20 -4 20 -8 0 -5 -9 -17 -20 -27
-29 -27 -25 -45 10 -45 17 0 30 5 30 10 0 6 -10 10 -22 10 l-23 0 24 19 c31
24 25 55 -12 59 -15 2 -27 -1 -27 -7z"/>
<path d="M40 4000 c20 -5 39 -5 45 1 5 5 -8 9 -35 8 l-45 -1 35 -8z"/>
<path d="M35 3980 c-3 -5 -2 -10 4 -10 5 0 13 5 16 10 3 6 2 10 -4 10 -5 0
-13 -4 -16 -10z"/>
<path d="M10 3959 c0 -5 19 -9 42 -9 49 0 47 5 -4 13 -21 3 -38 2 -38 -4z"/>
<path d="M12 3920 c0 -14 2 -19 5 -12 2 6 2 18 0 25 -3 6 -5 1 -5 -13z"/>
<path d="M82 3920 c0 -14 2 -19 5 -12 2 6 2 18 0 25 -3 6 -5 1 -5 -13z"/>
<path d="M41 3914 c0 -11 3 -14 6 -6 3 7 2 16 -1 19 -3 4 -6 -2 -5 -13z"/>
<path d="M2090 3715 l0 -215 435 0 435 0 0 215 0 215 -435 0 -435 0 0 -215z
m479 81 c66 -35 67 -131 1 -169 -44 -26 -78 -21 -116 17 -46 46 -46 86 0 132
37 37 70 43 115 20z"/>
<path d="M2490 3735 c0 -18 7 -26 25 -31 14 -3 22 -11 19 -16 -4 -5 -15 -8
-25 -5 -12 3 -19 0 -19 -9 0 -17 41 -19 58 -2 19 19 14 38 -15 50 l-28 12 28
4 c39 5 33 22 -8 22 -31 0 -35 -3 -35 -25z"/>
<path d="M10 3875 c0 -3 14 -11 31 -17 l32 -11 -34 -18 c-19 -10 -31 -18 -28
-19 12 0 81 31 77 35 -9 9 -78 35 -78 30z"/>
<path d="M4743 3845 c0 -22 2 -30 4 -17 2 12 2 30 0 40 -3 9 -5 -1 -4 -23z"/>
<path d="M4800 3844 c0 -21 4 -33 10 -29 6 3 10 19 10 36 0 16 -4 29 -10 29
-5 0 -10 -16 -10 -36z"/>
<path d="M4930 3850 c0 -16 5 -30 10 -30 6 0 10 14 10 30 0 17 -4 30 -10 30
-5 0 -10 -13 -10 -30z"/>
<path d="M5003 3845 c0 -22 2 -30 4 -17 2 12 2 30 0 40 -3 9 -5 -1 -4 -23z"/>
<path d="M5133 3845 c0 -22 2 -30 4 -17 2 12 2 30 0 40 -3 9 -5 -1 -4 -23z"/>
<path d="M5190 3844 c0 -21 4 -33 10 -29 6 3 10 19 10 36 0 16 -4 29 -10 29
-5 0 -10 -16 -10 -36z"/>
<path d="M4704 3859 c-3 -6 -2 -15 3 -20 5 -5 9 -1 9 11 0 23 -2 24 -12 9z"/>
<path d="M5094 3859 c-3 -6 -2 -15 3 -20 5 -5 9 -1 9 11 0 23 -2 24 -12 9z"/>
<path d="M45 3801 l-40 -19 37 -16 c41 -18 63 -21 36 -5 -10 5 -18 15 -18 21
0 6 8 17 18 24 24 18 14 17 -33 -5z m5 -21 c0 -5 -2 -10 -4 -10 -3 0 -8 5 -11
10 -3 6 -1 10 4 10 6 0 11 -4 11 -10z"/>
<path d="M4743 3755 c0 -22 2 -30 4 -17 2 12 2 30 0 40 -3 9 -5 -1 -4 -23z"/>
<path d="M4800 3754 c0 -21 4 -33 10 -29 6 3 10 19 10 36 0 16 -4 29 -10 29
-5 0 -10 -16 -10 -36z"/>
<path d="M4930 3754 c0 -21 4 -33 10 -29 6 3 10 19 10 36 0 16 -4 29 -10 29
-5 0 -10 -16 -10 -36z"/>
<path d="M5003 3755 c0 -22 2 -30 4 -17 2 12 2 30 0 40 -3 9 -5 -1 -4 -23z"/>
<path d="M5133 3755 c0 -22 2 -30 4 -17 2 12 2 30 0 40 -3 9 -5 -1 -4 -23z"/>
<path d="M5190 3755 c0 -22 4 -34 10 -30 6 3 10 17 10 30 0 13 -4 27 -10 30
-6 4 -10 -8 -10 -30z"/>
<path d="M1722 3678 c-2 -86 -2 -87 -29 -91 l-28 -4 28 -2 c25 -1 27 -4 27
-40 0 -36 -3 -40 -27 -44 l-28 -4 27 -2 c27 -1 27 -1 31 -88 l3 -88 2 87 c2
86 2 87 30 91 l27 4 -27 2 c-26 1 -28 4 -28 40 0 36 3 40 28 44 l27 4 -27 2
c-27 1 -27 1 -31 89 l-3 87 -2 -87z"/>
<path d="M5976 3742 c-2 -4 4 -8 14 -8 10 0 16 4 14 8 -3 4 -9 8 -14 8 -5 0
-11 -4 -14 -8z"/>
<path d="M6146 3742 c-2 -4 4 -8 14 -8 10 0 16 4 14 8 -3 4 -9 8 -14 8 -5 0
-11 -4 -14 -8z"/>
<path d="M5943 3680 c0 -30 2 -43 4 -27 2 15 2 39 0 55 -2 15 -4 2 -4 -28z"/>
<path d="M6033 3680 c0 -30 2 -43 4 -27 2 15 2 39 0 55 -2 15 -4 2 -4 -28z"/>
<path d="M6491 3708 c-1 -24 -5 -27 -43 -31 l-43 -4 42 -1 c37 -2 42 -5 46
-29 l4 -28 2 28 c1 25 4 27 40 27 36 0 40 -3 44 -27 l4 -28 2 28 1 27 79 0
c79 0 80 0 84 -27 l4 -28 2 27 c1 25 5 27 49 31 l47 3 -47 2 c-43 2 -47 4 -51
30 l-4 27 -2 -27 -1 -28 -79 0 c-79 0 -80 0 -84 28 l-4 27 -2 -27 c-1 -26 -4
-28 -40 -28 -36 0 -40 3 -44 28 l-4 27 -2 -27z"/>
<path d="M4743 3665 c0 -22 2 -30 4 -17 2 12 2 30 0 40 -3 9 -5 -1 -4 -23z"/>
<path d="M4800 3666 c0 -20 5 -36 10 -36 6 0 10 13 10 29 0 17 -4 33 -10 36
-6 4 -10 -8 -10 -29z"/>
<path d="M5133 3665 c0 -22 2 -30 4 -17 2 12 2 30 0 40 -3 9 -5 -1 -4 -23z"/>
<path d="M5190 3666 c0 -20 5 -36 10 -36 6 0 10 13 10 29 0 17 -4 33 -10 36
-6 4 -10 -8 -10 -29z"/>
<path d="M5850 3680 c0 -5 5 -10 10 -10 6 0 10 5 10 10 0 6 -4 10 -10 10 -5 0
-10 -4 -10 -10z"/>
<path d="M7700 3680 c0 -5 5 -10 10 -10 6 0 10 -9 10 -20 0 -11 -4 -20 -10
-20 -5 0 -10 -4 -10 -10 0 -5 25 -10 55 -10 30 0 55 5 55 10 0 6 -7 10 -15 10
-12 0 -11 4 5 20 26 26 44 27 30 1 -12 -24 -13 -41 -1 -41 5 0 15 15 22 33 7
17 14 35 17 39 2 4 -22 7 -52 7 -31 -1 -56 -5 -56 -10 0 -5 7 -9 17 -9 14 0
14 -2 -2 -20 -25 -28 -35 -25 -35 10 0 23 -4 30 -20 30 -11 0 -20 -4 -20 -10z"/>
<path d="M7900 3680 c0 -5 5 -10 10 -10 6 0 10 -9 10 -20 0 -11 -4 -20 -10
-20 -5 0 -10 -4 -10 -10 0 -5 14 -10 30 -10 17 0 30 5 30 10 0 6 -4 10 -10 10
-5 0 -10 14 -10 30 0 23 -4 30 -20 30 -11 0 -20 -4 -20 -10z"/>
<path d="M10 3650 c0 -28 2 -30 40 -30 38 0 40 2 40 30 0 35 -19 41 -21 8 -1
-17 -2 -19 -6 -5 -2 9 -8 17 -13 17 -5 0 -11 -8 -13 -17 -4 -14 -5 -12 -6 5
-2 33 -21 27 -21 -8z"/>
<path d="M4705 3669 c-4 -6 -5 -12 -2 -15 2 -3 7 2 10 11 7 17 1 20 -8 4z"/>
<path d="M7870 3650 c0 -5 9 -10 21 -10 11 0 17 5 14 10 -3 6 -13 10 -21 10
-8 0 -14 -4 -14 -10z"/>
<path d="M7960 3650 c0 -5 9 -10 21 -10 11 0 17 5 14 10 -3 6 -13 10 -21 10
-8 0 -14 -4 -14 -10z"/>
<path d="M7580 3525 c0 -96 3 -115 15 -115 12 0 15 19 15 115 0 96 -3 115 -15
115 -12 0 -15 -19 -15 -115z"/>
<path d="M3100 3385 l0 -235 435 0 435 0 0 235 0 235 -435 0 -435 0 0 -235z
m492 104 c26 -14 48 -67 41 -102 -8 -39 -57 -77 -100 -77 -48 0 -93 45 -93 93
0 54 41 97 92 97 21 0 48 -5 60 -11z"/>
<path d="M3510 3450 c0 -5 5 -10 10 -10 6 0 10 -13 10 -30 0 -16 -4 -30 -10
-30 -5 0 -10 -4 -10 -10 0 -5 14 -10 30 -10 17 0 30 5 30 10 0 6 -4 10 -10 10
-5 0 -10 18 -10 40 0 33 -3 40 -20 40 -11 0 -20 -4 -20 -10z"/>
<path d="M4892 3600 c10 -16 10 -24 0 -40 -12 -19 -10 -20 80 -20 78 1 90 3
76 14 -16 11 -16 14 -1 28 8 9 12 21 9 27 -9 14 -46 15 -46 1 0 -5 7 -10 17
-10 14 0 14 -2 -2 -20 -10 -11 -27 -20 -38 -20 -20 0 -20 1 -2 14 23 16 14 46
-15 46 -11 0 -20 -4 -20 -10 0 -5 7 -10 15 -10 20 0 19 -6 -5 -30 -26 -26 -40
-18 -40 21 0 22 -5 29 -20 29 -18 0 -19 -2 -8 -20z"/>
<path d="M16 3603 c-3 -3 -6 -15 -6 -25 0 -15 8 -18 43 -17 32 0 37 2 22 9
-18 7 -19 8 -2 15 9 4 17 10 17 14 0 10 -65 13 -74 4z m29 -23 c3 -5 1 -10 -4
-10 -6 0 -11 5 -11 10 0 6 2 10 4 10 3 0 8 -4 11 -10z"/>
<path d="M4743 3575 c0 -22 2 -30 4 -17 2 12 2 30 0 40 -3 9 -5 -1 -4 -23z"/>
<path d="M5133 3575 c0 -22 2 -30 4 -17 2 12 2 30 0 40 -3 9 -5 -1 -4 -23z"/>
<path d="M4800 3570 c0 -16 5 -30 10 -30 6 0 10 14 10 30 0 17 -4 30 -10 30
-5 0 -10 -13 -10 -30z"/>
<path d="M5190 3570 c0 -16 5 -30 10 -30 6 0 10 14 10 30 0 17 -4 30 -10 30
-5 0 -10 -13 -10 -30z"/>
<path d="M4704 3579 c-3 -6 -2 -15 3 -20 5 -5 9 -1 9 11 0 23 -2 24 -12 9z"/>
<path d="M7700 3560 c0 -5 5 -10 10 -10 6 0 10 -9 10 -20 0 -11 -4 -20 -10
-20 -5 0 -10 -4 -10 -10 0 -5 25 -10 55 -10 30 0 55 5 55 10 0 6 -7 10 -15 10
-12 0 -11 4 5 20 26 26 44 27 30 1 -12 -24 -13 -41 -1 -41 5 0 15 15 22 33 7
17 14 35 17 39 2 4 -22 7 -52 7 -31 -1 -56 -5 -56 -10 0 -5 7 -9 17 -9 14 0
14 -2 -2 -20 -25 -28 -35 -25 -35 10 0 23 -4 30 -20 30 -11 0 -20 -4 -20 -10z"/>
<path d="M7925 3550 c-5 -15 -12 -19 -31 -14 -14 4 -24 2 -24 -5 0 -6 6 -11
13 -11 8 0 28 -7 46 -16 36 -18 56 -9 45 19 -7 18 -24 23 -24 7 0 -5 -5 -10
-11 -10 -7 0 -5 10 5 25 14 21 14 25 2 25 -8 0 -18 -9 -21 -20z"/>
<path d="M5976 3542 c-2 -4 4 -8 14 -8 10 0 16 4 14 8 -3 4 -9 8 -14 8 -5 0
-11 -4 -14 -8z"/>
<path d="M14 3526 c-12 -31 0 -51 30 -51 36 0 56 26 37 49 -17 20 -60 21 -67
2z m56 -21 c0 -18 -27 -26 -39 -11 -7 9 -7 16 0 23 14 14 39 6 39 -12z"/>
<path d="M5940 3505 c0 -24 -2 -24 -87 -28 l-88 -3 87 -2 c81 -2 87 -3 91 -24
2 -13 5 1 6 30 0 28 -1 52 -4 52 -3 0 -5 -11 -5 -25z"/>
<path d="M6033 3480 c0 -30 2 -43 4 -27 2 15 2 39 0 55 -2 15 -4 2 -4 -28z"/>
<path d="M6753 3475 c0 -33 2 -48 4 -33 4 24 9 27 51 31 l47 3 -47 2 c-43 2
-47 4 -51 30 -2 15 -4 0 -4 -33z"/>
<path d="M6580 3500 c0 -17 -8 -20 -87 -23 l-88 -3 87 -2 c86 -2 87 -2 91 -29
2 -16 5 -4 6 25 0 28 -1 52 -4 52 -3 0 -5 -9 -5 -20z"/>
<path d="M4743 3475 c0 -22 2 -30 4 -17 2 12 2 30 0 40 -3 9 -5 -1 -4 -23z"/>
<path d="M4800 3480 c0 -16 5 -30 10 -30 6 0 10 14 10 30 0 17 -4 30 -10 30
-5 0 -10 -13 -10 -30z"/>
<path d="M5133 3475 c0 -22 2 -30 4 -17 2 12 2 30 0 40 -3 9 -5 -1 -4 -23z"/>
<path d="M5190 3480 c0 -16 5 -30 10 -30 6 0 10 14 10 30 0 17 -4 30 -10 30
-5 0 -10 -13 -10 -30z"/>
<path d="M4704 3489 c-3 -6 -2 -15 3 -20 5 -5 9 -1 9 11 0 23 -2 24 -12 9z"/>
<path d="M6133 3473 c15 -2 39 -2 55 0 15 2 2 4 -28 4 -30 0 -43 -2 -27 -4z"/>
<path d="M10 3442 c0 -5 12 -14 27 -21 l28 -13 -28 -14 c-39 -21 -34 -34 13
-34 22 0 40 5 40 10 0 6 -8 10 -17 10 -15 0 -14 2 3 14 18 14 18 15 2 21 -23
9 -23 22 0 28 9 3 -2 5 -25 6 -24 0 -43 -3 -43 -7z"/>
<path d="M5810 3416 c7 -7 13 -7 20 0 6 6 3 10 -10 10 -13 0 -16 -4 -10 -10z"/>
<path d="M5885 3420 c3 -5 8 -10 11 -10 2 0 4 5 4 10 0 6 -5 10 -11 10 -5 0
-7 -4 -4 -10z"/>
<path d="M5980 3416 c7 -7 13 -7 20 0 6 6 3 10 -10 10 -13 0 -16 -4 -10 -10z"/>
<path d="M4743 3385 c0 -22 2 -30 4 -17 2 12 2 30 0 40 -3 9 -5 -1 -4 -23z"/>
<path d="M4800 3384 c0 -21 4 -33 10 -29 6 3 10 19 10 36 0 16 -4 29 -10 29
-5 0 -10 -16 -10 -36z"/>
<path d="M4930 3384 c0 -21 4 -33 10 -29 6 3 10 19 10 36 0 16 -4 29 -10 29
-5 0 -10 -16 -10 -36z"/>
<path d="M5003 3385 c0 -22 2 -30 4 -17 2 12 2 30 0 40 -3 9 -5 -1 -4 -23z"/>
<path d="M5133 3385 c0 -22 2 -30 4 -17 2 12 2 30 0 40 -3 9 -5 -1 -4 -23z"/>
<path d="M5190 3384 c0 -21 4 -33 10 -29 6 3 10 19 10 36 0 16 -4 29 -10 29
-5 0 -10 -16 -10 -36z"/>
<path d="M5094 3399 c-3 -6 -2 -15 3 -20 5 -5 9 -1 9 11 0 23 -2 24 -12 9z"/>
<path d="M4700 3391 c0 -6 4 -13 10 -16 6 -3 7 1 4 9 -7 18 -14 21 -14 7z"/>
<path d="M2100 3270 l0 -120 435 0 435 0 0 120 0 120 -435 0 -435 0 0 -120z
m215 76 c46 -46 43 -112 -8 -150 -51 -38 -130 -13 -150 48 -21 63 26 126 93
126 30 0 47 -6 65 -24z m496 -4 c53 -48 39 -130 -27 -158 -44 -18 -78 -10
-109 28 -35 42 -34 91 4 129 40 39 89 40 132 1z"/>
<path d="M2227 3286 c-17 -36 -14 -46 14 -46 9 0 20 -6 22 -12 4 -10 8 -9 16
2 6 8 11 17 11 20 0 3 -5 12 -11 20 -8 11 -12 12 -16 3 -2 -7 -9 -13 -14 -13
-5 0 -3 14 6 30 12 24 13 30 2 30 -7 0 -21 -15 -30 -34z"/>
<path d="M2725 3300 c-3 -5 3 -10 14 -10 12 0 21 -4 21 -10 0 -5 -4 -10 -10
-10 -5 0 -10 -4 -10 -10 0 -5 8 -10 17 -10 22 0 6 -16 -22 -22 -19 -5 -19 -5
-1 -13 11 -5 26 -4 35 2 18 12 24 75 7 85 -16 11 -44 10 -51 -2z"/>
<path d="M70 3331 c0 -15 -8 -21 -32 -24 -29 -3 -27 -4 10 -5 39 -2 42 0 42
23 0 14 -4 25 -10 25 -5 0 -10 -9 -10 -19z"/>
<path d="M4743 3295 c0 -22 2 -30 4 -17 2 12 2 30 0 40 -3 9 -5 -1 -4 -23z"/>
<path d="M4800 3296 c0 -20 5 -36 10 -36 6 0 10 13 10 29 0 17 -4 33 -10 36
-6 4 -10 -8 -10 -29z"/>
<path d="M4930 3295 c0 -22 4 -34 10 -30 6 3 10 17 10 30 0 13 -4 27 -10 30
-6 4 -10 -8 -10 -30z"/>
<path d="M5003 3295 c0 -22 2 -30 4 -17 2 12 2 30 0 40 -3 9 -5 -1 -4 -23z"/>
<path d="M5133 3295 c0 -22 2 -30 4 -17 2 12 2 30 0 40 -3 9 -5 -1 -4 -23z"/>
<path d="M5190 3295 c0 -22 4 -34 10 -30 6 3 10 17 10 30 0 13 -4 27 -10 30
-6 4 -10 -8 -10 -30z"/>
<path d="M6242 3310 c10 -16 10 -24 0 -40 -12 -21 -11 -21 75 -18 74 3 88 6
91 21 2 10 -5 21 -20 26 -17 7 -19 10 -5 10 9 1 17 6 17 11 0 13 -23 13 -37
-1 -8 -8 -13 -8 -17 0 -9 14 -46 14 -46 1 0 -5 8 -10 17 -10 14 0 13 -4 -7
-25 -27 -29 -40 -24 -40 16 0 22 -5 29 -20 29 -18 0 -19 -2 -8 -20z m108 -30
c0 -13 -5 -18 -15 -14 -12 5 -13 10 -4 20 15 19 19 18 19 -6z m40 0 c0 -5 -4
-10 -10 -10 -5 0 -10 5 -10 10 0 6 5 10 10 10 6 0 10 -4 10 -10z"/>
<path d="M6530 3326 c0 -2 7 -7 16 -10 8 -3 12 -2 9 4 -6 10 -25 14 -25 6z"/>
<path d="M6696 3322 c-2 -4 4 -8 14 -8 10 0 16 4 14 8 -3 4 -9 8 -14 8 -5 0
-11 -4 -14 -8z"/>
<path d="M5941 3293 c-1 -21 -6 -22 -88 -26 l-88 -3 87 -2 c86 -2 87 -2 91
-29 l4 -28 2 28 c1 25 4 27 40 27 36 0 40 -3 44 -27 l4 -28 2 27 c1 27 2 27
79 31 l77 3 -77 2 c-71 2 -77 4 -81 25 l-4 22 -2 -22 c-1 -20 -7 -23 -40 -23
-33 0 -40 4 -44 23 l-4 22 -2 -22z"/>
<path d="M6583 3260 c0 -30 2 -43 4 -27 2 15 2 39 0 55 -2 15 -4 2 -4 -28z"/>
<path d="M6753 3260 c0 -30 2 -43 4 -27 2 15 2 39 0 55 -2 15 -4 2 -4 -28z"/>
<path d="M10 3255 c0 -22 4 -25 40 -25 36 0 40 3 40 25 0 29 -16 34 -23 8 -4
-17 -5 -17 -6 0 0 9 -5 17 -10 17 -5 0 -12 -8 -14 -17 -4 -17 -5 -17 -6 0 -2
27 -21 20 -21 -8z"/>
<path d="M6660 3260 c0 -5 5 -10 10 -10 6 0 10 5 10 10 0 6 -4 10 -10 10 -5 0
-10 -4 -10 -10z"/>
<path d="M4743 3205 c0 -22 2 -30 4 -17 2 12 2 30 0 40 -3 9 -5 -1 -4 -23z"/>
<path d="M4800 3206 c0 -20 5 -36 10 -36 6 0 10 13 10 29 0 17 -4 33 -10 36
-6 4 -10 -8 -10 -29z"/>
<path d="M4930 3206 c0 -20 5 -36 10 -36 6 0 10 13 10 29 0 17 -4 33 -10 36
-6 4 -10 -8 -10 -29z"/>
<path d="M5003 3205 c0 -22 2 -30 4 -17 2 12 2 30 0 40 -3 9 -5 -1 -4 -23z"/>
<path d="M5133 3205 c0 -22 2 -30 4 -17 2 12 2 30 0 40 -3 9 -5 -1 -4 -23z"/>
<path d="M5190 3206 c0 -20 5 -36 10 -36 6 0 10 13 10 29 0 17 -4 33 -10 36
-6 4 -10 -8 -10 -29z"/>
<path d="M16 3212 c-3 -3 -6 -16 -6 -29 0 -20 5 -23 40 -23 31 0 40 4 40 18 0
9 -4 22 -8 27 -8 11 -57 16 -66 7z"/>
<path d="M4704 3209 c-3 -6 -2 -15 3 -20 5 -5 9 -1 9 11 0 23 -2 24 -12 9z"/>
<path d="M5095 3209 c-4 -6 -5 -12 -2 -15 2 -3 7 2 10 11 7 17 1 20 -8 4z"/>
<path d="M6530 3196 c7 -7 13 -7 20 0 6 6 3 10 -10 10 -13 0 -16 -4 -10 -10z"/>
<path d="M6620 3196 c7 -7 13 -7 20 0 6 6 3 10 -10 10 -13 0 -16 -4 -10 -10z"/>
<path d="M6700 3196 c7 -7 13 -7 20 0 6 6 3 10 -10 10 -13 0 -16 -4 -10 -10z"/>
<path d="M6790 3196 c7 -7 13 -7 20 0 6 6 3 10 -10 10 -13 0 -16 -4 -10 -10z"/>
<path d="M5806 3112 c-2 -4 4 -8 14 -8 10 0 16 4 14 8 -3 4 -9 8 -14 8 -5 0
-11 -4 -14 -8z"/>
<path d="M5976 3112 c-2 -4 4 -8 14 -8 10 0 16 4 14 8 -3 4 -9 8 -14 8 -5 0
-11 -4 -14 -8z"/>
<path d="M5943 3050 c0 -30 2 -43 4 -27 2 15 2 39 0 55 -2 15 -4 2 -4 -28z"/>
<path d="M6033 3050 c0 -30 2 -43 4 -27 2 15 2 39 0 55 -2 15 -4 2 -4 -28z"/>
<path d="M6581 3078 c-1 -27 -1 -27 -88 -31 l-88 -3 87 -2 c86 -2 87 -2 91
-29 l4 -28 2 28 1 27 79 0 c79 0 80 0 84 -27 l4 -28 2 27 c1 25 5 27 49 31
l47 3 -47 2 c-43 2 -47 4 -51 30 l-4 27 -2 -27 -1 -28 -79 0 c-79 0 -80 0 -84
28 l-4 27 -2 -27z"/>
<path d="M11 3068 c-1 -26 2 -28 39 -28 37 0 40 2 39 28 -2 23 -2 24 -6 5 -3
-18 -11 -23 -33 -23 -22 0 -30 5 -33 23 -4 19 -4 18 -6 -5z"/>
<path d="M1722 3018 c-2 -43 -4 -47 -29 -51 l-28 -4 28 -2 27 -1 0 -124 0
-125 -27 -4 -28 -4 27 -2 c24 -1 27 -5 31 -43 l4 -43 1 42 c2 37 5 42 30 46
l27 4 -27 2 -28 1 0 124 0 125 28 4 27 4 -27 2 c-25 1 -27 5 -31 49 l-3 47 -2
-47z"/>
<path d="M5850 3050 c0 -5 5 -10 10 -10 6 0 10 5 10 10 0 6 -4 10 -10 10 -5 0
-10 -4 -10 -10z"/>
<path d="M6110 3050 c0 -5 5 -10 10 -10 6 0 10 5 10 10 0 6 -4 10 -10 10 -5 0
-10 -4 -10 -10z"/>
<path d="M7250 2435 c0 -549 2 -625 15 -625 13 0 15 74 15 610 l0 610 105 0
c87 0 105 3 105 15 0 13 -20 15 -120 15 l-120 0 0 -625z"/>
<path d="M65 3006 c26 -19 12 -44 -27 -49 l-33 -4 31 -1 c17 -1 37 5 44 13 15
18 4 55 -18 55 -13 0 -13 -2 3 -14z"/>
<path d="M4855 3000 c28 -4 42 -8 33 -8 -15 -2 -18 -12 -18 -66 l0 -65 -32 -4
-33 -4 33 -1 c21 -1 32 -7 32 -17 0 -18 43 -30 66 -17 16 9 19 34 15 165 l-1
27 -72 -2 c-71 -1 -72 -1 -23 -8z m72 -36 c-3 -3 -12 -4 -19 -1 -8 3 -5 6 6 6
11 1 17 -2 13 -5z m-4 -21 c-7 -2 -19 -2 -25 0 -7 3 -2 5 12 5 14 0 19 -2 13
-5z"/>
<path d="M5810 2986 c7 -7 13 -7 20 0 6 6 3 10 -10 10 -13 0 -16 -4 -10 -10z"/>
<path d="M6070 2986 c7 -7 13 -7 20 0 6 6 3 10 -10 10 -13 0 -16 -4 -10 -10z"/>
<path d="M4624 2956 c-63 -23 -78 -51 -48 -94 12 -18 25 -22 68 -22 67 0 90
16 90 65 0 59 -39 77 -110 51z m86 -21 c19 -22 8 -25 -12 -3 -10 10 -14 18 -9
18 5 0 14 -7 21 -15z m-64 -17 l19 -23 -25 20 c-14 11 -27 21 -29 22 -2 2 0 3
6 3 5 0 18 -10 29 -22z m-53 -3 c-3 -9 -8 -14 -10 -11 -3 3 -2 9 2 15 9 16 15
13 8 -4z m67 -48 c13 -5 13 -6 -1 -6 -9 -1 -24 9 -35 22 -19 22 -19 22 1 6 11
-9 27 -19 35 -22z m50 8 c-7 -8 -16 -15 -21 -15 -5 0 -1 8 9 18 20 22 31 19
12 -3z m-105 -14 c-6 -5 -25 10 -25 20 0 5 6 4 14 -3 8 -7 12 -15 11 -17z"/>
<path d="M4196 2944 c-4 -10 -1 -21 6 -25 10 -7 10 -11 0 -21 -23 -23 -11 -28
74 -28 l85 0 -3 43 -3 42 -76 3 c-65 2 -78 0 -83 -14z m144 -4 c0 -6 -29 -10
-66 -10 -41 0 -63 4 -59 10 3 6 33 10 66 10 33 0 59 -4 59 -10z m-47 -27 c-7
-2 -21 -2 -30 0 -10 3 -4 5 12 5 17 0 24 -2 18 -5z m47 -8 c0 -8 -4 -15 -10
-15 -5 0 -10 7 -10 15 0 8 5 15 10 15 6 0 10 -7 10 -15z"/>
<path d="M35 2905 c-39 -32 -24 -32 23 0 20 14 30 25 22 25 -8 -1 -28 -12 -45
-25z"/>
<path d="M5943 2840 c0 -30 2 -43 4 -27 2 15 2 39 0 55 -2 15 -4 2 -4 -28z"/>
<path d="M6033 2840 c0 -30 2 -43 4 -27 2 15 2 39 0 55 -2 15 -4 2 -4 -28z"/>
<path d="M6581 2863 c-1 -21 -6 -22 -88 -26 l-88 -3 87 -2 c86 -2 87 -2 91
-29 l4 -28 2 28 1 27 79 0 c79 0 80 0 84 -27 l4 -28 2 27 c1 25 5 27 49 31
l47 3 -47 2 c-40 2 -47 5 -51 25 l-4 22 -2 -22 c-1 -22 -5 -23 -80 -23 -75 0
-80 1 -84 23 l-4 22 -2 -22z"/>
<path d="M11 2848 c-1 -26 2 -28 39 -28 37 0 40 2 39 28 -2 23 -2 24 -6 5 -3
-18 -11 -23 -33 -23 -22 0 -30 5 -33 23 -4 19 -4 18 -6 -5z"/>
<path d="M4263 2790 c-235 -62 -461 -219 -603 -421 -53 -76 -58 -89 -37 -89 8
0 35 31 60 69 56 80 198 220 279 274 92 60 217 116 316 140 55 13 92 27 92 35
0 16 -21 15 -107 -8z"/>
<path d="M32 2788 c35 -12 36 -26 3 -34 -14 -3 -25 -10 -25 -14 0 -9 80 22 80
30 0 7 -62 30 -76 29 -5 0 3 -5 18 -11z"/>
<path d="M2110 2635 l0 -125 30 0 30 0 0 125 0 125 -30 0 -30 0 0 -125z"/>
<path d="M2250 2750 c0 -5 11 -10 25 -10 14 0 25 5 25 10 0 6 -11 10 -25 10
-14 0 -25 -4 -25 -10z"/>
<path d="M2390 2635 l0 -125 25 0 25 0 0 125 0 125 -25 0 -25 0 0 -125z"/>
<path d="M2520 2715 l0 -46 30 34 c17 19 30 40 30 46 0 6 -13 11 -30 11 -29 0
-30 -2 -30 -45z"/>
<path d="M2660 2749 c0 -6 14 -27 30 -46 l30 -34 0 46 c0 43 -1 45 -30 45 -16
0 -30 -5 -30 -11z"/>
<path d="M4638 2753 c12 -2 30 -2 40 0 9 3 -1 5 -23 4 -22 0 -30 -2 -17 -4z"/>
<path d="M4728 2753 c12 -2 30 -2 40 0 9 3 -1 5 -23 4 -22 0 -30 -2 -17 -4z"/>
<path d="M4823 2753 c9 -2 25 -2 35 0 9 3 1 5 -18 5 -19 0 -27 -2 -17 -5z"/>
<path d="M4918 2753 c12 -2 30 -2 40 0 9 3 -1 5 -23 4 -22 0 -30 -2 -17 -4z"/>
<path d="M5008 2753 c12 -2 30 -2 40 0 9 3 -1 5 -23 4 -22 0 -30 -2 -17 -4z"/>
<path d="M5085 2750 c3 -5 19 -10 36 -10 16 0 29 5 29 10 0 6 -16 10 -36 10
-21 0 -33 -4 -29 -10z"/>
<path d="M5175 2750 c3 -5 19 -10 36 -10 16 0 29 5 29 10 0 6 -16 10 -36 10
-21 0 -33 -4 -29 -10z"/>
<path d="M37 2727 c-36 -15 -34 -21 13 -40 48 -18 54 -12 8 8 l-33 13 35 15
c40 17 20 21 -23 4z"/>
<path d="M3695 2728 c-32 -17 -45 -39 -45 -78 0 -78 96 -115 146 -56 64 73
-17 181 -101 134z m90 -28 c26 -29 24 -79 -4 -102 -32 -25 -67 -23 -96 7 -30
30 -31 54 -4 89 26 33 77 36 104 6z"/>
<path d="M3717 2704 c-13 -14 -7 -22 13 -17 23 6 28 -15 5 -23 -17 -7 -21 -54
-5 -54 6 0 10 9 10 19 0 10 7 22 16 25 22 9 14 50 -11 54 -12 2 -24 0 -28 -4z"/>
<path d="M2225 2695 c-52 -51 -11 -135 66 -135 32 0 69 44 69 83 0 70 -85 103
-135 52z m81 -13 c18 -12 16 -79 -3 -86 -31 -12 -52 3 -50 37 4 51 23 69 53
49z"/>
<path d="M2275 2660 c3 -5 10 -10 16 -10 5 0 9 5 9 10 0 6 -7 10 -16 10 -8 0
-12 -4 -9 -10z"/>
<path d="M2270 2620 c0 -5 7 -10 15 -10 8 0 15 5 15 10 0 6 -7 10 -15 10 -8 0
-15 -4 -15 -10z"/>
<path d="M2565 2695 c-16 -15 -25 -36 -25 -55 0 -19 9 -40 25 -55 15 -16 36
-25 55 -25 19 0 40 9 55 25 16 15 25 36 25 55 0 19 -9 40 -25 55 -15 16 -36
25 -55 25 -19 0 -40 -9 -55 -25z m75 -17 c0 -7 -7 -22 -15 -32 -8 -11 -15 -28
-15 -38 0 -10 -7 -18 -15 -18 -18 0 -19 2 -1 45 14 33 14 35 -5 35 -10 0 -19
5 -19 10 0 6 16 10 35 10 22 0 35 -5 35 -12z"/>
<path d="M4620 2690 c0 -5 16 -10 36 -10 21 0 33 4 29 10 -3 6 -19 10 -36 10
-16 0 -29 -4 -29 -10z"/>
<path d="M4715 2690 c-4 -6 8 -10 29 -10 20 0 36 5 36 10 0 6 -13 10 -29 10
-17 0 -33 -4 -36 -10z"/>
<path d="M4810 2690 c0 -5 14 -10 30 -10 17 0 30 5 30 10 0 6 -13 10 -30 10
-16 0 -30 -4 -30 -10z"/>
<path d="M4900 2690 c0 -5 14 -10 30 -10 17 0 30 5 30 10 0 6 -13 10 -30 10
-16 0 -30 -4 -30 -10z"/>
<path d="M5008 2683 c12 -2 30 -2 40 0 9 3 -1 5 -23 4 -22 0 -30 -2 -17 -4z"/>
<path d="M5098 2683 c12 -2 30 -2 40 0 9 3 -1 5 -23 4 -22 0 -30 -2 -17 -4z"/>
<path d="M5188 2683 c12 -2 30 -2 40 0 9 3 -1 5 -23 4 -22 0 -30 -2 -17 -4z"/>
<path d="M2520 2560 c0 -49 1 -50 30 -50 21 0 30 5 30 16 0 9 -13 32 -30 51
l-30 34 0 -51z"/>
<path d="M2688 2575 c-37 -44 -36 -65 2 -65 29 0 30 1 30 50 0 28 -1 50 -2 49
-2 0 -15 -15 -30 -34z"/>
<path d="M4550 2597 c0 -7 6 -22 14 -32 12 -17 11 -26 -6 -73 -12 -31 -17 -63
-14 -78 6 -24 8 -24 111 -24 l105 0 0 39 c0 21 -6 57 -14 79 -12 34 -12 43 -1
59 30 38 20 43 -90 43 -80 0 -105 -3 -105 -13z m190 -11 c0 -29 -16 -36 -86
-36 -41 0 -74 2 -74 4 0 2 -3 11 -6 20 -5 14 6 16 80 16 47 0 86 -2 86 -4z
m-4 -82 c8 -20 13 -38 10 -41 -8 -9 -27 8 -36 33 -8 20 -16 24 -54 24 -40 0
-47 -3 -61 -30 -16 -31 -42 -43 -31 -14 3 9 9 27 12 40 6 22 11 24 76 24 l69
0 15 -36z m-36 -14 c10 -19 8 -20 -45 -20 -53 0 -55 1 -45 20 8 14 21 20 45
20 24 0 37 -6 45 -20z m50 -65 c0 -25 0 -25 -95 -25 -95 0 -95 0 -95 25 0 25
0 25 95 25 95 0 95 0 95 -25z"/>
<path d="M4708 2423 c7 -3 16 -2 19 1 4 3 -2 6 -13 5 -11 0 -14 -3 -6 -6z"/>
<path d="M4824 2597 c-3 -8 -4 -43 -2 -78 l3 -64 53 -3 c47 -3 52 -5 52 -27 0
-14 -7 -25 -17 -28 -10 -3 9 -5 42 -4 33 0 50 2 38 4 -16 3 -23 11 -23 29 0
23 3 24 55 24 l56 0 -3 78 -3 77 -123 3 c-97 2 -123 0 -128 -11z m236 -72 l0
-65 -110 0 -110 0 0 65 0 65 110 0 110 0 0 -65z"/>
<path d="M4931 2559 c-14 -11 -18 -20 -11 -24 6 -4 9 -13 7 -19 -3 -8 5 -13
23 -13 34 0 45 33 20 58 -15 14 -19 14 -39 -2z"/>
<path d="M5107 2603 c-4 -3 -7 -39 -7 -80 l0 -73 55 0 c49 0 55 -2 55 -20 0
-12 -10 -24 -22 -30 -17 -7 -8 -9 37 -8 33 0 52 2 43 5 -11 3 -18 14 -18 29 0
22 4 24 50 24 l50 0 0 80 0 80 -118 0 c-65 0 -122 -3 -125 -7z m233 -78 l0
-65 -110 0 -110 0 0 65 0 65 110 0 110 0 0 -65z"/>
<path d="M2250 2529 c0 -14 7 -19 25 -19 35 0 35 34 0 36 -18 2 -25 -3 -25
-17z"/>
<path d="M1908 2288 c1 -106 5 -199 7 -205 3 -10 91 -13 395 -13 340 0 390 2
390 15 0 13 -49 15 -379 15 -246 0 -382 4 -386 10 -4 6 -3 84 1 175 l7 165
464 0 c367 0 464 3 461 13 -4 9 -111 13 -484 15 l-479 2 3 -192z"/>
<path d="M2004 2406 c-3 -7 -4 -40 -2 -72 l3 -59 53 -3 c44 -3 52 -6 52 -23 0
-10 -6 -19 -14 -19 -8 0 -18 -4 -21 -10 -4 -6 15 -10 49 -10 31 0 56 5 56 10
0 6 -7 10 -15 10 -8 0 -15 9 -15 20 0 17 7 20 50 20 l50 0 0 75 0 75 -120 0
c-93 0 -122 -3 -126 -14z m82 -25 c-23 -25 -6 -61 27 -61 13 0 28 -5 35 -12 6
-6 15 -9 19 -5 4 4 1 13 -5 19 -7 7 -12 22 -12 35 0 12 -8 27 -17 32 -14 8 -4
10 40 11 l57 0 0 -55 0 -55 -105 0 -105 0 0 55 0 55 42 0 c40 0 41 -1 24 -19z
m50 -12 c3 -6 0 -18 -9 -26 -18 -18 -37 -9 -37 18 0 21 34 27 46 8z"/>
<path d="M2328 2409 c-15 -8 -18 -24 -18 -92 0 -95 7 -107 62 -107 49 0 50 18
1 22 l-38 3 0 80 0 80 38 3 c20 2 37 7 37 13 0 12 -60 11 -82 -2z"/>
<path d="M2525 2403 c16 -38 16 -61 1 -98 -38 -89 -20 -107 105 -103 l94 3 3
42 c2 22 -3 57 -11 75 -12 29 -12 38 -1 59 7 13 13 27 14 32 0 4 -48 7 -106 7
-97 0 -106 -1 -99 -17z m185 3 c0 -29 -16 -36 -84 -36 -60 0 -73 3 -84 20 -12
19 -10 20 78 20 49 0 90 -2 90 -4z m-4 -88 c11 -32 11 -38 -1 -38 -7 0 -18 14
-24 30 -9 27 -14 30 -56 30 -42 0 -47 -3 -56 -30 -6 -16 -17 -30 -25 -30 -17
0 -17 0 1 44 l16 37 66 -3 66 -3 13 -37z m-36 -2 c0 -2 3 -11 6 -20 5 -13 -3
-16 -50 -16 -31 0 -56 2 -56 4 0 25 16 36 56 36 24 0 44 -2 44 -4z m50 -73 c0
-22 -3 -23 -95 -23 -92 0 -95 1 -95 23 0 21 3 22 95 22 92 0 95 -1 95 -22z"/>
<path d="M2678 2243 c7 -3 16 -2 19 1 4 3 -2 6 -13 5 -11 0 -14 -3 -6 -6z"/>
<path d="M2800 2335 l0 -85 35 0 c28 0 35 -4 35 -20 0 -18 7 -20 60 -20 l60 0
0 73 c0 78 -9 97 -46 97 -13 0 -24 8 -27 20 -4 17 -14 20 -61 20 l-56 0 0 -85z
m96 61 c12 -13 11 -15 -8 -18 -15 -2 -24 -11 -26 -25 -2 -13 -12 -23 -25 -26
-17 -3 -16 -5 8 -7 l30 -2 -30 -8 -30 -8 28 -1 c37 -1 34 -36 -3 -36 -23 0
-25 4 -28 59 -2 32 -1 65 2 72 7 18 64 18 82 0z m73 -49 c7 -13 11 -45 9 -73
l-3 -49 -47 -3 -48 -3 0 75 0 76 38 0 c30 0 41 -5 51 -23z"/>
<path d="M2908 2303 c12 -2 32 -2 45 0 12 2 2 4 -23 4 -25 0 -35 -2 -22 -4z"/>
<path d="M2908 2283 c12 -2 32 -2 45 0 12 2 2 4 -23 4 -25 0 -35 -2 -22 -4z"/>
<path d="M2908 2263 c12 -2 32 -2 45 0 12 2 2 4 -23 4 -25 0 -35 -2 -22 -4z"/>
<path d="M2424 2335 c4 -12 -3 -15 -34 -15 -22 0 -40 -4 -40 -10 0 -5 18 -10
40 -10 31 0 38 -3 34 -15 -9 -21 10 -19 31 5 17 19 17 21 0 40 -21 24 -40 26
-31 5z"/>
<path d="M4194 2127 c-3 -8 -4 -47 -2 -88 l3 -74 58 -3 c53 -3 57 -5 57 -27 0
-18 -5 -25 -20 -25 -11 0 -20 -4 -20 -10 0 -6 28 -10 65 -10 37 0 65 4 65 10
0 6 -9 10 -20 10 -15 0 -20 7 -20 25 0 24 3 25 60 25 l61 0 -3 88 -3 87 -138
3 c-109 2 -138 0 -143 -11z m266 -77 l0 -70 -125 0 -125 0 0 70 0 70 125 0
125 0 0 -70z"/>
<path d="M4286 2091 c-22 -24 -13 -58 17 -66 12 -3 32 -11 44 -17 29 -14 41
-3 25 22 -7 11 -12 29 -12 40 0 18 -26 40 -48 40 -5 0 -17 -9 -26 -19z m61
-17 c6 -17 -25 -44 -42 -38 -16 6 -20 35 -8 48 10 10 46 3 50 -10z"/>
<path d="M4001 2116 c-8 -9 -11 -48 -9 -112 l3 -99 48 -3 c26 -2 47 1 47 7 0
5 -19 11 -42 13 l-43 3 -3 70 c-4 103 0 115 48 115 22 0 40 5 40 10 0 15 -76
12 -89 -4z"/>
<path d="M3495 2037 c-100 -344 -57 -705 118 -994 17 -29 37 -53 44 -53 19 0
17 6 -31 89 -115 201 -163 405 -153 645 5 121 18 191 63 344 5 16 2 22 -10 22
-10 0 -21 -18 -31 -53z"/>
<path d="M4094 2045 c4 -12 -3 -15 -29 -15 -24 0 -35 -5 -35 -15 0 -10 11 -15
35 -15 26 0 33 -3 29 -15 -8 -21 9 -19 29 3 22 24 21 35 -1 55 -23 21 -36 22
-28 2z"/>
<path d="M2020 1940 c0 -5 5 -10 10 -10 6 0 10 -9 10 -20 0 -11 -4 -20 -10
-20 -5 0 -10 -4 -10 -9 0 -5 41 -9 90 -9 50 0 90 4 90 9 0 5 -4 9 -10 9 -5 0
-10 13 -10 30 0 29 -1 29 -47 27 -46 -2 -48 -3 -51 -35 -4 -39 -22 -33 -22 9
0 22 -5 29 -20 29 -11 0 -20 -4 -20 -10z m100 -30 c0 -11 -4 -20 -10 -20 -5 0
-10 9 -10 20 0 11 5 20 10 20 6 0 10 -9 10 -20z m40 0 c0 -11 -4 -20 -10 -20
-5 0 -10 9 -10 20 0 11 5 20 10 20 6 0 10 -9 10 -20z"/>
<path d="M2230 1940 c0 -5 5 -10 10 -10 6 0 10 -9 10 -20 0 -11 -4 -20 -10
-20 -5 0 -10 -4 -10 -10 0 -5 14 -10 30 -10 17 0 30 5 30 10 0 6 -4 10 -10 10
-5 0 -10 14 -10 30 0 23 -4 30 -20 30 -11 0 -20 -4 -20 -10z"/>
<path d="M2200 1910 c0 -5 9 -10 21 -10 11 0 17 5 14 10 -3 6 -13 10 -21 10
-8 0 -14 -4 -14 -10z"/>
<path d="M4870 1760 l0 -80 85 0 85 0 0 80 0 80 -85 0 -85 0 0 -80z m150 39
c0 -28 -2 -30 -16 -18 -14 12 -19 10 -38 -14 -17 -21 -25 -24 -34 -15 -8 8
-15 8 -27 -2 -13 -11 -15 -7 -15 34 l0 46 65 0 65 0 0 -31z"/>
<path d="M4905 1801 c-6 -11 9 -23 19 -14 9 9 7 23 -3 23 -6 0 -12 -4 -16 -9z"/>
<path d="M7550 1800 c0 -5 5 -10 10 -10 6 0 10 -9 10 -20 0 -11 -4 -20 -10
-20 -5 0 -10 -4 -10 -10 0 -6 37 -10 92 -10 72 0 89 3 80 12 -7 7 -12 24 -12
39 0 26 -2 27 -50 27 -27 1 -50 -3 -50 -9 0 -5 10 -9 22 -9 20 0 21 -1 3 -20
-27 -29 -45 -25 -45 10 0 23 -4 30 -20 30 -11 0 -20 -4 -20 -10z m140 -30 c0
-15 -7 -20 -25 -20 -24 0 -24 1 -7 19 22 25 32 26 32 1z"/>
<path d="M6230 1645 l0 -85 30 0 c23 0 30 -4 30 -20 0 -18 7 -20 60 -20 l61 0
-3 83 c-3 79 -4 82 -28 85 -13 2 -30 13 -38 23 -10 14 -25 19 -63 19 l-49 0 0
-85z m86 60 c14 -13 13 -15 -5 -15 -12 0 -21 -4 -21 -10 0 -5 -11 -10 -25 -10
-20 0 -25 5 -25 25 0 21 5 25 31 25 17 0 37 -7 45 -15z m70 -39 c9 -10 14 -36
14 -76 l0 -61 -47 3 -48 3 -3 73 -3 72 36 0 c20 0 43 -6 51 -14z m-96 -26 c0
-15 -7 -20 -25 -20 -18 0 -25 5 -25 20 0 15 7 20 25 20 18 0 25 -5 25 -20z m0
-50 c0 -15 -7 -20 -25 -20 -18 0 -25 5 -25 20 0 15 7 20 25 20 18 0 25 -5 25
-20z"/>
<path d="M6328 1613 c12 -2 32 -2 45 0 12 2 2 4 -23 4 -25 0 -35 -2 -22 -4z"/>
<path d="M6328 1593 c12 -2 32 -2 45 0 12 2 2 4 -23 4 -25 0 -35 -2 -22 -4z"/>
<path d="M6328 1573 c12 -2 32 -2 45 0 12 2 2 4 -23 4 -25 0 -35 -2 -22 -4z"/>
<path d="M6440 1645 l0 -85 30 0 c23 0 30 -4 30 -20 0 -18 7 -20 65 -20 l65 0
0 73 c0 77 -9 97 -45 97 -11 0 -26 9 -33 20 -9 16 -23 20 -62 20 l-50 0 0 -85z
m90 60 c10 -13 9 -15 -9 -15 -11 0 -21 -4 -21 -10 0 -5 -11 -10 -25 -10 -18 0
-25 5 -25 18 0 10 3 22 7 25 12 13 60 7 73 -8z m71 -44 c16 -15 20 -29 17 -72
l-3 -54 -47 -3 -48 -3 0 75 0 76 30 0 c17 0 40 -8 51 -19z m-108 -8 c-7 -2
-21 -2 -30 0 -10 3 -4 5 12 5 17 0 24 -2 18 -5z m7 -48 c0 -31 -3 -35 -25 -35
-22 0 -25 4 -25 35 0 31 3 35 25 35 22 0 25 -4 25 -35z"/>
<path d="M6547 1622 c-22 -24 -21 -45 1 -65 21 -19 48 -22 57 -7 3 6 -3 10
-13 10 -29 0 -48 26 -32 45 7 8 21 15 32 15 10 0 16 5 13 10 -10 16 -40 12
-58 -8z"/>
<path d="M6089 1653 c-26 -42 -27 -72 -3 -90 27 -20 52 -16 70 11 14 23 14 28
-1 60 -28 58 -40 62 -66 19z m61 -47 c-1 -37 -43 -47 -63 -15 -7 11 -5 23 9
43 l18 28 18 -22 c10 -12 18 -27 18 -34z"/>
<path d="M6090 1602 c0 -4 11 -9 25 -10 14 -1 25 3 25 8 0 6 -11 10 -25 10
-14 0 -25 -4 -25 -8z"/>
<path d="M3360 1625 c0 -29 -4 -45 -12 -45 -8 0 -6 -6 5 -17 16 -16 18 -16 34
0 11 11 13 17 5 17 -8 0 -12 16 -12 45 0 25 -4 45 -10 45 -5 0 -10 -20 -10
-45z"/>
<path d="M3297 1645 c-4 -8 -2 -17 3 -20 6 -4 11 -25 12 -48 l1 -42 4 40 c3
22 9 45 15 52 5 7 7 17 3 23 -9 15 -32 12 -38 -5z"/>
<path d="M2890 1200 l0 -340 170 0 c144 0 170 2 170 15 0 13 -24 15 -155 15
l-155 0 0 325 c0 282 -2 325 -15 325 -13 0 -15 -44 -15 -340z"/>
<path d="M3284 1508 c-19 -21 -19 -21 1 -13 11 4 30 10 43 12 17 4 21 2 16
-11 -4 -11 0 -16 14 -16 12 0 24 5 27 10 3 6 12 10 18 10 7 -1 1 -10 -13 -21
-20 -17 -33 -20 -67 -15 -23 3 -45 1 -48 -4 -3 -5 14 -12 39 -15 61 -10 105
15 106 59 0 14 -6 17 -25 14 -14 -3 -28 -1 -31 3 -10 17 -61 9 -80 -13z"/>
<path d="M4766 1522 c-2 -4 4 -8 15 -8 10 0 19 4 19 8 0 4 -6 8 -14 8 -8 0
-17 -4 -20 -8z"/>
<path d="M5046 1522 c-2 -4 4 -8 14 -8 10 0 16 4 14 8 -3 4 -9 8 -14 8 -5 0
-11 -4 -14 -8z"/>
<path d="M5136 1522 c-2 -4 4 -8 14 -8 10 0 16 4 14 8 -3 4 -9 8 -14 8 -5 0
-11 -4 -14 -8z"/>
<path d="M5226 1522 c-2 -4 4 -8 14 -8 10 0 16 4 14 8 -3 4 -9 8 -14 8 -5 0
-11 -4 -14 -8z"/>
<path d="M4660 1490 c0 -5 14 -10 30 -10 17 0 30 5 30 10 0 6 -13 10 -30 10
-16 0 -30 -4 -30 -10z"/>
<path d="M4750 1490 c0 -5 14 -10 30 -10 17 0 30 5 30 10 0 6 -13 10 -30 10
-16 0 -30 -4 -30 -10z"/>
<path d="M4840 1490 c0 -5 16 -10 36 -10 21 0 33 4 29 10 -3 6 -19 10 -36 10
-16 0 -29 -4 -29 -10z"/>
<path d="M4935 1490 c-4 -6 8 -10 30 -10 22 0 34 4 30 10 -3 6 -17 10 -30 10
-13 0 -27 -4 -30 -10z"/>
<path d="M5025 1490 c-4 -6 8 -10 29 -10 20 0 36 5 36 10 0 6 -13 10 -29 10
-17 0 -33 -4 -36 -10z"/>
<path d="M5120 1490 c0 -5 14 -10 30 -10 17 0 30 5 30 10 0 6 -13 10 -30 10
-16 0 -30 -4 -30 -10z"/>
<path d="M5228 1483 c12 -2 30 -2 40 0 9 3 -1 5 -23 4 -22 0 -30 -2 -17 -4z"/>
<path d="M4668 1423 c12 -2 30 -2 40 0 9 3 -1 5 -23 4 -22 0 -30 -2 -17 -4z"/>
<path d="M4763 1423 c9 -2 25 -2 35 0 9 3 1 5 -18 5 -19 0 -27 -2 -17 -5z"/>
<path d="M4858 1423 c12 -2 30 -2 40 0 9 3 -1 5 -23 4 -22 0 -30 -2 -17 -4z"/>
<path d="M4948 1423 c12 -2 30 -2 40 0 9 3 -1 5 -23 4 -22 0 -30 -2 -17 -4z"/>
<path d="M5038 1423 c12 -2 30 -2 40 0 9 3 -1 5 -23 4 -22 0 -30 -2 -17 -4z"/>
<path d="M5128 1423 c12 -2 30 -2 40 0 9 3 -1 5 -23 4 -22 0 -30 -2 -17 -4z"/>
<path d="M5225 1420 c28 -12 45 -12 45 0 0 6 -15 10 -32 9 -28 0 -30 -2 -13
-9z"/>
<path d="M6434 1389 c-10 -17 13 -36 27 -22 12 12 4 33 -11 33 -5 0 -12 -5
-16 -11z"/>
<path d="M5785 1380 c-8 -14 3 -30 21 -30 8 0 14 9 14 20 0 21 -24 28 -35 10z"/>
<path d="M6616 1383 c-11 -11 -6 -23 9 -23 8 0 15 4 15 9 0 13 -16 22 -24 14z"/>
<path d="M5966 1373 c-11 -11 -6 -23 9 -23 8 0 15 4 15 9 0 13 -16 22 -24 14z"/>
<path d="M6410 1305 c0 -25 5 -45 10 -45 6 0 10 -20 10 -45 0 -38 3 -45 20
-45 17 0 20 7 20 45 0 25 5 45 10 45 6 0 10 20 10 45 l0 45 -40 0 -40 0 0 -45z"/>
<path d="M6616 1343 c-3 -3 -6 -17 -6 -30 0 -16 -6 -23 -20 -23 -12 0 -28 -13
-40 -32 -20 -34 -27 -63 -11 -54 4 3 16 -3 26 -14 22 -24 43 -25 74 -4 19 14
22 23 18 55 -3 26 0 42 9 50 8 6 14 14 14 18 0 11 -57 41 -64 34z m28 -95 c12
-20 2 -44 -27 -62 -13 -8 -22 -6 -39 11 -19 19 -20 26 -10 48 9 20 18 26 39
23 14 -2 31 -11 37 -20z"/>
<path d="M5764 1309 c-11 -23 -13 -34 -5 -39 7 -3 9 -14 5 -23 -4 -12 -1 -17
10 -17 11 0 16 -9 16 -30 0 -16 5 -30 10 -30 6 0 10 12 10 26 0 17 6 28 20 31
23 6 24 8 9 35 -8 15 -8 19 0 14 14 -9 14 6 -1 39 -16 36 -53 34 -74 -6z"/>
<path d="M5966 1333 c-3 -3 -6 -17 -6 -30 0 -16 -6 -23 -19 -23 -11 0 -28 -15
-41 -35 l-22 -35 24 -20 c28 -23 81 -26 98 -5 8 9 10 29 7 49 -4 24 -1 39 9
47 8 6 14 14 14 18 0 11 -57 41 -64 34z m30 -98 c8 -31 -10 -55 -41 -55 -34 0
-51 25 -37 55 16 36 69 36 78 0z"/>
<path d="M4656 1282 c-2 -4 4 -8 14 -8 10 0 16 4 14 8 -3 4 -9 8 -14 8 -5 0
-11 -4 -14 -8z"/>
<path d="M4746 1282 c-2 -4 4 -8 14 -8 10 0 16 4 14 8 -3 4 -9 8 -14 8 -5 0
-11 -4 -14 -8z"/>
<path d="M2020 1250 c0 -5 5 -10 10 -10 6 0 10 -9 10 -20 0 -11 -4 -20 -10
-20 -5 0 -10 -5 -10 -10 0 -6 24 -9 56 -8 41 2 60 8 68 21 15 24 -4 52 -35 52
-20 0 -25 -6 -27 -33 -4 -39 -22 -33 -22 9 0 22 -5 29 -20 29 -11 0 -20 -4
-20 -10z m110 -30 c0 -11 -7 -20 -15 -20 -8 0 -15 9 -15 20 0 11 7 20 15 20 8
0 15 -9 15 -20z"/>
<path d="M2150 1251 c0 -6 10 -11 23 -11 18 0 19 -2 7 -10 -13 -9 -13 -11 0
-20 12 -8 11 -10 -7 -10 -13 0 -23 -5 -23 -11 0 -6 12 -9 28 -7 24 3 27 7 27
38 0 31 -3 35 -27 38 -16 2 -28 -1 -28 -7z"/>
<path d="M2250 1250 c0 -5 5 -10 10 -10 6 0 10 -9 10 -20 0 -11 -4 -20 -10
-20 -5 0 -10 -4 -10 -10 0 -11 108 -11 115 1 3 4 18 4 32 -2 30 -11 47 0 37
24 -7 19 -24 23 -24 5 0 -6 -3 -9 -6 -6 -3 4 -1 16 6 27 8 17 8 21 -4 21 -8 0
-18 -10 -22 -22 l-7 -23 -8 23 c-14 37 -53 26 -57 -16 -4 -39 -22 -33 -22 9 0
22 -5 29 -20 29 -11 0 -20 -4 -20 -10z m100 -30 c0 -11 -4 -20 -10 -20 -5 0
-10 9 -10 20 0 11 5 20 10 20 6 0 10 -9 10 -20z"/>
<path d="M4658 1243 c12 -2 30 -2 40 0 9 3 -1 5 -23 4 -22 0 -30 -2 -17 -4z"/>
<path d="M4748 1243 c12 -2 30 -2 40 0 9 3 -1 5 -23 4 -22 0 -30 -2 -17 -4z"/>
<path d="M4838 1243 c12 -2 30 -2 40 0 9 3 -1 5 -23 4 -22 0 -30 -2 -17 -4z"/>
<path d="M4928 1243 c12 -2 30 -2 40 0 9 3 -1 5 -23 4 -22 0 -30 -2 -17 -4z"/>
<path d="M5018 1243 c12 -2 30 -2 40 0 9 3 -1 5 -23 4 -22 0 -30 -2 -17 -4z"/>
<path d="M5118 1243 c12 -2 30 -2 40 0 9 3 -1 5 -23 4 -22 0 -30 -2 -17 -4z"/>
<path d="M5208 1243 c12 -2 30 -2 40 0 9 3 -1 5 -23 4 -22 0 -30 -2 -17 -4z"/>
<path d="M2215 1220 c-3 -5 3 -10 14 -10 12 0 21 5 21 10 0 6 -6 10 -14 10 -8
0 -18 -4 -21 -10z"/>
<path d="M4640 1180 c0 -5 14 -10 30 -10 17 0 30 5 30 10 0 6 -13 10 -30 10
-16 0 -30 -4 -30 -10z"/>
<path d="M4730 1180 c0 -5 14 -10 30 -10 17 0 30 5 30 10 0 6 -13 10 -30 10
-16 0 -30 -4 -30 -10z"/>
<path d="M4820 1181 c0 -5 17 -11 39 -13 28 -2 37 0 34 9 -6 15 -73 18 -73 4z"/>
<path d="M4915 1180 c3 -5 19 -10 36 -10 16 0 29 5 29 10 0 6 -16 10 -36 10
-21 0 -33 -4 -29 -10z"/>
<path d="M5010 1180 c0 -5 14 -10 30 -10 17 0 30 5 30 10 0 6 -13 10 -30 10
-16 0 -30 -4 -30 -10z"/>
<path d="M5100 1180 c0 -5 14 -10 30 -10 17 0 30 5 30 10 0 6 -13 10 -30 10
-16 0 -30 -4 -30 -10z"/>
<path d="M5190 1180 c0 -5 14 -10 30 -10 17 0 30 5 30 10 0 6 -13 10 -30 10
-16 0 -30 -4 -30 -10z"/>
<path d="M3710 1172 l35 -7 0 -60 0 -60 -32 -3 c-18 -2 -33 -8 -33 -13 0 -6
17 -9 38 -7 l37 3 0 75 0 75 -40 2 -40 1 35 -6z"/>
<path d="M4660 1146 c7 -7 13 -7 20 0 6 6 3 10 -10 10 -13 0 -16 -4 -10 -10z"/>
<path d="M4750 1146 c7 -7 13 -7 20 0 6 6 3 10 -10 10 -13 0 -16 -4 -10 -10z"/>
<path d="M4937 1149 c7 -7 15 -10 18 -7 3 3 -2 9 -12 12 -14 6 -15 5 -6 -5z"/>
<path d="M5120 1146 c7 -7 13 -7 20 0 6 6 3 10 -10 10 -13 0 -16 -4 -10 -10z"/>
<path d="M5210 1146 c7 -7 13 -7 20 0 6 6 3 10 -10 10 -13 0 -16 -4 -10 -10z"/>
<path d="M3689 1134 c-1 -5 -1 -12 0 -16 0 -5 -13 -8 -30 -8 -17 0 -28 -4 -24
-10 3 -5 17 -10 30 -10 13 0 25 -5 27 -11 2 -6 11 -2 21 9 16 18 16 20 -3 37
-11 10 -21 14 -21 9z"/>
<path d="M4750 976 l0 -75 52 -3 c41 -2 54 -7 56 -21 2 -10 -5 -21 -20 -26
-18 -8 -10 -10 37 -10 47 0 55 2 37 10 -15 5 -22 16 -20 26 2 14 15 19 56 21
l52 3 0 75 0 74 -125 0 -125 0 0 -74z m238 2 l-3 -63 -110 0 -110 0 -3 63 -3
62 116 0 116 0 -3 -62z"/>
<path d="M5202 994 c-118 -81 -113 -95 36 -96 91 -1 97 0 100 20 3 20 -2 21
-90 24 l-93 3 65 44 c79 53 74 50 68 56 -2 3 -41 -20 -86 -51z m128 -74 c0 -6
-38 -10 -95 -10 -57 0 -95 4 -95 10 0 6 38 10 95 10 57 0 95 -4 95 -10z"/>
<path d="M7030 918 c1 -55 3 -69 11 -55 5 9 7 22 4 28 -8 12 23 49 42 49 7 0
13 7 13 15 0 8 4 15 9 15 15 0 23 -18 11 -25 -16 -10 -12 -35 6 -35 8 0 12 -4
9 -10 -3 -5 -15 -10 -26 -10 -14 0 -19 -7 -19 -29 0 -35 -20 -53 -21 -19 0 22
-1 22 -12 4 -7 -11 -23 -30 -36 -43 l-24 -23 60 0 c84 0 93 12 93 123 l0 87
-60 0 -60 0 0 -72z"/>
<path d="M5230 960 c0 -5 20 -10 45 -10 25 0 45 5 45 10 0 6 -20 10 -45 10
-25 0 -45 -4 -45 -10z"/>
<path d="M6946 948 c-9 -12 -16 -31 -16 -41 0 -15 3 -16 23 -6 l22 11 -22 -21
c-27 -25 -30 -51 -7 -51 14 0 14 -3 4 -15 -16 -19 -9 -28 14 -19 9 3 19 18 22
33 4 14 11 32 17 39 6 8 5 12 -4 12 -10 0 -10 3 -1 12 7 7 12 23 11 38 0 14
-3 19 -6 13 -2 -7 -14 -13 -26 -12 -12 0 -16 3 -9 6 6 2 12 9 12 14 0 16 -19
9 -34 -13z"/>
<path d="M3400 875 c0 -13 24 -15 160 -15 136 0 160 2 160 15 0 13 -24 15
-160 15 -136 0 -160 -2 -160 -15z"/>
<path d="M3690 610 c0 -144 2 -170 15 -170 13 0 15 26 15 170 0 144 -2 170
-15 170 -13 0 -15 -26 -15 -170z"/>
<path d="M4980 755 c0 -13 31 -15 220 -15 189 0 220 2 220 15 0 13 -31 15
-220 15 -189 0 -220 -2 -220 -15z"/>
<path d="M4010 285 c0 -13 21 -15 130 -15 109 0 130 2 130 15 0 13 -21 15
-130 15 -109 0 -130 -2 -130 -15z"/>
<path d="M6127 293 c-17 -17 -2 -23 53 -23 47 0 60 3 60 15 0 11 -13 15 -53
15 -30 0 -57 -3 -60 -7z"/>
<path d="M3911 222 c0 -13 -5 -20 -11 -17 -15 9 -12 -11 3 -24 10 -8 17 -7 25
1 14 14 16 32 3 23 -5 -3 -12 5 -14 17 l-4 23 -2 -23z"/>
<path d="M4350 225 c-9 -10 -9 -15 -1 -15 6 0 12 -10 12 -22 1 -21 2 -21 6 -3
3 11 10 23 15 26 11 7 2 29 -11 29 -5 0 -14 -7 -21 -15z"/>
</g>
</svg>
