<?xml version="1.0" standalone="no"?>
<!DOCTYPE svg PUBLIC "-//W3C//DTD SVG 20010904//EN"
 "http://www.w3.org/TR/2001/REC-SVG-20010904/DTD/svg10.dtd">
<svg version="1.0" xmlns="http://www.w3.org/2000/svg"
 width="798.000000pt" height="820.000000pt" viewBox="0 0 798.000000 820.000000"
 preserveAspectRatio="xMidYMid meet">

<g transform="translate(0.000000,820.000000) scale(0.100000,-0.100000)"
fill="#000000" stroke="none">
<path d="M3150 7815 l0 -345 -235 0 c-129 0 -235 -1 -235 -3 0 -1 29 -203 65
-447 144 -978 314 -2154 312 -2155 -1 -1 -648 -55 -1437 -120 -789 -65 -1436
-119 -1438 -120 -4 -3 30 -780 35 -785 2 -2 660 52 1463 120 803 68 1461 122
1463 120 4 -5 28 -182 162 -1230 64 -498 64 -495 225 -1728 66 -508 120 -925
120 -927 0 -3 934 -5 2075 -5 l2075 0 0 1415 0 1415 -484 0 -484 0 -7 258 c-5
141 -5 1142 -2 2225 l6 1967 -1724 0 -1725 0 0 345 0 345 -115 0 -115 0 0
-345z m210 -10 l0 -335 -95 0 -95 0 0 335 0 335 95 0 95 0 0 -335z m2450
-1175 l0 -290 -35 0 -35 0 0 -55 0 -55 -195 0 -195 0 0 55 0 55 -545 0 -545 0
0 -1125 0 -1125 281 0 281 0 -2 -92 c-1 -51 -1 -168 -1 -260 l1 -168 510 0
510 0 0 55 0 55 185 0 185 0 0 -55 0 -55 145 0 145 0 0 260 0 260 155 0 155 0
0 -410 0 -410 -395 0 -395 0 0 -165 0 -165 -90 0 -90 0 0 160 0 160 -510 0
-510 0 0 -142 c0 -79 -3 -446 -6 -815 l-7 -673 157 0 156 0 0 90 0 90 205 0
205 0 0 -90 0 -90 155 0 155 0 0 140 0 140 115 0 115 0 0 -145 0 -145 375 0
375 0 1 148 c1 81 0 177 -1 214 l-2 68 171 0 171 0 0 -485 0 -485 -75 0 -75 0
0 -105 0 -106 -77 3 -78 3 -3 252 -2 253 -528 2 c-290 2 -733 2 -984 0 l-458
-2 0 -255 0 -255 -195 0 -195 0 0 1130 0 1130 -250 0 -250 0 0 1405 c0 930 -3
1405 -10 1405 -7 0 -10 -453 -10 -1340 l0 -1340 -180 0 -180 0 -2 428 -3 427
-2 -427 -3 -428 -164 0 -164 0 -6 28 c-3 15 -28 202 -56 416 -28 215 -52 392
-55 394 -2 3 -660 -51 -1462 -120 -802 -69 -1459 -124 -1461 -122 -5 3 -35
745 -30 749 2 3 649 58 1437 124 788 66 1434 121 1436 123 2 2 -21 167 -51
368 -29 201 -54 370 -54 375 0 10 247 52 255 43 1 -1 29 -182 61 -400 33 -222
62 -394 67 -389 9 9 -104 796 -116 807 -3 3 -63 -3 -134 -14 -70 -11 -131 -17
-134 -13 -3 3 -34 202 -68 441 -35 239 -65 447 -68 463 l-5 27 1036 0 1036 0
0 180 0 180 455 0 455 0 0 -290z"/>
</g>
</svg>
