<svg width="813" height="749" viewBox="0 0 813 749" fill="none" xmlns="http://www.w3.org/2000/svg">
<g clip-path="url(#clip0_1217_2)">
<path d="M0 0C268.29 0 536.58 0 813 0C813 247.17 813 494.34 813 749C544.71 749 276.42 749 0 749C0 501.83 0 254.66 0 0Z" fill="#FCFCFC"/>
<path d="M0 0C268.29 0 536.58 0 813 0C813 247.17 813 494.34 813 749C544.71 749 276.42 749 0 749C0 501.83 0 254.66 0 0ZM407 6C407 41.97 407 77.94 407 115C365.09 115 323.18 115 280 115C280 93.55 280 72.1 280 50C275.38 50 270.76 50 266 50C266 71.45 266 92.9 266 115C215.84 115 165.68 115 114 115C114 106.42 114 97.84 114 89C108.06 89 102.12 89 96 89C96 103.19 96 117.38 96 132C102.6 132 109.2 132 116 132C116 286.44 116 440.88 116 600C103.46 600 90.92 600 78 600C78 596.7 78 593.4 78 590C73.05 590 68.1 590 63 590C63 601.88 63 613.76 63 626C175.86 626 288.72 626 405 626C405 663.95 405 701.9 405 741C427.11 741 449.22 741 472 741C472 703.05 472 665.1 472 626C552.52 626 633.04 626 716 626C716 619.73 716 613.46 716 607C708.74 607 701.48 607 694 607C694 436.39 694 265.78 694 90C687.07 90 680.14 90 673 90C673 98.25 673 106.5 673 115C606.34 115 539.68 115 471 115C471 79.03 471 43.06 471 6C449.88 6 428.76 6 407 6Z" fill="#141414"/>
<path d="M2 5.00002C101.681 4.93815 101.681 4.93815 203.375 4.87502C224.396 4.85682 245.417 4.83861 267.076 4.81985C292.648 4.81082 292.648 4.81082 304.6 4.80914C312.989 4.80727 321.378 4.7999 329.767 4.78887C339.431 4.77619 349.095 4.77034 358.758 4.77313C363.707 4.77434 368.655 4.77236 373.603 4.76159C378.07 4.75193 382.537 4.75133 387.004 4.75822C388.627 4.75908 390.249 4.75649 391.871 4.75026C394.067 4.74232 396.264 4.74651 398.46 4.75393C400.295 4.75279 400.295 4.75279 402.168 4.75163C405 5.00002 405 5.00002 407 7.00002C407.246 8.9328 407.246 8.9328 407.241 11.3406C407.245 12.705 407.245 12.705 407.249 14.0969C407.242 15.1015 407.234 16.1061 407.227 17.1411C407.227 18.2119 407.228 19.2827 407.228 20.3859C407.226 23.8641 407.211 27.3421 407.195 30.8203C407.192 32.9628 407.19 35.1053 407.189 37.2478C407.179 45.2069 407.151 53.166 407.125 61.125C407.084 78.9038 407.043 96.6825 407 115C365.09 115 323.18 115 280 115C280 93.55 280 72.1 280 50C275.38 50 270.76 50 266 50C266 71.45 266 92.9 266 115C215.84 115 165.68 115 114 115C114 106.42 114 97.84 114 89C108.06 89 102.12 89 96 89C96 103.19 96 117.38 96 132C102.6 132 109.2 132 116 132C116 286.44 116 440.88 116 600C103.46 600 90.92 600 78 600C78 599.67 78 599.34 78 599C90.21 599 102.42 599 115 599C115 583.49 115 567.98 115 552C78.37 551.67 41.74 551.34 4 551C4 527.57 4 504.14 4 480C3.34 480 2.68 480 2 480C2 323.25 2 166.5 2 5.00002Z" fill="#141414"/>
<path d="M471 158C529.08 158 587.16 158 647 158C647 193.31 647 228.62 647 265C636.77 265 626.54 265 616 265C616 279.52 616 294.04 616 309C626.23 309 636.46 309 647 309C647 325.17 647 341.34 647 358C636.77 358 626.54 358 616 358C616 372.52 616 387.04 616 402C626.89 402 637.78 402 649 402C649 461.07 649 520.14 649 581C604.78 581 560.56 581 515 581C515 555.92 515 530.84 515 505C510.71 505 506.42 505 502 505C502 530.08 502 555.16 502 581C491.77 581 481.54 581 471 581C471 441.41 471 301.82 471 158Z" fill="#141414"/>
<path d="M165 304C178.86 304 192.72 304 207 304C207 330.73 207 357.46 207 385C210.63 385 214.26 385 218 385C218 358.27 218 331.54 218 304C265.85 304 313.7 304 363 304C363 368.02 363 432.04 363 498C377.85 498 392.7 498 408 498C408 525.39 408 552.78 408 581C397.77 581 387.54 581 377 581C377 576.05 377 571.1 377 566C362.15 566 347.3 566 332 566C332 545.21 332 524.42 332 503C324.74 503 317.48 503 310 503C310 528.74 310 554.48 310 581C262.15 581 214.3 581 165 581C165 489.59 165 398.18 165 304Z" fill="#141414"/>
<path d="M158 157C225.98 157 293.96 157 364 157C364 161.29 364 165.58 364 170C377.86 170 391.72 170 406 170C406 201.02 406 232.04 406 264C373.33 264 340.66 264 307 264C307 262.35 307 260.7 307 259C290.83 259 274.66 259 258 259C258 260.98 258 262.96 258 265C225 265 192 265 158 265C158 229.36 158 193.72 158 157Z" fill="#141414"/>
<path d="M473 265C489.211 264.814 505.423 264.629 522.125 264.437C529.796 264.315 529.796 264.315 537.622 264.189C543.879 264.149 543.879 264.149 546.81 264.141C548.853 264.127 550.895 264.096 552.937 264.05C556.036 263.984 559.131 263.975 562.231 263.978C563.59 263.93 563.59 263.93 564.976 263.88C567.604 263.919 569.543 264.057 572 265C574.591 267.717 576.276 270.685 578 274C578.717 275.166 579.442 276.327 580.178 277.481C580.834 278.562 581.489 279.644 582.164 280.758C582.523 281.35 582.883 281.942 583.253 282.552C584.002 283.787 584.749 285.022 585.496 286.257C586.628 288.13 587.763 290.001 588.898 291.871C590.941 295.242 592.983 298.614 595 302C596.083 303.607 596.083 303.607 597.188 305.246C599.755 309.795 599.755 314.433 599.883 319.559C599.933 321.079 599.933 321.079 599.983 322.629C600.067 325.899 600.105 329.167 600.125 332.437C600.134 333.548 600.142 334.659 600.151 335.803C600.163 352.846 598.764 365.415 587.306 378.766C585.355 381.502 584.117 383.806 582.772 386.842C576.494 400.337 576.494 400.337 570.635 403.126C563.834 404.818 556.892 404.3 549.953 403.953C547.98 403.924 546.006 403.903 544.033 403.892C536.769 403.788 529.509 403.509 522.25 403.25C505.997 402.837 489.745 402.425 473 402C473 356.79 473 311.58 473 265Z" fill="#DCDCDC"/>
<path d="M0 0C268.29 0 536.58 0 813 0C813 247.17 813 494.34 813 749C544.71 749 276.42 749 0 749C0 501.83 0 254.66 0 0ZM2 5C2 248.54 2 492.08 2 743C267.32 743 532.64 743 806 743C806 499.46 806 255.92 806 5C540.68 5 275.36 5 2 5Z" fill="#FCFCFC"/>
<path d="M4 628C38.65 628 73.3 628 109 628C109 665.29 109 702.58 109 741C74.35 741 39.7 741 4 741C4 703.71 4 666.42 4 628Z" fill="#DCDCDC"/>
<path d="M695 7C730.97 7 766.94 7 804 7C804 41.98 804 76.96 804 113C768.03 113 732.06 113 695 113C695 78.02 695 43.04 695 7Z" fill="#DCDCDC"/>
<path d="M551 404C582.68 404 614.36 404 647 404C647 436.34 647 468.68 647 502C615.32 502 583.64 502 551 502C551 469.66 551 437.32 551 404Z" fill="#DCDCDC"/>
<path d="M111 627C136.74 627 162.48 627 189 627C189 664.62 189 702.24 189 741C163.26 741 137.52 741 111 741C111 703.38 111 665.76 111 627Z" fill="#DCDCDC"/>
<path d="M4 7C40.3 7 76.6 7 114 7C114 33.4 114 59.8 114 87C77.7 87 41.4 87 4 87C4 60.6 4 34.2 4 7Z" fill="#DCDCDC"/>
<path d="M257 627C282.41 627 307.82 627 334 627C334 664.62 334 702.24 334 741C308.59 741 283.18 741 257 741C257 703.38 257 665.76 257 627Z" fill="#DCDCDC"/>
<path d="M695 260C731.3 260 767.6 260 805 260C805 285.08 805 310.16 805 336C768.7 336 732.4 336 695 336C695 310.92 695 285.84 695 260Z" fill="#DCDCDC"/>
<path d="M695 405C731.3 405 767.6 405 805 405C805 429.75 805 454.5 805 480C768.7 480 732.4 480 695 480C695 455.25 695 430.5 695 405Z" fill="#DCDCDC"/>
<path d="M474 628C498.09 628 522.18 628 547 628C547 665.29 547 702.58 547 741C522.91 741 498.82 741 474 741C474 703.71 474 666.42 474 628Z" fill="#DCDCDC"/>
<path d="M2 480C2.66 480 3.32 480 4 480C4 503.43 4 526.86 4 551C11.8452 550.988 19.6905 550.977 27.7734 550.965C32.7318 550.96 37.6901 550.955 42.6484 550.951C50.5254 550.945 58.4023 550.938 66.2793 550.925C72.627 550.914 78.9747 550.908 85.3224 550.905C87.749 550.903 90.1756 550.9 92.6022 550.894C95.9905 550.887 99.3788 550.886 102.767 550.886C103.779 550.883 104.791 550.879 105.834 550.876C106.754 550.877 107.674 550.878 108.621 550.88C109.423 550.879 110.225 550.878 111.052 550.877C113 551 113 551 115 552C115 567.51 115 583.02 115 599C102.79 599 90.58 599 78 599C78 596.03 78 593.06 78 590C72.72 590 67.44 590 62 590C62 601.88 62 613.76 62 626C77.84 626.33 93.68 626.66 110 627C110 664.62 110 702.24 110 741C109.67 741 109.34 741 109 741C109 703.71 109 666.42 109 628C74.35 628 39.7 628 4 628C4 665.29 4 702.58 4 741C400.99 741.495 400.99 741.495 806 742C806 742.33 806 742.66 806 743C540.68 743 275.36 743 2 743C2 656.21 2 569.42 2 480Z" fill="#141414"/>
<path d="M695 115C730.97 115 766.94 115 804 115C804 139.75 804 164.5 804 190C768.03 190 732.06 190 695 190C695 165.25 695 140.5 695 115Z" fill="#DCDCDC"/>
<path d="M187 7C212.41 7 237.82 7 264 7C264 41.98 264 76.96 264 113C238.59 113 213.18 113 187 113C187 78.02 187 43.04 187 7Z" fill="#DCDCDC"/>
<path d="M472 7C497.08 7 522.16 7 548 7C548 41.98 548 76.96 548 113C522.92 113 497.84 113 472 113C472 78.02 472 43.04 472 7Z" fill="#DCDCDC"/>
<path d="M622 628C645.43 628 668.86 628 693 628C693 665.29 693 702.58 693 741C669.57 741 646.14 741 622 741C622 703.71 622 666.42 622 628Z" fill="#DCDCDC"/>
<path d="M695.5 627.5C731.14 627.5 766.78 627.5 803.5 627.5C803.5 664.79 803.5 702.08 803.5 740.5C767.86 740.5 732.22 740.5 695.5 740.5C695.5 703.21 695.5 665.92 695.5 627.5Z" fill="#DCDCDC"/>
<path d="M549 628C572.43 628 595.86 628 620 628C620 665.29 620 702.58 620 741C596.57 741 573.14 741 549 741C549 703.71 549 666.42 549 628Z" fill="#DCDCDC"/>
<path d="M4 406C40.3 406 76.6 406 114 406C114 429.76 114 453.52 114 478C77.7 478 41.4 478 4 478C4 454.24 4 430.48 4 406Z" fill="#DCDCDC"/>
<path d="M695 482C730.97 482 766.94 482 804 482C804 505.76 804 529.52 804 554C768.03 554 732.06 554 695 554C695 530.24 695 506.48 695 482Z" fill="#DCDCDC"/>
<path d="M4 480C40.3 480 76.6 480 114 480C114 503.43 114 526.86 114 551C77.7 551 41.4 551 4 551C4 527.57 4 504.14 4 480Z" fill="#DCDCDC"/>
<path d="M4 262C40.3 262 76.6 262 114 262C114 285.43 114 308.86 114 333C77.7 333 41.4 333 4 333C4 309.57 4 286.14 4 262Z" fill="#DCDCDC"/>
<path d="M336 627C358.44 627 380.88 627 404 627C404 664.62 404 702.24 404 741C381.56 741 359.12 741 336 741C336 703.38 336 665.76 336 627Z" fill="#DCDCDC"/>
<path d="M332 7C356.09 7 380.18 7 405 7C405 41.98 405 76.96 405 113C380.91 113 356.82 113 332 113C332 78.02 332 43.04 332 7Z" fill="#DCDCDC"/>
<path d="M4 190C40.3 190 76.6 190 114 190C114 213.1 114 236.2 114 260C77.7 260 41.4 260 4 260C4 236.9 4 213.8 4 190Z" fill="#DCDCDC"/>
<path d="M616 7C641.41 7 666.82 7 693 7C693 34.06 693 61.12 693 89C685.74 89 678.48 89 671 89C671 96.92 671 104.84 671 113C652.85 113 634.7 113 616 113C616 78.02 616 43.04 616 7Z" fill="#DCDCDC"/>
<path d="M95 89C95.33 89 95.66 89 96 89C96 103.19 96 117.38 96 132C102.6 132 109.2 132 116 132C115.67 150.48 115.34 168.96 115 188C78.37 188 41.74 188 4 188C4 164.57 4 141.14 4 117C33.7 117 63.4 117 94 117C94.33 107.76 94.66 98.52 95 89Z" fill="#DCDCDC"/>
<path d="M4 335C40.3 335 76.6 335 114 335C114 357.77 114 380.54 114 404C77.7 404 41.4 404 4 404C4 381.23 4 358.46 4 335Z" fill="#DCDCDC"/>
<path d="M232 159C252.13 159 272.26 159 293 159C293 172.2 293 185.4 293 199C306.53 199 320.06 199 334 199C334 185.8 334 172.6 334 159C343.24 159 352.48 159 362 159C362 182.43 362 205.86 362 230C319.1 230 276.2 230 232 230C232 206.57 232 183.14 232 159Z" fill="#DCDCDC"/>
<path d="M159 159C182.76 159 206.52 159 231 159C231 193.65 231 228.3 231 264C207.24 264 183.48 264 159 264C159 229.35 159 194.7 159 159Z" fill="#DCDCDC"/>
<path d="M472 159C475.96 159 479.92 159 484 159C484 164.28 484 169.56 484 175C489.28 175 494.56 175 500 175C500 170.05 500 165.1 500 160C515.18 160 530.36 160 546 160C546 193.99 546 227.98 546 263C521.58 263 497.16 263 472 263C472 228.68 472 194.36 472 159Z" fill="#DCDCDC"/>
<path d="M260 305C283.76 305 307.52 305 332 305C332 338.66 332 372.32 332 407C308.24 407 284.48 407 260 407C260 373.34 260 339.68 260 305Z" fill="#DCDCDC"/>
<path d="M116 7C138.77 7 161.54 7 185 7C185 41.98 185 76.96 185 113C162.23 113 139.46 113 116 113C116 78.02 116 43.04 116 7Z" fill="#DCDCDC"/>
<path d="M695 192C731.3 192 767.6 192 805 192C805 213.78 805 235.56 805 258C768.7 258 732.4 258 695 258C695 236.22 695 214.44 695 192Z" fill="#DCDCDC"/>
<path d="M191 628C212.12 628 233.24 628 255 628C255 665.29 255 702.58 255 741C233.88 741 212.76 741 191 741C191 703.71 191 666.42 191 628Z" fill="#DCDCDC"/>
<path d="M696 556C731.64 556 767.28 556 804 556C804 579.1 804 602.2 804 626C775.62 626 747.24 626 718 626C718 619.07 718 612.14 718 605C710.74 605 703.48 605 696 605C696 588.83 696 572.66 696 556Z" fill="#DCDCDC"/>
<path d="M695 338C730.97 338 766.94 338 804 338C804 359.45 804 380.9 804 403C768.03 403 732.06 403 695 403C695 381.55 695 360.1 695 338Z" fill="#DCDCDC"/>
<path d="M472 403C497.41 403 522.82 403 549 403C549 436 549 469 549 503C533.49 503 517.98 503 502 503C502 494.75 502 486.5 502 478C492.1 478 482.2 478 472 478C472 453.25 472 428.5 472 403Z" fill="#DCDCDC"/>
<path d="M2 5C110.24 5 218.48 5 330 5C330 5.33 330 5.66 330 6C282.81 6 235.62 6 187 6C187 41.64 187 77.28 187 114C212.74 114 238.48 114 265 114C265 114.33 265 114.66 265 115C215.17 115 165.34 115 114 115C114 106.42 114 97.84 114 89C107.73 89 101.46 89 95 89C95 103.52 95 118.04 95 133C94.67 133 94.34 133 94 133C94 127.72 94 122.44 94 117C64.3 117 34.6 117 4 117C4 140.43 4 163.86 4 188C40.63 188 77.26 188 115 188C115 169.85 115 151.7 115 133C115.33 133 115.66 133 116 133C116 287.11 116 441.22 116 600C103.46 600 90.92 600 78 600C78 599.67 78 599.34 78 599C90.21 599 102.42 599 115 599C115 583.49 115 567.98 115 552C114.34 551.67 113.68 551.34 113 551C113.33 527.57 113.66 504.14 114 480C77.04 480 40.08 480 2 480C2 323.25 2 166.5 2 5ZM4 7C4 33.4 4 59.8 4 87C40.3 87 76.6 87 114 87C114 60.6 114 34.2 114 7C77.7 7 41.4 7 4 7ZM116 7C116 41.98 116 76.96 116 113C138.77 113 161.54 113 185 113C185 78.02 185 43.04 185 7C162.23 7 139.46 7 116 7ZM4 190C4 213.1 4 236.2 4 260C40.3 260 76.6 260 114 260C114 236.9 114 213.8 114 190C77.7 190 41.4 190 4 190ZM4 262C4 285.43 4 308.86 4 333C40.3 333 76.6 333 114 333C114 309.57 114 286.14 114 262C77.7 262 41.4 262 4 262ZM4 335C4 357.77 4 380.54 4 404C40.3 404 76.6 404 114 404C114 381.23 114 358.46 114 335C77.7 335 41.4 335 4 335ZM4 406C4 429.76 4 453.52 4 478C40.3 478 76.6 478 114 478C114 454.24 114 430.48 114 406C77.7 406 41.4 406 4 406Z" fill="#141414"/>
<path d="M551 7C571.79 7 592.58 7 614 7C614 41.98 614 76.96 614 113C593.21 113 572.42 113 551 113C551 78.02 551 43.04 551 7Z" fill="#DCDCDC"/>
<path d="M260 409C283.76 409 307.52 409 332 409C332 439.36 332 469.72 332 501C315.17 501 298.34 501 281 501C281 497.04 281 493.08 281 489C274.07 489 267.14 489 260 489C260 462.6 260 436.2 260 409Z" fill="#DCDCDC"/>
<path d="M334 305C342.91 305 351.82 305 361 305C361 380.24 361 455.48 361 533C352.09 533 343.18 533 334 533C334 457.76 334 382.52 334 305Z" fill="#DCDCDC"/>
<path d="M167 409C197.03 409 227.06 409 258 409C258 428.14 258 447.28 258 467C247.77 467 237.54 467 227 467C227 469.64 227 472.28 227 475C207.2 475 187.4 475 167 475C167 453.22 167 431.44 167 409Z" fill="#DCDCDC"/>
<path d="M591 160C608.82 160 626.64 160 645 160C645 186.4 645 212.8 645 240C627.18 240 609.36 240 591 240C591 213.6 591 187.2 591 160Z" fill="#DCDCDC"/>
<path d="M548 159C561.53 159 575.06 159 589 159C589 193.32 589 227.64 589 263C575.47 263 561.94 263 548 263C548 228.68 548 194.36 548 159Z" fill="#DCDCDC"/>
<path d="M593 504C610.82 504 628.64 504 647 504C647 528.75 647 553.5 647 579C629.18 579 611.36 579 593 579C593 554.25 593 529.5 593 504Z" fill="#DCDCDC"/>
<path d="M158 158C225.32 158 292.64 158 362 158C362 158.33 362 158.66 362 159C352.76 159 343.52 159 334 159C334 172.2 334 185.4 334 199C320.47 199 306.94 199 293 199C293 185.8 293 172.6 293 159C272.87 159 252.74 159 232 159C232 182.43 232 205.86 232 230C256.42 230 280.84 230 306 230C306 230.33 306 230.66 306 231C298.74 231 291.48 231 284 231C284.012 232.937 284.023 234.875 284.035 236.871C284.045 239.393 284.054 241.915 284.062 244.438C284.071 245.717 284.079 246.996 284.088 248.314C284.091 249.529 284.094 250.744 284.098 251.996C284.103 253.122 284.108 254.248 284.114 255.408C284 258 284 258 283 259C281.146 259.087 279.289 259.107 277.434 259.098C276.309 259.094 275.184 259.091 274.025 259.088C272.841 259.08 271.657 259.071 270.438 259.062C269.25 259.058 268.062 259.053 266.838 259.049C263.892 259.037 260.946 259.021 258 259C258 260.98 258 262.96 258 265C225 265 192 265 158 265C158 229.69 158 194.38 158 158ZM159 159C159 193.65 159 228.3 159 264C182.76 264 206.52 264 231 264C231 229.35 231 194.7 231 159C207.24 159 183.48 159 159 159Z" fill="#141414"/>
<path d="M167 504C183.17 504 199.34 504 216 504C216 528.75 216 553.5 216 579C199.83 579 183.66 579 167 579C167 554.25 167 529.5 167 504Z" fill="#DCDCDC"/>
<path d="M218 504C231.53 504 245.06 504 259 504C259 529.08 259 554.16 259 580C245.47 580 231.94 580 218 580C218 554.92 218 529.84 218 504Z" fill="#DCDCDC"/>
<path d="M551 505C564.2 505 577.4 505 591 505C591 529.42 591 553.84 591 579C577.8 579 564.6 579 551 579C551 554.58 551 530.16 551 505Z" fill="#DCDCDC"/>
<path d="M266 7C286.79 7 307.58 7 329 7C329 20.86 329 34.72 329 49C308.21 49 287.42 49 266 49C266 35.14 266 21.28 266 7Z" fill="#DCDCDC"/>
<path d="M4 553C28.42 553 52.84 553 78 553C78 564.55 78 576.1 78 588C53.58 588 29.16 588 4 588C4 576.45 4 564.9 4 553Z" fill="#DCDCDC"/>
<path d="M219 305C231.87 305 244.74 305 258 305C258 326.78 258 348.56 258 371C245.13 371 232.26 371 219 371C219 349.22 219 327.44 219 305Z" fill="#DCDCDC"/>
<path d="M334 535C357.76 535 381.52 535 406 535C406 549.52 406 564.04 406 579C397.09 579 388.18 579 379 579C379 574.05 379 569.1 379 564C364.15 564 349.3 564 334 564C334 554.43 334 544.86 334 535Z" fill="#DCDCDC"/>
<path d="M517 504C527.56 504 538.12 504 549 504C549 528.75 549 553.5 549 579C538.44 579 527.88 579 517 579C517 554.25 517 529.5 517 504Z" fill="#DCDCDC"/>
<path d="M4 89C33.7 89 63.4 89 94 89C94 97.58 94 106.16 94 115C64.3 115 34.6 115 4 115C4 106.42 4 97.84 4 89Z" fill="#DCDCDC"/>
<path d="M472 480C481.24 480 490.48 480 500 480C500 487.92 500 495.84 500 504C505.28 504 510.56 504 516 504C516 529.41 516 554.82 516 581C515.67 581 515.34 581 515 581C515 555.92 515 530.84 515 505C510.71 505 506.42 505 502 505C502 521.5 502 538 502 555C492.1 555 482.2 555 472 555C472 530.25 472 505.5 472 480Z" fill="#DCDCDC"/>
<path d="M4 590C23.14 590 42.28 590 62 590C62 601.88 62 613.76 62 626C42.86 626 23.72 626 4 626C4 614.12 4 602.24 4 590Z" fill="#DCDCDC"/>
<path d="M601 310C615.52 310 630.04 310 645 310C645 325.18 645 340.36 645 356C630.48 356 615.96 356 601 356C601 340.82 601 325.64 601 310Z" fill="#DCDCDC"/>
<path d="M280 503C289.24 503 298.48 503 308 503C308 518.84 308 534.68 308 551C292.49 551 276.98 551 261 551C261 541.76 261 532.52 261 523C267.27 523 273.54 523 280 523C280 516.4 280 509.8 280 503Z" fill="#DCDCDC"/>
<path d="M405 5C500.37 5 595.74 5 694 5C694 32.72 694 60.44 694 89C693.67 89 693.34 89 693 89C693 61.94 693 34.88 693 7C667.59 7 642.18 7 616 7C616 41.98 616 76.96 616 113C634.15 113 652.3 113 671 113C671 105.08 671 97.16 671 89C671.33 89 671.66 89 672 89C672 97.25 672 105.5 672 114C630.038 114.904 588.103 115.132 546.133 115.072C536.346 115.058 526.56 115.053 516.773 115.048C501.515 115.038 486.258 115.018 471 115C471 79.03 471 43.06 471 6C449.88 6.33 428.76 6.66 407 7C406.67 42.31 406.34 77.62 406 114C405.67 114 405.34 114 405 114C405 78.03 405 42.06 405 5ZM472 7C472 41.98 472 76.96 472 113C497.08 113 522.16 113 548 113C548 78.02 548 43.04 548 7C522.92 7 497.84 7 472 7ZM551 7C551 41.98 551 76.96 551 113C571.79 113 592.58 113 614 113C614 78.02 614 43.04 614 7C593.21 7 572.42 7 551 7Z" fill="#141414"/>
<path d="M805 191C805.33 191 805.66 191 806 191C806.03 246.734 806.051 302.468 806.062 358.202C806.062 361.366 806.063 364.529 806.064 367.692C806.105 570.437 806.105 570.437 805.5 670.75C805.494 671.707 805.488 672.663 805.482 673.649C805.341 696.1 805.186 718.55 805 741C804.67 741 804.34 741 804 741C804 703.71 804 666.42 804 628C768.03 628 732.06 628 695 628C695 627.34 695 626.68 695 626C701.93 626 708.86 626 716 626C716 619.73 716 613.46 716 607C708.74 607 701.48 607 694 607C693.808 572.511 693.808 572.511 695 556C695.33 556 695.66 556 696 556C696 572.17 696 588.34 696 605C703.26 605 710.52 605 718 605C718 611.93 718 618.86 718 626C746.38 626 774.76 626 804 626C803.67 602.9 803.34 579.8 803 556C767.36 555.67 731.72 555.34 695 555C695 554.67 695 554.34 695 554C730.97 554 766.94 554 804 554C804 530.24 804 506.48 804 482C768.03 482 732.06 482 695 482C695.33 481.34 695.66 480.68 696 480C731.97 480 767.94 480 805 480C805 455.25 805 430.5 805 405C768.7 404.67 732.4 404.34 695 404C695 403.67 695 403.34 695 403C730.97 403 766.94 403 804 403C804 381.55 804 360.1 804 338C768.03 338 732.06 338 695 338C695 337.67 695 337.34 695 337C731.3 336.67 767.6 336.34 805 336C805 288.15 805 240.3 805 191Z" fill="#141414"/>
<path d="M308 232C325.82 232 343.64 232 362 232C362 241.9 362 251.8 362 262C344.18 262 326.36 262 308 262C308 252.1 308 242.2 308 232Z" fill="#DCDCDC"/>
<path d="M167 373C179.54 373 192.08 373 205 373C205 377.29 205 381.58 205 386C209.29 386 213.58 386 218 386C218 392.93 218 399.86 218 407C201.17 407 184.34 407 167 407C167 395.78 167 384.56 167 373Z" fill="#DCDCDC"/>
<path d="M229 469C238.57 469 248.14 469 258 469C258 476.26 258 483.52 258 491C264.93 491 271.86 491 279 491C279 501.23 279 511.46 279 522C273.06 522 267.12 522 261 522C261 515.4 261 508.8 261 502C250.44 502 239.88 502 229 502C229 491.11 229 480.22 229 469Z" fill="#DCDCDC"/>
<path d="M80 553C91.22 553 102.44 553 114 553C114 567.85 114 582.7 114 598C102.78 598 91.56 598 80 598C80 583.15 80 568.3 80 553Z" fill="#DCDCDC"/>
<path d="M294 159C306.87 159 319.74 159 333 159C333 171.87 333 184.74 333 198C320.13 198 307.26 198 294 198C294 185.13 294 172.26 294 159Z" fill="#DCDCDC"/>
<path d="M167 477C186.8 477 206.6 477 227 477C227 485.25 227 493.5 227 502C207.2 502 187.4 502 167 502C167 493.75 167 485.5 167 477Z" fill="#DCDCDC"/>
<path d="M363 500C377.19 500 391.38 500 406 500C406 511.22 406 522.44 406 534C391.81 534 377.62 534 363 534C363 522.78 363 511.56 363 500Z" fill="#DCDCDC"/>
<path d="M471 160C471.33 160 471.66 160 472 160C472 193.99 472 227.98 472 263C496.09 263 520.18 263 545 263C545 263.33 545 263.66 545 264C520.91 264 496.82 264 472 264C472 309.54 472 355.08 472 402C497.41 402 522.82 402 549 402C549 402.33 549 402.66 549 403C523.59 403 498.18 403 472 403C472 427.75 472 452.5 472 478C481.9 478 491.8 478 502 478C502 486.25 502 494.5 502 503C501.67 503 501.34 503 501 503C500.67 495.41 500.34 487.82 500 480C490.76 480 481.52 480 472 480C472 496.17 472 512.34 472 529C481.57 529 491.14 529 501 529C501 529.33 501 529.66 501 530C491.43 530 481.86 530 472 530C472 538.25 472 546.5 472 555C481.9 555 491.8 555 502 555C502 563.58 502 572.16 502 581C491.77 581 481.54 581 471 581C471 442.07 471 303.14 471 160Z" fill="#141414"/>
<path d="M282 83C297.51 83 313.02 83 329 83C329 92.9 329 102.8 329 113C313.49 113 297.98 113 282 113C282 103.1 282 93.2 282 83Z" fill="#DCDCDC"/>
<path d="M219 372C231.87 372 244.74 372 258 372C258 383.55 258 395.1 258 407C245.13 407 232.26 407 219 407C219 395.45 219 383.9 219 372Z" fill="#DCDCDC"/>
<path d="M282 51C297.51 51 313.02 51 329 51C329 60.57 329 70.14 329 80C313.49 80 297.98 80 282 80C282 70.43 282 60.86 282 51Z" fill="#DCDCDC"/>
<path d="M166 305C178.87 305 191.74 305 205 305C205 315.89 205 326.78 205 338C192.13 338 179.26 338 166 338C166 327.11 166 316.22 166 305Z" fill="#DCDCDC"/>
<path d="M261 553C276.51 553 292.02 553 308 553C308 561.58 308 570.16 308 579C292.49 579 276.98 579 261 579C261 570.42 261 561.84 261 553Z" fill="#DCDCDC"/>
<path d="M364 232C377.2 232 390.4 232 404 232C404 241.9 404 251.8 404 262C390.8 262 377.6 262 364 262C364 252.1 364 242.2 364 232Z" fill="#DCDCDC"/>
<path d="M575 265C587.87 265 600.74 265 614 265C614 279.52 614 294.04 614 309C609.38 309 604.76 309 600 309C596.78 305.508 595.317 303.389 593.375 299.25C592.318 297.239 591.26 295.228 590.199 293.219C589.417 291.674 589.417 291.674 588.619 290.098C586.044 285.171 583.11 280.476 580.188 275.75C579.176 274.102 578.169 272.451 577.168 270.797C576.748 270.109 576.328 269.422 575.895 268.714C575 267 575 267 575 265Z" fill="#DCDCDC"/>
<path d="M600 358C604.62 358 609.24 358 614 358C614 372.52 614 387.04 614 402C601.13 402 588.26 402 575 402C576.666 397.835 578.438 394.36 580.703 390.52C581.063 389.907 581.424 389.294 581.795 388.662C582.943 386.71 584.097 384.761 585.25 382.812C586.384 380.886 587.518 378.96 588.649 377.032C589.391 375.778 590.14 374.528 590.897 373.283C592.58 370.502 594.076 367.828 595.393 364.845C596.672 362.074 596.672 362.074 600 358Z" fill="#DCDCDC"/>
<path d="M364 172C377.2 172 390.4 172 404 172C404 181.57 404 191.14 404 201C390.8 201 377.6 201 364 201C364 191.43 364 181.86 364 172Z" fill="#DCDCDC"/>
<path d="M167 340C179.54 340 192.08 340 205 340C205 349.9 205 359.8 205 370C192.46 370 179.92 370 167 370C167 360.1 167 350.2 167 340Z" fill="#DCDCDC"/>
<path d="M591 242C608.82 242 626.64 242 645 242C645 248.93 645 255.86 645 263C627.18 263 609.36 263 591 263C591 256.07 591 249.14 591 242Z" fill="#DCDCDC"/>
<path d="M363 203C376.86 203 390.72 203 405 203C405 211.91 405 220.82 405 230C391.14 230 377.28 230 363 230C363 221.09 363 212.18 363 203Z" fill="#DCDCDC"/>
<path d="M648 402C648.33 402 648.66 402 649 402C649 461.07 649 520.14 649 581C630.19 581 611.38 581 592 581C591.67 580.67 591.34 580.34 591 580C587.97 579.911 584.963 579.885 581.934 579.902C581.129 579.903 580.324 579.904 579.494 579.905C576.475 579.911 573.456 579.925 570.438 579.938C563.693 579.958 556.949 579.979 550 580C550 554.92 550 529.84 550 504C582.346 503.079 614.643 502.888 647 503C646.998 501.764 646.996 500.528 646.993 499.255C646.973 487.63 646.958 476.005 646.948 464.38C646.943 458.402 646.936 452.425 646.925 446.448C646.914 440.684 646.908 434.92 646.905 429.156C646.903 426.952 646.9 424.749 646.894 422.546C646.887 419.469 646.886 416.392 646.886 413.315C646.883 412.396 646.879 411.478 646.876 410.532C646.877 409.696 646.878 408.86 646.88 407.999C646.879 407.271 646.878 406.542 646.877 405.792C647 404 647 404 648 402ZM593 504C593 528.75 593 553.5 593 579C610.82 579 628.64 579 647 579C647 554.25 647 529.5 647 504C629.18 504 611.36 504 593 504ZM551 505C551 529.42 551 553.84 551 579C564.2 579 577.4 579 591 579C591 554.58 591 530.16 591 505C577.8 505 564.6 505 551 505Z" fill="#141414"/>
<path d="M232 232C239.92 232 247.84 232 256 232C256 242.56 256 253.12 256 264C248.08 264 240.16 264 232 264C232 253.44 232 242.88 232 232Z" fill="#DCDCDC"/>
<path d="M362 304C362.33 304 362.66 304 363 304C363 368.02 363 432.04 363 498C377.85 498 392.7 498 408 498C408 525.39 408 552.78 408 581C397.77 581 387.54 581 377 581C377 576.05 377 571.1 377 566C362.15 566 347.3 566 332 566C332 556.1 332 546.2 332 536C332.66 535.67 333.32 535.34 334 535C334 544.57 334 554.14 334 564C348.85 564 363.7 564 379 564C379 568.95 379 573.9 379 579C388.24 579.33 397.48 579.66 407 580C407 553.27 407 526.54 407 499C392.15 499 377.3 499 362 499C362 510.55 362 522.1 362 534C361.67 534 361.34 534 361 534C360.977 504.844 360.96 475.688 360.949 446.531C360.948 443.093 360.946 439.654 360.945 436.216C360.945 435.531 360.945 434.846 360.944 434.141C360.94 423.042 360.932 411.943 360.923 400.844C360.914 389.463 360.908 378.083 360.906 366.703C360.905 360.307 360.902 353.911 360.894 347.516C360.888 341.503 360.885 335.491 360.887 329.479C360.887 327.265 360.885 325.052 360.881 322.838C360.876 319.83 360.877 316.822 360.88 313.814C360.877 312.926 360.874 312.038 360.871 311.123C360.886 305.114 360.886 305.114 362 304Z" fill="#141414"/>
<path d="M259 409C259.33 409 259.66 409 260 409C260 435.4 260 461.8 260 489C266.93 489 273.86 489 281 489C281 492.96 281 496.92 281 501C297.83 501 314.66 501 332 501C331.34 501.66 330.68 502.32 330 503C323.4 503 316.8 503 310 503C310 528.74 310 554.48 310 581C293.17 581 276.34 581 259 581C259.33 571.43 259.66 561.86 260 552C275.84 551.67 291.68 551.34 308 551C308 535.16 308 519.32 308 503C298.76 503 289.52 503 280 503C280 509.6 280 516.2 280 523C279.01 522.67 278.02 522.34 277 522C277.66 522 278.32 522 279 522C279 511.77 279 501.54 279 491C272.07 491 265.14 491 258 491C258 483.74 258 476.48 258 469C248.43 469 238.86 469 229 469C229 468.67 229 468.34 229 468C238.57 467.67 248.14 467.34 258 467C258.33 447.86 258.66 428.72 259 409ZM261 553C261 561.58 261 570.16 261 579C276.51 579 292.02 579 308 579C308 570.42 308 561.84 308 553C292.49 553 276.98 553 261 553Z" fill="#141414"/>
<path d="M258 232C266.25 232 274.5 232 283 232C283 240.58 283 249.16 283 258C274.75 258 266.5 258 258 258C258 249.42 258 240.84 258 232Z" fill="#DCDCDC"/>
<path d="M187 6C234.19 6 281.38 6 330 6C330 20.19 330 34.38 330 49C329.67 49 329.34 49 329 49C329 35.14 329 21.28 329 7C308.21 7 287.42 7 266 7C266 20.86 266 34.72 266 49C286.46 49 306.92 49 328 49C328 49.33 328 49.66 328 50C312.49 50 296.98 50 281 50C281 60.23 281 70.46 281 81C296.51 81 312.02 81 328 81C328 81.33 328 81.66 328 82C312.49 82 296.98 82 281 82C281 92.56 281 103.12 281 114C280.67 114 280.34 114 280 114C280 92.88 280 71.76 280 50C275.38 50 270.76 50 266 50C266 71.45 266 92.9 266 115C239.93 114.67 213.86 114.34 187 114C187 113.67 187 113.34 187 113C212.41 113 237.82 113 264 113C264 78.02 264 43.04 264 7C238.59 7 213.18 7 187 7C187 6.67 187 6.34 187 6Z" fill="#141414"/>
<path d="M472 556C481.24 556 490.48 556 500 556C500 563.59 500 571.18 500 579C490.76 579 481.52 579 472 579C472 571.41 472 563.82 472 556Z" fill="#DCDCDC"/>
<path d="M473 531C481.91 531 490.82 531 500 531C500 538.59 500 546.18 500 554C491.09 554 482.18 554 473 554C473 546.41 473 538.82 473 531Z" fill="#DCDCDC"/>
<path d="M695 556C695.33 556 695.66 556 696 556C696 572.17 696 588.34 696 605C703.26 605 710.52 605 718 605C718 611.93 718 618.86 718 626C746.38 626 774.76 626 804 626C804 602.9 804 579.8 804 556C804.33 556 804.66 556 805 556C805 617.05 805 678.1 805 741C804.67 741 804.34 741 804 741C804 703.71 804 666.42 804 628C768.03 628 732.06 628 695 628C695 627.34 695 626.68 695 626C701.93 626 708.86 626 716 626C716 619.73 716 613.46 716 607C708.74 607 701.48 607 694 607C693.808 572.511 693.808 572.511 695 556Z" fill="#141414"/>
<path d="M285 232C291.93 232 298.86 232 306 232C306 240.58 306 249.16 306 258C299.07 258 292.14 258 285 258C285 249.42 285 240.84 285 232Z" fill="#DCDCDC"/>
<path d="M158 157C225.98 157 293.96 157 364 157C364 161.29 364 165.58 364 170C377.86 170 391.72 170 406 170C405.67 180.89 405.34 191.78 405 203C391.14 203 377.28 203 363 203C363 211.58 363 220.16 363 229C362.67 229 362.34 229 362 229C362 205.57 362 182.14 362 158C294.68 158 227.36 158 158 158C158 157.67 158 157.34 158 157ZM364 172C364 181.57 364 191.14 364 201C377.2 201 390.4 201 404 201C404 191.43 404 181.86 404 172C390.8 172 377.6 172 364 172Z" fill="#141414"/>
<path d="M2.99999 590C3.32999 590 3.65999 590 3.99999 590C3.99999 602.21 3.99999 614.42 3.99999 627C38.98 627 73.96 627 110 627C110 664.62 110 702.24 110 741C109.67 741 109.34 741 109 741C109 703.71 109 666.42 109 628C74.35 628 39.7 628 3.99999 628C3.99999 665.29 3.99999 702.58 3.99999 741C3.33999 741.33 2.67999 741.66 1.99999 742C1.97631 727.497 1.95884 712.994 1.94817 698.492C1.94308 691.753 1.93605 685.015 1.92455 678.276C1.87557 648.836 1.86239 619.423 2.99999 590Z" fill="#141414"/>
<path d="M227 503C237.89 503 248.78 503 260 503C260.495 511.91 260.495 511.91 261 521C266.28 521.33 271.56 521.66 277 522C277 522.33 277 522.66 277 523C271.72 523 266.44 523 261 523C261 532.24 261 541.48 261 551C275.85 551 290.7 551 306 551C306 551.33 306 551.66 306 552C290.82 552 275.64 552 260 552C260 561.24 260 570.48 260 580C259.67 580 259.34 580 259 580C259 554.92 259 529.84 259 504C248.44 504 237.88 504 227 504C227 503.67 227 503.34 227 503ZM217 503C217.33 503 217.66 503 218 503C218 528.41 218 553.82 218 580C231.53 580 245.06 580 259 580C259 580.33 259 580.66 259 581C227.98 581 196.96 581 165 581C165 555.59 165 530.18 165 504C165.33 504 165.66 504 166 504C166 529.08 166 554.16 166 580C182.83 580 199.66 580 217 580C217 554.59 217 529.18 217 503Z" fill="#141414"/>
<path d="M116 260C116.031 270.875 116.051 281.75 116.062 292.625C116.063 293.444 116.064 294.263 116.065 295.107C116.089 321.283 115.905 347.452 115.5 373.625C115.488 374.399 115.476 375.172 115.464 375.97C115.319 385.313 115.164 394.657 115 404C114.67 404 114.34 404 114 404C113.67 381.23 113.34 358.46 113 335C77.03 334.67 41.06 334.34 4 334C4 333.67 4 333.34 4 333C40.3 333 76.6 333 114 333C114 309.57 114 286.14 114 262C77.7 262 41.4 262 4 262C4 261.67 4 261.34 4 261C18.4553 260.87 32.9107 260.739 47.366 260.609C54.0774 260.548 60.7888 260.488 67.5002 260.427C73.9711 260.369 80.442 260.311 86.9129 260.252C89.3878 260.23 91.8627 260.208 94.3375 260.185C97.7907 260.154 101.244 260.123 104.697 260.092C106.249 260.078 106.249 260.078 107.831 260.063C108.767 260.055 109.702 260.047 110.666 260.038C111.892 260.027 111.892 260.027 113.143 260.016C114.096 260.008 115.048 260 116 260Z" fill="#141414"/>
<path d="M259 305C259.33 305 259.66 305 260 305C260 338.66 260 372.32 260 407C283.76 407 307.52 407 332 407C332 407.33 332 407.66 332 408C307.91 408.33 283.82 408.66 259 409C259 428.14 259 447.28 259 467C258.67 467 258.34 467 258 467C258 447.86 258 428.72 258 409C244.8 409 231.6 409 218 409C218 408.67 218 408.34 218 408C231.2 408 244.4 408 258 408C257.979 403.256 257.959 398.512 257.938 393.625C257.9 374.31 258.195 355 258.5 335.688C258.512 334.93 258.524 334.172 258.536 333.392C258.686 323.928 258.841 314.464 259 305ZM227 467C237.23 467 247.46 467 258 467C258 467.33 258 467.66 258 468C248.43 468.33 238.86 468.66 229 469C228.67 471.31 228.34 473.62 228 476C227.67 476 227.34 476 227 476C227 473.03 227 470.06 227 467ZM167 476C186.8 476 206.6 476 227 476C227 476.33 227 476.66 227 477C207.2 477 187.4 477 167 477C167 476.67 167 476.34 167 476Z" fill="#141414"/>
<path d="M646 309C646.33 309 646.66 309 647 309C647 325.17 647 341.34 647 358C636.77 358 626.54 358 616 358C616 372.52 616 387.04 616 402C615.34 402 614.68 402 614 402C614 387.48 614 372.96 614 358C609.38 358 604.76 358 600 358C599.01 360.475 599.01 360.475 598 363C596.799 365.179 595.561 367.337 594.297 369.48C593.937 370.093 593.576 370.706 593.205 371.338C592.057 373.29 590.903 375.239 589.75 377.188C588.991 378.477 588.231 379.767 587.473 381.057C583.35 388.059 579.195 395.041 575 402C574.34 401.34 573.68 400.68 573 400C573.295 399.509 573.591 399.019 573.895 398.513C574.315 397.815 574.735 397.117 575.168 396.398C575.881 395.218 575.881 395.218 576.608 394.015C577.684 392.216 578.746 390.409 579.796 388.595C582.503 383.952 585.224 379.603 588.656 375.461C603.087 356.884 599.661 332.339 599 310C599.33 310 599.66 310 600 310C600 325.51 600 341.02 600 357C607.92 356.505 607.92 356.505 616 356C621.173 355.936 626.329 355.903 631.5 355.938C632.811 355.942 634.122 355.947 635.473 355.951C638.648 355.963 641.824 355.979 645 356C644.998 355.426 644.996 354.852 644.993 354.26C644.971 348.307 644.956 342.355 644.945 336.402C644.94 334.177 644.933 331.953 644.925 329.729C644.912 326.539 644.907 323.35 644.902 320.16C644.897 319.159 644.892 318.158 644.887 317.127C644.887 316.206 644.887 315.285 644.886 314.336C644.884 313.521 644.882 312.706 644.88 311.867C645 310 645 310 646 309Z" fill="#141414"/>
<path d="M472 626C496.75 626 521.5 626 547 626C547 626.66 547 627.32 547 628C522.91 628 498.82 628 474 628C474 665.29 474 702.58 474 741C473.34 741 472.68 741 472 741C472 703.05 472 665.1 472 626Z" fill="#141414"/>
<path d="M363 498C377.85 498 392.7 498 408 498C408 525.39 408 552.78 408 581C397.77 581 387.54 581 377 581C377 576.05 377 571.1 377 566C362.15 566 347.3 566 332 566C332 556.1 332 546.2 332 536C332.99 535.505 332.99 535.505 334 535C334 544.57 334 554.14 334 564C348.85 564 363.7 564 379 564C379 568.95 379 573.9 379 579C392.86 579.495 392.86 579.495 407 580C407 553.27 407 526.54 407 499C392.48 499 377.96 499 363 499C363 498.67 363 498.34 363 498Z" fill="#141414"/>
<path d="M259 409C259.33 409 259.66 409 260 409C260 435.4 260 461.8 260 489C266.93 489 273.86 489 281 489C281 492.96 281 496.92 281 501C297.83 501 314.66 501 332 501C332 501.33 332 501.66 332 502C314.84 502 297.68 502 280 502C279.67 498.37 279.34 494.74 279 491C272.07 491 265.14 491 258 491C258 483.74 258 476.48 258 469C248.43 469 238.86 469 229 469C229 468.67 229 468.34 229 468C238.57 467.67 248.14 467.34 258 467C258.33 447.86 258.66 428.72 259 409Z" fill="#141414"/>
<path d="M206 304C206.33 304 206.66 304 207 304C207 315.88 207 327.76 207 340C193.8 340 180.6 340 167 340C167 349.9 167 359.8 167 370C179.54 370 192.08 370 205 370C205 370.33 205 370.66 205 371C192.13 371 179.26 371 166 371C166 360.11 166 349.22 166 338C178.87 338 191.74 338 205 338C204.96 327.185 204.96 327.185 204.91 316.369C204.907 315.018 204.904 313.667 204.902 312.316C204.897 311.609 204.892 310.902 204.887 310.173C204.887 308.448 204.938 306.724 205 305C205.33 304.67 205.66 304.34 206 304Z" fill="#141414"/>
<path d="M471 529C480.9 529 490.8 529 501 529C501 529.33 501 529.66 501 530C491.43 530 481.86 530 472 530C472 538.25 472 546.5 472 555C481.9 555 491.8 555 502 555C502 563.58 502 572.16 502 581C491.77 581 481.54 581 471 581C471 563.84 471 546.68 471 529ZM472 556C472 563.59 472 571.18 472 579C481.24 579 490.48 579 500 579C500 571.41 500 563.82 500 556C490.76 556 481.52 556 472 556Z" fill="#141414"/>
<path d="M486 160C489.96 160 493.92 160 498 160C498 164.29 498 168.58 498 173C494.04 173 490.08 173 486 173C486 168.71 486 164.42 486 160Z" fill="#DCDCDC"/>
<path d="M589 240C607.81 240 626.62 240 646 240C644 242 644 242 641.747 242.241C640.342 242.234 640.342 242.234 638.908 242.227C637.847 242.227 636.786 242.227 635.693 242.227C634.544 242.216 633.395 242.206 632.211 242.195C631.037 242.192 629.864 242.19 628.655 242.187C624.895 242.176 621.135 242.15 617.375 242.125C614.831 242.115 612.286 242.106 609.742 242.098C603.495 242.076 597.247 242.041 591 242C591 248.93 591 255.86 591 263C590.34 262.67 589.68 262.34 589 262C589 254.74 589 247.48 589 240Z" fill="#141414"/>
<path d="M471 158C480.57 158 490.14 158 500 158C500 163.61 500 169.22 500 175C494.72 175 489.44 175 484 175C484 169.72 484 164.44 484 159C477.565 159.495 477.565 159.495 471 160C471 159.34 471 158.68 471 158ZM486 160C486 164.29 486 168.58 486 173C489.96 173 493.92 173 498 173C498 168.71 498 164.42 498 160C494.04 160 490.08 160 486 160Z" fill="#141414"/>
<path d="M227 503C237.89 503 248.78 503 260 503C260.495 511.91 260.495 511.91 261 521C266.28 521.33 271.56 521.66 277 522C277 522.33 277 522.66 277 523C271.72 523 266.44 523 261 523C261 532.24 261 541.48 261 551C260.34 551 259.68 551 259 551C259 535.49 259 519.98 259 504C248.44 504 237.88 504 227 504C227 503.67 227 503.34 227 503Z" fill="#141414"/>
<path d="M500 556C500.66 556 501.32 556 502 556C502 564.25 502 572.5 502 581C491.77 581 481.54 581 471 581C471.33 580.34 471.66 579.68 472 579C481.24 579 490.48 579 500 579C500 571.41 500 563.82 500 556Z" fill="#141414"/>
</g>
<defs>
<clipPath id="clip0_1217_2">
<rect width="813" height="749" fill="white"/>
</clipPath>
</defs>
</svg>
