<svg width="810" height="746" viewBox="0 0 810 746" fill="none" xmlns="http://www.w3.org/2000/svg">
<g clip-path="url(#clip0_1217_116)">
<path d="M0 0C267.3 0 534.6 0 810 0C810 246.18 810 492.36 810 746C542.7 746 275.4 746 0 746C0 499.82 0 253.64 0 0Z" fill="#141414"/>
<path d="M0 0C267.3 0 534.6 0 810 0C810 246.18 810 492.36 810 746C542.7 746 275.4 746 0 746C0 499.82 0 253.64 0 0ZM3 3C3 246.54 3 490.08 3 741C268.32 741 533.64 741 807 741C807 667.74 807 594.48 807 519C806.67 519 806.34 519 806 519C806 541.44 806 563.88 806 587C759.14 587 712.28 587 664 587C664 568.19 664 549.38 664 530C668.29 530 672.58 530 677 530C677 525.38 677 520.76 677 516C698.45 516 719.9 516 742 516C742 498.51 742 481.02 742 463C747.28 463 752.56 463 758 463C758 481.48 758 499.96 758 519C758.33 519 758.66 519 759 519C759 506.46 759 493.92 759 481C773.85 481 788.7 481 804 481C804 480.67 804 480.34 804 480C789.15 480 774.3 480 759 480C759 468.45 759 456.9 759 445C773.85 445 788.7 445 804 445C804 444.67 804 444.34 804 444C782.88 444 761.76 444 740 444C740 433.77 740 423.54 740 413C739.67 413 739.34 413 739 413C739 422.9 739 432.8 739 443C724.15 443 709.3 443 694 443C694 433.43 694 423.86 694 414C708.19 414 722.38 414 737 414C737 413.67 737 413.34 737 413C722.81 413 708.62 413 694 413C694 398.48 694 383.96 694 369C693.67 369 693.34 369 693 369C693 393.75 693 418.5 693 444C683.1 444 673.2 444 663 444C663 467.76 663 491.52 663 516C667.29 516 671.58 516 676 516C676 520.29 676 524.58 676 529C671.71 529 667.42 529 663 529C663.003 530.438 663.006 531.875 663.009 533.357C663.033 546.908 663.021 560.459 662.972 574.011C662.947 580.978 662.936 587.944 662.955 594.911C662.974 601.636 662.956 608.359 662.916 615.083C662.907 617.648 662.91 620.212 662.925 622.777C662.945 626.371 662.921 629.963 662.886 633.557C662.902 634.616 662.918 635.676 662.934 636.768C662.837 642.108 662.428 645.203 658.597 649.094C657.425 650.095 656.228 651.069 655 652C654.196 652.639 653.391 653.279 652.562 653.938C652.047 654.288 651.531 654.639 651 655C647.131 653.485 645.499 651.161 642.959 647.95C637.475 642.395 633.094 641.879 625.651 641.719C622.982 641.714 620.317 641.759 617.648 641.805C615.779 641.801 613.91 641.793 612.041 641.78C607.151 641.76 602.264 641.798 597.374 641.85C592.373 641.892 587.372 641.877 582.371 641.867C572.58 641.856 562.791 641.908 553 642C552.701 641.37 552.403 640.741 552.095 640.092C544.016 622.999 544.016 622.999 535.375 606.188C534.88 605.23 534.385 604.273 533.875 603.287C530.107 596.262 525.468 590.765 520 585C518.503 583.224 517.019 581.436 515.562 579.625C512.218 575.495 508.844 571.392 505.438 567.312C504.995 566.783 504.553 566.253 504.098 565.708C503.066 564.471 502.033 563.236 501 562C502.551 557.917 505.238 555.96 508.625 553.312C510.432 551.894 512.228 550.461 514 549C514 548.67 514 548.34 514 548C502.78 548 491.56 548 480 548C480 535.46 480 522.92 480 510C465.819 505.637 454.579 503.594 440.062 503.625C438.9 503.624 438.9 503.624 437.715 503.623C423.989 503.639 410.787 504.52 398 510C398 510.66 398 511.32 398 512C383.81 512 369.62 512 355 512C355 523.88 355 535.76 355 548C347.41 548 339.82 548 332 548C332 552.62 332 557.24 332 562C330.68 562 329.36 562 328 562C328.016 562.913 328.033 563.826 328.049 564.766C328.194 573.513 328.272 582.259 328.282 591.007C328.29 595.502 328.32 599.993 328.408 604.487C328.879 629.627 325.906 646.779 314 669C311.03 675.6 308.06 682.2 305 689C220.52 689.33 136.04 689.66 49 690C49 651.06 49 612.12 49 572C50.32 572 51.64 572 53 572C53 500.06 53 428.12 53 354C58.28 354 63.56 354 69 354C68.9978 355.321 68.9956 356.642 68.9933 358.003C68.9729 370.535 68.958 383.067 68.9482 395.599C68.943 402.04 68.936 408.481 68.9246 414.921C68.9136 421.152 68.9077 427.384 68.9051 433.615C68.9033 435.976 68.8997 438.338 68.8943 440.699C68.8869 444.041 68.886 447.382 68.8865 450.724C68.8811 452.145 68.8811 452.145 68.8756 453.594C68.8899 463.441 69.5061 473.122 70 483C169 483 268 483 370 483C370 458.58 370 434.16 370 409C367.36 409 364.72 409 362 409C362 372.37 362 335.74 362 298C291.71 298 221.42 298 149 298C149 302.29 149 306.58 149 311C142.4 311 135.8 311 129 311C129 295.49 129 279.98 129 264C125.04 264 121.08 264 117 264C117 206.25 117 148.5 117 89C122.94 89 128.88 89 135 89C135 98.24 135 107.48 135 117C152.49 117 169.98 117 188 117C188 118.98 188 120.96 188 123C259.28 123 330.56 123 404 123C404 121.02 404 119.04 404 117C492.44 117 580.88 117 672 117C672 109.08 672 101.16 672 93C678.93 93 685.86 93 693 93C693 178.8 693 264.6 693 353C708.18 353 723.36 353 739 353C739 352.67 739 352.34 739 352C724.15 352 709.3 352 694 352C694 322.96 694 293.92 694 264C730.96 264 767.92 264 806 264C806 293.04 806 322.08 806 352C806.33 352 806.66 352 807 352C807 236.83 807 121.66 807 3C541.68 3 276.36 3 3 3Z" fill="#FCFCFC"/>
<path d="M433 162C503.62 162 574.24 162 647 162C647 196.65 647 231.3 647 267C636.77 267 626.54 267 616 267C616 281.85 616 296.7 616 312C626.23 312 636.46 312 647 312C647 327.84 647 343.68 647 360C637.1 360 627.2 360 617 360C617 375.18 617 390.36 617 406C618.32 406 619.64 406 621 406C621 420.85 621 435.7 621 451C558.96 451 496.92 451 433 451C433 355.63 433 260.26 433 162Z" fill="#141414"/>
<path d="M0 0C267.3 0 534.6 0 810 0C810 246.18 810 492.36 810 746C542.7 746 275.4 746 0 746C0 499.82 0 253.64 0 0ZM3 3C3 246.54 3 490.08 3 741C268.32 741 533.64 741 807 741C807 667.74 807 594.48 807 519C806.67 519 806.34 519 806 519C806 541.44 806 563.88 806 587C759.14 587 712.28 587 664 587C664 568.19 664 549.38 664 530C668.29 530 672.58 530 677 530C677 525.38 677 520.76 677 516C698.45 516 719.9 516 742 516C742 498.51 742 481.02 742 463C747.28 463 752.56 463 758 463C758 481.48 758 499.96 758 519C758.33 519 758.66 519 759 519C759 506.46 759 493.92 759 481C773.85 481 788.7 481 804 481C804 480.67 804 480.34 804 480C789.15 480 774.3 480 759 480C759 468.45 759 456.9 759 445C773.85 445 788.7 445 804 445C804 444.67 804 444.34 804 444C782.88 444 761.76 444 740 444C740 433.77 740 423.54 740 413C739.67 413 739.34 413 739 413C739 422.9 739 432.8 739 443C724.15 443 709.3 443 694 443C694 433.43 694 423.86 694 414C708.19 414 722.38 414 737 414C737 413.67 737 413.34 737 413C722.81 413 708.62 413 694 413C694 398.48 694 383.96 694 369C693.67 369 693.34 369 693 369C693 393.75 693 418.5 693 444C683.1 444 673.2 444 663 444C663.005 446.176 663.01 448.352 663.016 450.594C663.032 457.766 663.043 464.939 663.052 472.111C663.057 476.462 663.064 480.812 663.075 485.163C663.086 489.358 663.092 493.553 663.095 497.748C663.097 499.352 663.1 500.956 663.106 502.56C663.113 504.799 663.114 507.038 663.114 509.277C663.116 510.554 663.118 511.831 663.12 513.146C663 516 663 516 662 517C662 492.58 662 468.16 662 443C671.9 443 681.8 443 692 443C692 418.25 692 393.5 692 368C707.51 368 723.02 368 739 368C739 362.72 739 357.44 739 352C724.15 352 709.3 352 694 352C694 322.96 694 293.92 694 264C730.96 264 767.92 264 806 264C806 293.04 806 322.08 806 352C806.33 352 806.66 352 807 352C807 236.83 807 121.66 807 3C541.68 3 276.36 3 3 3Z" fill="#DCDCDC"/>
<path d="M70 499C85.18 499 100.36 499 116 499C116 500.32 116 501.64 116 503C125.9 503 135.8 503 146 503C146 507.95 146 512.9 146 518C149.96 518 153.92 518 158 518C158 513.05 158 508.1 158 503C207.5 503 257 503 308 503C308.248 526.306 308.495 549.612 308.75 573.625C308.914 584.601 308.914 584.601 309.081 595.799C309.135 604.841 309.135 604.841 309.145 609.094C309.156 612.02 309.201 614.945 309.267 617.871C309.673 636.637 308.462 651.27 297.196 667.174C295.826 669.096 295.826 669.096 295 672C220.75 672 146.5 672 70 672C70 614.91 70 557.82 70 499Z" fill="#141414"/>
<path d="M156 157C215.4 157 274.8 157 336 157C336 164.59 336 172.18 336 180C340.62 180 345.24 180 350 180C350 172.41 350 164.82 350 157C368.81 157 387.62 157 407 157C407 193.63 407 230.26 407 268C373.67 268 340.34 268 306 268C306 265.36 306 262.72 306 260C290.82 260 275.64 260 260 260C260 262.64 260 265.28 260 268C225.68 268 191.36 268 156 268C156 231.37 156 194.74 156 157Z" fill="#141414"/>
<path d="M3 264C44.58 264 86.16 264 129 264C129 279.51 129 295.02 129 311C139.395 310.505 139.395 310.505 150 310C150 317.92 150 325.84 150 334C163.86 333.67 177.72 333.34 192 333C192 322.11 192 311.22 192 300C192.33 300 192.66 300 193 300C193 311.22 193 322.44 193 334C191.02 334 189.04 334 187 334C187 345.22 187 356.44 187 368C186.67 368 186.34 368 186 368C186 357.11 186 346.22 186 335C174.12 335 162.24 335 150 335C150 345.56 150 356.12 150 367C149.67 367 149.34 367 149 367C149 362.71 149 358.42 149 354C138.11 354 127.22 354 116 354C116 358.62 116 363.24 116 368C115.67 368 115.34 368 115 368C115 363.38 115 358.76 115 354C100.48 354 85.96 354 71 354C71 353.67 71 353.34 71 353C96.74 353 122.48 353 149 353C149 339.47 149 325.94 149 312C142.07 312 135.14 312 128 312C128 296.49 128 280.98 128 265C87.41 265 46.82 265 5 265C5 294.04 5 323.08 5 353C26.45 353 47.9 353 70 353C70 353.33 70 353.66 70 354C64.39 354 58.78 354 53 354C53 425.94 53 497.88 53 572C51.68 572 50.36 572 49 572C49 610.94 49 649.88 49 690C58.9 690 68.8 690 79 690C79 706.17 79 722.34 79 739C179.32 739.33 279.64 739.66 383 740C383 740.33 383 740.66 383 741C257.6 741 132.2 741 3 741C3 583.59 3 426.18 3 264ZM151 368C162.55 368 174.1 368 186 368C186 368.33 186 368.66 186 369C174.45 369 162.9 369 151 369C151 368.67 151 368.34 151 368Z" fill="#141414"/>
<path d="M664 589C710.53 589 757.06 589 805 589C805 638.17 805 687.34 805 738C754.18 738 703.36 738 651 738C650.773 725.027 650.546 712.054 650.313 698.688C650.212 694.611 650.112 690.535 650.009 686.335C649.959 681.306 649.959 681.306 649.95 678.942C649.933 677.313 649.895 675.683 649.839 674.054C649.341 658.885 649.341 658.885 655.011 652.808C657.24 650.704 659.536 648.824 662 647C665 648 665 648 670 654C678.25 654.33 686.5 654.66 695 655C695 638.17 695 621.34 695 604C684.77 604 674.54 604 664 604C664 599.05 664 594.1 664 589Z" fill="#DCDCDC"/>
<path d="M5 5C41.3 5 77.6 5 115 5C115 65.72 115 126.44 115 189C78.7 189 42.4 189 5 189C5 128.28 5 67.56 5 5Z" fill="#DCDCDC"/>
<path d="M410.953 548.699C413.136 548.686 415.32 548.67 417.503 548.652C422.076 548.625 426.648 548.632 431.221 548.662C437.061 548.696 442.896 548.636 448.735 548.548C453.245 548.493 457.753 548.494 462.263 548.511C464.414 548.511 466.566 548.493 468.717 548.456C486.343 548.193 486.343 548.193 491.68 552.582C494.544 555.435 496.771 558.63 499 562C500.462 563.805 501.939 565.599 503.438 567.375C504.159 568.272 504.881 569.169 505.625 570.094C507.838 572.802 510.101 575.452 512.393 578.093C514.457 580.474 516.5 582.872 518.538 585.275C519.471 586.376 520.408 587.474 521.349 588.568C528.917 597.442 533.801 607.073 538.801 617.554C540.93 621.897 543.277 626.126 545.665 630.332C547.471 633.608 548 635.134 548 639C542.794 641.401 537.586 643.797 532.375 646.188C531.594 646.546 530.814 646.904 530.009 647.273C517.404 653.05 504.734 658.656 491.982 664.1C490.81 664.602 489.637 665.104 488.43 665.621C487.401 666.059 486.372 666.496 485.312 666.947C483.085 667.798 483.085 667.798 482 669C479.431 669.175 476.888 669.285 474.316 669.352C473.509 669.376 472.702 669.4 471.871 669.425C464.3 669.639 456.727 669.762 449.155 669.859C444.086 669.926 439.023 670.019 433.957 670.187C407.712 671.031 388.062 669.081 365.167 655.799C360.943 653.4 356.594 651.442 352.129 649.543C350.824 648.965 349.52 648.385 348.217 647.803C346.333 646.97 344.448 646.137 342.562 645.308C340.624 644.455 338.689 643.593 336.754 642.73C335.119 642.01 335.119 642.01 333.451 641.274C331 640 331 640 330 638C330.514 636.259 330.514 636.259 331.424 634.14C331.763 633.344 332.101 632.549 332.45 631.729C332.83 630.864 333.21 630 333.602 629.109C333.994 628.213 334.386 627.317 334.79 626.394C335.632 624.485 336.478 622.578 337.328 620.674C338.597 617.814 339.826 614.939 341.055 612.063C346.052 600.679 351.558 591.987 360.575 583.416C362.783 581.222 364.695 578.812 366.625 576.375C371.021 570.88 375.721 565.715 380.632 560.675C382.107 559.01 382.107 559.01 383.03 556.773C388.575 546.363 400.723 548.643 410.953 548.699Z" fill="#DCDCDC"/>
<path d="M435 164C446.88 164 458.76 164 471 164C471 244.19 471 324.38 471 407C520.17 407 569.34 407 620 407C620 420.86 620 434.72 620 449C558.95 449 497.9 449 435 449C435 354.95 435 260.9 435 164Z" fill="#DCDCDC"/>
<path d="M190 5C236.53 5 283.06 5 331 5C331 43.28 331 81.56 331 121C284.47 121 237.94 121 190 121C190 82.72 190 44.44 190 5Z" fill="#DCDCDC"/>
<path d="M473 268C489.149 267.422 505.299 266.845 521.938 266.25C527.003 265.995 532.069 265.74 537.289 265.478C569.26 264.534 569.26 264.534 576.727 270.597C582.835 276.728 585.917 284.647 588.735 292.677C590.124 296.325 591.87 299.024 594.225 302.093C601.486 311.687 600.679 323.835 600.562 335.312C600.562 336.423 600.562 337.533 600.561 338.677C600.446 357.099 597.808 369.724 585.43 383.741C583.463 386.164 582.204 388.579 580.946 391.431C575.367 403.514 575.367 403.514 569.711 406.01C562.979 407.551 556.117 407.069 549.27 406.758C547.315 406.731 545.36 406.713 543.406 406.703C536.206 406.609 529.009 406.358 521.812 406.125C505.704 405.754 489.596 405.382 473 405C473 359.79 473 314.58 473 268Z" fill="#DCDCDC"/>
<path d="M546 503C579.66 503 613.32 503 648 503C648.201 533.038 648.201 533.038 648.251 547.862C648.279 555.884 648.314 563.905 648.377 571.926C648.427 578.276 648.459 584.626 648.47 590.977C648.477 594.339 648.492 597.701 648.529 601.063C648.565 604.817 648.57 608.57 648.568 612.325C648.586 613.438 648.604 614.552 648.622 615.699C648.59 620.434 648.544 623.164 645.919 627.194C642.256 629.46 640.028 629.605 635.731 629.568C634.662 629.569 634.662 629.569 633.571 629.57C631.228 629.566 628.886 629.528 626.543 629.488C624.913 629.479 623.284 629.472 621.654 629.467C617.375 629.448 613.096 629.399 608.817 629.343C604.446 629.292 600.076 629.269 595.705 629.244C587.136 629.191 578.568 629.105 570 629C569.714 628.426 569.428 627.852 569.134 627.26C566.168 621.306 563.199 615.354 560.228 609.402C559.119 607.178 558.01 604.953 556.902 602.729C555.313 599.538 553.721 596.349 552.129 593.16C551.631 592.159 551.133 591.158 550.62 590.127C550.16 589.206 549.699 588.285 549.225 587.336C548.615 586.114 548.615 586.114 547.993 584.867C547.138 583.041 547.138 583.041 546 582C545.905 579.536 545.874 577.099 545.886 574.635C545.886 573.851 545.886 573.068 545.886 572.261C545.887 569.714 545.894 567.168 545.902 564.621C545.904 563.053 545.905 561.486 545.905 559.918C545.911 554.091 545.925 548.264 545.937 542.438C545.958 529.423 545.979 516.409 546 503Z" fill="#141414"/>
<path d="M695 5C731.3 5 767.6 5 805 5C805 41.3 805 77.6 805 115C768.7 115 732.4 115 695 115C695 78.7 695 42.4 695 5Z" fill="#DCDCDC"/>
<path d="M0 0C267.3 0 534.6 0 810 0C810 246.18 810 492.36 810 746C542.7 746 275.4 746 0 746C0 499.82 0 253.64 0 0ZM3 3C3 246.54 3 490.08 3 741C268.32 741 533.64 741 807 741C807 497.46 807 253.92 807 3C541.68 3 276.36 3 3 3Z" fill="#FBFBFB"/>
<path d="M70 499C85.18 499 100.36 499 116 499C116 500.65 116 502.3 116 504C125.57 504 135.14 504 145 504C145 504.33 145 504.66 145 505C135.43 505 125.86 505 116 505C116 519.85 116 534.7 116 550C129.86 550 143.72 550 158 550C158 540.1 158 530.2 158 520C153.71 520 149.42 520 145 520C145 519.67 145 519.34 145 519C149.95 519 154.9 519 160 519C160 539.46 160 559.92 160 581C178.15 581 196.3 581 215 581C215 555.92 215 530.84 215 505C196.52 505 178.04 505 159 505C159 504.67 159 504.34 159 504C207.51 504 256.02 504 306 504C306 519.51 306 535.02 306 551C290.16 551.33 274.32 551.66 258 552C257.67 561.24 257.34 570.48 257 580C252.686 579.983 252.686 579.983 248.285 579.965C245.512 579.957 242.738 579.951 239.965 579.945C238.032 579.94 236.099 579.933 234.165 579.925C231.393 579.912 228.62 579.907 225.848 579.902C224.978 579.897 224.108 579.892 223.212 579.887C221.141 579.887 219.07 579.938 217 580C216.67 580.33 216.34 580.66 216 581C229.86 581 243.72 581 258 581C258 581.33 258 581.66 258 582C225 582 192 582 158 582C158 572.1 158 562.2 158 552C129.62 552 101.24 552 72 552C72 576.09 72 600.18 72 625C100.38 625 128.76 625 158 625C158 625.33 158 625.66 158 626C146.674 626.023 135.348 626.041 124.022 626.052C118.763 626.057 113.504 626.064 108.246 626.075C103.175 626.086 98.1051 626.092 93.0347 626.095C91.0957 626.097 89.1568 626.1 87.2178 626.106C84.5118 626.113 81.8059 626.114 79.0999 626.114C77.885 626.119 77.885 626.119 76.6456 626.124C71.1141 626.114 71.1141 626.114 70 625C69.9039 623.368 69.8781 621.731 69.8797 620.096C69.8784 619.035 69.877 617.973 69.8756 616.879C69.8792 615.705 69.8828 614.53 69.8865 613.32C69.8863 612.091 69.8862 610.862 69.886 609.596C69.8866 606.216 69.8916 602.836 69.8986 599.456C69.9048 595.927 69.9054 592.398 69.9066 588.869C69.9097 582.183 69.918 575.496 69.928 568.81C69.9391 561.199 69.9447 553.589 69.9497 545.978C69.9601 530.319 69.9785 514.659 70 499ZM258 553C273.84 553 289.68 553 306 553C306 562.24 306 571.48 306 581C290.16 581 274.32 581 258 581C258 571.76 258 562.52 258 553Z" fill="#141414"/>
<path d="M695 264C731.3 264 767.6 264 805 264C805 292.71 805 321.42 805 351C768.7 351 732.4 351 695 351C695 322.29 695 293.58 695 264Z" fill="#DCDCDC"/>
<path d="M116 410C156.92 410 197.84 410 240 410C240 433.76 240 457.52 240 482C199.08 482 158.16 482 116 482C116 458.24 116 434.48 116 410Z" fill="#DCDCDC"/>
<path d="M549 5C573.42 5 597.84 5 623 5C623 41.3 623 77.6 623 115C598.58 115 574.16 115 549 115C549 78.7 549 42.4 549 5Z" fill="#DCDCDC"/>
<path d="M694 117C730.96 117 767.92 117 806 117C806 140.76 806 164.52 806 189C769.04 189 732.08 189 694 189C694 165.24 694 141.48 694 117Z" fill="#DCDCDC"/>
<path d="M5 191C41.3 191 77.6 191 115 191C115 215.09 115 239.18 115 264C78.7 264 42.4 264 5 264C5 239.91 5 215.82 5 191Z" fill="#DCDCDC"/>
<path d="M4.5 266.5C44.76 266.5 85.02 266.5 126.5 266.5C126.5 282.282 126.5 298.063 126.5 314C126.5 326.056 126.5 338.2 126.5 350.5C86.24 350.5 45.98 350.5 4.5 350.5C4.5 322.78 4.5 295.06 4.5 266.5Z" fill="#DCDCDC"/>
<path d="M126.5 314V350.5H148.5V314H126.5Z" fill="#DCDCDC"/>
<path d="M566 644C574.902 643.705 583.801 643.467 592.707 643.326C596.844 643.259 600.977 643.168 605.112 643.019C609.113 642.877 613.111 642.8 617.114 642.767C618.63 642.743 620.147 642.696 621.662 642.626C629.417 642.278 635.467 642.807 641.712 647.773C647.433 653.082 650.075 658.101 650.476 665.911C650.522 669.278 650.406 672.625 650.27 675.988C650.25 677.583 650.237 679.179 650.23 680.774C650.162 686.621 649.981 692.467 649.812 698.312C649.544 711.409 649.276 724.506 649 738C615.34 738 581.68 738 547 738C547 729.42 547 720.84 547 712C551.95 711.505 551.95 711.505 557 711C560.117 710.055 560.117 710.055 562.789 708.715C563.749 708.267 564.71 707.819 565.699 707.357C566.665 706.889 567.63 706.42 568.625 705.937C569.629 705.465 570.633 704.993 571.668 704.506C574.119 703.351 576.562 702.182 579 701C578.449 699.834 577.899 698.669 577.332 697.468C575.296 693.15 573.273 688.827 571.255 684.502C570.378 682.629 569.498 680.758 568.615 678.889C567.347 676.205 566.092 673.515 564.84 670.824C564.441 669.987 564.042 669.149 563.631 668.286C563.271 667.505 562.91 666.725 562.539 665.921C562.056 664.891 562.056 664.891 561.563 663.841C561 662 561 662 562 659C563.32 658.67 564.64 658.34 566 658C566 653.38 566 648.76 566 644Z" fill="#DCDCDC"/>
<path d="M473 163C498.08 163 523.16 163 549 163C549 196.99 549 230.98 549 266C523.92 266 498.84 266 473 266C473 232.01 473 198.02 473 163Z" fill="#DCDCDC"/>
<path d="M695 191C731.3 191 767.6 191 805 191C805 214.43 805 237.86 805 262C768.7 262 732.4 262 695 262C695 238.57 695 215.14 695 191Z" fill="#DCDCDC"/>
<path d="M404 5C427.43 5 450.86 5 475 5C475 41.3 475 77.6 475 115C451.57 115 428.14 115 404 115C404 78.7 404 42.4 404 5Z" fill="#DCDCDC"/>
<path d="M477 5C500.1 5 523.2 5 547 5C547 41.63 547 78.26 547 116C523.9 116 500.8 116 477 116C477 79.37 477 42.74 477 5Z" fill="#DCDCDC"/>
<path d="M193 300C215.44 300 237.88 300 261 300C261 335.64 261 371.28 261 408C236.91 408 212.82 408 188 408C188 383.91 188 359.82 188 335C189.65 335 191.3 335 193 335C193 323.45 193 311.9 193 300Z" fill="#DCDCDC"/>
<path d="M263 300C284.78 300 306.56 300 329 300C329 335.97 329 371.94 329 409C307.22 409 285.44 409 263 409C263 373.03 263 337.06 263 300Z" fill="#DCDCDC"/>
<path d="M329 641C333.655 642.454 338.05 644.297 342.469 646.344C343.179 646.669 343.888 646.995 344.62 647.33C346.914 648.384 349.207 649.442 351.5 650.5C354.653 651.953 357.807 653.404 360.961 654.855C361.738 655.213 362.514 655.571 363.315 655.94C367.916 658.055 372.53 660.134 377.164 662.176C378.188 662.63 379.212 663.083 380.268 663.551C382.13 664.373 383.996 665.187 385.865 665.992C386.675 666.352 387.486 666.711 388.32 667.082C389.361 667.534 389.361 667.534 390.422 667.995C392 669 392 669 393 672C392.304 673.784 392.304 673.784 391.166 675.798C383.834 689.662 382.734 701.233 382.938 716.75C382.958 724.093 382.979 731.435 383 739C353.96 739 324.92 739 295 739C295 726.79 295 714.58 295 702C292.36 702 289.72 702 287 702C287 698.7 287 695.4 287 692C293.27 691.67 299.54 691.34 306 691C307.074 688.647 308.148 686.295 309.254 683.871C310.32 681.537 311.385 679.204 312.451 676.87C313.18 675.275 313.908 673.68 314.636 672.085C319.375 661.7 324.154 651.335 329 641Z" fill="#DCDCDC"/>
<path d="M625 5C647.44 5 669.88 5 693 5C693 33.38 693 61.76 693 91C685.74 91 678.48 91 671 91C671 98.92 671 106.84 671 115C655.82 115 640.64 115 625 115C625 78.7 625 42.4 625 5Z" fill="#DCDCDC"/>
<path d="M72 552C100.38 552 128.76 552 158 552C158 576.09 158 600.18 158 625C129.62 625 101.24 625 72 625C72 600.91 72 576.82 72 552Z" fill="#DCDCDC"/>
<path d="M242 410C270.71 410 299.42 410 329 410C329 433.76 329 457.52 329 482C300.29 482 271.58 482 242 482C242 458.24 242 434.48 242 410Z" fill="#DCDCDC"/>
<path d="M116 503C125.9 503 135.8 503 146 503C146 507.95 146 512.9 146 518C149.96 518 153.92 518 158 518C158 513.05 158 508.1 158 503C207.5 503 257 503 308 503C308 550.52 308 598.04 308 647C307.67 647 307.34 647 307 647C307 599.81 307 552.62 307 504C261.46 504.495 261.46 504.495 215 505C215 530.08 215 555.16 215 581C196.85 581 178.7 581 160 581C160 560.54 160 540.08 160 519C159.01 519.495 159.01 519.495 158 520C158 529.9 158 539.8 158 550C144.14 550 130.28 550 116 550C116 534.49 116 518.98 116 503Z" fill="#DCDCDC"/>
<path d="M232 159C251.47 159 270.94 159 291 159C291 172.86 291 186.72 291 201C305.85 201 320.7 201 336 201C336 194.73 336 188.46 336 182C344.25 182 352.5 182 361 182C361 195.86 361 209.72 361 224C318.43 224 275.86 224 232 224C232 202.55 232 181.1 232 159Z" fill="#DCDCDC"/>
<path d="M333 5C355.77 5 378.54 5 402 5C402 29.42 402 53.84 402 79C385.17 79 368.34 79 351 79C351 93.19 351 107.38 351 122C345.06 122 339.12 122 333 122C333 83.39 333 44.78 333 5Z" fill="#DCDCDC"/>
<path d="M395 670C420.08 670 445.16 670 471 670C471 692.77 471 715.54 471 739C442.62 739 414.24 739 385 739C384.794 731.699 384.588 724.398 384.375 716.875C384.284 714.622 384.193 712.368 384.099 710.046C384.07 708.174 384.044 706.302 384.023 704.43C383.972 703.527 383.921 702.625 383.868 701.696C383.853 689.344 389.428 682.258 395 670Z" fill="#DCDCDC"/>
<path d="M117 5C140.1 5 163.2 5 187 5C187 32.39 187 59.78 187 88C163.9 88 140.8 88 117 88C117 60.61 117 33.22 117 5Z" fill="#DCDCDC"/>
<path d="M741 354C762.12 354 783.24 354 805 354C805 383.37 805 412.74 805 443C783.88 443 762.76 443 741 443C741 413.63 741 384.26 741 354Z" fill="#DCDCDC"/>
<path d="M160 582C208.18 582 256.36 582 306 582C306 594.87 306 607.74 306 621C257.82 621 209.64 621 160 621C160 608.13 160 595.26 160 582Z" fill="#DCDCDC"/>
<path d="M664 445C695.02 445 726.04 445 758 445C758 450.61 758 456.22 758 462C752.39 462 746.78 462 741 462C741 479.49 741 496.98 741 515C715.59 515 690.18 515 664 515C664 491.9 664 468.8 664 445Z" fill="#DCDCDC"/>
<path d="M693 369C693.33 369 693.66 369 694 369C694 383.52 694 398.04 694 413C708.19 413 722.38 413 737 413C737 413.33 737 413.66 737 414C722.81 414 708.62 414 694 414C694 423.57 694 433.14 694 443C708.85 443 723.7 443 739 443C739 433.1 739 423.2 739 413C739.33 413 739.66 413 740 413C740 423.23 740 433.46 740 444C761.12 444 782.24 444 804 444C804 444.33 804 444.66 804 445C789.15 445 774.3 445 759 445C759 456.55 759 468.1 759 480C773.85 480 788.7 480 804 480C804 480.33 804 480.66 804 481C789.15 481 774.3 481 759 481C759 493.54 759 506.08 759 519C758.67 519 758.34 519 758 519C758 500.52 758 482.04 758 463C752.72 463 747.44 463 742 463C742 480.49 742 497.98 742 516C720.55 516 699.1 516 677 516C677 520.62 677 525.24 677 530C672.71 530 668.42 530 664 530C664 548.81 664 567.62 664 587C710.86 587 757.72 587 806 587C806 564.56 806 542.12 806 519C806.33 519 806.66 519 807 519C807 592.26 807 665.52 807 741C667.74 741 528.48 741 385 741C385 740.67 385 740.34 385 740C386.073 739.99 387.146 739.979 388.251 739.969C398.346 739.871 408.441 739.768 418.535 739.661C423.726 739.605 428.916 739.552 434.106 739.503C439.112 739.455 444.117 739.403 449.123 739.347C451.036 739.327 452.949 739.308 454.862 739.291C457.534 739.267 460.206 739.237 462.878 739.205C463.675 739.2 464.472 739.194 465.293 739.188C469.277 739.218 469.277 739.218 473 738C475.247 737.908 477.496 737.883 479.745 737.886C480.784 737.886 480.784 737.886 481.844 737.886C484.138 737.887 486.432 737.895 488.727 737.902C490.316 737.904 491.905 737.906 493.493 737.907C497.679 737.91 501.865 737.92 506.05 737.931C510.32 737.942 514.59 737.946 518.859 737.951C527.24 737.962 535.62 737.979 544 738C544 729.42 544 720.84 544 712C537.07 712 530.14 712 523 712C523 711.34 523 710.68 523 710C523.936 710.012 524.871 710.023 525.835 710.035C551.443 710.239 551.443 710.239 575 701C575.66 701 576.32 701 577 701C576.38 699.692 576.38 699.692 575.747 698.357C574.202 695.096 572.664 691.832 571.128 688.567C570.465 687.159 569.8 685.752 569.132 684.345C568.169 682.315 567.213 680.281 566.258 678.246C565.962 677.626 565.666 677.006 565.361 676.367C563.94 673.322 562.771 670.353 561.921 667.11C561.617 666.083 561.313 665.057 561 664C560.34 663.67 559.68 663.34 559 663C558.119 661.156 557.319 659.273 556.562 657.375C555.152 653.856 553.728 650.373 552.125 646.938C551 644 551 644 552 641C552.33 641.33 552.66 641.66 553 642C555.554 642.061 558.081 642.059 560.634 642.015C562.294 641.995 563.953 641.977 565.613 641.958C566.498 641.947 567.383 641.936 568.295 641.924C573.969 641.863 579.643 641.863 585.317 641.852C590.299 641.838 595.279 641.804 600.261 641.722C605.08 641.645 609.897 641.627 614.717 641.648C616.547 641.646 618.376 641.622 620.205 641.577C636.005 641.202 636.005 641.202 642.613 647.388C644.914 649.819 646.987 652.324 649 655C652.177 653.479 654.56 651.798 657.188 649.438C658.23 648.507 658.23 648.507 659.293 647.559C661.588 645.727 661.588 645.727 662.139 643.065C662.148 641.784 662.148 641.784 662.158 640.476C662.168 639.499 662.178 638.521 662.188 637.514C662.194 636.433 662.199 635.352 662.205 634.238C662.215 633.106 662.225 631.975 662.235 630.809C662.267 627.048 662.292 623.288 662.316 619.527C662.337 616.928 662.358 614.329 662.379 611.729C662.429 605.574 662.474 599.419 662.517 593.264C662.567 586.258 662.622 579.252 662.677 572.246C662.791 557.831 662.898 543.415 663 529C667.29 529 671.58 529 676 529C676 524.71 676 520.42 676 516C671.71 516 667.42 516 663 516C663 492.24 663 468.48 663 444C672.9 444 682.8 444 693 444C693 419.25 693 394.5 693 369ZM664 445C664 468.1 664 491.2 664 515C689.41 515 714.82 515 741 515C741 497.51 741 480.02 741 462C746.61 462 752.22 462 758 462C758 456.39 758 450.78 758 445C726.98 445 695.96 445 664 445ZM664 589C664 593.95 664 598.9 664 604C674.23 604 684.46 604 695 604C695 620.83 695 637.66 695 655C686.75 654.67 678.5 654.34 670 654C667.03 650.535 667.03 650.535 664 647C658.398 649.801 654.369 652.626 651 658C649.758 664.142 649.946 670.139 650.121 676.379C650.134 677.958 650.144 679.538 650.149 681.117C650.195 686.933 650.321 692.748 650.438 698.562C650.623 711.577 650.809 724.591 651 738C701.82 738 752.64 738 805 738C805 688.83 805 639.66 805 589C758.47 589 711.94 589 664 589ZM566 644C566 648.62 566 653.24 566 658C564.35 658.66 562.7 659.32 561 660C562.531 664.947 564.527 669.553 566.695 674.242C567.048 675.011 567.4 675.779 567.763 676.571C568.881 679.007 570.003 681.441 571.125 683.875C571.887 685.534 572.649 687.193 573.41 688.852C575.27 692.903 577.134 696.952 579 701C575.553 702.671 572.091 704.307 568.625 705.938C567.177 706.64 567.177 706.64 565.699 707.357C564.739 707.805 563.779 708.253 562.789 708.715C561.485 709.335 561.485 709.335 560.155 709.969C557 711 557 711 547 712C547 720.58 547 729.16 547 738C580.66 738 614.32 738 649 738C649.268 724.903 649.536 711.806 649.812 698.312C649.931 694.202 650.049 690.092 650.171 685.857C650.215 682.119 650.215 682.119 650.241 678.382C650.261 676.738 650.306 675.094 650.372 673.451C650.698 665.003 650.615 657.932 645.104 651.125C640.141 645.903 635.351 642.972 628.098 642.524C625.196 642.475 622.317 642.595 619.418 642.73C617.867 642.755 616.316 642.773 614.765 642.786C610.727 642.835 606.694 642.963 602.658 643.107C598.522 643.242 594.385 643.3 590.248 643.365C582.162 643.504 574.083 643.732 566 644Z" fill="#141414"/>
<path d="M158 159C181.76 159 205.52 159 230 159C230 168.9 230 178.8 230 189C215.81 189 201.62 189 187 189C187 214.41 187 239.82 187 266C177.43 266 167.86 266 158 266C158 230.69 158 195.38 158 159Z" fill="#DCDCDC"/>
<path d="M592 163C609.82 163 627.64 163 646 163C646 189.07 646 215.14 646 242C628.18 242 610.36 242 592 242C592 215.93 592 189.86 592 163Z" fill="#DCDCDC"/>
<path d="M590 505C608.48 505 626.96 505 646 505C646 529.75 646 554.5 646 580C627.52 580 609.04 580 590 580C590 555.25 590 530.5 590 505Z" fill="#DCDCDC"/>
<path d="M156 157C180.75 157 205.5 157 231 157C231 157.33 231 157.66 231 158C206.58 158 182.16 158 157 158C157 193.97 157 229.94 157 267C181.09 266.67 205.18 266.34 230 266C230 241.25 230 216.5 230 191C216.47 191 202.94 191 189 191C188.67 215.75 188.34 240.5 188 266C187.67 266 187.34 266 187 266C187 240.59 187 215.18 187 189C201.52 189 216.04 189 231 189C231.33 201.21 231.66 213.42 232 226C274.57 226 317.14 226 361 226C361 229.3 361 232.6 361 236C343.18 236 325.36 236 307 236C307 246.23 307 256.46 307 267C339.67 267 372.34 267 406 267C406 231.03 406 195.06 406 158C387.85 158 369.7 158 351 158C351 165.26 351 172.52 351 180C350.67 180 350.34 180 350 180C350 172.41 350 164.82 350 157C368.81 157 387.62 157 407 157C407 193.63 407 230.26 407 268C373.67 268 340.34 268 306 268C306 265.36 306 262.72 306 260C290.82 260 275.64 260 260 260C260 262.64 260 265.28 260 268C225.68 268 191.36 268 156 268C156 231.37 156 194.74 156 157Z" fill="#141414"/>
<path d="M551 163C563.87 163 576.74 163 590 163C590 196.99 590 230.98 590 266C577.13 266 564.26 266 551 266C551 232.01 551 198.02 551 163Z" fill="#DCDCDC"/>
<path d="M224 623C251.06 623 278.12 623 306 623C306 647 306 647 294 670C270.9 670 247.8 670 224 670C224 654.49 224 638.98 224 623Z" fill="#DCDCDC"/>
<path d="M72 627C100.38 627 128.76 627 158 627C158 641.19 158 655.38 158 670C129.62 670 101.24 670 72 670C72 655.81 72 641.62 72 627Z" fill="#DCDCDC"/>
<path d="M363 182C376.86 182 390.72 182 405 182C405 209.72 405 237.44 405 266C391.14 266 377.28 266 363 266C363 238.28 363 210.56 363 182Z" fill="#DCDCDC"/>
<path d="M5 391C20.51 391 36.02 391 52 391C52 414.1 52 437.2 52 461C36.49 461 20.98 461 5 461C5 437.9 5 414.8 5 391Z" fill="#DCDCDC"/>
<path d="M474 510C475.32 510.33 476.64 510.66 478 511C478 523.21 478 535.42 478 548C452.26 548 426.52 548 400 548C400 535.79 400 523.58 400 511C417.617 506.302 417.617 506.302 425.062 505.688C425.936 505.612 426.81 505.536 427.71 505.459C443.653 504.27 458.688 505.395 474 510Z" fill="#DCDCDC"/>
<path d="M189 191C202.53 191 216.06 191 230 191C230 215.75 230 240.5 230 266C216.47 266 202.94 266 189 266C189 241.25 189 216.5 189 191Z" fill="#DCDCDC"/>
<path d="M548 505C561.2 505 574.4 505 588 505C588 529.75 588 554.5 588 580C574.8 580 561.6 580 548 580C548 555.25 548 530.5 548 505Z" fill="#DCDCDC"/>
<path d="M217 505C230.2 505 243.4 505 257 505C257 529.75 257 554.5 257 580C243.8 580 230.6 580 217 580C217 555.25 217 530.5 217 505Z" fill="#DCDCDC"/>
<path d="M117 369C139.77 369 162.54 369 186 369C186 381.87 186 394.74 186 408C163.23 408 140.46 408 117 408C117 395.13 117 382.26 117 369Z" fill="#DCDCDC"/>
<path d="M510 686C512.618 688.334 513.984 690.658 515.48 693.816C516.143 695.21 516.143 695.21 516.818 696.631C517.27 697.598 517.722 698.566 518.188 699.562C518.883 701.019 518.883 701.019 519.592 702.506C523 709.729 523 709.729 523 712C529.93 712 536.86 712 544 712C544 720.58 544 729.16 544 738C520.57 738 497.14 738 473 738C473 726.45 473 714.9 473 703C481.965 698.816 490.927 694.643 499.938 690.562C500.919 690.117 501.901 689.672 502.912 689.213C505.274 688.141 507.637 687.07 510 686Z" fill="#DCDCDC"/>
<path d="M116 503C125.9 503 135.8 503 146 503C146 507.95 146 512.9 146 518C149.96 518 153.92 518 158 518C158 513.05 158 508.1 158 503C207.5 503 257 503 308 503C308 550.52 308 598.04 308 647C307.67 647 307.34 647 307 647C307 599.81 307 552.62 307 504C261.46 504.495 261.46 504.495 215 505C215 530.08 215 555.16 215 581C196.85 581 178.7 581 160 581C160 580.67 160 580.34 160 580C177.82 580 195.64 580 214 580C214 555.58 214 531.16 214 506C196.18 506 178.36 506 160 506C160 510.29 160 514.58 160 519C159.01 519.495 159.01 519.495 158 520C158 529.9 158 539.8 158 550C144.14 550 130.28 550 116 550C116 534.49 116 518.98 116 503Z" fill="#DCDCDC"/>
<path d="M551 641C552.053 643.041 552.053 643.041 553.164 645.691C553.763 647.108 553.763 647.108 554.375 648.553C554.787 649.546 555.2 650.539 555.625 651.562C556.045 652.56 556.465 653.557 556.898 654.584C557.938 657.054 558.972 659.526 560 662C556.418 665.035 552.353 666.76 548.082 668.598C547.288 668.945 546.494 669.291 545.676 669.649C543.057 670.792 540.435 671.927 537.812 673.062C535.991 673.855 534.17 674.649 532.35 675.443C529.506 676.683 526.662 677.922 523.818 679.159C516.937 682.152 510.066 685.165 503.199 688.191C501.78 688.816 501.78 688.816 500.332 689.454C496.641 691.08 492.95 692.706 489.26 694.334C486.716 695.456 484.171 696.576 481.625 697.695C480.483 698.2 480.483 698.2 479.317 698.715C474.114 701 474.114 701 473 701C473 690.77 473 680.54 473 670C477.29 669.34 481.58 668.68 486 668C489.395 666.758 492.487 665.516 495.719 663.965C496.583 663.567 497.447 663.17 498.337 662.76C501.065 661.501 503.783 660.22 506.5 658.937C510.07 657.275 513.645 655.62 517.219 653.965C518.096 653.558 518.973 653.151 519.877 652.731C526.459 649.685 533.07 646.713 539.719 643.816C541.071 643.218 541.071 643.218 542.451 642.607C543.281 642.249 544.111 641.891 544.967 641.522C546.066 641.043 546.066 641.043 547.186 640.555C549 640 549 640 551 641Z" fill="#DCDCDC"/>
<path d="M5 681C18.86 681 32.72 681 47 681C47 683.97 47 686.94 47 690C45.35 690 43.7 690 42 690C42 706.17 42 722.34 42 739C29.79 739 17.58 739 5 739C5 719.86 5 700.72 5 681Z" fill="#DCDCDC"/>
<path d="M601 313C615.52 313 630.04 313 645 313C645 327.85 645 342.7 645 358C630.48 358 615.96 358 601 358C601 343.15 601 328.3 601 313Z" fill="#DCDCDC"/>
<path d="M353 81C369.17 81 385.34 81 402 81C402 94.2 402 107.4 402 121C385.83 121 369.66 121 353 121C353 107.8 353 94.6 353 81Z" fill="#DCDCDC"/>
<path d="M331 300C340.57 300 350.14 300 360 300C360 322.11 360 344.22 360 367C350.43 367 340.86 367 331 367C331 344.89 331 322.78 331 300Z" fill="#DCDCDC"/>
<path d="M560 664C562.705 667.289 564.367 670.714 566.102 674.594C566.383 675.222 566.665 675.851 566.956 676.498C567.548 677.822 568.138 679.147 568.726 680.472C569.623 682.496 570.53 684.516 571.438 686.535C576.251 697.316 576.251 697.316 577 701C559.722 711.581 543.559 711.03 524 710C522.16 706.211 520.329 702.419 518.5 698.625C517.975 697.545 517.451 696.465 516.91 695.352C516.166 693.805 516.166 693.805 515.406 692.227C514.945 691.273 514.485 690.32 514.01 689.338C513 687 513 687 513 685C518.889 682.329 524.779 679.66 530.67 676.992C532.673 676.085 534.676 675.177 536.678 674.269C539.56 672.962 542.442 671.657 545.324 670.352C546.217 669.946 547.11 669.541 548.03 669.123C551.99 667.332 555.941 665.559 560 664Z" fill="#DCDCDC"/>
<path d="M694 370C708.85 370 723.7 370 739 370C739 383.86 739 397.72 739 412C724.15 412 709.3 412 694 412C694 398.14 694 384.28 694 370Z" fill="#DCDCDC"/>
<path d="M805 589C805.33 589 805.66 589 806 589C805.999 589.771 805.998 590.542 805.997 591.337C805.975 610.081 805.959 628.825 805.948 647.569C805.943 656.633 805.936 665.698 805.925 674.762C805.915 682.66 805.908 690.559 805.906 698.457C805.905 702.641 805.902 706.825 805.894 711.009C805.887 714.944 805.885 718.879 805.887 722.814C805.887 724.261 805.885 725.708 805.881 727.155C805.876 729.125 805.878 731.095 805.88 733.065C805.879 734.169 805.878 735.274 805.877 736.411C805.825 738.986 805.825 738.986 807 741C667.74 741 528.48 741 385 741C385 740.67 385 740.34 385 740C386.609 739.985 386.609 739.985 388.251 739.969C398.346 739.871 408.441 739.768 418.535 739.661C423.726 739.605 428.916 739.552 434.106 739.503C439.112 739.455 444.117 739.403 449.123 739.347C451.036 739.327 452.949 739.308 454.862 739.291C457.534 739.267 460.206 739.237 462.878 739.205C464.074 739.197 464.074 739.197 465.293 739.188C469.277 739.218 469.277 739.218 473 738C475.247 737.908 477.496 737.883 479.745 737.886C480.784 737.886 480.784 737.886 481.844 737.886C484.138 737.887 486.432 737.895 488.727 737.902C490.316 737.904 491.905 737.906 493.493 737.907C497.679 737.91 501.865 737.92 506.05 737.931C510.32 737.942 514.59 737.946 518.859 737.951C527.24 737.962 535.62 737.979 544 738C544 729.42 544 720.84 544 712C537.07 712 530.14 712 523 712C523 711.34 523 710.68 523 710C524.404 710.017 524.404 710.017 525.835 710.035C551.443 710.239 551.443 710.239 575 701C575.66 701 576.32 701 577 701C576.38 699.692 576.38 699.692 575.747 698.357C574.202 695.096 572.664 691.832 571.128 688.567C570.465 687.159 569.8 685.752 569.132 684.345C568.169 682.315 567.213 680.281 566.258 678.246C565.962 677.626 565.666 677.006 565.361 676.367C563.94 673.322 562.771 670.353 561.921 667.11C561.617 666.083 561.313 665.057 561 664C560.34 663.67 559.68 663.34 559 663C558.119 661.156 557.319 659.273 556.562 657.375C555.152 653.856 553.728 650.373 552.125 646.938C551 644 551 644 552 641C552.33 641.33 552.66 641.66 553 642C555.554 642.061 558.081 642.059 560.634 642.015C562.294 641.995 563.953 641.976 565.613 641.958C566.498 641.947 567.383 641.936 568.295 641.924C573.969 641.863 579.643 641.863 585.317 641.852C590.299 641.838 595.279 641.804 600.261 641.722C605.08 641.645 609.897 641.627 614.717 641.648C616.547 641.646 618.376 641.622 620.205 641.577C636.005 641.202 636.005 641.202 642.613 647.388C644.914 649.819 646.987 652.324 649 655C652.206 653.467 654.601 651.759 657.25 649.375C657.956 648.743 658.663 648.112 659.391 647.461C659.922 646.979 660.453 646.497 661 646C661 646.99 661 647.98 661 649C659.55 650.213 658.067 651.387 656.569 652.539C651.486 657.493 650.977 662.033 650.836 668.786C650.828 671.318 650.864 673.847 650.902 676.379C650.896 677.958 650.885 679.538 650.87 681.117C650.844 686.932 650.895 692.747 650.938 698.562C650.968 718.084 650.968 718.084 651 738C701.82 738 752.64 738 805 738C805 688.83 805 639.66 805 589ZM566 644C566 648.62 566 653.24 566 658C564.35 658.66 562.7 659.32 561 660C562.531 664.947 564.527 669.553 566.695 674.242C567.048 675.011 567.4 675.779 567.763 676.571C568.881 679.007 570.003 681.441 571.125 683.875C571.887 685.534 572.649 687.193 573.41 688.852C575.27 692.903 577.134 696.952 579 701C575.553 702.671 572.091 704.307 568.625 705.938C567.177 706.64 567.177 706.64 565.699 707.357C564.739 707.805 563.779 708.253 562.789 708.715C561.485 709.335 561.485 709.335 560.155 709.969C557 711 557 711 547 712C547 720.58 547 729.16 547 738C580.66 738 614.32 738 649 738C649.268 724.903 649.536 711.806 649.812 698.312C649.931 694.202 650.049 690.092 650.171 685.857C650.215 682.119 650.215 682.119 650.241 678.382C650.261 676.738 650.306 675.094 650.372 673.451C650.698 665.003 650.615 657.932 645.104 651.125C640.141 645.903 635.351 642.972 628.098 642.524C625.196 642.475 622.317 642.595 619.418 642.73C617.867 642.755 616.316 642.773 614.765 642.786C610.727 642.835 606.694 642.963 602.658 643.107C598.522 643.242 594.385 643.3 590.248 643.365C582.162 643.504 574.083 643.732 566 644Z" fill="#141414"/>
<path d="M280 505C288.58 505 297.16 505 306 505C306 520.18 306 535.36 306 551C290.49 551 274.98 551 259 551C259 541.76 259 532.52 259 523C265.93 523 272.86 523 280 523C280 517.06 280 511.12 280 505Z" fill="#DCDCDC"/>
<path d="M608 582C620.54 582 633.08 582 646 582C646.069 587.766 646.129 593.531 646.165 599.297C646.18 601.259 646.2 603.22 646.226 605.181C646.263 608.001 646.28 610.821 646.293 613.641C646.308 614.517 646.324 615.393 646.34 616.296C646.341 619.711 646.251 622.371 644.979 625.561C641.888 627.809 638.72 627.492 635.051 627.391C634.366 627.387 633.681 627.383 632.975 627.378C630.421 627.358 627.866 627.302 625.312 627.25C619.599 627.167 613.886 627.085 608 627C608 612.15 608 597.3 608 582Z" fill="#DCDCDC"/>
<path d="M80 692C91.88 692 103.76 692 116 692C116 707.51 116 723.02 116 739C104.12 739 92.24 739 80 739C80 723.49 80 707.98 80 692Z" fill="#DCDCDC"/>
<path d="M5 535C20.51 535 36.02 535 52 535C52 546.88 52 558.76 52 571C36.49 571 20.98 571 5 571C5 559.12 5 547.24 5 535Z" fill="#DCDCDC"/>
<path d="M5 462C20.51 462 36.02 462 52 462C52 473.88 52 485.76 52 498C36.49 498 20.98 498 5 498C5 486.12 5 474.24 5 462Z" fill="#DCDCDC"/>
<path d="M224 692C235.55 692 247.1 692 259 692C259 707.51 259 723.02 259 739C247.45 739 235.9 739 224 739C224 723.49 224 707.98 224 692Z" fill="#DCDCDC"/>
<path d="M43 692C54.55 692 66.1 692 78 692C78 707.51 78 723.02 78 739C66.45 739 54.9 739 43 739C43 723.49 43 707.98 43 692Z" fill="#DCDCDC"/>
<path d="M293 159C306.53 159 320.06 159 334 159C334 172.2 334 185.4 334 199C320.47 199 306.94 199 293 199C293 185.8 293 172.6 293 159Z" fill="#DCDCDC"/>
<path d="M333 3C429.03 3 525.06 3 624 3C624 40.29 624 77.58 624 116C623.67 116 623.34 116 623 116C623 79.04 623 42.08 623 4C598.25 4 573.5 4 548 4C548 40.96 548 77.92 548 116C572.42 116 596.84 116 622 116C622 116.33 622 116.66 622 117C550.06 117 478.12 117 404 117C404 118.98 404 120.96 404 123C380.24 123 356.48 123 332 123C332 122.67 332 122.34 332 122C338.27 122 344.54 122 351 122C351 107.81 351 93.62 351 79C368.16 79 385.32 79 403 79C403 54.25 403 29.5 403 4C379.9 4 356.8 4 333 4C333 3.67 333 3.34 333 3ZM404 5C404 41.3 404 77.6 404 115C427.43 115 450.86 115 475 115C475 78.7 475 42.4 475 5C451.57 5 428.14 5 404 5ZM477 5C477 41.63 477 78.26 477 116C500.1 116 523.2 116 547 116C547 79.37 547 42.74 547 5C523.9 5 500.8 5 477 5ZM353 81C353 94.2 353 107.4 353 121C369.17 121 385.34 121 402 121C402 107.8 402 94.6 402 81C385.83 81 369.66 81 353 81Z" fill="#141414"/>
<path d="M118 691C129.22 691 140.44 691 152 691C152 706.84 152 722.68 152 739C140.78 739 129.56 739 118 739C118 723.16 118 707.32 118 691Z" fill="#DCDCDC"/>
<path d="M760 482C774.85 482 789.7 482 805 482C805 493.88 805 505.76 805 518C790.15 518 775.3 518 760 518C760 506.12 760 494.24 760 482Z" fill="#DCDCDC"/>
<path d="M5 355C20.18 355 35.36 355 51 355C51 366.22 51 377.44 51 389C35.82 389 20.64 389 5 389C5 377.78 5 366.56 5 355Z" fill="#DCDCDC"/>
<path d="M189 692C199.89 692 210.78 692 222 692C222 707.51 222 723.02 222 739C211.11 739 200.22 739 189 739C189 723.49 189 707.98 189 692Z" fill="#DCDCDC"/>
<path d="M154 692C164.89 692 175.78 692 187 692C187 707.51 187 723.02 187 739C176.11 739 165.22 739 154 739C154 723.49 154 707.98 154 692Z" fill="#DCDCDC"/>
<path d="M71 426C85.52 426 100.04 426 115 426C115 437.55 115 449.1 115 461C100.48 461 85.96 461 71 461C71 449.45 71 437.9 71 426Z" fill="#DCDCDC"/>
<path d="M308 237C325.49 237 342.98 237 361 237C361 246.57 361 256.14 361 266C343.51 266 326.02 266 308 266C308 256.43 308 246.86 308 237Z" fill="#DCDCDC"/>
<path d="M572 582C583.22 582 594.44 582 606 582C606 596.85 606 611.7 606 627C594.78 627 583.56 627 572 627C572 612.15 572 597.3 572 582Z" fill="#DCDCDC"/>
<path d="M760 445C774.85 445 789.7 445 805 445C805 456.22 805 467.44 805 479C790.15 479 775.3 479 760 479C760 467.78 760 456.56 760 445Z" fill="#DCDCDC"/>
<path d="M5 500C20.18 500 35.36 500 51 500C51 510.89 51 521.78 51 533C35.82 533 20.64 533 5 533C5 522.11 5 511.22 5 500Z" fill="#DCDCDC"/>
<path d="M71 355C85.52 355 100.04 355 115 355C115 366.22 115 377.44 115 389C100.48 389 85.96 389 71 389C71 377.78 71 366.56 71 355Z" fill="#DCDCDC"/>
<path d="M191 623C201.23 623 211.46 623 222 623C222 638.51 222 654.02 222 670C211.77 670 201.54 670 191 670C191 654.49 191 638.98 191 623Z" fill="#DCDCDC"/>
<path d="M260 692C268.25 692 276.5 692 285 692C285 695.96 285 699.92 285 704C287.64 704 290.28 704 293 704C293 715.55 293 727.1 293 739C282.11 739 271.22 739 260 739C260 723.49 260 707.98 260 692Z" fill="#DCDCDC"/>
<path d="M71 391C85.52 391 100.04 391 115 391C115 401.89 115 412.78 115 424C100.48 424 85.96 424 71 424C71 413.11 71 402.22 71 391Z" fill="#DCDCDC"/>
<path d="M5 644C18.86 644 32.72 644 47 644C47 655.22 47 666.44 47 678C33.14 678 19.28 678 5 678C5 666.78 5 655.56 5 644Z" fill="#DCDCDC"/>
<path d="M5 608C18.86 608 32.72 608 47 608C47 619.22 47 630.44 47 642C33.14 642 19.28 642 5 642C5 630.78 5 619.56 5 608Z" fill="#DCDCDC"/>
<path d="M357 514C370.53 514 384.06 514 398 514C398 525.22 398 536.44 398 548C384.47 548 370.94 548 357 548C357 536.78 357 525.56 357 514Z" fill="#DCDCDC"/>
<path d="M5 573C18.86 573 32.72 573 47 573C47 583.89 47 594.78 47 606C33.14 606 19.28 606 5 606C5 595.11 5 584.22 5 573Z" fill="#DCDCDC"/>
<path d="M160 623C169.57 623 179.14 623 189 623C189 638.51 189 654.02 189 670C179.43 670 169.86 670 160 670C160 654.49 160 638.98 160 623Z" fill="#DCDCDC"/>
<path d="M136 90C153.16 90 170.32 90 188 90C188 98.58 188 107.16 188 116C170.84 116 153.68 116 136 116C136 107.42 136 98.84 136 90Z" fill="#DCDCDC"/>
<path d="M72 501C85.86 501 99.72 501 114 501C114 511.56 114 522.12 114 533C100.14 533 86.28 533 72 533C72 522.44 72 511.88 72 501Z" fill="#DCDCDC"/>
<path d="M664 606C673.57 606 683.14 606 693 606C693 621.51 693 637.02 693 653C685.41 653 677.82 653 670 653C664.199 646.232 663.118 644.593 663.414 636.566C663.423 635.688 663.431 634.811 663.44 633.906C663.473 631.124 663.548 628.344 663.625 625.562C663.655 623.667 663.682 621.772 663.707 619.877C663.768 615.249 663.885 610.628 664 606Z" fill="#DCDCDC"/>
<path d="M331 447C343.54 447 356.08 447 369 447C369 458.55 369 470.1 369 482C356.46 482 343.92 482 331 482C331 470.45 331 458.9 331 447Z" fill="#DCDCDC"/>
<path d="M331 410C343.54 410 356.08 410 369 410C369 421.55 369 433.1 369 445C356.46 445 343.92 445 331 445C331 433.45 331 421.9 331 410Z" fill="#DCDCDC"/>
<path d="M151 300C164.2 300 177.4 300 191 300C191 310.89 191 321.78 191 333C177.8 333 164.6 333 151 333C151 322.11 151 311.22 151 300Z" fill="#DCDCDC"/>
<path d="M259 553C274.51 553 290.02 553 306 553C306 562.24 306 571.48 306 581C290.49 581 274.98 581 259 581C259 571.76 259 562.52 259 553Z" fill="#DCDCDC"/>
<path d="M694 414C708.85 414 723.7 414 739 414C739 423.57 739 433.14 739 443C724.15 443 709.3 443 694 443C694 433.43 694 423.86 694 414Z" fill="#DCDCDC"/>
<path d="M434 163C446.54 163 459.08 163 472 163C472 243.52 472 324.04 472 407C471.67 407 471.34 407 471 407C471 326.81 471 246.62 471 164C459.12 164 447.24 164 435 164C435 258.05 435 352.1 435 449C496.05 449 557.1 449 620 449C620 435.14 620 421.28 620 407C604.49 406.67 588.98 406.34 573 406C572 403 572 403 572.874 401.065C573.341 400.335 573.808 399.604 574.289 398.852C574.813 398.024 575.336 397.197 575.876 396.344C576.453 395.447 577.03 394.55 577.625 393.625C578.207 392.671 578.79 391.718 579.39 390.736C582.25 386.089 585.122 381.732 588.727 377.629C603.414 359.78 599.643 334.826 599 313C599.33 313 599.66 313 600 313C600.33 327.85 600.66 342.7 601 358C615.52 358 630.04 358 645 358C645 343.15 645 328.3 645 313C645.33 313 645.66 313 646 313C646 328.18 646 343.36 646 359C624.438 358.875 624.438 358.875 617.67 358.757C607.911 358.443 607.911 358.443 599.203 362.021C597.363 364.614 596.17 367.051 595 370C594.195 371.368 593.368 372.724 592.516 374.062C591.757 375.373 591.001 376.685 590.25 378C584.98 387.092 579.5 396.045 574 405C587.86 405 601.72 405 616 405C616 390.15 616 375.3 616 360C616.33 360 616.66 360 617 360C617 375.18 617 390.36 617 406C618.32 406 619.64 406 621 406C621 420.85 621 435.7 621 451C558.96 451 496.92 451 433 451C433.33 355.96 433.66 260.92 434 163Z" fill="#141414"/>
<path d="M601 360C605.62 360 610.24 360 615 360C615 374.85 615 389.7 615 405C601.47 405 587.94 405 574 405C575.653 400.868 577.369 397.541 579.668 393.773C580.026 393.185 580.384 392.597 580.753 391.991C581.51 390.747 582.269 389.505 583.03 388.264C584.17 386.404 585.305 384.54 586.439 382.676C599.104 361.896 599.104 361.896 601 360Z" fill="#DCDCDC"/>
<path d="M592 244C609.82 244 627.64 244 646 244C646 251.26 646 258.52 646 266C628.18 266 610.36 266 592 266C592 258.74 592 251.48 592 244Z" fill="#DCDCDC"/>
<path d="M232 226C274.57 226 317.14 226 361 226C361 228.97 361 231.94 361 235C348.02 235.132 335.039 235.262 322.059 235.391C316.028 235.451 309.998 235.511 303.968 235.573C298.126 235.632 292.284 235.69 286.442 235.748C284.236 235.77 282.03 235.792 279.824 235.815C263.882 235.979 247.943 236.026 232 236C232 232.7 232 229.4 232 226Z" fill="#FCFCFC"/>
<path d="M575 268C588.2 268 601.4 268 615 268C615 282.19 615 296.38 615 311C610.05 311 605.1 311 600 311C596.337 306.914 594.456 304.205 592.125 299.438C591.511 298.3 590.896 297.162 590.263 295.99C589.038 293.721 587.834 291.442 586.652 289.151C584.489 285.025 582.087 281.077 579.625 277.125C577.787 274.129 576.119 271.358 575 268Z" fill="#DCDCDC"/>
<path d="M331 369C340.57 369 350.14 369 360 369C360 382.2 360 395.4 360 409C350.43 409 340.86 409 331 409C331 395.8 331 382.6 331 369Z" fill="#DCDCDC"/>
<path d="M151 335C162.55 335 174.1 335 186 335C186 345.56 186 356.12 186 367C174.45 367 162.9 367 151 367C151 356.44 151 345.88 151 335Z" fill="#DCDCDC"/>
<path d="M352 159C369.49 159 386.98 159 405 159C405 165.93 405 172.86 405 180C387.51 180 370.02 180 352 180C352 173.07 352 166.14 352 159Z" fill="#DCDCDC"/>
<path d="M433 162C503.62 162 574.24 162 647 162C647 196.65 647 231.3 647 267C636.77 267 626.54 267 616 267C616 281.85 616 296.7 616 312C626.23 312 636.46 312 647 312C647 327.84 647 343.68 647 360C636.77 360 626.54 360 616 360C616 374.85 616 389.7 616 405C615.67 405 615.34 405 615 405C615 390.15 615 375.3 615 360C610.71 360 606.42 360 602 360C602 359.67 602 359.34 602 359C616.52 359 631.04 359 646 359C646 343.82 646 328.64 646 313C631.15 313 616.3 313 601 313C601 328.18 601 343.36 601 359C600.67 359 600.34 359 600 359C599.67 342.83 599.34 326.66 599 310C604.28 310.33 609.56 310.66 615 311C615 296.15 615 281.3 615 266C625.23 266 635.46 266 646 266C645.826 263.06 645.652 260.119 645.473 257.09C644.614 239.518 645.119 221.918 645.395 204.336C645.479 198.835 645.554 193.333 645.63 187.832C645.746 179.554 645.874 171.277 646 163C628.18 163 610.36 163 592 163C592 189.4 592 215.8 592 243C591.67 243 591.34 243 591 243C591 216.6 591 190.2 591 163C552.06 163 513.12 163 473 163C473 196.99 473 230.98 473 266C472.67 266 472.34 266 472 266C472 232.01 472 198.02 472 163C459.46 163 446.92 163 434 163C434 257.38 434 351.76 434 449C433.67 449 433.34 449 433 449C433 354.29 433 259.58 433 162Z" fill="#141414"/>
<path d="M260 237C275.18 237 290.36 237 306 237C306 243.93 306 250.86 306 258C290.82 258 275.64 258 260 258C260 251.07 260 244.14 260 237Z" fill="#DCDCDC"/>
<path d="M149 298C219.29 298 289.58 298 362 298C362 320.77 362 343.54 362 367C361.67 367 361.34 367 361 367C361 344.56 361 322.12 361 299C345.655 299.495 345.655 299.495 330 300C324.1 300.069 318.215 300.121 312.316 300.098C311.031 300.097 309.745 300.096 308.42 300.095C303.801 300.09 299.182 300.076 294.562 300.062C284.147 300.042 273.731 300.021 263 300C263 335.97 263 371.94 263 409C237.92 409 212.84 409 187 409C187 384.25 187 359.5 187 334C188.98 334 190.96 334 193 334C193 334.33 193 334.66 193 335C191.35 335 189.7 335 188 335C188 359.09 188 383.18 188 408C212.09 408 236.18 408 261 408C261 372.36 261 336.72 261 300C238.23 300 215.46 300 192 300C192 310.89 192 321.78 192 333C191.67 333 191.34 333 191 333C191 322.11 191 311.22 191 300C177.8 300 164.6 300 151 300C151 310.89 151 321.78 151 333C162.55 333 174.1 333 186 333C186 333.33 186 333.66 186 334C174.12 334 162.24 334 150 334C149.67 322.12 149.34 310.24 149 298Z" fill="#141414"/>
<path d="M334 550C338.355 549.725 342.706 549.527 347.068 549.396C348.545 549.341 350.023 549.266 351.498 549.17C364.414 548.351 364.414 548.351 369.498 552.498C372.28 555.122 374.68 557.963 377 561C375.253 564.72 373.063 567.299 370.25 570.312C366.404 574.47 362.654 578.673 359 583C353.002 578.681 347.408 573.989 341.837 569.14C341.256 568.635 340.674 568.13 340.074 567.609C339.554 567.155 339.034 566.701 338.499 566.233C336.805 564.798 336.805 564.798 334 563C333.707 559.961 333.707 559.961 333.812 556.375C333.84 555.186 333.867 553.998 333.895 552.773C333.929 551.858 333.964 550.943 334 550Z" fill="#DCDCDC"/>
<path d="M71 463C85.52 463 100.04 463 115 463C115 469.27 115 475.54 115 482C100.48 482 85.96 482 71 482C71 475.73 71 469.46 71 463Z" fill="#DCDCDC"/>
<path d="M159 504C207.51 504 256.02 504 306 504C306 504.33 306 504.66 306 505C297.42 505 288.84 505 280 505C280 510.94 280 516.88 280 523C273.07 523 266.14 523 259 523C259 532.57 259 542.14 259 552C258.67 552 258.34 552 258 552C258 536.49 258 520.98 258 505C244.14 505 230.28 505 216 505C216 530.08 216 555.16 216 581C229.86 581 243.72 581 258 581C258 581.33 258 581.66 258 582C225 582 192 582 158 582C158.495 581.01 158.495 581.01 159 580C177.48 580.33 195.96 580.66 215 581C215 555.92 215 530.84 215 505C196.52 505 178.04 505 159 505C159 504.67 159 504.34 159 504ZM258 553C258.33 553 258.66 553 259 553C259 562.24 259 571.48 259 581C258.67 581 258.34 581 258 581C258 571.76 258 562.52 258 553Z" fill="#141414"/>
<path d="M439.062 503.625C439.836 503.624 440.61 503.623 441.408 503.623C455.049 503.639 467.228 504.891 480 510C480 522.54 480 535.08 480 548C491.22 548 502.44 548 514 548C510.967 551.033 508.008 553.976 504.812 556.812C504.138 557.417 503.464 558.022 502.77 558.645C501 560 501 560 499 560C498.67 560.66 498.34 561.32 498 562C497.543 561.218 497.086 560.437 496.616 559.632C493.615 555.428 490.879 551.803 485.731 550.367C478.908 549.413 472.015 549.74 465.148 549.926C462.921 549.946 460.693 549.962 458.465 549.973C452.628 550.015 446.793 550.123 440.957 550.245C434.991 550.358 429.025 550.408 423.059 550.463C411.371 550.581 399.686 550.768 388 551C388 550.34 388 549.68 388 549C391.3 549 394.6 549 398 549C398 537.45 398 525.9 398 514C384.14 513.67 370.28 513.34 356 513C356 524.55 356 536.1 356 548C355.67 548 355.34 548 355 548C355 536.12 355 524.24 355 512C369.19 512 383.38 512 398 512C398 511.34 398 510.68 398 510C399.935 509.366 401.873 508.744 403.812 508.125C404.891 507.777 405.97 507.429 407.082 507.07C417.681 504.037 428.114 503.601 439.062 503.625ZM425.938 505.75C425.098 505.812 424.258 505.874 423.393 505.938C415.061 506.684 408.431 508.752 400 511C400 523.21 400 535.42 400 548C425.74 548 451.48 548 478 548C478 535.79 478 523.58 478 511C465.835 507.479 465.835 507.479 453.625 505.75C452.801 505.673 451.978 505.595 451.129 505.516C442.646 504.763 434.406 504.994 425.938 505.75Z" fill="#141414"/>
<path d="M232 237C240.58 237 249.16 237 258 237C258 246.57 258 256.14 258 266C249.42 266 240.84 266 232 266C232 256.43 232 246.86 232 237Z" fill="#DCDCDC"/>
<path d="M330 564C335.625 565.125 335.625 565.125 338.27 567.477C339.133 568.231 339.133 568.231 340.013 569.001C340.607 569.537 341.201 570.073 341.812 570.625C342.427 571.166 343.041 571.707 343.674 572.265C344.896 573.341 346.113 574.422 347.328 575.507C349.493 577.441 351.684 579.345 353.875 581.25C354.917 582.166 355.959 583.082 357 584C355.495 587.382 353.506 589.928 351.125 592.75C347.669 596.985 345.215 601.016 343 606C338.71 606 334.42 606 330 606C330 592.14 330 578.28 330 564Z" fill="#DCDCDC"/>
<path d="M159 622C168.9 622 178.8 622 189 622C189 622.33 189 622.66 189 623C179.43 623 169.86 623 160 623C160 638.51 160 654.02 160 670C169.9 670 179.8 670 190 670C190 654.16 190 638.32 190 622C200.89 622 211.78 622 223 622C223.33 637.84 223.66 653.68 224 670C247.43 670.33 270.86 670.66 295 671C295 671.33 295 671.66 295 672C220.75 672 146.5 672 70 672C70 657.15 70 642.3 70 627C70.66 627 71.32 627 72 627C72 641.19 72 655.38 72 670C100.71 670 129.42 670 159 670C159 654.16 159 638.32 159 622ZM191 623C191 638.51 191 654.02 191 670C201.23 670 211.46 670 222 670C222 654.49 222 638.98 222 623C211.77 623 201.54 623 191 623Z" fill="#141414"/>
<path d="M649 658C649.33 658 649.66 658 650 658C650 684.73 650 711.46 650 739C615.35 739 580.7 739 545 739C545 739.66 545 740.32 545 741C492.2 741 439.4 741 385 741C385 740.67 385 740.34 385 740C386.609 739.985 386.609 739.985 388.251 739.969C398.346 739.871 408.441 739.768 418.535 739.661C423.726 739.605 428.916 739.552 434.106 739.503C439.112 739.455 444.117 739.403 449.123 739.347C451.036 739.327 452.949 739.308 454.862 739.291C457.534 739.267 460.206 739.237 462.878 739.205C463.675 739.2 464.472 739.194 465.293 739.188C469.277 739.218 469.277 739.218 473 738C475.247 737.908 477.496 737.883 479.745 737.886C480.784 737.886 480.784 737.886 481.844 737.886C484.138 737.887 486.432 737.895 488.727 737.902C490.316 737.904 491.905 737.906 493.493 737.907C497.679 737.91 501.865 737.92 506.05 737.931C510.32 737.942 514.59 737.946 518.859 737.951C527.24 737.962 535.62 737.979 544 738C544 729.42 544 720.84 544 712C537.07 712 530.14 712 523 712C523 711.34 523 710.68 523 710C534.55 710 546.1 710 558 710C557.67 710.66 557.34 711.32 557 712C553.7 712 550.4 712 547 712C547 720.58 547 729.16 547 738C580.66 738 614.32 738 649 738C649 711.6 649 685.2 649 658Z" fill="#141414"/>
<path d="M72 535C85.86 535 99.72 535 114 535C114 539.95 114 544.9 114 550C100.14 550 86.28 550 72 550C72 545.05 72 540.1 72 535Z" fill="#DCDCDC"/>
<path d="M3 462C3.33 462 3.66 462 4 462C4 474.21 4 486.42 4 499C19.84 499 35.68 499 52 499C52 510.55 52 522.1 52 534C36.49 534.33 20.98 534.66 5 535C4.67 547.21 4.34 559.42 4 572C18.85 572 33.7 572 49 572C49 595.1 49 618.2 49 642C48.34 642 47.68 642 47 642C47 630.78 47 619.56 47 608C43.9913 608.023 40.9827 608.046 37.8828 608.07C34.9771 608.086 32.0713 608.098 29.1655 608.11C27.1421 608.12 25.1186 608.134 23.0952 608.151C20.191 608.175 17.2871 608.186 14.3828 608.195C13.0202 608.211 13.0202 608.211 11.6302 608.227C10.7894 608.227 9.94872 608.227 9.08252 608.227C7.96999 608.234 7.96999 608.234 6.83499 608.241C5 608 5 608 3 606C2.7539 603.505 2.7539 603.505 2.75949 600.293C2.75674 599.078 2.75399 597.864 2.75116 596.613C2.75824 595.26 2.76551 593.907 2.77295 592.554C2.77351 591.135 2.7732 589.716 2.77206 588.297C2.77149 584.438 2.78327 580.579 2.79721 576.719C2.80969 572.689 2.81089 568.658 2.81326 564.628C2.81949 556.992 2.83591 549.356 2.85596 541.721C2.87829 533.029 2.88931 524.338 2.89935 515.646C2.92027 497.764 2.95547 479.882 3 462ZM5 500C5 510.89 5 521.78 5 533C20.18 533 35.36 533 51 533C51 522.11 51 511.22 51 500C35.82 500 20.64 500 5 500ZM5 573C5 583.89 5 594.78 5 606C18.86 606 32.72 606 47 606C47 595.11 47 584.22 47 573C33.14 573 19.28 573 5 573Z" fill="#141414"/>
<path d="M115 90C115.66 90 116.32 90 117 90C117 147.42 117 204.84 117 264C116.34 264 115.68 264 115 264C115 239.91 115 215.82 115 191C78.7 191 42.4 191 5 191C5 190.34 5 189.68 5 189C41.3 189 77.6 189 115 189C115 156.33 115 123.66 115 90Z" fill="#141414"/>
<path d="M589 505C589.33 505 589.66 505 590 505C590 529.75 590 554.5 590 580C608.48 580 626.96 580 646 580C646 580.66 646 581.32 646 582C633.46 582 620.92 582 608 582C608 596.85 608 611.7 608 627C619.55 627 631.1 627 643 627C643.495 625.515 643.495 625.515 644 624C645.485 624.495 645.485 624.495 647 625C644.679 627.947 643.52 628.923 639.748 629.481C638.46 629.472 637.172 629.463 635.845 629.454C635.132 629.455 634.42 629.455 633.685 629.456C631.337 629.453 628.989 629.422 626.641 629.391C625.01 629.383 623.379 629.377 621.748 629.373C617.46 629.358 613.173 629.319 608.885 629.275C603.738 629.226 598.591 629.208 593.444 629.185C585.629 629.146 577.815 629.069 570 629C564.06 617.12 558.12 605.24 552 593C552.99 592.505 552.99 592.505 554 592C561.92 607.345 561.92 607.345 570 623C570.33 609.47 570.66 595.94 571 582C571.33 582 571.66 582 572 582C572 596.85 572 611.7 572 627C583.22 627 594.44 627 606 627C606 612.15 606 597.3 606 582C600.72 582 595.44 582 590 582C588.327 580.327 588.88 578.286 588.876 576.053C588.881 574.992 588.881 574.992 588.886 573.91C588.886 573.168 588.886 572.427 588.886 571.663C588.887 569.201 588.895 566.739 588.902 564.277C588.904 562.575 588.906 560.872 588.907 559.17C588.91 554.68 588.92 550.19 588.931 545.701C588.942 541.123 588.946 536.545 588.951 531.967C588.962 522.978 588.979 513.989 589 505Z" fill="#141414"/>
<path d="M332.959 298.886C334.253 298.892 335.546 298.897 336.879 298.902C337.909 298.904 337.909 298.904 338.96 298.907C341.161 298.912 343.362 298.925 345.562 298.938C347.051 298.943 348.54 298.947 350.029 298.951C353.686 298.962 357.343 298.979 361 299C361.173 309.458 361.339 319.917 361.5 330.375C361.512 331.147 361.524 331.918 361.536 332.713C361.925 358.144 362.145 383.566 362 409C361.34 409 360.68 409 360 409C360 395.8 360 382.6 360 369C350.43 369 340.86 369 331 369C331 382.2 331 395.4 331 409C330.34 409 329.68 409 329 409C328.977 394.805 328.959 380.611 328.948 366.416C328.943 359.826 328.936 353.236 328.925 346.645C328.914 340.291 328.908 333.937 328.905 327.583C328.903 325.153 328.9 322.722 328.894 320.292C328.887 316.901 328.886 313.51 328.886 310.119C328.883 309.104 328.879 308.088 328.876 307.042C328.877 306.123 328.878 305.205 328.88 304.258C328.879 303.455 328.878 302.653 328.877 301.825C329.088 298.702 329.786 299.008 332.959 298.886ZM331 300C331 322.11 331 344.22 331 367C340.57 367 350.14 367 360 367C360 344.89 360 322.78 360 300C350.43 300 340.86 300 331 300Z" fill="#141414"/>
<path d="M549 582C555.93 582 562.86 582 570 582C570 595.53 570 609.06 570 623C568.006 620.341 566.485 618.229 565.007 615.365C564.467 614.324 564.467 614.324 563.916 613.262C563.348 612.154 563.348 612.154 562.77 611.023C562.374 610.257 561.979 609.491 561.572 608.701C560.74 607.086 559.911 605.471 559.083 603.854C557.812 601.374 556.532 598.898 555.252 596.422C554.445 594.852 553.638 593.282 552.832 591.711C552.448 590.968 552.063 590.226 551.667 589.46C549 584.23 549 584.23 549 582Z" fill="#DCDCDC"/>
<path d="M551 641C551.99 641.495 551.99 641.495 553 642C555.592 642.06 558.157 642.06 560.748 642.015C562.407 641.995 564.066 641.976 565.726 641.958C566.609 641.947 567.492 641.936 568.401 641.924C574.067 641.863 579.733 641.863 585.399 641.852C590.372 641.838 595.343 641.804 600.316 641.722C605.13 641.645 609.941 641.627 614.756 641.648C616.583 641.646 618.41 641.622 620.236 641.577C636.003 641.202 636.003 641.202 642.611 647.388C644.912 649.819 646.986 652.325 649 655C652.206 653.467 654.601 651.759 657.25 649.375C657.956 648.743 658.663 648.112 659.391 647.461C659.922 646.979 660.453 646.497 661 646C661 650.048 659.55 650.914 656.75 653.75C655.961 654.57 655.172 655.39 654.359 656.234C652 658 652 658 650.179 657.984C647.49 656.77 646.084 654.951 644.222 652.714C640.184 647.981 636.707 644.434 630.248 643.654C626.66 643.464 623.105 643.508 619.516 643.609C617.963 643.609 616.411 643.604 614.859 643.594C610.813 643.58 606.772 643.639 602.727 643.712C598.584 643.775 594.44 643.769 590.297 643.77C582.196 643.78 574.1 643.872 566 644C566 648.62 566 653.24 566 658C564.02 658.99 564.02 658.99 562 660C563.531 664.947 565.527 669.553 567.695 674.242C568.048 675.011 568.4 675.779 568.763 676.571C569.881 679.007 571.003 681.441 572.125 683.875C572.887 685.534 573.649 687.193 574.41 688.852C576.27 692.903 578.134 696.952 580 701C577.56 702.627 575.427 703.777 572.77 704.945C571.967 705.3 571.165 705.654 570.338 706.02C569.088 706.567 569.088 706.567 567.812 707.125C566.968 707.498 566.123 707.87 565.252 708.254C563.169 709.172 561.085 710.087 559 711C558.34 710.34 557.68 709.68 557 709C559.956 707.661 562.915 706.33 565.875 705C566.717 704.618 567.559 704.237 568.426 703.844C569.634 703.302 569.634 703.302 570.867 702.75C571.611 702.415 572.354 702.08 573.121 701.734C575 701 575 701 577 701C576.586 700.128 576.173 699.256 575.747 698.357C574.202 695.096 572.664 691.832 571.128 688.567C570.465 687.159 569.8 685.752 569.132 684.345C568.169 682.315 567.213 680.281 566.258 678.246C565.962 677.626 565.666 677.006 565.361 676.367C563.94 673.322 562.771 670.353 561.921 667.11C561.617 666.083 561.313 665.057 561 664C560.34 663.67 559.68 663.34 559 663C558.119 661.156 557.319 659.273 556.562 657.375C555.154 653.869 553.743 650.381 552.188 646.938C551 644 551 644 551 641Z" fill="#141414"/>
<path d="M379.5 179.938C381.98 179.943 384.461 179.947 386.941 179.951C392.961 179.962 398.98 179.979 405 180C405 180.66 405 181.32 405 182C391.14 182 377.28 182 363 182C363.012 185.55 363.023 189.1 363.035 192.758C363.16 242.035 363.16 242.035 362 266C361.67 266 361.34 266 361 266C360.67 252.8 360.34 239.6 360 226C317.76 225.67 275.52 225.34 232 225C232 224.67 232 224.34 232 224C274.57 224 317.14 224 361 224C361 210.14 361 196.28 361 182C352.75 182 344.5 182 336 182C336 181.67 336 181.34 336 181C350.492 179.761 364.967 179.886 379.5 179.938Z" fill="#141414"/>
<path d="M117 355C127.56 355 138.12 355 149 355C149 358.96 149 362.92 149 367C138.44 367 127.88 367 117 367C117 363.04 117 359.08 117 355Z" fill="#DCDCDC"/>
<path d="M3 266C3.33 266 3.66 266 4 266C4.01031 267.075 4.02061 268.15 4.03123 269.258C4.12879 279.368 4.23151 289.478 4.33934 299.587C4.39461 304.785 4.44804 309.983 4.49731 315.181C4.54489 320.193 4.59723 325.205 4.65294 330.217C4.67339 332.134 4.6921 334.051 4.70907 335.967C4.73305 338.642 4.76311 341.317 4.79468 343.992C4.80043 344.793 4.80619 345.593 4.81212 346.418C4.52929 350.007 4.52929 350.007 6 353C7.44184 353.122 8.88943 353.178 10.3362 353.205C11.2571 353.225 12.1779 353.245 13.1267 353.266C14.6283 353.291 14.6283 353.291 16.1602 353.316C17.1798 353.337 18.1994 353.358 19.2499 353.379C22.5207 353.445 25.7916 353.504 29.0625 353.562C31.2741 353.606 33.4857 353.649 35.6973 353.693C41.1314 353.802 46.5656 353.901 52 354C52 365.88 52 377.76 52 390C36.49 390.33 20.98 390.66 5 391C4.67 414.1 4.34 437.2 4 461C3.67 461 3.34 461 3 461C3 396.65 3 332.3 3 266ZM5 355C5 366.22 5 377.44 5 389C20.18 389 35.36 389 51 389C51 377.78 51 366.56 51 355C35.82 355 20.64 355 5 355Z" fill="#141414"/>
<path d="M384 691C384.33 691 384.66 691 385 691C385 706.84 385 722.68 385 739C412.72 739 440.44 739 469 739C469 739.33 469 739.66 469 740C457.25 740.216 445.5 740.399 433.75 740.562C432.835 740.575 431.919 740.588 430.976 740.601C392.521 741.125 354.08 740.913 315.625 740.562C314.921 740.556 314.216 740.55 313.491 740.543C295.327 740.378 277.163 740.197 259 740C259 739.67 259 739.34 259 739C270.55 739 282.1 739 294 739C294 727.78 294 716.56 294 705C294.33 705 294.66 705 295 705C295 716.22 295 727.44 295 739C324.04 739 353.08 739 383 739C382.96 723.577 382.96 723.577 382.91 708.155C382.907 706.229 382.904 704.304 382.902 702.379C382.897 701.369 382.892 700.36 382.887 699.319C382.887 697.888 382.887 697.888 382.886 696.428C382.884 695.595 382.882 694.763 382.88 693.905C383 692 383 692 384 691Z" fill="#141414"/>
<path d="M259 505C265.6 505 272.2 505 279 505C279 510.61 279 516.22 279 522C272.4 522 265.8 522 259 522C259 516.39 259 510.78 259 505Z" fill="#DCDCDC"/>
<path d="M153 690C176.1 690 199.2 690 223 690C223 706.17 223 722.34 223 739C222.67 739 222.34 739 222 739C222 723.49 222 707.98 222 692C211.11 692 200.22 692 189 692C189 707.51 189 723.02 189 739C188.34 739 187.68 739 187 739C187 723.49 187 707.98 187 692C176.11 692 165.22 692 154 692C154 707.51 154 723.02 154 739C153.67 739 153.34 739 153 739C153 722.83 153 706.66 153 690Z" fill="#141414"/>
<path d="M71.8286 352.918C73.0244 352.948 73.0244 352.948 74.2444 352.978C75.5957 353.008 75.5957 353.008 76.9743 353.039C77.9534 353.066 78.9326 353.093 79.9414 353.121C80.9388 353.145 81.9362 353.168 82.9639 353.193C86.1635 353.27 89.363 353.353 92.5625 353.438C94.7259 353.491 96.8893 353.543 99.0527 353.596C104.369 353.725 109.684 353.86 115 354C115 354.33 115 354.66 115 355C100.48 355 85.96 355 71 355C71 366.22 71 377.44 71 389C85.52 389 100.04 389 115 389C115 389.33 115 389.66 115 390C100.48 390.33 85.96 390.66 71 391C71 401.89 71 412.78 71 424C85.52 424 100.04 424 115 424C115 424.33 115 424.66 115 425C100.15 425 85.3 425 70 425C70 436.88 70 448.76 70 461C69.67 461 69.34 461 69 461C68.9767 447.066 68.9591 433.132 68.9482 419.199C68.943 412.729 68.9359 406.26 68.9246 399.791C68.9137 393.553 68.9077 387.316 68.9051 381.078C68.9033 378.693 68.8996 376.307 68.8943 373.922C68.8871 370.593 68.886 367.264 68.8865 363.936C68.8829 362.939 68.8793 361.942 68.8756 360.915C68.877 360.013 68.8783 359.111 68.8797 358.182C68.8788 357.394 68.8779 356.606 68.877 355.794C69.0462 353.326 69.3549 353.029 71.8286 352.918Z" fill="#141414"/>
<path d="M150 335C150.33 335 150.66 335 151 335C151 345.56 151 356.12 151 367C162.55 367 174.1 367 186 367C186 367.33 186 367.66 186 368C162.984 368.79 140.031 369.097 117 369C117 381.87 117 394.74 117 408C139.77 408 162.54 408 186 408C186 408.33 186 408.66 186 409C162.9 409 139.8 409 116 409C115.814 402.524 115.629 396.048 115.437 389.375C115.376 387.362 115.315 385.349 115.252 383.275C115.208 381.629 115.164 379.982 115.121 378.336C115.081 377.115 115.081 377.115 115.04 375.87C114.858 368.45 115.463 361.52 116 354C126.89 354 137.78 354 149 354C149 354.33 149 354.66 149 355C138.44 355 127.88 355 117 355C117 358.96 117 362.92 117 367C127.89 367 138.78 367 150 367C150 356.44 150 345.88 150 335Z" fill="#141414"/>
<path d="M351 79C367.83 79 384.66 79 402 79C403.718 82.4369 403.12 86.3836 403.098 90.1641C403.097 90.968 403.096 91.772 403.095 92.6003C403.089 95.6086 403.075 98.6168 403.062 101.625C403.042 108.349 403.021 115.073 403 122C385.84 122 368.68 122 351 122C351 107.81 351 93.62 351 79ZM353 81C353 94.2 353 107.4 353 121C369.17 121 385.34 121 402 121C402 107.8 402 94.6 402 81C385.83 81 369.66 81 353 81Z" fill="#141414"/>
<path d="M3 462C3.33 462 3.66 462 4 462C4 474.21 4 486.42 4 499C19.84 499 35.68 499 52 499C52 510.55 52 522.1 52 534C36.49 534.33 20.98 534.66 5 535C4.67 546.88 4.34 558.76 4 571C3.67 571 3.34 571 3 571C3 535.03 3 499.06 3 462ZM5 500C5 510.89 5 521.78 5 533C20.18 533 35.36 533 51 533C51 522.11 51 511.22 51 500C35.82 500 20.64 500 5 500Z" fill="#141414"/>
<path d="M149 298C185.96 298 222.92 298 261 298C261 298.33 261 298.66 261 299C238.56 299.33 216.12 299.66 193 300C192.67 310.89 192.34 321.78 192 333C191.67 333 191.34 333 191 333C191 322.11 191 311.22 191 300C177.8 300 164.6 300 151 300C151 310.89 151 321.78 151 333C162.55 333 174.1 333 186 333C186 333.33 186 333.66 186 334C174.12 334 162.24 334 150 334C149.67 322.12 149.34 310.24 149 298Z" fill="#141414"/>
<path d="M357 548C370.53 548 384.06 548 398 548C398 548.33 398 548.66 398 549C394.7 549 391.4 549 388 549C388.33 549.99 388.66 550.98 389 552C387.749 553.325 387.749 553.325 386.473 554.676C379.683 561.903 373.15 569.213 367 577C366.01 576.67 365.02 576.34 364 576C367.96 571.71 371.92 567.42 376 563C373.92 558.84 371.815 556.757 368.461 553.684C367 552 367 552 367 549C363.7 549 360.4 549 357 549C357 548.67 357 548.34 357 548Z" fill="#141414"/>
<path d="M479 510C479.33 510 479.66 510 480 510C480 522.54 480 535.08 480 548C491.22 548 502.44 548 514 548C510.967 551.033 508.008 553.976 504.812 556.812C504.138 557.417 503.464 558.022 502.77 558.645C501 560 501 560 499 560C498.67 560.66 498.34 561.32 498 562C497.394 561.218 496.788 560.435 496.164 559.629C495.326 558.617 494.488 557.605 493.625 556.562C492.813 555.553 492.001 554.544 491.164 553.504C487.356 550.028 487.356 550.028 478 550C478.33 536.8 478.66 523.6 479 510Z" fill="#141414"/>
<path d="M145 519C149.95 519 154.9 519 160 519C160 539.46 160 559.92 160 581C159.01 580.505 159.01 580.505 158 580C158 570.43 158 560.86 158 551C144.14 551 130.28 551 116 551C116 550.67 116 550.34 116 550C129.86 550 143.72 550 158 550C158 540.1 158 530.2 158 520C153.71 520 149.42 520 145 520C145 519.67 145 519.34 145 519Z" fill="#141414"/>
<path d="M499 560C501.897 562.806 504.477 565.73 507 568.875C509.615 572.106 512.248 575.307 514.973 578.445C515.485 579.036 515.997 579.626 516.525 580.235C517.509 581.364 518.495 582.49 519.486 583.613C528.041 593.449 534.483 604.008 540.404 615.564C541.64 617.967 542.903 620.355 544.168 622.744C544.96 624.275 545.75 625.807 546.539 627.34C546.918 628.05 547.297 628.761 547.687 629.493C550.177 634.439 550.177 634.439 549.216 637.479C548.815 637.981 548.414 638.483 548 639C547.798 638.454 547.595 637.909 547.386 637.346C544.276 629.256 540.497 621.526 536.562 613.812C536.212 613.124 535.861 612.436 535.499 611.726C530.23 601.475 524.604 592.659 516.414 584.458C514.153 582.126 512.153 579.597 510.125 577.062C506.968 573.141 503.687 569.399 500.215 565.754C499 564 499 564 499 560Z" fill="#141414"/>
<path d="M330 608C333.96 608 337.92 608 342 608C340.667 611.334 339.311 614.597 337.836 617.863C337.436 618.75 337.037 619.636 336.625 620.549C336.213 621.461 335.8 622.373 335.375 623.312C334.955 624.244 334.535 625.175 334.102 626.135C333.069 628.424 332.035 630.712 331 633C330.67 633 330.34 633 330 633C330 624.75 330 616.5 330 608Z" fill="#DCDCDC"/>
<path d="M70 426C70.33 426 70.66 426 71 426C71 437.55 71 449.1 71 461C75.513 460.965 75.513 460.965 80.1172 460.93C83.0229 460.914 85.9287 460.902 88.8345 460.89C90.8579 460.88 92.8814 460.866 94.9048 460.849C97.809 460.825 100.713 460.814 103.617 460.805C104.526 460.794 105.434 460.784 106.37 460.773C107.211 460.773 108.051 460.773 108.917 460.773C110.03 460.766 110.03 460.766 111.165 460.759C113 461 113 461 115 463C100.48 463 85.96 463 71 463C71 469.27 71 475.54 71 482C70.67 482 70.34 482 70 482C68.5886 463.304 69.3005 444.709 70 426Z" fill="#141414"/>
<path d="M549 636C550.5 637.375 550.5 637.375 552 639C552 639.66 552 640.32 552 641C551.198 641.083 550.396 641.166 549.569 641.252C544.999 642.21 541.113 644.01 536.895 645.973C535.577 646.575 535.577 646.575 534.232 647.189C531.422 648.473 528.617 649.767 525.812 651.062C522.154 652.745 518.494 654.423 514.832 656.098C513.936 656.508 513.04 656.918 512.116 657.341C503.159 661.422 494.097 665.241 485 669C484.34 668.34 483.68 667.68 483 667C484.127 666.507 485.254 666.014 486.415 665.506C490.701 663.631 494.986 661.754 499.271 659.876C501.168 659.045 503.065 658.213 504.962 657.382C516.689 652.244 528.407 647.095 539.993 641.643C545.683 639 545.683 639 549 639C549 638.01 549 637.02 549 636Z" fill="#141414"/>
<path d="M548 580C561.2 580 574.4 580 588 580C588 580.66 588 581.32 588 582C582.39 582 576.78 582 571 582C571 595.86 571 609.72 571 624C570.67 624 570.34 624 570 624C570 610.14 570 596.28 570 582C563.07 582 556.14 582 549 582C550.32 584.64 551.64 587.28 553 590C552.67 590.66 552.34 591.32 552 592C551.136 590.38 550.284 588.754 549.438 587.125C548.724 585.768 548.724 585.768 547.996 584.383C547.667 583.596 547.339 582.81 547 582C547.33 581.34 547.66 580.68 548 580Z" fill="#141414"/>
<path d="M477 509C477 509.66 477 510.32 477 511C475.082 510.567 475.082 510.567 473.125 510.125C471.419 509.74 469.71 509.367 468 509C466.916 508.757 466.916 508.757 465.811 508.51C459.763 507.213 453.864 506.519 447.688 506.25C446.746 506.208 445.805 506.167 444.835 506.124C432.108 505.705 419.42 506.797 407.04 509.8C406.367 509.866 405.694 509.932 405 510C404.34 509.34 403.68 508.68 403 508C423.972 501.728 456.816 498.908 477 509Z" fill="#141414"/>
<path d="M563 669C566 670 566 670 567.626 672.959C568.213 674.261 568.789 675.568 569.355 676.879C569.662 677.566 569.968 678.252 570.284 678.96C571.262 681.156 572.225 683.359 573.188 685.562C573.847 687.052 574.508 688.541 575.17 690.029C576.791 693.681 578.399 697.339 580 701C577.56 702.627 575.427 703.777 572.77 704.945C571.566 705.477 571.566 705.477 570.338 706.02C569.505 706.384 568.671 706.749 567.812 707.125C566.968 707.498 566.123 707.87 565.252 708.254C563.169 709.172 561.085 710.087 559 711C558.34 710.34 557.68 709.68 557 709C559.956 707.661 562.915 706.33 565.875 705C566.717 704.618 567.559 704.237 568.426 703.844C569.634 703.302 569.634 703.302 570.867 702.75C571.611 702.415 572.354 702.08 573.121 701.734C575 701 575 701 577 701C576.576 700.102 576.152 699.203 575.715 698.278C574.146 694.951 572.581 691.622 571.019 688.292C570.341 686.85 569.662 685.409 568.981 683.968C568.005 681.9 567.033 679.829 566.062 677.758C565.756 677.112 565.45 676.466 565.135 675.801C563 671.228 563 671.228 563 669Z" fill="#141414"/>
<path d="M554 644C557.3 644 560.6 644 564 644C564 648.29 564 652.58 564 657C562.02 657.99 562.02 657.99 560 659C558.993 657.066 557.994 655.128 557 653.188C556.443 652.109 555.886 651.03 555.312 649.918C554 647 554 647 554 644Z" fill="#DCDCDC"/>
<path d="M369 550C374.94 550 380.88 550 387 550C381.375 557.75 381.375 557.75 378 560C376.497 558.524 374.998 557.044 373.5 555.562C372.665 554.739 371.829 553.915 370.969 553.066C369 551 369 551 369 550Z" fill="#DCDCDC"/>
<path d="M491 550C496.94 550 502.88 550 509 550C507.35 551.65 505.7 553.3 504 555C503.299 555.763 502.598 556.526 501.875 557.312C500 559 500 559 497 559C495.395 557.539 495.395 557.539 493.812 555.625C493.283 554.999 492.753 554.372 492.207 553.727C491 552 491 552 491 550Z" fill="#DCDCDC"/>
<path d="M644 624C644.99 624.33 645.98 624.66 647 625C645.517 626.976 645.517 626.976 643 629C640.11 629.349 637.614 629.468 634.734 629.391C633.941 629.385 633.148 629.379 632.33 629.373C629.803 629.351 627.277 629.301 624.75 629.25C623.034 629.23 621.318 629.212 619.602 629.195C615.4 629.151 611.2 629.082 607 629C607.33 628.34 607.66 627.68 608 627C619.55 627 631.1 627 643 627C643.33 626.01 643.66 625.02 644 624Z" fill="#141414"/>
<path d="M332 548C339.59 548 347.18 548 355 548C355 548.33 355 548.66 355 549C347.74 549 340.48 549 333 549C333 553.62 333 558.24 333 563C335.475 563.99 335.475 563.99 338 565C338 565.99 338 566.98 338 568C337.443 567.526 336.886 567.051 336.312 566.562C333.752 564.615 333.752 564.615 329 564C329 570.93 329 577.86 329 585C328.67 585 328.34 585 328 585C328 577.41 328 569.82 328 562C329.32 562 330.64 562 332 562C332 557.38 332 552.76 332 548Z" fill="#141414"/>
<path d="M338 567C342.473 568.434 345.128 570.712 348.5 573.938C351.839 577.122 354.948 579.776 359 582C360.65 580.35 362.3 578.7 364 577C364.66 577.33 365.32 577.66 366 578C362.7 581.63 359.4 585.26 356 589C355.34 588.67 354.68 588.34 354 588C354.66 586.68 355.32 585.36 356 584C348.5 577.113 348.5 577.113 340.812 570.438C339.884 569.633 338.956 568.829 338 568C338 567.67 338 567.34 338 567Z" fill="#141414"/>
<path d="M538 613C541.313 617.214 543.498 621.75 545.812 626.562C546.245 627.426 546.677 628.289 547.123 629.178C547.522 630.007 547.921 630.837 548.332 631.691C548.7 632.446 549.069 633.201 549.448 633.979C549.63 634.646 549.812 635.313 550 636C549.34 636.99 548.68 637.98 548 639C547.671 638.109 547.671 638.109 547.336 637.199C545.084 631.313 542.402 625.956 539.172 620.543C537.904 617.791 537.764 615.992 538 613Z" fill="#141414"/>
<path d="M551 641C551.99 641.495 551.99 641.495 553 642C555.037 642.229 557.08 642.41 559.125 642.562C561.064 642.707 563.003 642.851 565 643C565 647.95 565 652.9 565 658C564.67 658 564.34 658 564 658C564 653.38 564 648.76 564 644C560.7 644 557.4 644 554 644C553.67 644.99 553.34 645.98 553 647C551 644 551 644 551 641Z" fill="#141414"/>
<path d="M491 553C493.622 554.049 494.794 554.649 496.25 557.125C496.498 557.744 496.745 558.363 497 559C499.629 557.478 501.844 556.156 504 554C504.99 554.33 505.98 554.66 507 555C501.25 560 501.25 560 499 560C498.67 560.66 498.34 561.32 498 562C496.83 560.69 495.664 559.377 494.5 558.062C493.85 557.332 493.201 556.601 492.531 555.848C491 554 491 554 491 553Z" fill="#141414"/>
<path d="M499 560C502.595 563.329 505.224 566.99 508 571C505 571 505 571 503.395 569.609C502.872 568.996 502.35 568.382 501.812 567.75C501.283 567.147 500.753 566.543 500.207 565.922C499 564 499 564 499 560Z" fill="#141414"/>
<path d="M386 551C386.99 551.33 387.98 551.66 389 552C386.36 554.97 383.72 557.94 381 561C380.34 560.34 379.68 559.68 379 559C381.31 556.36 383.62 553.72 386 551Z" fill="#141414"/>
<path d="M661 646C661 649 661 649 659.25 651.043C658.507 651.751 657.765 652.458 657 653.188C656.257 653.903 655.515 654.618 654.75 655.355C653.884 656.17 653.884 656.17 653 657C652.34 656.34 651.68 655.68 651 655C654.3 652.03 657.6 649.06 661 646Z" fill="#141414"/>
<path d="M328 562C334.4 562.492 334.4 562.492 337.438 565.062C338.211 566.022 338.211 566.022 339 567C338.01 567 337.02 567 336 567C335.34 566.34 334.68 565.68 334 565C332.016 564.286 330.017 563.614 328 563C328 562.67 328 562.34 328 562Z" fill="#141414"/>
</g>
<defs>
<clipPath id="clip0_1217_116">
<rect width="810" height="746" fill="white"/>
</clipPath>
</defs>
</svg>
