<?xml version="1.0" encoding="UTF-8"?>
<svg version="1.1" xmlns="http://www.w3.org/2000/svg" width="813" height="749">
<path d="M0 0 C268.29 0 536.58 0 813 0 C813 247.17 813 494.34 813 749 C544.71 749 276.42 749 0 749 C0 501.83 0 254.66 0 0 Z " fill="#F5D4D4" transform="translate(0,0)"/>
<path d="M0 0 C268.29 0 536.58 0 813 0 C813 247.17 813 494.34 813 749 C544.71 749 276.42 749 0 749 C0 501.83 0 254.66 0 0 Z M407 6 C407 41.97 407 77.94 407 115 C365.09 115 323.18 115 280 115 C280 93.55 280 72.1 280 50 C275.38 50 270.76 50 266 50 C266 71.45 266 92.9 266 115 C215.84 115 165.68 115 114 115 C114 106.42 114 97.84 114 89 C108.06 89 102.12 89 96 89 C96 103.19 96 117.38 96 132 C102.6 132 109.2 132 116 132 C116 286.44 116 440.88 116 600 C103.46 600 90.92 600 78 600 C78 596.7 78 593.4 78 590 C73.05 590 68.1 590 63 590 C63 601.88 63 613.76 63 626 C175.86 626 288.72 626 405 626 C405 663.95 405 701.9 405 741 C427.11 741 449.22 741 472 741 C472 703.05 472 665.1 472 626 C552.52 626 633.04 626 716 626 C716 619.73 716 613.46 716 607 C708.74 607 701.48 607 694 607 C694 436.39 694 265.78 694 90 C687.07 90 680.14 90 673 90 C673 98.25 673 106.5 673 115 C606.34 115 539.68 115 471 115 C471 79.03 471 43.06 471 6 C449.88 6 428.76 6 407 6 Z " fill="#9C2626" transform="translate(0,0)"/>
<path d="M0 0 C99.680625 -0.061875 99.680625 -0.061875 201.375 -0.125 C222.39622559 -0.14320801 243.41745117 -0.16141602 265.07568359 -0.18017578 C290.64770508 -0.18920898 290.64770508 -0.18920898 302.60025024 -0.19088745 C310.98934032 -0.19275878 319.378404 -0.20012144 327.76748657 -0.21115112 C337.4310108 -0.22383773 347.09450956 -0.22968227 356.75804219 -0.2268899 C361.70654775 -0.22567951 366.65499632 -0.22766383 371.60349154 -0.23843026 C376.07049992 -0.24809058 380.53741047 -0.24869438 385.00442314 -0.24180222 C386.62659307 -0.24094795 388.24876889 -0.24353717 389.8709271 -0.24976516 C392.06744125 -0.25770847 394.2635962 -0.25351678 396.46010399 -0.24609566 C398.29529234 -0.24723482 398.29529234 -0.24723482 400.16755521 -0.24839699 C403 -0 403 -0 405 2 C405.24609566 3.93277168 405.24609566 3.93277168 405.24050903 6.34060669 C405.24464152 7.70497706 405.24464152 7.70497706 405.2488575 9.09691048 C405.24166128 10.1014974 405.23446507 11.10608433 405.22705078 12.14111328 C405.22729185 13.2118704 405.22753292 14.28262753 405.2277813 15.38583183 C405.22628429 18.86407555 405.21103372 22.34210695 405.1953125 25.8203125 C405.19237327 27.96280819 405.19033209 30.10530532 405.18920898 32.24780273 C405.17870775 40.20689034 405.15078551 48.16594724 405.125 56.125 C405.08375 73.90375 405.0425 91.6825 405 110 C363.09 110 321.18 110 278 110 C278 88.55 278 67.1 278 45 C273.38 45 268.76 45 264 45 C264 66.45 264 87.9 264 110 C213.84 110 163.68 110 112 110 C112 101.42 112 92.84 112 84 C106.06 84 100.12 84 94 84 C94 98.19 94 112.38 94 127 C100.6 127 107.2 127 114 127 C114 281.44 114 435.88 114 595 C101.46 595 88.92 595 76 595 C76 594.67 76 594.34 76 594 C88.21 594 100.42 594 113 594 C113 578.49 113 562.98 113 547 C76.37 546.67 39.74 546.34 2 546 C2 522.57 2 499.14 2 475 C1.34 475 0.68 475 0 475 C0 318.25 0 161.5 0 0 Z " fill="#511D1D" transform="translate(2,5)"/>
<path d="M0 0 C58.08 0 116.16 0 176 0 C176 35.31 176 70.62 176 107 C165.77 107 155.54 107 145 107 C145 121.52 145 136.04 145 151 C155.23 151 165.46 151 176 151 C176 167.17 176 183.34 176 200 C165.77 200 155.54 200 145 200 C145 214.52 145 229.04 145 244 C155.89 244 166.78 244 178 244 C178 303.07 178 362.14 178 423 C133.78 423 89.56 423 44 423 C44 397.92 44 372.84 44 347 C39.71 347 35.42 347 31 347 C31 372.08 31 397.16 31 423 C20.77 423 10.54 423 0 423 C0 283.41 0 143.82 0 0 Z " fill="#2E0C0C" transform="translate(471,158)"/>
<path d="M0 0 C13.86 0 27.72 0 42 0 C42 26.73 42 53.46 42 81 C45.63 81 49.26 81 53 81 C53 54.27 53 27.54 53 0 C100.85 0 148.7 0 198 0 C198 64.02 198 128.04 198 194 C212.85 194 227.7 194 243 194 C243 221.39 243 248.78 243 277 C232.77 277 222.54 277 212 277 C212 272.05 212 267.1 212 262 C197.15 262 182.3 262 167 262 C167 241.21 167 220.42 167 199 C159.74 199 152.48 199 145 199 C145 224.74 145 250.48 145 277 C97.15 277 49.3 277 0 277 C0 185.59 0 94.18 0 0 Z " fill="#1F0808" transform="translate(165,304)"/>
<path d="M0 0 C67.98 0 135.96 0 206 0 C206 4.29 206 8.58 206 13 C219.86 13 233.72 13 248 13 C248 44.02 248 75.04 248 107 C215.33 107 182.66 107 149 107 C149 105.35 149 103.7 149 102 C132.83 102 116.66 102 100 102 C100 103.98 100 105.96 100 108 C67 108 34 108 0 108 C0 72.36 0 36.72 0 0 Z " fill="#250909" transform="translate(158,157)"/>
<path d="M0 0 C16.21125 -0.185625 32.4225 -0.37125 49.125 -0.5625 C56.79580811 -0.68540405 56.79580811 -0.68540405 64.62158203 -0.81079102 C70.87866211 -0.85144043 70.87866211 -0.85144043 73.81027222 -0.85899353 C75.85268812 -0.87279149 77.89503178 -0.90440158 79.9369812 -0.95018005 C83.03626226 -1.016174 86.13107766 -1.02515284 89.23095703 -1.02172852 C90.58977588 -1.07030298 90.58977588 -1.07030298 91.97604561 -1.11985874 C94.60360028 -1.08105684 96.54327084 -0.94335593 99 0 C101.59116288 2.71738505 103.27625617 5.68492644 105 9 C105.71682344 10.16605666 106.44209372 11.32699076 107.17822266 12.48095703 C107.8335498 13.56231934 108.48887695 14.64368164 109.1640625 15.7578125 C109.52341888 16.34996552 109.88277527 16.94211853 110.25302124 17.55221558 C111.0016451 18.78668645 111.74933478 20.02172433 112.49609375 21.25732422 C113.62798451 23.12993762 114.76296747 25.00064894 115.8984375 26.87109375 C117.94129296 30.24211976 119.98271541 33.6135688 122 37 C123.0832959 38.60669556 123.0832959 38.60669556 124.18847656 40.24584961 C126.75513665 44.79515811 126.75516975 49.43335812 126.8828125 54.55859375 C126.93255722 56.07868546 126.93255722 56.07868546 126.98330688 57.62948608 C127.06743401 60.89943958 127.10525996 64.16654577 127.125 67.4375 C127.13358032 68.54813812 127.14216064 69.65877625 127.15100098 70.80307007 C127.16273187 87.84574923 125.76442835 100.41543918 114.30612183 113.76626587 C112.35531127 116.50176865 111.11691192 118.80622473 109.77172852 121.84153748 C103.49361865 135.33656083 103.49361865 135.33656083 97.63471222 138.12619972 C90.83362413 139.81841413 83.8919798 139.30044919 76.953125 138.953125 C74.97976996 138.92366587 73.00625795 138.90329505 71.03271484 138.89208984 C63.76940424 138.78783719 56.50945436 138.50859604 49.25 138.25 C32.9975 137.8375 16.745 137.425 0 137 C0 91.79 0 46.58 0 0 Z " fill="#D93535" transform="translate(473,265)"/>
<path d="M0 0 C268.29 0 536.58 0 813 0 C813 247.17 813 494.34 813 749 C544.71 749 276.42 749 0 749 C0 501.83 0 254.66 0 0 Z M2 5 C2 248.54 2 492.08 2 743 C267.32 743 532.64 743 806 743 C806 499.46 806 255.92 806 5 C540.68 5 275.36 5 2 5 Z " fill="#FCFCFC" transform="translate(0,0)"/>
<path d="M0 0 C34.65 0 69.3 0 105 0 C105 37.29 105 74.58 105 113 C70.35 113 35.7 113 0 113 C0 75.71 0 38.42 0 0 Z " fill="#D93535" transform="translate(4,628)"/>
<path d="M0 0 C35.97 0 71.94 0 109 0 C109 34.98 109 69.96 109 106 C73.03 106 37.06 106 0 106 C0 71.02 0 36.04 0 0 Z " fill="#D93535" transform="translate(695,7)"/>
<path d="M0 0 C31.68 0 63.36 0 96 0 C96 32.34 96 64.68 96 98 C64.32 98 32.64 98 0 98 C0 65.66 0 33.32 0 0 Z " fill="#DA3636" transform="translate(551,404)"/>
<path d="M0 0 C25.74 0 51.48 0 78 0 C78 37.62 78 75.24 78 114 C52.26 114 26.52 114 0 114 C0 76.38 0 38.76 0 0 Z " fill="#D83535" transform="translate(111,627)"/>
<path d="M0 0 C36.3 0 72.6 0 110 0 C110 26.4 110 52.8 110 80 C73.7 80 37.4 80 0 80 C0 53.6 0 27.2 0 0 Z " fill="#DA3636" transform="translate(4,7)"/>
<path d="M0 0 C25.41 0 50.82 0 77 0 C77 37.62 77 75.24 77 114 C51.59 114 26.18 114 0 114 C0 76.38 0 38.76 0 0 Z " fill="#D93535" transform="translate(257,627)"/>
<path d="M0 0 C36.3 0 72.6 0 110 0 C110 25.08 110 50.16 110 76 C73.7 76 37.4 76 0 76 C0 50.92 0 25.84 0 0 Z " fill="#D83535" transform="translate(695,260)"/>
<path d="M0 0 C36.3 0 72.6 0 110 0 C110 24.75 110 49.5 110 75 C73.7 75 37.4 75 0 75 C0 50.25 0 25.5 0 0 Z " fill="#D83535" transform="translate(695,405)"/>
<path d="M0 0 C24.09 0 48.18 0 73 0 C73 37.29 73 74.58 73 113 C48.91 113 24.82 113 0 113 C0 75.71 0 38.42 0 0 Z " fill="#D83535" transform="translate(474,628)"/>
<path d="M0 0 C0.66 0 1.32 0 2 0 C2 23.43 2 46.86 2 71 C9.84523438 70.98839844 17.69046875 70.97679687 25.7734375 70.96484375 C30.73177166 70.95973662 35.69010259 70.95492282 40.6484375 70.95117188 C48.52539744 70.94518487 56.4023458 70.93808834 64.27929688 70.92456055 C70.62700147 70.9137268 76.97469365 70.90772212 83.32240677 70.90512276 C85.74900127 70.90326939 88.17559506 70.89965047 90.6021843 70.89426994 C93.9905013 70.88705308 97.37876645 70.88600934 100.76708984 70.88647461 C101.77912979 70.88287933 102.79116974 70.87928406 103.83387756 70.87557983 C104.75376968 70.8769545 105.6736618 70.87832916 106.62142944 70.87974548 C107.42338934 70.87882369 108.22534924 70.8779019 109.05161095 70.87695217 C111 71 111 71 113 72 C113 87.51 113 103.02 113 119 C100.79 119 88.58 119 76 119 C76 116.03 76 113.06 76 110 C70.72 110 65.44 110 60 110 C60 121.88 60 133.76 60 146 C75.84 146.33 91.68 146.66 108 147 C108 184.62 108 222.24 108 261 C107.67 261 107.34 261 107 261 C107 223.71 107 186.42 107 148 C72.35 148 37.7 148 2 148 C2 185.29 2 222.58 2 261 C398.99 261.495 398.99 261.495 804 262 C804 262.33 804 262.66 804 263 C538.68 263 273.36 263 0 263 C0 176.21 0 89.42 0 0 Z " fill="#403434" transform="translate(2,480)"/>
<path d="M0 0 C35.97 0 71.94 0 109 0 C109 24.75 109 49.5 109 75 C73.03 75 37.06 75 0 75 C0 50.25 0 25.5 0 0 Z " fill="#D93535" transform="translate(695,115)"/>
<path d="M0 0 C25.41 0 50.82 0 77 0 C77 34.98 77 69.96 77 106 C51.59 106 26.18 106 0 106 C0 71.02 0 36.04 0 0 Z " fill="#D93535" transform="translate(187,7)"/>
<path d="M0 0 C25.08 0 50.16 0 76 0 C76 34.98 76 69.96 76 106 C50.92 106 25.84 106 0 106 C0 71.02 0 36.04 0 0 Z " fill="#D93535" transform="translate(472,7)"/>
<path d="M0 0 C23.43 0 46.86 0 71 0 C71 37.29 71 74.58 71 113 C47.57 113 24.14 113 0 113 C0 75.71 0 38.42 0 0 Z " fill="#D83535" transform="translate(622,628)"/>
<path d="M0 0 C23.43 0 46.86 0 71 0 C71 37.29 71 74.58 71 113 C47.57 113 24.14 113 0 113 C0 75.71 0 38.42 0 0 Z " fill="#D93535" transform="translate(549,628)"/>
<path d="M0 0 C36.3 0 72.6 0 110 0 C110 23.76 110 47.52 110 72 C73.7 72 37.4 72 0 72 C0 48.24 0 24.48 0 0 Z " fill="#D93535" transform="translate(4,406)"/>
<path d="M0 0 C35.97 0 71.94 0 109 0 C109 23.76 109 47.52 109 72 C73.03 72 37.06 72 0 72 C0 48.24 0 24.48 0 0 Z " fill="#D93535" transform="translate(695,482)"/>
<path d="M0 0 C36.3 0 72.6 0 110 0 C110 23.43 110 46.86 110 71 C73.7 71 37.4 71 0 71 C0 47.57 0 24.14 0 0 Z " fill="#D93535" transform="translate(4,480)"/>
<path d="M0 0 C36.3 0 72.6 0 110 0 C110 23.43 110 46.86 110 71 C73.7 71 37.4 71 0 71 C0 47.57 0 24.14 0 0 Z " fill="#DA3636" transform="translate(4,262)"/>
<path d="M0 0 C22.44 0 44.88 0 68 0 C68 37.62 68 75.24 68 114 C45.56 114 23.12 114 0 114 C0 76.38 0 38.76 0 0 Z " fill="#D83535" transform="translate(336,627)"/>
<path d="M0 0 C24.09 0 48.18 0 73 0 C73 34.98 73 69.96 73 106 C48.91 106 24.82 106 0 106 C0 71.02 0 36.04 0 0 Z " fill="#D93535" transform="translate(332,7)"/>
<path d="M0 0 C36.3 0 72.6 0 110 0 C110 23.1 110 46.2 110 70 C73.7 70 37.4 70 0 70 C0 46.9 0 23.8 0 0 Z " fill="#D93535" transform="translate(4,190)"/>
<path d="M0 0 C25.41 0 50.82 0 77 0 C77 27.06 77 54.12 77 82 C69.74 82 62.48 82 55 82 C55 89.92 55 97.84 55 106 C36.85 106 18.7 106 0 106 C0 71.02 0 36.04 0 0 Z " fill="#DA3636" transform="translate(616,7)"/>
<path d="M0 0 C0.33 0 0.66 0 1 0 C1 14.19 1 28.38 1 43 C7.6 43 14.2 43 21 43 C20.67 61.48 20.34 79.96 20 99 C-16.63 99 -53.26 99 -91 99 C-91 75.57 -91 52.14 -91 28 C-61.3 28 -31.6 28 -1 28 C-0.67 18.76 -0.34 9.52 0 0 Z " fill="#D73535" transform="translate(95,89)"/>
<path d="M0 0 C36.3 0 72.6 0 110 0 C110 22.77 110 45.54 110 69 C73.7 69 37.4 69 0 69 C0 46.23 0 23.46 0 0 Z " fill="#D93535" transform="translate(4,335)"/>
<path d="M0 0 C20.13 0 40.26 0 61 0 C61 13.2 61 26.4 61 40 C74.53 40 88.06 40 102 40 C102 26.8 102 13.6 102 0 C111.24 0 120.48 0 130 0 C130 23.43 130 46.86 130 71 C87.1 71 44.2 71 0 71 C0 47.57 0 24.14 0 0 Z " fill="#D63535" transform="translate(232,159)"/>
<path d="M0 0 C23.76 0 47.52 0 72 0 C72 34.65 72 69.3 72 105 C48.24 105 24.48 105 0 105 C0 70.35 0 35.7 0 0 Z " fill="#D73535" transform="translate(159,159)"/>
<path d="M0 0 C3.96 0 7.92 0 12 0 C12 5.28 12 10.56 12 16 C17.28 16 22.56 16 28 16 C28 11.05 28 6.1 28 1 C43.18 1 58.36 1 74 1 C74 34.99 74 68.98 74 104 C49.58 104 25.16 104 0 104 C0 69.68 0 35.36 0 0 Z " fill="#D83535" transform="translate(472,159)"/>
<path d="M0 0 C23.76 0 47.52 0 72 0 C72 33.66 72 67.32 72 102 C48.24 102 24.48 102 0 102 C0 68.34 0 34.68 0 0 Z " fill="#D93535" transform="translate(260,305)"/>
<path d="M0 0 C22.77 0 45.54 0 69 0 C69 34.98 69 69.96 69 106 C46.23 106 23.46 106 0 106 C0 71.02 0 36.04 0 0 Z " fill="#DA3636" transform="translate(116,7)"/>
<path d="M0 0 C36.3 0 72.6 0 110 0 C110 21.78 110 43.56 110 66 C73.7 66 37.4 66 0 66 C0 44.22 0 22.44 0 0 Z " fill="#D73535" transform="translate(695,192)"/>
<path d="M0 0 C21.12 0 42.24 0 64 0 C64 37.29 64 74.58 64 113 C42.88 113 21.76 113 0 113 C0 75.71 0 38.42 0 0 Z " fill="#D93535" transform="translate(191,628)"/>
<path d="M0 0 C35.64 0 71.28 0 108 0 C108 23.1 108 46.2 108 70 C79.62 70 51.24 70 22 70 C22 63.07 22 56.14 22 49 C14.74 49 7.48 49 0 49 C0 32.83 0 16.66 0 0 Z " fill="#DA3636" transform="translate(696,556)"/>
<path d="M0 0 C35.97 0 71.94 0 109 0 C109 21.45 109 42.9 109 65 C73.03 65 37.06 65 0 65 C0 43.55 0 22.1 0 0 Z " fill="#D93535" transform="translate(695,338)"/>
<path d="M0 0 C25.41 0 50.82 0 77 0 C77 33 77 66 77 100 C61.49 100 45.98 100 30 100 C30 91.75 30 83.5 30 75 C20.1 75 10.2 75 0 75 C0 50.25 0 25.5 0 0 Z " fill="#D73535" transform="translate(472,403)"/>
<path d="M0 0 C108.24 0 216.48 0 328 0 C328 0.33 328 0.66 328 1 C280.81 1 233.62 1 185 1 C185 36.64 185 72.28 185 109 C210.74 109 236.48 109 263 109 C263 109.33 263 109.66 263 110 C213.17 110 163.34 110 112 110 C112 101.42 112 92.84 112 84 C105.73 84 99.46 84 93 84 C93 98.52 93 113.04 93 128 C92.67 128 92.34 128 92 128 C92 122.72 92 117.44 92 112 C62.3 112 32.6 112 2 112 C2 135.43 2 158.86 2 183 C38.63 183 75.26 183 113 183 C113 164.85 113 146.7 113 128 C113.33 128 113.66 128 114 128 C114 282.11 114 436.22 114 595 C101.46 595 88.92 595 76 595 C76 594.67 76 594.34 76 594 C88.21 594 100.42 594 113 594 C113 578.49 113 562.98 113 547 C112.34 546.67 111.68 546.34 111 546 C111.33 522.57 111.66 499.14 112 475 C75.04 475 38.08 475 0 475 C0 318.25 0 161.5 0 0 Z M2 2 C2 28.4 2 54.8 2 82 C38.3 82 74.6 82 112 82 C112 55.6 112 29.2 112 2 C75.7 2 39.4 2 2 2 Z M114 2 C114 36.98 114 71.96 114 108 C136.77 108 159.54 108 183 108 C183 73.02 183 38.04 183 2 C160.23 2 137.46 2 114 2 Z M2 185 C2 208.1 2 231.2 2 255 C38.3 255 74.6 255 112 255 C112 231.9 112 208.8 112 185 C75.7 185 39.4 185 2 185 Z M2 257 C2 280.43 2 303.86 2 328 C38.3 328 74.6 328 112 328 C112 304.57 112 281.14 112 257 C75.7 257 39.4 257 2 257 Z M2 330 C2 352.77 2 375.54 2 399 C38.3 399 74.6 399 112 399 C112 376.23 112 353.46 112 330 C75.7 330 39.4 330 2 330 Z M2 401 C2 424.76 2 448.52 2 473 C38.3 473 74.6 473 112 473 C112 449.24 112 425.48 112 401 C75.7 401 39.4 401 2 401 Z " fill="#1B0909" transform="translate(2,5)"/>
<path d="M0 0 C20.79 0 41.58 0 63 0 C63 34.98 63 69.96 63 106 C42.21 106 21.42 106 0 106 C0 71.02 0 36.04 0 0 Z " fill="#DA3636" transform="translate(551,7)"/>
<path d="M0 0 C23.76 0 47.52 0 72 0 C72 30.36 72 60.72 72 92 C55.17 92 38.34 92 21 92 C21 88.04 21 84.08 21 80 C14.07 80 7.14 80 0 80 C0 53.6 0 27.2 0 0 Z " fill="#DA3636" transform="translate(260,409)"/>
<path d="M0 0 C8.91 0 17.82 0 27 0 C27 75.24 27 150.48 27 228 C18.09 228 9.18 228 0 228 C0 152.76 0 77.52 0 0 Z " fill="#D93535" transform="translate(334,305)"/>
<path d="M0 0 C30.03 0 60.06 0 91 0 C91 19.14 91 38.28 91 58 C80.77 58 70.54 58 60 58 C60 60.64 60 63.28 60 66 C40.2 66 20.4 66 0 66 C0 44.22 0 22.44 0 0 Z " fill="#D93535" transform="translate(167,409)"/>
<path d="M0 0 C17.82 0 35.64 0 54 0 C54 26.4 54 52.8 54 80 C36.18 80 18.36 80 0 80 C0 53.6 0 27.2 0 0 Z " fill="#DA3636" transform="translate(591,160)"/>
<path d="M0 0 C13.53 0 27.06 0 41 0 C41 34.32 41 68.64 41 104 C27.47 104 13.94 104 0 104 C0 69.68 0 35.36 0 0 Z " fill="#D73535" transform="translate(548,159)"/>
<path d="M0 0 C17.82 0 35.64 0 54 0 C54 24.75 54 49.5 54 75 C36.18 75 18.36 75 0 75 C0 50.25 0 25.5 0 0 Z " fill="#D83535" transform="translate(593,504)"/>
<path d="M0 0 C67.32 0 134.64 0 204 0 C204 0.33 204 0.66 204 1 C194.76 1 185.52 1 176 1 C176 14.2 176 27.4 176 41 C162.47 41 148.94 41 135 41 C135 27.8 135 14.6 135 1 C114.87 1 94.74 1 74 1 C74 24.43 74 47.86 74 72 C98.42 72 122.84 72 148 72 C148 72.33 148 72.66 148 73 C140.74 73 133.48 73 126 73 C126.01160156 74.93746094 126.02320313 76.87492187 126.03515625 78.87109375 C126.04453221 81.39322821 126.05363262 83.9153637 126.0625 86.4375 C126.07087891 87.71689453 126.07925781 88.99628906 126.08789062 90.31445312 C126.09111328 91.52939453 126.09433594 92.74433594 126.09765625 93.99609375 C126.10289307 95.12200928 126.10812988 96.2479248 126.11352539 97.40795898 C126 100 126 100 125 101 C123.14630389 101.08737645 121.28932459 101.10698153 119.43359375 101.09765625 C118.30888672 101.09443359 117.18417969 101.09121094 116.02539062 101.08789062 C114.84138672 101.07951172 113.65738281 101.07113281 112.4375 101.0625 C111.24962891 101.05798828 110.06175781 101.05347656 108.83789062 101.04882812 C105.89187774 101.03699675 102.94596319 101.02051287 100 101 C100 102.98 100 104.96 100 107 C67 107 34 107 0 107 C0 71.69 0 36.38 0 0 Z M1 1 C1 35.65 1 70.3 1 106 C24.76 106 48.52 106 73 106 C73 71.35 73 36.7 73 1 C49.24 1 25.48 1 1 1 Z " fill="#050101" transform="translate(158,158)"/>
<path d="M0 0 C16.17 0 32.34 0 49 0 C49 24.75 49 49.5 49 75 C32.83 75 16.66 75 0 75 C0 50.25 0 25.5 0 0 Z " fill="#DA3636" transform="translate(167,504)"/>
<path d="M0 0 C13.53 0 27.06 0 41 0 C41 25.08 41 50.16 41 76 C27.47 76 13.94 76 0 76 C0 50.92 0 25.84 0 0 Z " fill="#D63535" transform="translate(218,504)"/>
<path d="M0 0 C13.2 0 26.4 0 40 0 C40 24.42 40 48.84 40 74 C26.8 74 13.6 74 0 74 C0 49.58 0 25.16 0 0 Z " fill="#DA3636" transform="translate(551,505)"/>
<path d="M0 0 C20.79 0 41.58 0 63 0 C63 13.86 63 27.72 63 42 C42.21 42 21.42 42 0 42 C0 28.14 0 14.28 0 0 Z " fill="#D83535" transform="translate(266,7)"/>
<path d="M0 0 C24.42 0 48.84 0 74 0 C74 11.55 74 23.1 74 35 C49.58 35 25.16 35 0 35 C0 23.45 0 11.9 0 0 Z " fill="#D93535" transform="translate(4,553)"/>
<path d="M0 0 C12.87 0 25.74 0 39 0 C39 21.78 39 43.56 39 66 C26.13 66 13.26 66 0 66 C0 44.22 0 22.44 0 0 Z " fill="#D43434" transform="translate(219,305)"/>
<path d="M0 0 C23.76 0 47.52 0 72 0 C72 14.52 72 29.04 72 44 C63.09 44 54.18 44 45 44 C45 39.05 45 34.1 45 29 C30.15 29 15.3 29 0 29 C0 19.43 0 9.86 0 0 Z " fill="#D73535" transform="translate(334,535)"/>
<path d="M0 0 C10.56 0 21.12 0 32 0 C32 24.75 32 49.5 32 75 C21.44 75 10.88 75 0 75 C0 50.25 0 25.5 0 0 Z " fill="#D53434" transform="translate(517,504)"/>
<path d="M0 0 C29.7 0 59.4 0 90 0 C90 8.58 90 17.16 90 26 C60.3 26 30.6 26 0 26 C0 17.42 0 8.84 0 0 Z " fill="#D93535" transform="translate(4,89)"/>
<path d="M0 0 C9.24 0 18.48 0 28 0 C28 7.92 28 15.84 28 24 C33.28 24 38.56 24 44 24 C44 49.41 44 74.82 44 101 C43.67 101 43.34 101 43 101 C43 75.92 43 50.84 43 25 C38.71 25 34.42 25 30 25 C30 41.5 30 58 30 75 C20.1 75 10.2 75 0 75 C0 50.25 0 25.5 0 0 Z " fill="#C43636" transform="translate(472,480)"/>
<path d="M0 0 C19.14 0 38.28 0 58 0 C58 11.88 58 23.76 58 36 C38.86 36 19.72 36 0 36 C0 24.12 0 12.24 0 0 Z " fill="#D63535" transform="translate(4,590)"/>
<path d="M0 0 C14.52 0 29.04 0 44 0 C44 15.18 44 30.36 44 46 C29.48 46 14.96 46 0 46 C0 30.82 0 15.64 0 0 Z " fill="#D83535" transform="translate(601,310)"/>
<path d="M0 0 C9.24 0 18.48 0 28 0 C28 15.84 28 31.68 28 48 C12.49 48 -3.02 48 -19 48 C-19 38.76 -19 29.52 -19 20 C-12.73 20 -6.46 20 0 20 C0 13.4 0 6.8 0 0 Z " fill="#D73535" transform="translate(280,503)"/>
<path d="M0 0 C95.37 0 190.74 0 289 0 C289 27.72 289 55.44 289 84 C288.67 84 288.34 84 288 84 C288 56.94 288 29.88 288 2 C262.59 2 237.18 2 211 2 C211 36.98 211 71.96 211 108 C229.15 108 247.3 108 266 108 C266 100.08 266 92.16 266 84 C266.33 84 266.66 84 267 84 C267 92.25 267 100.5 267 109 C225.03843691 109.90449347 183.10253788 110.13182025 141.13281369 110.07202661 C131.34628664 110.05834401 121.55975437 110.0532799 111.77322006 110.04751682 C96.51546778 110.03832243 81.2577504 110.01834354 66 110 C66 74.03 66 38.06 66 1 C44.88 1.33 23.76 1.66 2 2 C1.67 37.31 1.34 72.62 1 109 C0.67 109 0.34 109 0 109 C0 73.03 0 37.06 0 0 Z M67 2 C67 36.98 67 71.96 67 108 C92.08 108 117.16 108 143 108 C143 73.02 143 38.04 143 2 C117.92 2 92.84 2 67 2 Z M146 2 C146 36.98 146 71.96 146 108 C166.79 108 187.58 108 209 108 C209 73.02 209 38.04 209 2 C188.21 2 167.42 2 146 2 Z " fill="#300C0C" transform="translate(405,5)"/>
<path d="M0 0 C0.33 0 0.66 0 1 0 C1.03025136 55.73416451 1.05059092 111.4683304 1.06185675 167.20250201 C1.06249808 170.36554448 1.0631569 173.52858695 1.06381607 176.69162941 C1.10540091 379.43699406 1.10540091 379.43699406 0.5 479.75 C0.49402628 480.70669051 0.48805257 481.66338102 0.48189783 482.64906216 C0.34134998 505.09953091 0.1856992 527.54985632 0 550 C-0.33 550 -0.66 550 -1 550 C-1 512.71 -1 475.42 -1 437 C-36.97 437 -72.94 437 -110 437 C-110 436.34 -110 435.68 -110 435 C-103.07 435 -96.14 435 -89 435 C-89 428.73 -89 422.46 -89 416 C-96.26 416 -103.52 416 -111 416 C-111.19148936 381.5106383 -111.19148936 381.5106383 -110 365 C-109.67 365 -109.34 365 -109 365 C-109 381.17 -109 397.34 -109 414 C-101.74 414 -94.48 414 -87 414 C-87 420.93 -87 427.86 -87 435 C-58.62 435 -30.24 435 -1 435 C-1.33 411.9 -1.66 388.8 -2 365 C-37.64 364.67 -73.28 364.34 -110 364 C-110 363.67 -110 363.34 -110 363 C-74.03 363 -38.06 363 -1 363 C-1 339.24 -1 315.48 -1 291 C-36.97 291 -72.94 291 -110 291 C-109.67 290.34 -109.34 289.68 -109 289 C-73.03 289 -37.06 289 0 289 C0 264.25 0 239.5 0 214 C-36.3 213.67 -72.6 213.34 -110 213 C-110 212.67 -110 212.34 -110 212 C-74.03 212 -38.06 212 -1 212 C-1 190.55 -1 169.1 -1 147 C-36.97 147 -72.94 147 -110 147 C-110 146.67 -110 146.34 -110 146 C-73.7 145.67 -37.4 145.34 0 145 C0 97.15 0 49.3 0 0 Z " fill="#2B0A0A" transform="translate(805,191)"/>
<path d="M0 0 C17.82 0 35.64 0 54 0 C54 9.9 54 19.8 54 30 C36.18 30 18.36 30 0 30 C0 20.1 0 10.2 0 0 Z " fill="#D93535" transform="translate(308,232)"/>
<path d="M0 0 C12.54 0 25.08 0 38 0 C38 4.29 38 8.58 38 13 C42.29 13 46.58 13 51 13 C51 19.93 51 26.86 51 34 C34.17 34 17.34 34 0 34 C0 22.78 0 11.56 0 0 Z " fill="#D83535" transform="translate(167,373)"/>
<path d="M0 0 C9.57 0 19.14 0 29 0 C29 7.26 29 14.52 29 22 C35.93 22 42.86 22 50 22 C50 32.23 50 42.46 50 53 C44.06 53 38.12 53 32 53 C32 46.4 32 39.8 32 33 C21.44 33 10.88 33 0 33 C0 22.11 0 11.22 0 0 Z " fill="#D73535" transform="translate(229,469)"/>
<path d="M0 0 C11.22 0 22.44 0 34 0 C34 14.85 34 29.7 34 45 C22.78 45 11.56 45 0 45 C0 30.15 0 15.3 0 0 Z " fill="#DA3636" transform="translate(80,553)"/>
<path d="M0 0 C12.87 0 25.74 0 39 0 C39 12.87 39 25.74 39 39 C26.13 39 13.26 39 0 39 C0 26.13 0 13.26 0 0 Z " fill="#D63535" transform="translate(294,159)"/>
<path d="M0 0 C19.8 0 39.6 0 60 0 C60 8.25 60 16.5 60 25 C40.2 25 20.4 25 0 25 C0 16.75 0 8.5 0 0 Z " fill="#DA3636" transform="translate(167,477)"/>
<path d="M0 0 C14.19 0 28.38 0 43 0 C43 11.22 43 22.44 43 34 C28.81 34 14.62 34 0 34 C0 22.78 0 11.56 0 0 Z " fill="#D63535" transform="translate(363,500)"/>
<path d="M0 0 C0.33 0 0.66 0 1 0 C1 33.99 1 67.98 1 103 C25.09 103 49.18 103 74 103 C74 103.33 74 103.66 74 104 C49.91 104 25.82 104 1 104 C1 149.54 1 195.08 1 242 C26.41 242 51.82 242 78 242 C78 242.33 78 242.66 78 243 C52.59 243 27.18 243 1 243 C1 267.75 1 292.5 1 318 C10.9 318 20.8 318 31 318 C31 326.25 31 334.5 31 343 C30.67 343 30.34 343 30 343 C29.67 335.41 29.34 327.82 29 320 C19.76 320 10.52 320 1 320 C1 336.17 1 352.34 1 369 C10.57 369 20.14 369 30 369 C30 369.33 30 369.66 30 370 C20.43 370 10.86 370 1 370 C1 378.25 1 386.5 1 395 C10.9 395 20.8 395 31 395 C31 403.58 31 412.16 31 421 C20.77 421 10.54 421 0 421 C0 282.07 0 143.14 0 0 Z " fill="#050101" transform="translate(471,160)"/>
<path d="M0 0 C15.51 0 31.02 0 47 0 C47 9.9 47 19.8 47 30 C31.49 30 15.98 30 0 30 C0 20.1 0 10.2 0 0 Z " fill="#DA3636" transform="translate(282,83)"/>
<path d="M0 0 C12.87 0 25.74 0 39 0 C39 11.55 39 23.1 39 35 C26.13 35 13.26 35 0 35 C0 23.45 0 11.9 0 0 Z " fill="#D23434" transform="translate(219,372)"/>
<path d="M0 0 C15.51 0 31.02 0 47 0 C47 9.57 47 19.14 47 29 C31.49 29 15.98 29 0 29 C0 19.43 0 9.86 0 0 Z " fill="#DA3636" transform="translate(282,51)"/>
<path d="M0 0 C12.87 0 25.74 0 39 0 C39 10.89 39 21.78 39 33 C26.13 33 13.26 33 0 33 C0 22.11 0 11.22 0 0 Z " fill="#D53535" transform="translate(166,305)"/>
<path d="M0 0 C15.51 0 31.02 0 47 0 C47 8.58 47 17.16 47 26 C31.49 26 15.98 26 0 26 C0 17.42 0 8.84 0 0 Z " fill="#D93535" transform="translate(261,553)"/>
<path d="M0 0 C13.2 0 26.4 0 40 0 C40 9.9 40 19.8 40 30 C26.8 30 13.6 30 0 30 C0 20.1 0 10.2 0 0 Z " fill="#DA3636" transform="translate(364,232)"/>
<path d="M0 0 C12.87 0 25.74 0 39 0 C39 14.52 39 29.04 39 44 C34.38 44 29.76 44 25 44 C21.77979195 40.50756817 20.31710521 38.38921699 18.375 34.25 C17.31835138 32.23856032 16.2597087 30.22816707 15.19921875 28.21875 C14.41683838 26.67380859 14.41683838 26.67380859 13.61865234 25.09765625 C11.04430899 20.17106976 8.10978995 15.47551629 5.1875 10.75 C4.17566466 9.10221632 3.16866767 7.45144548 2.16796875 5.796875 C1.74797607 5.10948242 1.3279834 4.42208984 0.89526367 3.71386719 C0 2 0 2 0 0 Z " fill="#D83535" transform="translate(575,265)"/>
<path d="M0 0 C4.62 0 9.24 0 14 0 C14 14.52 14 29.04 14 44 C1.13 44 -11.74 44 -25 44 C-23.33410234 39.83525585 -21.56171291 36.35980097 -19.296875 32.51953125 C-18.93660217 31.90663742 -18.57632935 31.29374359 -18.20513916 30.66227722 C-17.05667412 28.7104166 -15.90338146 26.76145857 -14.75 24.8125 C-13.61570766 22.88642997 -12.48232927 20.95983671 -11.35070801 19.03219604 C-10.60902303 17.77804283 -9.8599423 16.5282328 -9.10339355 15.2829895 C-7.41983514 12.50170361 -5.92409978 9.82805354 -4.60742188 6.84521484 C-3.328125 4.07421875 -3.328125 4.07421875 0 0 Z " fill="#D73535" transform="translate(600,358)"/>
<path d="M0 0 C13.2 0 26.4 0 40 0 C40 9.57 40 19.14 40 29 C26.8 29 13.6 29 0 29 C0 19.43 0 9.86 0 0 Z " fill="#DA3636" transform="translate(364,172)"/>
<path d="M0 0 C12.54 0 25.08 0 38 0 C38 9.9 38 19.8 38 30 C25.46 30 12.92 30 0 30 C0 20.1 0 10.2 0 0 Z " fill="#DA3636" transform="translate(167,340)"/>
<path d="M0 0 C17.82 0 35.64 0 54 0 C54 6.93 54 13.86 54 21 C36.18 21 18.36 21 0 21 C0 14.07 0 7.14 0 0 Z " fill="#D93636" transform="translate(591,242)"/>
<path d="M0 0 C13.86 0 27.72 0 42 0 C42 8.91 42 17.82 42 27 C28.14 27 14.28 27 0 27 C0 18.09 0 9.18 0 0 Z " fill="#D63535" transform="translate(363,203)"/>
<path d="M0 0 C0.33 0 0.66 0 1 0 C1 59.07 1 118.14 1 179 C-17.81 179 -36.62 179 -56 179 C-56.33 178.67 -56.66 178.34 -57 178 C-60.02956243 177.91129359 -63.0368671 177.88473418 -66.06640625 177.90234375 C-66.8713855 177.90335083 -67.67636475 177.90435791 -68.5057373 177.90539551 C-71.52467261 177.91064386 -74.54358767 177.924605 -77.5625 177.9375 C-84.306875 177.958125 -91.05125 177.97875 -98 178 C-98 152.92 -98 127.84 -98 102 C-65.65408789 101.07911994 -33.35684024 100.88821719 -1 101 C-1.00222061 99.76416168 -1.00444122 98.52832336 -1.00672913 97.2550354 C-1.02696759 85.6299046 -1.04197556 74.00477735 -1.05181217 62.37963295 C-1.0570392 56.40249525 -1.0641336 50.42537173 -1.07543945 44.44824219 C-1.0862747 38.68408442 -1.0922782 32.91994032 -1.09487724 27.15577316 C-1.09673034 24.95246541 -1.10034875 22.74915844 -1.10573006 20.54585648 C-1.11294892 17.46886811 -1.11399058 14.39193683 -1.11352539 11.31494141 C-1.11712067 10.39640884 -1.12071594 9.47787628 -1.12442017 8.5315094 C-1.1230455 7.69575882 -1.12167084 6.86000824 -1.12025452 5.99893188 C-1.12117631 5.27071543 -1.1220981 4.54249897 -1.12304783 3.79221535 C-1 2 -1 2 0 0 Z M-55 102 C-55 126.75 -55 151.5 -55 177 C-37.18 177 -19.36 177 -1 177 C-1 152.25 -1 127.5 -1 102 C-18.82 102 -36.64 102 -55 102 Z M-97 103 C-97 127.42 -97 151.84 -97 177 C-83.8 177 -70.6 177 -57 177 C-57 152.58 -57 128.16 -57 103 C-70.2 103 -83.4 103 -97 103 Z " fill="#351A1A" transform="translate(648,402)"/>
<path d="M0 0 C7.92 0 15.84 0 24 0 C24 10.56 24 21.12 24 32 C16.08 32 8.16 32 0 32 C0 21.44 0 10.88 0 0 Z " fill="#D43434" transform="translate(232,232)"/>
<path d="M0 0 C0.33 0 0.66 0 1 0 C1 64.02 1 128.04 1 194 C15.85 194 30.7 194 46 194 C46 221.39 46 248.78 46 277 C35.77 277 25.54 277 15 277 C15 272.05 15 267.1 15 262 C0.15 262 -14.7 262 -30 262 C-30 252.1 -30 242.2 -30 232 C-29.34 231.67 -28.68 231.34 -28 231 C-28 240.57 -28 250.14 -28 260 C-13.15 260 1.7 260 17 260 C17 264.95 17 269.9 17 275 C26.24 275.33 35.48 275.66 45 276 C45 249.27 45 222.54 45 195 C30.15 195 15.3 195 0 195 C0 206.55 0 218.1 0 230 C-0.33 230 -0.66 230 -1 230 C-1.02279012 200.84377723 -1.04049805 171.68755532 -1.05106533 142.53132543 C-1.0523161 139.09274233 -1.05361042 135.65415925 -1.05493164 132.21557617 C-1.05519395 131.5309877 -1.05545626 130.84639923 -1.05572652 130.14106565 C-1.06008326 119.04194581 -1.06797083 107.94283114 -1.0771528 96.84371436 C-1.08648923 85.46335473 -1.09198069 74.08299893 -1.09408849 62.70263523 C-1.09539603 56.30695047 -1.0984846 49.91127741 -1.10573006 43.51559639 C-1.11248629 37.50340595 -1.11461778 31.49123211 -1.11310768 25.47903824 C-1.11338419 23.26541618 -1.11539165 21.05179361 -1.11920547 18.83817482 C-1.12413652 15.83008909 -1.12300048 12.82206713 -1.12025452 9.8139801 C-1.12316736 8.92586578 -1.1260802 8.03775147 -1.12908131 7.12272459 C-1.11412121 1.11412121 -1.11412121 1.11412121 0 0 Z " fill="#2D0B0B" transform="translate(362,304)"/>
<path d="M0 0 C0.33 0 0.66 0 1 0 C1 26.4 1 52.8 1 80 C7.93 80 14.86 80 22 80 C22 83.96 22 87.92 22 92 C38.83 92 55.66 92 73 92 C72.34 92.66 71.68 93.32 71 94 C64.4 94 57.8 94 51 94 C51 119.74 51 145.48 51 172 C34.17 172 17.34 172 0 172 C0.33 162.43 0.66 152.86 1 143 C16.84 142.67 32.68 142.34 49 142 C49 126.16 49 110.32 49 94 C39.76 94 30.52 94 21 94 C21 100.6 21 107.2 21 114 C20.01 113.67 19.02 113.34 18 113 C18.66 113 19.32 113 20 113 C20 102.77 20 92.54 20 82 C13.07 82 6.14 82 -1 82 C-1 74.74 -1 67.48 -1 60 C-10.57 60 -20.14 60 -30 60 C-30 59.67 -30 59.34 -30 59 C-20.43 58.67 -10.86 58.34 -1 58 C-0.67 38.86 -0.34 19.72 0 0 Z M2 144 C2 152.58 2 161.16 2 170 C17.51 170 33.02 170 49 170 C49 161.42 49 152.84 49 144 C33.49 144 17.98 144 2 144 Z " fill="#2F1818" transform="translate(259,409)"/>
<path d="M0 0 C8.25 0 16.5 0 25 0 C25 8.58 25 17.16 25 26 C16.75 26 8.5 26 0 26 C0 17.42 0 8.84 0 0 Z " fill="#D63535" transform="translate(258,232)"/>
<path d="M0 0 C47.19 0 94.38 0 143 0 C143 14.19 143 28.38 143 43 C142.67 43 142.34 43 142 43 C142 29.14 142 15.28 142 1 C121.21 1 100.42 1 79 1 C79 14.86 79 28.72 79 43 C99.46 43 119.92 43 141 43 C141 43.33 141 43.66 141 44 C125.49 44 109.98 44 94 44 C94 54.23 94 64.46 94 75 C109.51 75 125.02 75 141 75 C141 75.33 141 75.66 141 76 C125.49 76 109.98 76 94 76 C94 86.56 94 97.12 94 108 C93.67 108 93.34 108 93 108 C93 86.88 93 65.76 93 44 C88.38 44 83.76 44 79 44 C79 65.45 79 86.9 79 109 C52.93 108.67 26.86 108.34 0 108 C0 107.67 0 107.34 0 107 C25.41 107 50.82 107 77 107 C77 72.02 77 37.04 77 1 C51.59 1 26.18 1 0 1 C0 0.67 0 0.34 0 0 Z " fill="#300F0F" transform="translate(187,6)"/>
<path d="M0 0 C9.24 0 18.48 0 28 0 C28 7.59 28 15.18 28 23 C18.76 23 9.52 23 0 23 C0 15.41 0 7.82 0 0 Z " fill="#D43434" transform="translate(472,556)"/>
<path d="M0 0 C8.91 0 17.82 0 27 0 C27 7.59 27 15.18 27 23 C18.09 23 9.18 23 0 23 C0 15.41 0 7.82 0 0 Z " fill="#DA3636" transform="translate(473,531)"/>
<path d="M0 0 C0.33 0 0.66 0 1 0 C1 16.17 1 32.34 1 49 C8.26 49 15.52 49 23 49 C23 55.93 23 62.86 23 70 C51.38 70 79.76 70 109 70 C109 46.9 109 23.8 109 0 C109.33 0 109.66 0 110 0 C110 61.05 110 122.1 110 185 C109.67 185 109.34 185 109 185 C109 147.71 109 110.42 109 72 C73.03 72 37.06 72 0 72 C0 71.34 0 70.68 0 70 C6.93 70 13.86 70 21 70 C21 63.73 21 57.46 21 51 C13.74 51 6.48 51 -1 51 C-1.19148936 16.5106383 -1.19148936 16.5106383 0 0 Z " fill="#431515" transform="translate(695,556)"/>
<path d="M0 0 C6.93 0 13.86 0 21 0 C21 8.58 21 17.16 21 26 C14.07 26 7.14 26 0 26 C0 17.42 0 8.84 0 0 Z " fill="#D83535" transform="translate(285,232)"/>
<path d="M0 0 C67.98 0 135.96 0 206 0 C206 4.29 206 8.58 206 13 C219.86 13 233.72 13 248 13 C247.67 23.89 247.34 34.78 247 46 C233.14 46 219.28 46 205 46 C205 54.58 205 63.16 205 72 C204.67 72 204.34 72 204 72 C204 48.57 204 25.14 204 1 C136.68 1 69.36 1 0 1 C0 0.67 0 0.34 0 0 Z M206 15 C206 24.57 206 34.14 206 44 C219.2 44 232.4 44 246 44 C246 34.43 246 24.86 246 15 C232.8 15 219.6 15 206 15 Z " fill="#442C2C" transform="translate(158,157)"/>
<path d="M0 0 C0.33 0 0.66 0 1 0 C1 12.21 1 24.42 1 37 C35.98 37 70.96 37 107 37 C107 74.62 107 112.24 107 151 C106.67 151 106.34 151 106 151 C106 113.71 106 76.42 106 38 C71.35 38 36.7 38 1 38 C1 75.29 1 112.58 1 151 C0.34 151.33 -0.32 151.66 -1 152 C-1.02367589 137.49722849 -1.04114525 122.99445962 -1.05181217 108.49167252 C-1.05690324 101.75323022 -1.06393653 95.01480194 -1.07543945 88.27636719 C-1.12441959 58.83567798 -1.13759377 29.42259835 0 0 Z " fill="#391313" transform="translate(3,590)"/>
<path d="M0 0 C10.89 0 21.78 0 33 0 C33.495 8.91 33.495 8.91 34 18 C39.28 18.33 44.56 18.66 50 19 C50 19.33 50 19.66 50 20 C44.72 20 39.44 20 34 20 C34 29.24 34 38.48 34 48 C48.85 48 63.7 48 79 48 C79 48.33 79 48.66 79 49 C63.82 49 48.64 49 33 49 C33 58.24 33 67.48 33 77 C32.67 77 32.34 77 32 77 C32 51.92 32 26.84 32 1 C21.44 1 10.88 1 0 1 C0 0.67 0 0.34 0 0 Z M-10 0 C-9.67 0 -9.34 0 -9 0 C-9 25.41 -9 50.82 -9 77 C4.53 77 18.06 77 32 77 C32 77.33 32 77.66 32 78 C0.98 78 -30.04 78 -62 78 C-62 52.59 -62 27.18 -62 1 C-61.67 1 -61.34 1 -61 1 C-61 26.08 -61 51.16 -61 77 C-44.17 77 -27.34 77 -10 77 C-10 51.59 -10 26.18 -10 0 Z " fill="#000000" transform="translate(227,503)"/>
<path d="M0 0 C0.03129606 10.87498883 0.05121551 21.74997306 0.0625 32.625 C0.06335602 33.44399529 0.06421204 34.26299057 0.06509399 35.10680389 C0.08919759 61.28339049 -0.0952559 87.45154795 -0.5 113.625 C-0.51195782 114.39870186 -0.52391563 115.17240372 -0.53623581 115.96955109 C-0.68148165 125.31319567 -0.83574602 134.65666861 -1 144 C-1.33 144 -1.66 144 -2 144 C-2.33 121.23 -2.66 98.46 -3 75 C-38.97 74.67 -74.94 74.34 -112 74 C-112 73.67 -112 73.34 -112 73 C-75.7 73 -39.4 73 -2 73 C-2 49.57 -2 26.14 -2 2 C-38.3 2 -74.6 2 -112 2 C-112 1.67 -112 1.34 -112 1 C-97.54466837 0.86956161 -83.08933628 0.73917498 -68.63400364 0.60884857 C-61.92258749 0.54833885 -55.2111715 0.4878122 -48.49975586 0.42724609 C-42.02886426 0.36885224 -35.55797227 0.31050177 -29.08708 0.25218201 C-26.61221236 0.22986919 -24.13734485 0.20754046 -21.66247749 0.18519592 C-18.20931154 0.15402139 -14.75614509 0.12290229 -11.30297852 0.09179688 C-9.75147346 0.07777077 -9.75147346 0.07777077 -8.16862488 0.0634613 C-7.23327911 0.05504715 -6.29793335 0.046633 -5.33424377 0.03796387 C-4.10779821 0.02690235 -4.10779821 0.02690235 -2.85657597 0.01561737 C-1.90440343 0.00760777 -0.95220622 0 0 0 Z " fill="#451111" transform="translate(116,260)"/>
<path d="M0 0 C0.33 0 0.66 0 1 0 C1 33.66 1 67.32 1 102 C24.76 102 48.52 102 73 102 C73 102.33 73 102.66 73 103 C48.91 103.33 24.82 103.66 0 104 C0 123.14 0 142.28 0 162 C-0.33 162 -0.66 162 -1 162 C-1 142.86 -1 123.72 -1 104 C-14.2 104 -27.4 104 -41 104 C-41 103.67 -41 103.34 -41 103 C-27.8 103 -14.6 103 -1 103 C-1.020625 98.25625 -1.04125 93.5125 -1.0625 88.625 C-1.10032422 69.30973781 -0.8049297 49.99971463 -0.5 30.6875 C-0.48804218 29.92995674 -0.47608437 29.17241348 -0.46376419 28.39191437 C-0.3139334 18.92786323 -0.15921306 9.46389808 0 0 Z M-32 162 C-21.77 162 -11.54 162 -1 162 C-1 162.33 -1 162.66 -1 163 C-10.57 163.33 -20.14 163.66 -30 164 C-30.33 166.31 -30.66 168.62 -31 171 C-31.33 171 -31.66 171 -32 171 C-32 168.03 -32 165.06 -32 162 Z M-92 171 C-72.2 171 -52.4 171 -32 171 C-32 171.33 -32 171.66 -32 172 C-51.8 172 -71.6 172 -92 172 C-92 171.67 -92 171.34 -92 171 Z " fill="#1E0707" transform="translate(259,305)"/>
<path d="M0 0 C0.33 0 0.66 0 1 0 C1 16.17 1 32.34 1 49 C-9.23 49 -19.46 49 -30 49 C-30 63.52 -30 78.04 -30 93 C-30.66 93 -31.32 93 -32 93 C-32 78.48 -32 63.96 -32 49 C-36.62 49 -41.24 49 -46 49 C-46.99 51.475 -46.99 51.475 -48 54 C-49.20079737 56.17900031 -50.43925112 58.33743831 -51.703125 60.48046875 C-52.06339783 61.09336258 -52.42367065 61.70625641 -52.79486084 62.33772278 C-53.94332588 64.2895834 -55.09661854 66.23854143 -56.25 68.1875 C-57.00942468 69.47703097 -57.76854199 70.76674301 -58.52734375 72.05664062 C-62.65032967 79.05853869 -66.80455336 86.04122589 -71 93 C-71.66 92.34 -72.32 91.68 -73 91 C-72.70456299 90.50935059 -72.40912598 90.01870117 -72.10473633 89.51318359 C-71.68474365 88.81531738 -71.26475098 88.11745117 -70.83203125 87.3984375 C-70.1191394 86.21846191 -70.1191394 86.21846191 -69.3918457 85.01464844 C-68.31569131 83.21601167 -67.25354425 81.40893715 -66.20385742 79.59472656 C-63.49654524 74.95226509 -60.77611089 70.60287299 -57.34375 66.4609375 C-42.91259011 47.88352621 -46.33933841 23.33870893 -47 1 C-46.67 1 -46.34 1 -46 1 C-46 16.51 -46 32.02 -46 48 C-38.08 47.505 -38.08 47.505 -30 47 C-24.82738163 46.93610896 -19.67105058 46.90281287 -14.5 46.9375 C-13.18902344 46.94201172 -11.87804687 46.94652344 -10.52734375 46.95117188 C-7.35151083 46.96276251 -4.1757827 46.9790728 -1 47 C-1.00222061 46.42592911 -1.00444122 45.85185822 -1.00672913 45.26039124 C-1.02878257 39.3074709 -1.04390684 33.3545621 -1.05493164 27.40161133 C-1.05997317 25.17732268 -1.06680623 22.95303737 -1.07543945 20.72875977 C-1.08751298 17.53921691 -1.09322996 14.34971771 -1.09765625 11.16015625 C-1.10281754 10.15912369 -1.10797882 9.15809113 -1.11329651 8.12672424 C-1.11337204 7.20584518 -1.11344757 6.28496613 -1.11352539 5.33618164 C-1.115746 4.52121719 -1.11796661 3.70625275 -1.12025452 2.86659241 C-1 1 -1 1 0 0 Z " fill="#2F1515" transform="translate(646,309)"/>
<path d="M0 0 C24.75 0 49.5 0 75 0 C75 0.66 75 1.32 75 2 C50.91 2 26.82 2 2 2 C2 39.29 2 76.58 2 115 C1.34 115 0.68 115 0 115 C0 77.05 0 39.1 0 0 Z " fill="#2F1F1F" transform="translate(472,626)"/>
<path d="M0 0 C14.85 0 29.7 0 45 0 C45 27.39 45 54.78 45 83 C34.77 83 24.54 83 14 83 C14 78.05 14 73.1 14 68 C-0.85 68 -15.7 68 -31 68 C-31 58.1 -31 48.2 -31 38 C-30.01 37.505 -30.01 37.505 -29 37 C-29 46.57 -29 56.14 -29 66 C-14.15 66 0.7 66 16 66 C16 70.95 16 75.9 16 81 C29.86 81.495 29.86 81.495 44 82 C44 55.27 44 28.54 44 1 C29.48 1 14.96 1 0 1 C0 0.67 0 0.34 0 0 Z " fill="#4B3232" transform="translate(363,498)"/>
<path d="M0 0 C0.33 0 0.66 0 1 0 C1 26.4 1 52.8 1 80 C7.93 80 14.86 80 22 80 C22 83.96 22 87.92 22 92 C38.83 92 55.66 92 73 92 C73 92.33 73 92.66 73 93 C55.84 93 38.68 93 21 93 C20.67 89.37 20.34 85.74 20 82 C13.07 82 6.14 82 -1 82 C-1 74.74 -1 67.48 -1 60 C-10.57 60 -20.14 60 -30 60 C-30 59.67 -30 59.34 -30 59 C-20.43 58.67 -10.86 58.34 -1 58 C-0.67 38.86 -0.34 19.72 0 0 Z " fill="#571515" transform="translate(259,409)"/>
<path d="M0 0 C0.33 0 0.66 0 1 0 C1 11.88 1 23.76 1 36 C-12.2 36 -25.4 36 -39 36 C-39 45.9 -39 55.8 -39 66 C-26.46 66 -13.92 66 -1 66 C-1 66.33 -1 66.66 -1 67 C-13.87 67 -26.74 67 -40 67 C-40 56.11 -40 45.22 -40 34 C-27.13 34 -14.26 34 -1 34 C-1.03959995 23.18466757 -1.03959995 23.18466757 -1.09008789 12.36938477 C-1.09300716 11.01839273 -1.09555569 9.66739981 -1.09765625 8.31640625 C-1.10277222 7.60899292 -1.10788818 6.90157959 -1.11315918 6.17272949 C-1.11347032 4.44807383 -1.06225761 2.72353162 -1 1 C-0.67 0.67 -0.34 0.34 0 0 Z " fill="#3C1414" transform="translate(206,304)"/>
<path d="M0 0 C9.9 0 19.8 0 30 0 C30 0.33 30 0.66 30 1 C20.43 1 10.86 1 1 1 C1 9.25 1 17.5 1 26 C10.9 26 20.8 26 31 26 C31 34.58 31 43.16 31 52 C20.77 52 10.54 52 0 52 C0 34.84 0 17.68 0 0 Z M1 27 C1 34.59 1 42.18 1 50 C10.24 50 19.48 50 29 50 C29 42.41 29 34.82 29 27 C19.76 27 10.52 27 1 27 Z " fill="#000000" transform="translate(471,529)"/>
<path d="M0 0 C3.96 0 7.92 0 12 0 C12 4.29 12 8.58 12 13 C8.04 13 4.08 13 0 13 C0 8.71 0 4.42 0 0 Z " fill="#D83535" transform="translate(486,160)"/>
<path d="M0 0 C18.81 0 37.62 0 57 0 C55 2 55 2 52.74740601 2.24050903 C51.34175888 2.2338472 51.34175888 2.2338472 49.90771484 2.22705078 C48.84676605 2.22689972 47.78581726 2.22674866 46.69271851 2.22659302 C45.54373077 2.21627045 44.39474304 2.20594788 43.2109375 2.1953125 C42.03737701 2.1924826 40.86381653 2.18965271 39.6546936 2.18673706 C35.89469338 2.17551355 32.13492861 2.15040492 28.375 2.125 C25.8307326 2.11497301 23.28646148 2.10584668 20.7421875 2.09765625 C14.49470051 2.0755671 8.24739021 2.04102236 2 2 C2 8.93 2 15.86 2 23 C1.34 22.67 0.68 22.34 0 22 C0 14.74 0 7.48 0 0 Z " fill="#170505" transform="translate(589,240)"/>
<path d="M0 0 C9.57 0 19.14 0 29 0 C29 5.61 29 11.22 29 17 C23.72 17 18.44 17 13 17 C13 11.72 13 6.44 13 1 C6.565 1.495 6.565 1.495 0 2 C0 1.34 0 0.68 0 0 Z M15 2 C15 6.29 15 10.58 15 15 C18.96 15 22.92 15 27 15 C27 10.71 27 6.42 27 2 C23.04 2 19.08 2 15 2 Z " fill="#280A0A" transform="translate(471,158)"/>
<path d="M0 0 C10.89 0 21.78 0 33 0 C33.495 8.91 33.495 8.91 34 18 C39.28 18.33 44.56 18.66 50 19 C50 19.33 50 19.66 50 20 C44.72 20 39.44 20 34 20 C34 29.24 34 38.48 34 48 C33.34 48 32.68 48 32 48 C32 32.49 32 16.98 32 1 C21.44 1 10.88 1 0 1 C0 0.67 0 0.34 0 0 Z " fill="#160505" transform="translate(227,503)"/>
<path d="M0 0 C0.66 0 1.32 0 2 0 C2 8.25 2 16.5 2 25 C-8.23 25 -18.46 25 -29 25 C-28.67 24.34 -28.34 23.68 -28 23 C-18.76 23 -9.52 23 0 23 C0 15.41 0 7.82 0 0 Z " fill="#2D1818" transform="translate(500,556)"/>
</svg>
