<?xml version="1.0" encoding="UTF-8"?>
<svg version="1.1" xmlns="http://www.w3.org/2000/svg" width="500" height="726">
<path d="M0 0 C165 0 330 0 500 0 C500 239.58 500 479.16 500 726 C335 726 170 726 0 726 C0 486.42 0 246.84 0 0 Z " fill="#FEFEFE" transform="translate(0,0)"/>
<path d="M0 0 C52.14 0 104.28 0 158 0 C158 3.96 158 7.92 158 12 C164.27 12 170.54 12 177 12 C177 15.96 177 19.92 177 24 C221.88 24 266.76 24 313 24 C313 19.71 313 15.42 313 11 C322.9 11 332.8 11 343 11 C343 145.64 343 280.28 343 419 C374.68 419 406.36 419 439 419 C439 507.44 439 595.88 439 687 C389.17 687 339.34 687 288 687 C288 684.69 288 682.38 288 680 C276.45 680 264.9 680 253 680 C253 677.69 253 675.38 253 673 C197.23 673 141.46 673 84 673 C84.33 672.34 84.66 671.68 85 671 C93.91 671.33 102.82 671.66 112 672 C112.33 671.34 112.66 670.68 113 670 C113 670.66 113 671.32 113 672 C159.53 672 206.06 672 254 672 C253.67 651.87 253.34 631.74 253 611 C253 601.76 253 592.52 253 583 C260.26 583 267.52 583 275 583 C275 579.7 275 576.4 275 573 C310.31 573 345.62 573 382 573 C382 566.4 382 559.8 382 553 C348.34 553 314.68 553 280 553 C280 547.39 280 541.78 280 536 C270.1 536 260.2 536 250 536 C250 541.61 250 547.22 250 553 C231.19 553 212.38 553 193 553 C193 557.29 193 561.58 193 566 C179.14 566 165.28 566 151 566 C151 546.86 151 527.72 151 508 C154.96 508 158.92 508 163 508 C163 471.04 163 434.08 163 396 C193.36 396 223.72 396 255 396 C255 405.9 255 415.8 255 426 C260.94 426 266.88 426 273 426 C273 405.87 273 385.74 273 365 C237.03 365 201.06 365 164 365 C164 350.15 164 335.3 164 320 C147.5 320 131 320 114 320 C114 300.53 114 281.06 114 261 C106.41 261 98.82 261 91 261 C91 276.18 91 291.36 91 307 C90.34 307 89.68 307 89 307 C89 288.85 89 270.7 89 252 C89.66 252 90.32 252 91 252 C91 254.31 91 256.62 91 259 C98.59 259 106.18 259 114 259 C114 209.17 114 159.34 114 108 C169.99437994 108 169.99437994 108 188.13476562 114.05078125 C191.84441646 115.27974533 195.59353384 116.33225876 199.35644531 117.38427734 C201.93062197 118.10556031 204.49650537 118.85177187 207.0625 119.6015625 C212.01219107 121.02665128 216.99676804 122.27841135 222 123.5 C229.78075981 125.40095933 237.47690357 127.52410513 245.16870117 129.75634766 C254.07213146 132.33270926 263.0285734 134.67153813 272 137 C272 127.1 272 117.2 272 107 C250.22 107 228.44 107 206 107 C206.061875 100.461875 206.12375 93.92375 206.1875 87.1875 C206.06898854 70.74907781 204.75773816 59.04397906 194 46 C194 45.34 194 44.68 194 44 C185.42 44 176.84 44 168 44 C168 57.53 168 71.06 168 85 C149.52 85 131.04 85 112 85 C112 75.43 112 65.86 112 56 C105.07 56 98.14 56 91 56 C91 38.18 91 20.36 91 2 C61.63 2 32.26 2 2 2 C2 13.55 2 25.1 2 37 C1.34 37 0.68 37 0 37 C0 24.79 0 12.58 0 0 Z " fill="#0A0202" transform="translate(43,26)"/>
<path d="M0 0 C4.50831638 0.08486758 9.01682049 0.15908827 13.52529144 0.2352066 C20.29224099 0.35059156 27.05882582 0.47903725 33.82562256 0.60510254 C33.82562256 18.42510254 33.82562256 36.24510254 33.82562256 54.60510254 C40.75562256 54.60510254 47.68562256 54.60510254 54.82562256 54.60510254 C54.82562256 64.17510254 54.82562256 73.74510254 54.82562256 83.60510254 C73.30562256 83.60510254 91.78562256 83.60510254 110.82562256 83.60510254 C110.82562256 70.07510254 110.82562256 56.54510254 110.82562256 42.60510254 C119.40562256 42.60510254 127.98562256 42.60510254 136.82562256 42.60510254 C152.66144984 63.38962585 149.81121502 79.73330039 148.82562256 105.60510254 C170.60562256 105.60510254 192.38562256 105.60510254 214.82562256 105.60510254 C214.82562256 115.50510254 214.82562256 125.40510254 214.82562256 135.60510254 C209.24401412 134.90740148 204.57022785 134.08445234 199.32562256 132.41760254 C192.21306757 130.23753369 185.05115551 128.37240503 177.82562256 126.60510254 C171.09059013 124.95202944 164.39633165 123.25500374 157.76312256 121.23010254 C149.57721997 118.73743023 141.2992967 116.60866327 133.01312256 114.48010254 C132.35085663 114.30988586 131.6885907 114.13966919 131.0062561 113.96429443 C105.01097531 107.29123043 86.80362091 107.21689842 56.82562256 106.60510254 C56.82562256 156.43510254 56.82562256 206.26510254 56.82562256 257.60510254 C49.23562256 257.60510254 41.64562256 257.60510254 33.82562256 257.60510254 C33.82562256 255.29510254 33.82562256 252.98510254 33.82562256 250.60510254 C33.16562256 250.60510254 32.50562256 250.60510254 31.82562256 250.60510254 C31.82562256 268.75510254 31.82562256 286.90510254 31.82562256 305.60510254 C32.48562256 305.60510254 33.14562256 305.60510254 33.82562256 305.60510254 C33.82562256 290.42510254 33.82562256 275.24510254 33.82562256 259.60510254 C41.41562256 259.60510254 49.00562256 259.60510254 56.82562256 259.60510254 C56.82562256 279.07510254 56.82562256 298.54510254 56.82562256 318.60510254 C73.32562256 318.60510254 89.82562256 318.60510254 106.82562256 318.60510254 C106.82562256 333.45510254 106.82562256 348.30510254 106.82562256 363.60510254 C142.79562256 363.60510254 178.76562256 363.60510254 215.82562256 363.60510254 C215.82562256 383.73510254 215.82562256 403.86510254 215.82562256 424.60510254 C209.88562256 424.60510254 203.94562256 424.60510254 197.82562256 424.60510254 C197.82562256 414.70510254 197.82562256 404.80510254 197.82562256 394.60510254 C167.46562256 394.60510254 137.10562256 394.60510254 105.82562256 394.60510254 C105.82562256 431.56510254 105.82562256 468.52510254 105.82562256 506.60510254 C101.86562256 506.60510254 97.90562256 506.60510254 93.82562256 506.60510254 C93.82562256 525.74510254 93.82562256 544.88510254 93.82562256 564.60510254 C107.68562256 564.60510254 121.54562256 564.60510254 135.82562256 564.60510254 C135.82562256 560.31510254 135.82562256 556.02510254 135.82562256 551.60510254 C154.63562256 551.60510254 173.44562256 551.60510254 192.82562256 551.60510254 C192.82562256 545.99510254 192.82562256 540.38510254 192.82562256 534.60510254 C202.72562256 534.60510254 212.62562256 534.60510254 222.82562256 534.60510254 C222.82562256 540.21510254 222.82562256 545.82510254 222.82562256 551.60510254 C256.48562256 551.60510254 290.14562256 551.60510254 324.82562256 551.60510254 C324.82562256 558.20510254 324.82562256 564.80510254 324.82562256 571.60510254 C289.51562256 571.60510254 254.20562256 571.60510254 217.82562256 571.60510254 C217.82562256 574.90510254 217.82562256 578.20510254 217.82562256 581.60510254 C210.56562256 581.60510254 203.30562256 581.60510254 195.82562256 581.60510254 C195.93281616 584.07575195 195.93281616 584.07575195 196.04217529 586.59631348 C196.76830168 604.34367992 196.95368514 622.04605027 196.89428711 639.80499268 C196.88377918 643.29955397 196.87943278 646.79412353 196.87445068 650.28869629 C196.8639464 657.06085052 196.84704351 663.8329742 196.82562256 670.60510254 C195.95648539 670.60418075 195.08734821 670.60325895 194.19187355 670.60230923 C173.06946991 670.58025012 151.94706825 670.56368909 130.82465553 670.55329037 C120.61012992 670.54812831 110.39561199 670.54108731 100.18109131 670.52966309 C91.28085048 670.51971352 82.38061521 670.51324846 73.48036897 670.51101404 C68.76530353 670.5097074 64.05025399 670.50662448 59.33519363 670.49937248 C54.90135043 670.49260797 50.46752975 670.49048647 46.03368187 670.49199486 C44.40261271 670.49171872 42.77154284 670.48971615 41.14047813 670.48589706 C38.92096572 670.48095311 36.70153938 670.48210687 34.48202515 670.48484802 C33.23760462 670.48392623 31.99318409 670.48300444 30.71105385 670.48205471 C27.8838086 670.40571796 27.8838086 670.40571796 25.82562256 671.60510254 C11.37356006 621.74173778 11.37356006 621.74173778 6.5199585 604.12365723 C6.01153647 602.27946537 5.4985159 600.43653959 4.98284912 598.59436035 C4.70666748 597.6001709 4.43048584 596.60598145 4.14593506 595.58166504 C3.89343994 594.67754883 3.64094482 593.77343262 3.38079834 592.84191895 C2.82562256 590.60510254 2.82562256 590.60510254 2.82562256 588.60510254 C-1.13437744 588.60510254 -5.09437744 588.60510254 -9.17437744 588.60510254 C-11.44244932 576.29902877 -13.3265077 563.96784994 -15.03765869 551.57312012 C-15.30882667 549.6260006 -15.58026835 547.67891918 -15.85195923 545.73187256 C-16.58201784 540.49435023 -17.30827105 535.25630682 -18.03377914 530.01815248 C-18.79888959 524.49886936 -19.56752824 518.98007756 -20.33575439 513.46122742 C-21.62545848 504.19265317 -22.91294072 494.92377267 -24.1987915 485.65466309 C-26.00264979 472.65147851 -27.81033063 459.64882758 -29.61888313 446.64629519 C-32.05171463 429.15423134 -34.48326444 411.66198855 -36.91069412 394.16917419 C-37.17058275 392.29653407 -37.43055454 390.42390549 -37.69062424 388.55129051 C-39.43321319 376.00286908 -41.15387101 363.45156757 -42.86194515 350.89840257 C-44.18127193 341.21434543 -45.52225973 331.53325344 -46.86322021 321.85217285 C-47.19537794 319.45344417 -47.52715975 317.05466363 -47.85894775 314.65588379 C-48.60799666 309.24285511 -49.35928665 303.83013986 -50.11187744 298.41760254 C-50.23918243 297.50162292 -50.36648743 296.58564331 -50.49765015 295.64190674 C-52.34232094 282.38542303 -54.26515686 269.14237455 -56.24386597 255.90530396 C-57.50290838 247.46370913 -58.65338605 239.02938082 -59.50738525 230.53649902 C-60.09351711 224.86477046 -60.99341356 219.27140466 -62.03424072 213.66760254 C-62.94122172 208.61318873 -63.52416541 203.54177614 -64.06500244 198.43713379 C-65.10767495 188.68529267 -66.52250625 179.00062955 -67.9743042 169.30249023 C-70.88035612 149.86812025 -73.59217052 130.41352006 -76.13238525 110.92810059 C-77.56821869 99.94311058 -79.14050237 88.98635261 -80.80712891 78.03411865 C-81.74474903 71.83261161 -82.64290437 65.62527811 -83.53692627 59.4173584 C-83.75746994 57.89045387 -83.97952626 56.36376722 -84.20294189 54.83728027 C-84.53404264 52.57416515 -84.86057289 50.31043204 -85.18609619 48.04650879 C-85.28605392 47.36947403 -85.38601166 46.69243927 -85.48899841 45.99488831 C-85.99306897 42.45050626 -86.17437744 39.21295472 -86.17437744 35.60510254 C-75.94437744 35.60510254 -65.71437744 35.60510254 -55.17437744 35.60510254 C-55.17437744 24.05510254 -55.17437744 12.50510254 -55.17437744 0.60510254 C-36.740908 -0.4348132 -18.44429039 -0.35464959 0 0 Z " fill="#F5D4D4" transform="translate(100.17437744140625,27.3948974609375)"/>
<path d="M0 0 C55.63327025 0 55.63327025 0 83.96075439 8.54797363 C89.22698955 10.12070205 94.51602647 11.60507725 99.81005859 13.08105469 C106.90402573 15.0667373 113.98682349 17.08761682 121.06201172 19.13916016 C130.10252926 21.75788491 139.16827544 24.27326657 148.25390625 26.73046875 C148.90712168 26.90719179 149.5603371 27.08391483 150.23334694 27.26599312 C153.35659593 28.11053609 156.4801875 28.95380136 159.60397339 29.7963562 C163.02891992 30.72397743 166.45069135 31.66237018 169.87133789 32.60571289 C170.9149498 32.89315872 171.95856171 33.18060455 173.03379822 33.47676086 C174.92752571 33.99897513 176.82085145 34.52265012 178.71363831 35.04826355 C179.96744545 35.3932061 179.96744545 35.3932061 181.24658203 35.74511719 C181.95332062 35.94079285 182.6600592 36.13646851 183.38821411 36.33807373 C187.23751384 37.31363326 191.12356318 38.1385696 195 39 C195 83.22 195 127.44 195 173 C148.5625 185.4375 148.5625 185.4375 134.12719727 189.30249023 C132.166931 189.82899673 130.20666473 190.35550323 128.18699646 190.89796448 C124.12635483 191.98690478 120.06158941 193.05896122 115.99452209 194.12364197 C103.8277103 197.25456978 103.8277103 197.25456978 91.87559128 201.09968948 C60.6426238 212.27114121 35.8558965 208 0 208 C0 139.36 0 70.72 0 0 Z " fill="#D93535" transform="translate(159,136)"/>
<path d="M0 0 C18.15 0 36.3 0 55 0 C55 43.56 55 87.12 55 132 C42.79 132 30.58 132 18 132 C18 106.59 18 81.18 18 55 C0.18 55 -17.64 55 -36 55 C-36 64.9 -36 74.8 -36 85 C-41.94 85 -47.88 85 -54 85 C-54 80.05 -54 75.1 -54 70 C-55.39156484 71.16277032 -55.39156484 71.16277032 -55.09765625 74.37890625 C-55.09191424 75.77347492 -55.07890228 77.16801597 -55.0625 78.5625 C-55.041875 81.016875 -55.02125 83.47125 -55 86 C-48.4 86 -41.8 86 -35 86 C-35 76.1 -35 66.2 -35 56 C-17.84 56 -0.68 56 17 56 C17 81.08 17 106.16 17 132 C-19.3 132 -55.6 132 -93 132 C-93 129.69 -93 127.38 -93 125 C-104.55 125 -116.1 125 -128 125 C-128 102.23 -128 79.46 -128 56 C-128.66 56 -129.32 56 -130 56 C-130 47.42 -130 38.84 -130 30 C-122.74 30 -115.48 30 -108 30 C-108 26.7 -108 23.4 -108 20 C-72.69 20 -37.38 20 -1 20 C-0.67 20.66 -0.34 21.32 0 22 C0 14.74 0 7.48 0 0 Z " fill="#D83535" transform="translate(426,579)"/>
<path d="M0 0 C31.02 0 62.04 0 94 0 C94 42.9 94 85.8 94 130 C62.98 130 31.96 130 0 130 C0 87.1 0 44.2 0 0 Z " fill="#DA3636" transform="translate(386,447)"/>
<path d="M0 0 C52.14 0 104.28 0 158 0 C158 3.96 158 7.92 158 12 C164.27 12 170.54 12 177 12 C177 15.96 177 19.92 177 24 C221.88 24 266.76 24 313 24 C313 19.71 313 15.42 313 11 C322.9 11 332.8 11 343 11 C343 145.64 343 280.28 343 419 C374.68 419 406.36 419 439 419 C439 507.44 439 595.88 439 687 C389.17 687 339.34 687 288 687 C288 684.69 288 682.38 288 680 C276.45 680 264.9 680 253 680 C253 677.69 253 675.38 253 673 C197.23 673 141.46 673 84 673 C84.33 672.34 84.66 671.68 85 671 C93.91 671.33 102.82 671.66 112 672 C112.33 671.34 112.66 670.68 113 670 C113 670.66 113 671.32 113 672 C159.53 672 206.06 672 254 672 C253.67 651.21 253.34 630.42 253 609 C253.33 600.75 253.66 592.5 254 584 C254.33 584 254.66 584 255 584 C255 592.25 255 600.5 255 609 C260.94 609 266.88 609 273 609 C273 609.33 273 609.66 273 610 C267.06 610 261.12 610 255 610 C255 632.44 255 654.88 255 678 C266.55 678 278.1 678 290 678 C290 680.31 290 682.62 290 685 C326.3 685 362.6 685 400 685 C400 659.92 400 634.84 400 609 C382.84 609 365.68 609 348 609 C348 618.9 348 628.8 348 639 C341.4 639 334.8 639 328 639 C328 634.05 328 629.1 328 624 C310.84 624 293.68 624 276 624 C276 623.67 276 623.34 276 623 C293.49 623 310.98 623 329 623 C329 627.95 329 632.9 329 638 C334.94 638 340.88 638 347 638 C347 628.1 347 618.2 347 608 C364.82 608 382.64 608 401 608 C401 633.41 401 658.82 401 685 C413.21 685 425.42 685 438 685 C438 641.44 438 597.88 438 553 C419.85 553 401.7 553 383 553 C383 560.26 383 567.52 383 575 C382.01 574.67 381.02 574.34 380 574 C380.66 574 381.32 574 382 574 C382 567.07 382 560.14 382 553 C354.61 553 327.22 553 299 553 C299.33 547.39 299.66 541.78 300 536 C313.68763243 535.27756134 327.29244052 534.89455723 341 535 C341 524.11 341 513.22 341 502 C340.34 501.67 339.68 501.34 339 501 C339.66 501 340.32 501 341 501 C340.99777939 500.07149734 340.99555878 499.14299469 340.99327087 498.18635559 C340.97322549 489.4318083 340.95800417 480.67726872 340.94818783 471.92270374 C340.9429715 467.42201063 340.93589651 462.92133649 340.92456055 458.4206543 C340.9136873 454.07644654 340.90771374 449.73225704 340.90512276 445.38803673 C340.90327652 443.73146973 340.89967129 442.07490372 340.89426994 440.4183445 C340.88700065 438.09633865 340.88601155 435.774408 340.88647461 433.45239258 C340.88287933 432.76906357 340.87928406 432.08573456 340.87557983 431.38169861 C340.88331115 427.79385609 341.15441624 424.48973774 342 421 C342.33 421 342.66 421 343 421 C343 463.9 343 506.8 343 551 C374.02 551 405.04 551 437 551 C437 508.1 437 465.2 437 421 C405.65 420.67 374.3 420.34 342 420 C342 285.36 342 150.72 342 12 C332.76 12 323.52 12 314 12 C314 16.29 314 20.58 314 25 C268.13 25.33 222.26 25.66 175 26 C175 22.04 175 18.08 175 14 C172.69 14 170.38 14 168 14 C168 23.24 168 32.48 168 42 C176.91 42 185.82 42 195 42 C200.375 51.8125 200.375 51.8125 202.06005859 54.89379883 C202.50172363 55.69841553 202.94338867 56.50303223 203.3984375 57.33203125 C203.84880371 58.15421143 204.29916992 58.9763916 204.76318359 59.82348633 C205.76862196 61.59282762 206.87115104 63.30672656 208 65 C208 78.2 208 91.4 208 105 C251.89 105.33 295.78 105.66 341 106 C341 106.33 341 106.66 341 107 C318.89 107 296.78 107 274 107 C274 117.23 274 127.46 274 138 C276.97 138.66 279.94 139.32 283 140 C285.15768994 140.54812158 287.31178653 141.11070559 289.4609375 141.69140625 C290.59144531 141.99626953 291.72195313 142.30113281 292.88671875 142.61523438 C294.61341797 143.08413086 294.61341797 143.08413086 296.375 143.5625 C297.54933594 143.87896484 298.72367187 144.19542969 299.93359375 144.52148438 C308.5687215 146.8562405 308.5687215 146.8562405 312 148 C312 192.88 312 237.76 312 284 C302.99910314 287.37533632 302.99910314 287.37533632 299.64550781 288.27099609 C298.88981506 288.47485931 298.13412231 288.67872253 297.35552979 288.88876343 C296.16633942 289.20292709 296.16633942 289.20292709 294.953125 289.5234375 C293.67619781 289.86551743 293.67619781 289.86551743 292.37347412 290.21450806 C290.57549436 290.69534402 288.77700178 291.17426613 286.97802734 291.65136719 C284.2979944 292.36226907 281.61957978 293.07900386 278.94140625 293.796875 C269.27069959 296.38085646 259.58529256 298.89080785 249.85980225 301.26119995 C243.66517952 302.78461137 237.55819602 304.54538512 231.4776001 306.47366333 C227.69456049 307.63974081 225.05767516 308 221 308 C221 315.92 221 323.84 221 332 C232.22 332 243.44 332 255 332 C255 332.33 255 332.66 255 333 C225.3 333 195.6 333 165 333 C165 332.67 165 332.34 165 332 C182.82 332 200.64 332 219 332 C218.67 324.74 218.34 317.48 218 310 C214.69548828 310.90105469 214.69548828 310.90105469 211.32421875 311.8203125 C209.19035317 312.39261718 207.05534137 312.96043617 204.92016602 313.52783203 C203.43583333 313.92484436 201.95273855 314.32651515 200.47094727 314.73291016 C198.34178332 315.31598887 196.20874167 315.88221528 194.07421875 316.4453125 C193.41161545 316.63062531 192.74901215 316.81593811 192.06632996 317.00686646 C190.1862793 317.49267578 190.1862793 317.49267578 187 318 C186.01 317.34 185.02 316.68 184 316 C184.54885172 315.85422894 185.09770344 315.70845787 185.66318703 315.5582695 C199.07923559 311.99496666 212.49489104 308.43018714 225.91013527 304.86385727 C232.39791102 303.13916499 238.88582129 301.4149821 245.37402344 299.69189453 C251.64427971 298.02666818 257.91419369 296.36015869 264.18387985 294.69278717 C266.56693947 294.05926772 268.95011871 293.42619806 271.33342361 292.79360199 C274.69086952 291.90235639 278.04794149 291.00972202 281.40478516 290.11621094 C282.43951273 289.84110058 283.4742403 289.56599022 284.54032326 289.28254318 C291.20363029 287.50295754 297.8318432 285.6369261 304.43319702 283.63824463 C307 283 307 283 311 283 C311 238.78 311 194.56 311 149 C308.03 148.67 305.06 148.34 302 148 C299.57679054 147.46084191 297.16552244 146.86485119 294.77026367 146.21264648 C293.76977902 145.94328215 293.76977902 145.94328215 292.74908257 145.6684761 C290.55359728 145.07570965 288.36082064 144.47352233 286.16796875 143.87109375 C284.59654589 143.44439634 283.02496283 143.01828858 281.45323181 142.59272766 C278.10634132 141.68551154 274.76052747 140.7744522 271.41534424 139.86096191 C266.13793791 138.42145975 260.85519732 137.00220221 255.57177734 135.58496094 C240.05680934 131.41648411 224.56073801 127.21498612 209.15396309 122.66095161 C204.67487886 121.3449379 200.18387247 120.07004672 195.69473267 118.78884888 C193.39467616 118.11949592 191.1003491 117.42996245 188.81381226 116.71578979 C164.05136726 108.99043716 143.31122116 110.56898377 116 110 C116 178.64 116 247.28 116 318 C131.51 318 147.02 318 163 318 C163 318.33 163 318.66 163 319 C146.83 319.33 130.66 319.66 114 320 C114 300.53 114 281.06 114 261 C106.41 261 98.82 261 91 261 C91 276.18 91 291.36 91 307 C90.34 307 89.68 307 89 307 C89 288.85 89 270.7 89 252 C89.66 252 90.32 252 91 252 C91 254.31 91 256.62 91 259 C98.59 259 106.18 259 114 259 C114 209.17 114 159.34 114 108 C169.99437994 108 169.99437994 108 188.13476562 114.05078125 C191.84441646 115.27974533 195.59353384 116.33225876 199.35644531 117.38427734 C201.93062197 118.10556031 204.49650537 118.85177187 207.0625 119.6015625 C212.01219107 121.02665128 216.99676804 122.27841135 222 123.5 C229.78075981 125.40095933 237.47690357 127.52410513 245.16870117 129.75634766 C254.07213146 132.33270926 263.0285734 134.67153813 272 137 C272 127.1 272 117.2 272 107 C250.22 107 228.44 107 206 107 C206.061875 100.461875 206.12375 93.92375 206.1875 87.1875 C206.06898854 70.74907781 204.75773816 59.04397906 194 46 C194 45.34 194 44.68 194 44 C185.42 44 176.84 44 168 44 C168 57.53 168 71.06 168 85 C149.52 85 131.04 85 112 85 C112 75.43 112 65.86 112 56 C105.07 56 98.14 56 91 56 C91 38.18 91 20.36 91 2 C61.63 2 32.26 2 2 2 C2 13.55 2 25.1 2 37 C1.34 37 0.68 37 0 37 C0 24.79 0 12.58 0 0 Z " fill="#413838" transform="translate(43,26)"/>
<path d="M0 0 C22.11 0 44.22 0 67 0 C67 68.97 67 137.94 67 209 C44.56 209 22.12 209 -1 209 C-1 224.84 -1 240.68 -1 257 C-6.94 257 -12.88 257 -19 257 C-19 246.44 -19 235.88 -19 225 C-30.22 225 -41.44 225 -53 225 C-53 217.08 -53 209.16 -53 201 C-43.875 198.75 -43.875 198.75 -41.09716797 198.06933594 C-36.15241605 196.8410936 -31.24713414 195.51355871 -26.3515625 194.1015625 C-18.4328804 191.81784517 -10.47121732 189.71575107 -2.5 187.625 C10.68914004 184.16230969 23.84339818 180.58816413 37 177 C37.33 132.12 37.66 87.24 38 41 C35.03 40.34 32.06 39.68 29 39 C24.90923136 38.0296966 20.82989865 37.01495016 16.75 36 C15.6878125 35.73960937 14.625625 35.47921875 13.53125 35.2109375 C11.99210937 34.82808594 11.99210937 34.82808594 10.421875 34.4375 C9.49987305 34.20933594 8.57787109 33.98117188 7.62792969 33.74609375 C5 33 5 33 0 31 C0 20.77 0 10.54 0 0 Z " fill="#D83535" transform="translate(317,133)"/>
<path d="M0 0 C0 12.21 0 24.42 0 37 C-17.82 37 -35.64 37 -54 37 C-53.34 39.97 -52.68 42.94 -52 46 C-51.56115085 48.73150843 -51.14925809 51.45110025 -50.78125 54.19140625 C-50.67784302 54.93978256 -50.57443604 55.68815887 -50.46789551 56.45921326 C-50.14179358 58.82651446 -49.82091323 61.19449053 -49.5 63.5625 C-49.28547461 65.12048658 -49.07063277 66.67842962 -48.85546875 68.23632812 C-47.88619757 75.2862557 -46.95130989 82.33781801 -46.09375 89.40234375 C-44.58230924 101.62665203 -42.76054963 113.80962387 -41 126 C-36.66672674 156.00439751 -36.66672674 156.00439751 -35 170 C-34.61987965 173.1173595 -34.23790682 176.23448662 -33.85546875 179.3515625 C-33.61660159 181.29924855 -33.37965182 183.24717062 -33.14453125 185.1953125 C-32.54952762 190.01932044 -31.8836942 194.81554575 -31.06176758 199.60644531 C-30.02359458 205.77738215 -29.10951625 211.96089098 -28.23046875 218.15625 C-27.9883239 219.8509996 -27.9883239 219.8509996 -27.74128723 221.57998657 C-27.22175294 225.21976443 -26.70441751 228.85984965 -26.1875 232.5 C-26.01114014 233.73989685 -25.83478027 234.9797937 -25.65307617 236.25726318 C-24.76359473 242.5107861 -23.87571138 248.76453266 -22.98974609 255.01855469 C-22.24348456 260.2861457 -21.49358599 265.55320588 -20.74177551 270.82000732 C-20.26554322 274.16256094 -19.79288872 277.50561095 -19.32168579 280.84887695 C-19.10917918 282.35249074 -18.89531705 283.85591364 -18.68002319 285.35913086 C-18.38691916 287.40815997 -18.0990031 289.45785156 -17.8125 291.5078125 C-17.65394531 292.62816895 -17.49539062 293.74852539 -17.33203125 294.90283203 C-17 298 -17 298 -17 304 C-7.43 304 2.14 304 12 304 C12 260.44 12 216.88 12 172 C4.74 172 -2.52 172 -10 172 C-9.69707031 173.91554687 -9.39414062 175.83109375 -9.08203125 177.8046875 C-6.84921918 191.97338509 -4.64197968 206.14629781 -2.52182007 220.33233643 C-2.30031497 221.80994025 -2.07704994 223.2872814 -1.85195923 224.76434326 C-1.53561972 226.84348285 -1.22596844 228.92351701 -0.91796875 231.00390625 C-0.65149536 232.78003296 -0.65149536 232.78003296 -0.37963867 234.59204102 C0.0100482 238.0902012 0.06587816 241.48322756 0 245 C-2.70139438 242.29860562 -2.58402853 240.36874128 -3.11328125 236.59765625 C-3.20798706 235.94011353 -3.30269287 235.2825708 -3.40026855 234.60510254 C-3.71228796 232.42528095 -4.01243299 230.24399636 -4.3125 228.0625 C-4.52683225 226.54733758 -4.741931 225.0322834 -4.95776367 223.51733398 C-5.41091059 220.32853393 -5.85936518 217.13912061 -6.3046875 213.94921875 C-6.9994581 208.9846062 -7.71660331 204.02337634 -8.4375 199.0625 C-8.7839913 196.67068302 -9.13016358 194.27882015 -9.47616577 191.88693237 C-9.69998324 190.34011219 -9.92412352 188.79333867 -10.14859009 187.24661255 C-10.46191378 185.08268339 -10.7723841 182.91836415 -11.08203125 180.75390625 C-11.34850464 178.90261108 -11.34850464 178.90261108 -11.62036133 177.01391602 C-12 174 -12 174 -12 171 C-11.01 171 -10.02 171 -9 171 C-10.67430428 155.72027189 -12.75226019 140.51645057 -15 125.3125 C-15.26465129 123.51896201 -15.52929975 121.7254236 -15.79394531 119.93188477 C-16.17896197 117.32459558 -16.56416783 114.71733465 -16.94970703 112.11012268 C-17.94056526 105.40895869 -18.92929263 98.70771613 -19.875 92 C-19.99488281 91.18442627 -20.11476562 90.36885254 -20.23828125 89.52856445 C-20.96287726 84.31046677 -21.09408861 79.26896202 -21 74 C-18.85501817 77.21747274 -18.5594986 78.84680212 -18.0703125 82.6171875 C-17.91691406 83.76638672 -17.76351562 84.91558594 -17.60546875 86.09960938 C-17.44691406 87.34548828 -17.28835937 88.59136719 -17.125 89.875 C-16.86327154 91.85173866 -16.60153176 93.82847593 -16.33905029 95.80511475 C-16.067773 97.85512823 -15.7997837 99.90555266 -15.53222656 101.95605469 C-14.72202432 108.14201343 -13.85797826 114.32052378 -13 120.5 C-12.67177957 122.88800772 -12.34365519 125.27602864 -12.015625 127.6640625 C-11.40279811 132.11126313 -10.78087588 136.55699679 -10.14733887 141.00128174 C-9.86234274 143.00259726 -9.57931243 145.00418129 -9.296875 147.00585938 C-8.94141502 149.52073876 -8.58224533 152.03509758 -8.21875 154.54882812 C-8.05890625 155.68513672 -7.8990625 156.82144531 -7.734375 157.9921875 C-7.52119629 159.48274658 -7.52119629 159.48274658 -7.30371094 161.00341797 C-6.96755123 164.32015771 -7 167.66626848 -7 171 C-0.07 171 6.86 171 14 171 C14 215.55 14 260.1 14 306 C4.1 306 -5.8 306 -16 306 C-15.50802124 309.51901978 -15.50802124 309.51901978 -15.00610352 313.10913086 C-13.91930071 320.88414452 -12.83388717 328.65935167 -11.74914646 336.43465328 C-11.09180956 341.14606296 -10.43401348 345.85740755 -9.77514648 350.56860352 C-9.13862316 355.12015792 -8.50333414 359.67188309 -7.86887932 364.22372627 C-7.6273229 365.95519638 -7.38533133 367.68660583 -7.14288521 369.41795158 C-6.80184742 371.8539118 -6.46239621 374.29008846 -6.12329102 376.72631836 C-6.02402817 377.43266922 -5.92476532 378.13902008 -5.82249451 378.86677551 C-5.12327248 383.90706658 -4.56250813 388.9374268 -4 394 C27.68 394.495 27.68 394.495 60 395 C60 436.91 60 478.82 60 522 C59.34 522 58.68 522 58 522 C58 480.42 58 438.84 58 396 C48.43 396 38.86 396 29 396 C29 437.58 29 479.16 29 522 C28.34 522 27.68 522 27 522 C27 509.46 27 496.92 27 484 C20.73 484 14.46 484 8 484 C8.66 486.97 9.32 489.94 10 493 C10.36468615 495.20316732 10.70160885 497.41117842 11.00561523 499.62353516 C11.17596786 500.84996735 11.3463205 502.07639954 11.52183533 503.33999634 C11.69896561 504.64318817 11.87609589 505.94638 12.05859375 507.2890625 C12.25002999 508.67845739 12.44177342 510.06780998 12.63380432 511.4571228 C13.1373861 515.10725365 13.63638739 518.75799682 14.13452148 522.40887451 C14.53313291 525.32450346 14.93507283 528.2396687 15.33716393 531.15481949 C16.5711442 540.10145923 17.78974444 549.05012237 19 558 C19.16203918 559.19411499 19.32407837 560.38822998 19.49102783 561.61853027 C19.9263196 564.83632375 20.35681311 568.05471263 20.78515625 571.2734375 C20.97349281 572.66352524 20.97349281 572.66352524 21.16563416 574.08169556 C21.33319969 575.35489151 21.33319969 575.35489151 21.50415039 576.65380859 C21.60079483 577.37877533 21.69743927 578.10374207 21.79701233 578.85067749 C22.0211725 581.22418372 22 583.61593213 22 586 C34.87 586 47.74 586 61 586 C59.35 580.72 57.7 575.44 56 570 C56 569.01 56 568.02 56 567 C49.73 567 43.46 567 37 567 C37 566.67 37 566.34 37 566 C43.93 566 50.86 566 58 566 C64.48621486 587.34909918 70.5206943 608.82320855 76.43731689 630.33599854 C77.27100642 633.36663228 78.10925356 636.39594846 78.95135498 639.42425537 C79.95957685 643.05151167 80.95791602 646.68134913 81.94888878 650.31335449 C82.32151213 651.67310107 82.69743519 653.03194807 83.07679176 654.38983154 C83.60027656 656.26631796 84.11040345 658.14651551 84.61987305 660.02685547 C84.91169968 661.08790497 85.20352631 662.14895447 85.50419617 663.24215698 C85.99120084 665.95105584 85.92184767 667.44216723 85 670 C84.19256348 669.99476318 83.38512695 669.98952637 82.55322266 669.98413086 C78.91048962 669.96340071 75.26776898 669.95035251 71.625 669.9375 C70.35398437 669.92912109 69.08296875 669.92074219 67.7734375 669.91210938 C65.95585937 669.90727539 65.95585937 669.90727539 64.1015625 669.90234375 C62.98088379 669.89710693 61.86020508 669.89187012 60.70556641 669.88647461 C58.03132657 669.81378534 58.03132657 669.81378534 56 671 C41.5479375 621.13663524 41.5479375 621.13663524 36.69433594 603.51855469 C36.18591391 601.67436283 35.67289334 599.83143705 35.15722656 597.98925781 C34.88104492 596.99506836 34.60486328 596.00087891 34.3203125 594.9765625 C34.06781738 594.07244629 33.81532227 593.16833008 33.55517578 592.23681641 C33 590 33 590 33 588 C29.04 588 25.08 588 21 588 C18.73192813 575.69392623 16.84786974 563.3627474 15.13671875 550.96801758 C14.86555078 549.02089806 14.5941091 547.07381664 14.32241821 545.12677002 C13.5923596 539.88924769 12.86610639 534.65120428 12.1405983 529.41304994 C11.37548785 523.89376682 10.6068492 518.37497502 9.83862305 512.85612488 C8.54891896 503.58755063 7.26143672 494.31867013 5.97558594 485.04956055 C4.17172765 472.04637598 2.36404681 459.04372504 0.55549431 446.04119265 C-1.87733719 428.5491288 -4.308887 411.05688601 -6.73631668 393.56407166 C-6.99620531 391.69143154 -7.2561771 389.81880296 -7.5162468 387.94618797 C-9.25883575 375.39776654 -10.97949357 362.84646503 -12.68756771 350.29330003 C-14.00689449 340.60924289 -15.34788229 330.9281509 -16.68884277 321.24707031 C-17.0210005 318.84834163 -17.35278231 316.4495611 -17.68457031 314.05078125 C-18.43361922 308.63775257 -19.18490921 303.22503732 -19.9375 297.8125 C-20.06480499 296.89652039 -20.19210999 295.98054077 -20.32327271 295.0368042 C-22.1679435 281.78032049 -24.09077942 268.53727201 -26.06948853 255.30020142 C-27.32853094 246.85860659 -28.4790086 238.42427828 -29.33300781 229.93139648 C-29.91913967 224.25966792 -30.81903612 218.66630212 -31.85986328 213.0625 C-32.76684428 208.00808619 -33.34978797 202.9366736 -33.890625 197.83203125 C-34.93329751 188.08019013 -36.34812881 178.39552701 -37.79992676 168.6973877 C-40.70597868 149.26301771 -43.41779308 129.80841752 -45.95800781 110.32299805 C-47.39384125 99.33800804 -48.96612493 88.38125007 -50.63275146 77.42901611 C-51.57037158 71.22750907 -52.46852693 65.02017557 -53.36254883 58.81225586 C-53.5830925 57.28535133 -53.80514882 55.75866468 -54.02856445 54.23217773 C-54.3596652 51.96906261 -54.68619545 49.7053295 -55.01171875 47.44140625 C-55.11167648 46.76437149 -55.21163422 46.08733673 -55.31462097 45.38978577 C-55.81869152 41.84540372 -56 38.60785218 -56 35 C-45.77 35 -35.54 35 -25 35 C-25 23.45 -25 11.9 -25 0 C-21.24625 -0.185625 -17.4925 -0.37125 -13.625 -0.5625 C-12.44244629 -0.62381104 -11.25989258 -0.68512207 -10.04150391 -0.74829102 C-8.64810791 -0.81294556 -8.64810791 -0.81294556 -7.2265625 -0.87890625 C-6.27346191 -0.9260376 -5.32036133 -0.97316895 -4.33837891 -1.02172852 C-2 -1 -2 -1 0 0 Z " fill="#332D2D" transform="translate(70,28)"/>
<path d="M0 0 C28.38 0 56.76 0 86 0 C86 24.42 86 48.84 86 74 C57.62 74 29.24 74 0 74 C0 49.58 0 25.16 0 0 Z " fill="#D73535" transform="translate(298,453)"/>
<path d="M0 0 C8.58 0 17.16 0 26 0 C26 11.55 26 23.1 26 35 C-5.68 35 -37.36 35 -70 35 C-70 53.81 -70 72.62 -70 92 C-82.21 92 -94.42 92 -107 92 C-106.93296875 89.35613281 -106.8659375 86.71226563 -106.796875 83.98828125 C-106.30101819 56.43688706 -106.30101819 56.43688706 -118.91430664 32.52001953 C-120 31 -120 31 -120 29 C-128.91 29 -137.82 29 -147 29 C-147 19.76 -147 10.52 -147 1 C-144.69 1 -142.38 1 -140 1 C-140 4.96 -140 8.92 -140 13 C-93.8 13 -47.6 13 0 13 C0 8.71 0 4.42 0 0 Z " fill="#D43434" transform="translate(358,39)"/>
<path d="M0 0 C21.12 0 42.24 0 64 0 C64 3.96 64 7.92 64 12 C67.63 12 71.26 12 75 12 C75 34.77 75 57.54 75 81 C57.51 81 40.02 81 22 81 C21.67 71.43 21.34 61.86 21 52 C14.07 52 7.14 52 0 52 C0 34.84 0 17.68 0 0 Z " fill="#D73535" transform="translate(135,28)"/>
<path d="M0 0 C31.35 0 62.7 0 95 0 C95 18.15 95 36.3 95 55 C63.65 55 32.3 55 0 55 C0 36.85 0 18.7 0 0 Z " fill="#D83535" transform="translate(289,76)"/>
<path d="M0 0 C29.04 0 58.08 0 88 0 C88 14.19 88 28.38 88 43 C58.96 43 29.92 43 0 43 C0 28.81 0 14.62 0 0 Z " fill="#D93636" transform="translate(208,454)"/>
<path d="M0 0 C12.21 0 24.42 0 37 0 C37 26.07 37 52.14 37 79 C24.79 79 12.58 79 0 79 C0 52.93 0 26.86 0 0 Z " fill="#D43434" transform="translate(347,343)"/>
<path d="M0 0 C12.21 0 24.42 0 37 0 C37 20.46 37 40.92 37 62 C35.68 62 34.36 62 33 62 C33 67.61 33 73.22 33 79 C28.38 79 23.76 79 19 79 C19 73.06 19 67.12 19 61 C11.08 61 3.16 61 -5 61 C-5 52.75 -5 44.5 -5 36 C-3.35 36 -1.7 36 0 36 C0 24.12 0 12.24 0 0 Z " fill="#D93535" transform="translate(259,499)"/>
<path d="M0 0 C0.33 0 0.66 0 1 0 C1 88.11 1 176.22 1 267 C-48.83 267 -98.66 267 -150 267 C-150 264.69 -150 262.38 -150 260 C-161.55 260 -173.1 260 -185 260 C-185 257.69 -185 255.38 -185 253 C-240.77 253 -296.54 253 -354 253 C-353.505 252.01 -353.505 252.01 -353 251 C-339.635 251.495 -339.635 251.495 -326 252 C-325.67 251.34 -325.34 250.68 -325 250 C-325 250.66 -325 251.32 -325 252 C-278.47 252 -231.94 252 -184 252 C-184.33 231.21 -184.66 210.42 -185 189 C-184.67 180.75 -184.34 172.5 -184 164 C-183.67 164 -183.34 164 -183 164 C-183 172.25 -183 180.5 -183 189 C-177.06 189 -171.12 189 -165 189 C-165 189.33 -165 189.66 -165 190 C-170.94 190 -176.88 190 -183 190 C-183 212.44 -183 234.88 -183 258 C-171.45 258 -159.9 258 -148 258 C-148 260.31 -148 262.62 -148 265 C-111.7 265 -75.4 265 -38 265 C-38 239.92 -38 214.84 -38 189 C-55.16 189 -72.32 189 -90 189 C-90 198.9 -90 208.8 -90 219 C-96.6 219 -103.2 219 -110 219 C-110 214.05 -110 209.1 -110 204 C-127.16 204 -144.32 204 -162 204 C-162 203.67 -162 203.34 -162 203 C-144.51 203 -127.02 203 -109 203 C-109 207.95 -109 212.9 -109 218 C-103.06 218 -97.12 218 -91 218 C-91 208.1 -91 198.2 -91 188 C-73.18 188 -55.36 188 -37 188 C-37 213.41 -37 238.82 -37 265 C-24.79 265 -12.58 265 0 265 C0 221.44 0 177.88 0 133 C-18.15 133 -36.3 133 -55 133 C-55 140.26 -55 147.52 -55 155 C-55.99 154.67 -56.98 154.34 -58 154 C-57.34 154 -56.68 154 -56 154 C-56 147.07 -56 140.14 -56 133 C-83.39 133 -110.78 133 -139 133 C-138.67 127.39 -138.34 121.78 -138 116 C-124.31236757 115.27756134 -110.70755948 114.89455723 -97 115 C-97 104.11 -97 93.22 -97 82 C-97.66 81.67 -98.32 81.34 -99 81 C-98.34 81 -97.68 81 -97 81 C-97.00222061 80.07149734 -97.00444122 79.14299469 -97.00672913 78.18635559 C-97.02677451 69.4318083 -97.04199583 60.67726872 -97.05181217 51.92270374 C-97.0570285 47.42201063 -97.06410349 42.92133649 -97.07543945 38.4206543 C-97.0863127 34.07644654 -97.09228626 29.73225704 -97.09487724 25.38803673 C-97.09672348 23.73146973 -97.10032871 22.07490372 -97.10573006 20.4183445 C-97.11299935 18.09633865 -97.11398845 15.774408 -97.11352539 13.45239258 C-97.11712067 12.76906357 -97.12071594 12.08573456 -97.12442017 11.38169861 C-97.11668885 7.79385609 -96.84558376 4.48973774 -96 1 C-95.67 1 -95.34 1 -95 1 C-95 43.9 -95 86.8 -95 131 C-63.98 131 -32.96 131 -1 131 C-1.01160156 121.62722656 -1.02320313 112.25445313 -1.03515625 102.59765625 C-1.04026272 96.6777341 -1.04511773 90.75781354 -1.04882812 84.83789062 C-1.05477118 75.43106544 -1.06177303 66.02424919 -1.07543945 56.61743164 C-1.0853861 49.76774525 -1.09185338 42.91806608 -1.09408849 36.06837267 C-1.09539563 32.43930604 -1.09848169 28.81026006 -1.10573006 25.18120003 C-1.11374356 21.13649696 -1.11399115 17.09183011 -1.11352539 13.04711914 C-1.11712067 11.83511841 -1.12071594 10.62311768 -1.12442017 9.37438965 C-1.1230455 8.27917496 -1.12167084 7.18396027 -1.12025452 6.05555725 C-1.12163721 4.61894289 -1.12163721 4.61894289 -1.12304783 3.15330601 C-1 1 -1 1 0 0 Z " fill="#2C0A0A" transform="translate(481,446)"/>
<path d="M0 0 C19.47 0 38.94 0 59 0 C59 10.89 59 21.78 59 33 C44.81 33 30.62 33 16 33 C16 38.61 16 44.22 16 50 C10.72 50 5.44 50 0 50 C0 33.5 0 17 0 0 Z " fill="#D63535" transform="translate(325,528)"/>
<path d="M0 0 C9.24 0 18.48 0 28 0 C28.99 3.96 29.98 7.92 31 12 C31.576691 14.16819778 32.16171169 16.33423214 32.76171875 18.49609375 C33.07214111 19.61765869 33.38256348 20.73922363 33.70239258 21.89477539 C34.02747803 23.06387451 34.35256348 24.23297363 34.6875 25.4375 C35.21295986 27.33578069 35.73841798 29.23406186 36.26377869 31.13237 C37.17459985 34.42192746 38.08735053 37.7109494 39 41 C40.09126239 44.93274453 41.18215251 48.86558966 42.27075195 52.79907227 C42.94499222 55.2348383 43.62052556 57.67024693 44.29760742 60.10522461 C44.60802979 61.22678955 44.91845215 62.34835449 45.23828125 63.50390625 C45.50680908 64.47142822 45.77533691 65.4389502 46.05200195 66.43579102 C47.42777896 71.60832992 48.70185832 76.80743327 50 82 C41.09 82 32.18 82 23 82 C21.989375 78.514375 20.97875 75.02875 19.9375 71.4375 C17.48591651 62.99862928 14.96487264 54.58487897 12.375 46.1875 C9.95320938 38.3243868 7.74444043 30.43401911 5.71362305 22.46142578 C4.30611741 16.98877881 2.63332412 11.6607125 0.69921875 6.34765625 C0 4 0 4 0 0 Z " fill="#F4D3D3" transform="translate(105,616)"/>
<path d="M0 0 C16.83 0 33.66 0 51 0 C51 3.63 51 7.26 51 11 C46.71 11 42.42 11 38 11 C38 25.19 38 39.38 38 54 C25.46 54 12.92 54 0 54 C0 36.18 0 18.36 0 0 Z " fill="#DA3636" transform="translate(196,536)"/>
<path d="M0 0 C10.23 0 20.46 0 31 0 C31 28.38 31 56.76 31 86 C24.73 86 18.46 86 12 86 C10.75323377 80.38955198 9.64110981 75.09435027 8.85498047 69.44824219 C8.75715271 68.75270233 8.65932495 68.05716248 8.55853271 67.34054565 C8.24109898 65.07648105 7.92895155 62.81172671 7.6171875 60.546875 C7.39606614 58.95742751 7.17471826 57.36801151 6.95315552 55.77862549 C6.49194971 52.46406916 6.03335361 49.14916536 5.57666016 45.83398438 C4.99196278 41.59104949 4.40088413 37.34903252 3.80788994 33.10725021 C3.35072602 29.83219493 2.89683689 26.55669226 2.44394302 23.28104401 C2.22723927 21.71644682 2.00954493 20.1519865 1.7908287 18.58766937 C1.48598216 16.40361527 1.18553311 14.21899949 0.88623047 12.03417969 C0.71461395 10.79335632 0.54299744 9.55253296 0.36618042 8.27410889 C0 5 0 5 0 0 Z " fill="#F5D4D4" transform="translate(66,424)"/>
<path d="M0 0 C22.11 0 44.22 0 67 0 C67 9.57 67 19.14 67 29 C44.89 29 22.78 29 0 29 C0 19.43 0 9.86 0 0 Z " fill="#D73535" transform="translate(317,423)"/>
<path d="M0 0 C55.99437994 0 55.99437994 0 74.13476562 6.05078125 C77.84441646 7.27974533 81.59353384 8.33225876 85.35644531 9.38427734 C87.93062197 10.10556031 90.49650537 10.85177187 93.0625 11.6015625 C98.01219061 13.02665115 102.99676545 14.27842215 108 15.5 C116.77106757 17.64272944 125.43649725 20.08652491 134.109375 22.59375 C142.20396326 24.93149209 150.33782466 27.11187954 158.5234375 29.109375 C171.84143478 32.37006114 184.79235758 36.14777096 198 40 C198 84.88 198 129.76 198 176 C188.99910314 179.37533632 188.99910314 179.37533632 185.64550781 180.27099609 C184.88981506 180.47485931 184.13412231 180.67872253 183.35552979 180.88876343 C182.16633942 181.20292709 182.16633942 181.20292709 180.953125 181.5234375 C180.10184021 181.75149078 179.25055542 181.97954407 178.37347412 182.21450806 C176.57549436 182.69534402 174.77700178 183.17426613 172.97802734 183.65136719 C170.2979944 184.36226907 167.61957978 185.07900386 164.94140625 185.796875 C155.27069959 188.38085646 145.58529256 190.89080785 135.85980225 193.26119995 C129.66517952 194.78461137 123.55819602 196.54538512 117.4776001 198.47366333 C113.69456049 199.63974081 111.05767516 200 107 200 C107 207.92 107 215.84 107 224 C118.22 224 129.44 224 141 224 C141 224.33 141 224.66 141 225 C111.3 225 81.6 225 51 225 C51 224.67 51 224.34 51 224 C68.82 224 86.64 224 105 224 C104.67 216.74 104.34 209.48 104 202 C101.79699219 202.60070312 99.59398437 203.20140625 97.32421875 203.8203125 C95.19035317 204.39261718 93.05534137 204.96043617 90.92016602 205.52783203 C89.43583333 205.92484436 87.95273855 206.32651515 86.47094727 206.73291016 C84.34178332 207.31598887 82.20874167 207.88221528 80.07421875 208.4453125 C79.41161545 208.63062531 78.74901215 208.81593811 78.06632996 209.00686646 C76.1862793 209.49267578 76.1862793 209.49267578 73 210 C71.515 209.01 71.515 209.01 70 208 C70.54885172 207.85422894 71.09770344 207.70845787 71.66318703 207.5582695 C85.07923559 203.99496666 98.49489104 200.43018714 111.91013527 196.86385727 C118.39791102 195.13916499 124.88582129 193.4149821 131.37402344 191.69189453 C137.64427971 190.02666818 143.91419369 188.36015869 150.18387985 186.69278717 C152.56693947 186.05926772 154.95011871 185.42619806 157.33342361 184.79360199 C160.69086952 183.90235639 164.04794149 183.00972202 167.40478516 182.11621094 C168.43951273 181.84110058 169.4742403 181.56599022 170.54032326 181.28254318 C177.20363029 179.50295754 183.8318432 177.6369261 190.43319702 175.63824463 C193 175 193 175 197 175 C197 130.78 197 86.56 197 41 C194.03 40.67 191.06 40.34 188 40 C185.57679054 39.46084191 183.16552244 38.86485119 180.77026367 38.21264648 C180.10327391 38.03307026 179.43628414 37.85349403 178.74908257 37.6684761 C176.55359728 37.07570965 174.36082064 36.47352233 172.16796875 35.87109375 C170.59654589 35.44439634 169.02496283 35.01828858 167.45323181 34.59272766 C164.10634132 33.68551154 160.76052747 32.7744522 157.41534424 31.86096191 C152.13793791 30.42145975 146.85519732 29.00220221 141.57177734 27.58496094 C126.05680934 23.41648411 110.56073801 19.21498612 95.15396309 14.66095161 C90.67487886 13.3449379 86.18387247 12.07004672 81.69473267 10.78884888 C79.39467616 10.11949592 77.1003491 9.42996245 74.81381226 8.71578979 C50.05136726 0.99043716 29.31122116 2.56898377 2 2 C2 70.64 2 139.28 2 210 C17.51 210 33.02 210 49 210 C49 210.33 49 210.66 49 211 C32.83 211.33 16.66 211.66 0 212 C0 192.53 0 173.06 0 153 C-7.59 153 -15.18 153 -23 153 C-23 168.18 -23 183.36 -23 199 C-23.66 199 -24.32 199 -25 199 C-25 180.85 -25 162.7 -25 144 C-24.34 144 -23.68 144 -23 144 C-23 146.31 -23 148.62 -23 151 C-15.41 151 -7.82 151 0 151 C0 101.17 0 51.34 0 0 Z " fill="#220808" transform="translate(157,134)"/>
<path d="M0 0 C6.96003447 -0.02526838 13.9200572 -0.04283222 20.88012695 -0.05493164 C23.24992312 -0.05997341 25.61971615 -0.06680665 27.98950195 -0.07543945 C31.38754039 -0.0875119 34.78553785 -0.09322971 38.18359375 -0.09765625 C39.25024765 -0.10281754 40.31690155 -0.10797882 41.4158783 -0.11329651 C42.88729027 -0.11340981 42.88729027 -0.11340981 44.38842773 -0.11352539 C45.25668686 -0.115746 46.12494598 -0.11796661 47.01951599 -0.12025452 C49 0 49 0 50 1 C50.08851529 3.59359322 50.11525945 6.16039691 50.09765625 8.75390625 C50.0962413 9.52935287 50.09482635 10.3047995 50.09336853 11.10374451 C50.08775345 13.59003494 50.07519846 16.0762366 50.0625 18.5625 C50.05748694 20.24413933 50.0529237 21.92578006 50.04882812 23.60742188 C50.03777913 27.73831566 50.02050445 31.86914276 50 36 C48.02 36.495 48.02 36.495 46 37 C46 45.25 46 53.5 46 62 C53.92 62 61.84 62 70 62 C68 64 68 64 65.11083984 64.22705078 C63.30413818 64.21134033 63.30413818 64.21134033 61.4609375 64.1953125 C59.50800781 64.18564453 59.50800781 64.18564453 57.515625 64.17578125 C56.13541405 64.15906929 54.75520571 64.14213939 53.375 64.125 C51.98698548 64.11497006 50.59896411 64.10584423 49.2109375 64.09765625 C45.80721808 64.07401931 42.40358772 64.03814731 39 64 C39 59.38 39 54.76 39 50 C35.04 50 31.08 50 27 50 C27.33 64.52 27.66 79.04 28 94 C14.14 94 0.28 94 -14 94 C-14 74.86 -14 55.72 -14 36 C-10.04 36 -6.08 36 -2 36 C-2 24.45 -2 12.9 -2 1 C-1.67 1 -1.34 1 -1 1 C-0.67 7.6 -0.34 14.2 0 21 C5.61 21 11.22 21 17 21 C17 25.95 17 30.9 17 36 C24.26 36 31.52 36 39 36 C39 24.45 39 12.9 39 1 C26.13 1 13.26 1 0 1 C0 0.67 0 0.34 0 0 Z M-12 38 C-12 55.82 -12 73.64 -12 92 C0.54 92 13.08 92 26 92 C26 77.81 26 63.62 26 49 C30.29 49 34.58 49 39 49 C39 45.37 39 41.74 39 38 C22.17 38 5.34 38 -12 38 Z " fill="#391C1C" transform="translate(208,498)"/>
<path d="M0 0 C9.57 0 19.14 0 29 0 C29 13.86 29 27.72 29 42 C19.43 42 9.86 42 0 42 C0 28.14 0 14.28 0 0 Z " fill="#D23434" transform="translate(317,379)"/>
<path d="M0 0 C35.31 0 70.62 0 107 0 C105 2 105 2 103.14531517 2.24609566 C102.00874442 2.24333028 102.00874442 2.24333028 100.84921265 2.24050903 C99.97980545 2.24325836 99.11039825 2.24600769 98.21464539 2.24884033 C97.25870987 2.24164978 96.30277435 2.23445923 95.31787109 2.22705078 C94.31296127 2.22734283 93.30805145 2.22763489 92.27268982 2.22793579 C88.93951893 2.22653856 85.60656951 2.21095882 82.2734375 2.1953125 C79.96701174 2.19158377 77.6605844 2.18873614 75.35415649 2.18673706 C69.27465464 2.17908959 63.19524789 2.15943154 57.11578369 2.1373291 C49.82624273 2.11330379 42.53667003 2.104095 35.24710083 2.09242249 C24.16466768 2.07300781 13.08244333 2.03469287 2 2 C2 17.84 2 33.68 2 50 C18.83 50.33 35.66 50.66 53 51 C53 55.95 53 60.9 53 66 C59.6 66 66.2 66 73 66 C73 56.1 73 46.2 73 36 C90.16 36 107.32 36 125 36 C125 61.08 125 86.16 125 112 C124.67 112 124.34 112 124 112 C124 87.25 124 62.5 124 37 C107.5 37 91 37 74 37 C74 46.9 74 56.8 74 67 C66.74 67 59.48 67 52 67 C52 62.05 52 57.1 52 52 C34.84 52 17.68 52 0 52 C0 47.38 0 42.76 0 38 C-6.6 38 -13.2 38 -20 38 C-20.33 37.34 -20.66 36.68 -21 36 C-21.33 36 -21.66 36 -22 36 C-22 27.42 -22 18.84 -22 10 C-14.74 10 -7.48 10 0 10 C0 6.7 0 3.4 0 0 Z " fill="#502525" transform="translate(318,599)"/>
<path d="M0 0 C12.87 0 25.74 0 39 0 C39 11.55 39 23.1 39 35 C31.74 35 24.48 35 17 35 C17 30.05 17 25.1 17 20 C11.39 20 5.78 20 0 20 C0 13.4 0 6.8 0 0 Z " fill="#DA3636" transform="translate(208,499)"/>
<path d="M0 0 C0.66 0 1.32 0 2 0 C2 41.58 2 83.16 2 126 C1.34 126 0.68 126 0 126 C0 113.46 0 100.92 0 88 C-6.27 88 -12.54 88 -19 88 C-18.34 90.97 -17.68 93.94 -17 97 C-16.63531385 99.20316732 -16.29839115 101.41117842 -15.99438477 103.62353516 C-15.82403214 104.84996735 -15.6536795 106.07639954 -15.47816467 107.33999634 C-15.30103439 108.64318817 -15.12390411 109.94638 -14.94140625 111.2890625 C-14.74997001 112.67845739 -14.55822658 114.06780998 -14.36619568 115.4571228 C-13.8626139 119.10725365 -13.36361261 122.75799682 -12.86547852 126.40887451 C-12.46686709 129.32450346 -12.06492717 132.2396687 -11.66283607 135.15481949 C-10.4288558 144.10145923 -9.21025556 153.05012237 -8 162 C-7.83796082 163.19411499 -7.67592163 164.38822998 -7.50897217 165.61853027 C-7.0736804 168.83632375 -6.64318689 172.05471263 -6.21484375 175.2734375 C-6.08928604 176.20016266 -5.96372833 177.12688782 -5.83436584 178.08169556 C-5.72265549 178.93049286 -5.61094513 179.77929016 -5.49584961 180.65380859 C-5.35088295 181.7412587 -5.35088295 181.7412587 -5.20298767 182.85067749 C-4.9788275 185.22418372 -5 187.61593213 -5 190 C7.87 190 20.74 190 34 190 C32.35 184.72 30.7 179.44 29 174 C29 173.01 29 172.02 29 171 C22.73 171 16.46 171 10 171 C10 170.67 10 170.34 10 170 C16.93 170 23.86 170 31 170 C37.72444327 192.13321778 43.91553616 214.40612414 50.0030899 236.72116852 C50.62664335 239.00602162 51.25118543 241.29060265 51.87591553 243.57513428 C52.87145945 247.21702152 53.86398118 250.85971913 54.85401154 254.50310898 C55.22557012 255.86938536 55.59791256 257.23544883 55.97106171 258.60129166 C56.48528919 260.48482514 56.99591425 262.36934104 57.50634766 264.25390625 C57.79595367 265.31939697 58.08555969 266.3848877 58.38394165 267.48266602 C59 270 59 270 59 272 C58.34 272 57.68 272 57 272 C53.63623227 261.00214949 50.38957105 249.98437617 47.40307617 238.87768555 C45.93016705 233.40037961 44.42288445 227.93424958 42.87890625 222.4765625 C42.32900573 220.52209772 41.77972198 218.56746067 41.23065186 216.61276245 C40.70100402 214.73536652 40.16431347 212.85996197 39.62744141 210.98461914 C39.30050293 209.81793701 38.97356445 208.65125488 38.63671875 207.44921875 C38.34498779 206.42143311 38.05325684 205.39364746 37.75268555 204.3347168 C36.83833437 200.28375254 36.45860804 196.12747236 36 192 C26.76 192 17.52 192 8 192 C9.340625 196.41375 10.68125 200.8275 12.0625 205.375 C15.42174452 216.50044286 18.57290594 227.65583281 21.53198242 238.89501953 C23.51156468 246.35406221 25.70489498 253.71716666 28.13549805 261.04174805 C29.43541183 264.99495395 30.66261567 268.82643088 31 273 C30.34 273.66 29.68 274.32 29 275 C14.5479375 225.13663524 14.5479375 225.13663524 9.69433594 207.51855469 C9.18591391 205.67436283 8.67289334 203.83143705 8.15722656 201.98925781 C7.88104492 200.99506836 7.60486328 200.00087891 7.3203125 198.9765625 C7.06781738 198.07244629 6.81532227 197.16833008 6.55517578 196.23681641 C6 194 6 194 6 192 C2.04 192 -1.92 192 -6 192 C-8.07343197 180.66110306 -9.881395 169.31400267 -11.4519043 157.89526367 C-11.67868365 156.2637627 -11.9057326 154.63229918 -12.13302612 153.00086975 C-12.74111479 148.63024677 -13.34529662 144.25909251 -13.94855094 139.88779998 C-14.58318773 135.29303587 -15.22102051 130.6987152 -15.85835266 126.10432434 C-16.92546718 118.40799299 -17.98999884 110.71130775 -19.05297852 103.0144043 C-20.28154812 94.11873761 -21.51436599 85.2236673 -22.74938458 76.32889384 C-23.94096489 67.74619688 -25.12948395 59.16307865 -26.31662941 50.57976723 C-26.82079482 46.93498042 -27.32605067 43.29034724 -27.83218956 39.64583397 C-28.42648277 35.36558952 -29.01810386 31.08498409 -29.60764694 26.80408287 C-29.82439731 25.23337422 -30.04207451 23.66279315 -30.26074028 22.09235001 C-30.55868086 19.95144625 -30.85327719 17.81010823 -31.14701843 15.66862488 C-31.31273189 14.47025088 -31.47844534 13.27187689 -31.64918041 12.03718853 C-32 9 -32 9 -32 5 C-31.34 5 -30.68 5 -30 5 C-28.56417572 15.26555601 -27.12981335 25.53131511 -25.69733429 35.79733849 C-25.03218233 40.56388704 -24.36652064 45.33036328 -23.69970703 50.09667969 C-23.05661435 54.69357641 -22.41484363 59.2906559 -21.77400208 63.88786697 C-21.52886863 65.64466599 -21.28325311 67.40139781 -21.03715515 69.15806198 C-20.69342818 71.61219897 -20.35139223 74.06656598 -20.00976562 76.52099609 C-19.9069075 77.25251389 -19.80404938 77.98403168 -19.69807434 78.73771667 C-19 83.77189568 -19 83.77189568 -19 86 C-12.73 86 -6.46 86 0 86 C0 57.62 0 29.24 0 0 Z " fill="#403939" transform="translate(97,424)"/>
<path d="M0 0 C0.33 0 0.66 0 1 0 C1 44.55 1 89.1 1 135 C-48.83 135 -98.66 135 -150 135 C-150 132.69 -150 130.38 -150 128 C-161.55 128 -173.1 128 -185 128 C-185 125.69 -185 123.38 -185 121 C-240.77 121 -296.54 121 -354 121 C-353.505 120.01 -353.505 120.01 -353 119 C-339.635 119.495 -339.635 119.495 -326 120 C-325.67 119.34 -325.34 118.68 -325 118 C-325 118.66 -325 119.32 -325 120 C-278.47 120 -231.94 120 -184 120 C-184.33 99.21 -184.66 78.42 -185 57 C-184.67 48.75 -184.34 40.5 -184 32 C-183.67 32 -183.34 32 -183 32 C-183 40.25 -183 48.5 -183 57 C-177.06 57 -171.12 57 -165 57 C-165 57.33 -165 57.66 -165 58 C-170.94 58 -176.88 58 -183 58 C-183 80.44 -183 102.88 -183 126 C-171.45 126 -159.9 126 -148 126 C-148 128.31 -148 130.62 -148 133 C-111.7 133 -75.4 133 -38 133 C-38 107.92 -38 82.84 -38 57 C-55.16 57 -72.32 57 -90 57 C-90 66.9 -90 76.8 -90 87 C-96.6 87 -103.2 87 -110 87 C-110 82.05 -110 77.1 -110 72 C-127.16 72 -144.32 72 -162 72 C-162 71.67 -162 71.34 -162 71 C-144.51 71 -127.02 71 -109 71 C-109 75.95 -109 80.9 -109 86 C-103.06 86 -97.12 86 -91 86 C-91 76.1 -91 66.2 -91 56 C-73.18 56 -55.36 56 -37 56 C-37 81.41 -37 106.82 -37 133 C-24.79 133 -12.58 133 0 133 C0 89.11 0 45.22 0 0 Z " fill="#050404" transform="translate(481,578)"/>
<path d="M0 0 C9.57 0 19.14 0 29 0 C29 11.55 29 23.1 29 35 C19.43 35 9.86 35 0 35 C0 23.45 0 11.9 0 0 Z " fill="#D23434" transform="translate(317,343)"/>
<path d="M0 0 C9.9 0 19.8 0 30 0 C30 9.9 30 19.8 30 30 C20.1 30 10.2 30 0 30 C0 20.1 0 10.2 0 0 Z " fill="#D63535" transform="translate(208,360)"/>
<path d="M0 0 C9.57 0 19.14 0 29 0 C29 9.9 29 19.8 29 30 C19.43 30 9.86 30 0 30 C0 20.1 0 10.2 0 0 Z " fill="#D33434" transform="translate(268,360)"/>
<path d="M0 0 C0 7.59 0 15.18 0 23 C-17.82 23 -35.64 23 -54 23 C-54 19.04 -54 15.08 -54 11 C-51.11314453 10.89171875 -51.11314453 10.89171875 -48.16796875 10.78125 C-38.93132053 10.1205755 -30.24374801 7.84543438 -21.3125 5.5 C-19.66759449 5.07834588 -18.02241305 4.65776662 -16.37695312 4.23828125 C-11.40832752 2.96530952 -5.00027308 0 0 0 Z " fill="#D83535" transform="translate(262,335)"/>
<path d="M0 0 C9.9 0 19.8 0 30 0 C30 9.24 30 18.48 30 28 C20.1 28 10.2 28 0 28 C0 18.76 0 9.52 0 0 Z " fill="#D43434" transform="translate(208,424)"/>
<path d="M0 0 C8.91 0 17.82 0 27 0 C27 9.9 27 19.8 27 30 C18.09 30 9.18 30 0 30 C0 20.1 0 10.2 0 0 Z " fill="#D23434" transform="translate(240,360)"/>
<path d="M0 0 C7.59 0 15.18 0 23 0 C23 11.55 23 23.1 23 35 C15.41 35 7.82 35 0 35 C0 23.45 0 11.9 0 0 Z " fill="#D93535" transform="translate(45,28)"/>
<path d="M0 0 C9.24 0 18.48 0 28 0 C28 9.24 28 18.48 28 28 C18.76 28 9.52 28 0 28 C0 18.76 0 9.52 0 0 Z " fill="#D43434" transform="translate(239,424)"/>
<path d="M0 0 C3.63 0 7.26 0 11 0 C11 4.29 11 8.58 11 13 C20.57 13 30.14 13 40 13 C40 18.28 40 23.56 40 29 C26.8 29 13.6 29 0 29 C0 19.43 0 9.86 0 0 Z " fill="#D53434" transform="translate(236,549)"/>
<path d="M0 0 C8.91 0 17.82 0 27 0 C27 8.91 27 17.82 27 27 C18.09 27 9.18 27 0 27 C0 18.09 0 9.18 0 0 Z " fill="#DA3636" transform="translate(269,424)"/>
<path d="M0 0 C0.66 0.33 1.32 0.66 2 1 C2 13.21 2 25.42 2 38 C-15.82 38 -33.64 38 -52 38 C-51.34 40.97 -50.68 43.94 -50 47 C-49.56115085 49.73150843 -49.14925809 52.45110025 -48.78125 55.19140625 C-48.67784302 55.93978256 -48.57443604 56.68815887 -48.46789551 57.45921326 C-48.14179358 59.82651446 -47.82091323 62.19449053 -47.5 64.5625 C-47.28547461 66.12048658 -47.07063277 67.67842962 -46.85546875 69.23632812 C-45.88619757 76.2862557 -44.95130989 83.33781801 -44.09375 90.40234375 C-42.58230924 102.62665203 -40.76054963 114.80962387 -39 127 C-34.66672674 157.00439751 -34.66672674 157.00439751 -33 171 C-32.61987965 174.1173595 -32.23790682 177.23448662 -31.85546875 180.3515625 C-31.61660159 182.29924855 -31.37965182 184.24717062 -31.14453125 186.1953125 C-30.54952762 191.01932044 -29.8836942 195.81554575 -29.06176758 200.60644531 C-28.0235946 206.77738202 -27.1095121 212.96089047 -26.23046875 219.15625 C-26.06903885 220.28612839 -25.90760895 221.41600677 -25.74128723 222.5801239 C-25.22177461 226.219859 -24.70444862 229.85989992 -24.1875 233.5 C-23.83008551 236.0121267 -23.47266359 238.52425235 -23.11523438 241.03637695 C-22.23583694 247.22175194 -21.35891643 253.40747533 -20.48284912 259.59332275 C-20.03593883 262.74643837 -19.58782492 265.89937972 -19.13916016 269.05224609 C-18.52984759 273.33561306 -17.92396642 277.61944727 -17.32168579 281.90380859 C-17.10892568 283.41422174 -16.89505615 284.92447907 -16.68002319 286.43457031 C-16.3875383 288.49108753 -16.09939357 290.54816518 -15.8125 292.60546875 C-15.65394531 293.73106201 -15.49539062 294.85665527 -15.33203125 296.01635742 C-15.03215924 298.71101608 -14.93453418 301.29229576 -15 304 C-15.66 304 -16.32 304 -17 304 C-20.79402795 278.16706066 -24.55735185 252.33155016 -28.109375 226.46412659 C-28.8237875 221.26528232 -29.54856035 216.06794142 -30.27734375 210.87109375 C-32.26039638 196.71442653 -34.20420716 182.55685588 -36 168.375 C-37.48361921 156.66576245 -39.14557235 144.99168894 -40.88812256 133.31872559 C-42.21474125 124.43055617 -43.49032966 115.54015767 -44.625 106.625 C-45.47002083 99.98761908 -46.36566123 93.36446406 -47.375 86.75 C-48.73499305 77.82592675 -50.05068217 68.89578328 -51.34039307 59.96130371 C-51.57048287 58.37118777 -51.80187254 56.78125934 -52.03460693 55.19152832 C-52.36371468 52.94196547 -52.68824547 50.6917853 -53.01171875 48.44140625 C-53.1115657 47.76511673 -53.21141266 47.08882721 -53.31428528 46.39204407 C-53.81848884 42.84691451 -54 39.60860199 -54 36 C-36.18 36 -18.36 36 0 36 C0 24.12 0 12.24 0 0 Z " fill="#433E3E" transform="translate(68,27)"/>
<path d="M0 0 C15.84 0.33 31.68 0.66 48 1 C48 1.33 48 1.66 48 2 C32.82 2 17.64 2 2 2 C2 70.64 2 139.28 2 210 C17.51 210 33.02 210 49 210 C49 210.33 49 210.66 49 211 C32.83 211.33 16.66 211.66 0 212 C0 192.53 0 173.06 0 153 C-7.59 153 -15.18 153 -23 153 C-23 168.18 -23 183.36 -23 199 C-23.66 199 -24.32 199 -25 199 C-25 180.85 -25 162.7 -25 144 C-24.34 144 -23.68 144 -23 144 C-23 146.31 -23 148.62 -23 151 C-15.41 151 -7.82 151 0 151 C0 101.17 0 51.34 0 0 Z " fill="#402222" transform="translate(157,134)"/>
<path d="M0 0 C6.27 0 12.54 0 19 0 C19 10.89 19 21.78 19 33 C12.73 33 6.46 33 0 33 C0 22.11 0 11.22 0 0 Z " fill="#D23434" transform="translate(304,528)"/>
<path d="M0 0 C30.36 0 60.72 0 92 0 C92 18.14708059 91.95715504 36.24220621 91.5 54.375 C91.45149758 56.40624226 91.40332049 58.43749231 91.35546875 60.46875 C91.24068302 65.31259704 91.12165821 70.15632091 91 75 C90.67 75 90.34 75 90 75 C90 60.81 90 46.62 90 32 C60.96 32 31.92 32 2 32 C2 31.67 2 31.34 2 31 C16.85 30.505 16.85 30.505 32 30 C32 20.76 32 11.52 32 2 C22.1 2 12.2 2 2 2 C1.67 26.09 1.34 50.18 1 75 C0.67 75 0.34 75 0 75 C0 50.25 0 25.5 0 0 Z M33 2 C33 11.24 33 20.48 33 30 C42.24 30 51.48 30 61 30 C61 20.76 61 11.52 61 2 C51.76 2 42.52 2 33 2 Z M63 2 C63 10.91 63 19.82 63 29 C71.91 29 80.82 29 90 29 C90 20.09 90 11.18 90 2 C81.09 2 72.18 2 63 2 Z " fill="#4D2323" transform="translate(206,422)"/>
<path d="M0 0 C52.14 0 104.28 0 158 0 C158 3.96 158 7.92 158 12 C160.97 12 163.94 12 167 12 C167 12.66 167 13.32 167 14 C163.37 14 159.74 14 156 14 C156 10.04 156 6.08 156 2 C134.88 2 113.76 2 92 2 C92 19.16 92 36.32 92 54 C98.93 54 105.86 54 113 54 C113 44.43 113 34.86 113 25 C113.33 25 113.66 25 114 25 C114 44.14 114 63.28 114 83 C130.83 83 147.66 83 165 83 C165 83.33 165 83.66 165 84 C147.84 84 130.68 84 113 84 C113 74.43 113 64.86 113 55 C105.74 55 98.48 55 91 55 C91 37.51 91 20.02 91 2 C61.63 2 32.26 2 2 2 C2 13.55 2 25.1 2 37 C1.34 37 0.68 37 0 37 C0 24.79 0 12.58 0 0 Z " fill="#1D1A1A" transform="translate(43,26)"/>
<path d="M0 0 C6.6 0 13.2 0 20 0 C20 7.92 20 15.84 20 24 C13.4 24 6.8 24 0 24 C0 16.08 0 8.16 0 0 Z " fill="#D93535" transform="translate(298,611)"/>
<path d="M0 0 C2.64 0 5.28 0 8 0 C8 11.22 8 22.44 8 34 C6.35 34 4.7 34 3 34 C3 43.24 3 52.48 3 62 C2.01 62 1.02 62 0 62 C0 41.54 0 21.08 0 0 Z " fill="#F6D5D5" transform="translate(249,499)"/>
<path d="M0 0 C7.26 0 14.52 0 22 0 C22 5.28 22 10.56 22 16 C14.74 16 7.48 16 0 16 C0 10.72 0 5.44 0 0 Z " fill="#CB3232" transform="translate(343,562)"/>
<path d="M0 0 C6.96003447 -0.02526838 13.9200572 -0.04283222 20.88012695 -0.05493164 C23.24992312 -0.05997341 25.61971615 -0.06680665 27.98950195 -0.07543945 C31.38754039 -0.0875119 34.78553785 -0.09322971 38.18359375 -0.09765625 C39.25024765 -0.10281754 40.31690155 -0.10797882 41.4158783 -0.11329651 C42.88729027 -0.11340981 42.88729027 -0.11340981 44.38842773 -0.11352539 C45.25668686 -0.115746 46.12494598 -0.11796661 47.01951599 -0.12025452 C49 0 49 0 50 1 C50.08851529 3.59359322 50.11525945 6.16039691 50.09765625 8.75390625 C50.0962413 9.52935287 50.09482635 10.3047995 50.09336853 11.10374451 C50.08775345 13.59003494 50.07519846 16.0762366 50.0625 18.5625 C50.05748694 20.24413933 50.0529237 21.92578006 50.04882812 23.60742188 C50.03777913 27.73831566 50.02050445 31.86914276 50 36 C48.02 36.495 48.02 36.495 46 37 C46 45.25 46 53.5 46 62 C53.92 62 61.84 62 70 62 C68 64 68 64 65.11083984 64.22705078 C63.30413818 64.21134033 63.30413818 64.21134033 61.4609375 64.1953125 C59.50800781 64.18564453 59.50800781 64.18564453 57.515625 64.17578125 C56.13541405 64.15906929 54.75520571 64.14213939 53.375 64.125 C51.98698548 64.11497006 50.59896411 64.10584423 49.2109375 64.09765625 C45.80721808 64.07401931 42.40358772 64.03814731 39 64 C39 55.42 39 46.84 39 38 C31.74 38 24.48 38 17 38 C17 37.67 17 37.34 17 37 C24.26 37 31.52 37 39 37 C39 25.12 39 13.24 39 1 C26.13 1 13.26 1 0 1 C0 0.67 0 0.34 0 0 Z M41 1 C41 21.46 41 41.92 41 63 C41.99 63 42.98 63 44 63 C44 53.76 44 44.52 44 35 C45.65 35 47.3 35 49 35 C49 23.78 49 12.56 49 1 C46.36 1 43.72 1 41 1 Z " fill="#442727" transform="translate(208,498)"/>
<path d="M0 0 C50.58246367 -1.41822905 50.58246367 -1.41822905 73.11865234 6.05078125 C76.83554111 7.27525706 80.5905934 8.33015906 84.35864258 9.38427734 C86.93196834 10.10592171 89.49717762 10.85204135 92.0625 11.6015625 C97.01219061 13.02665115 101.99676545 14.27842215 107 15.5 C115.77106757 17.64272944 124.43649725 20.08652491 133.109375 22.59375 C141.23963773 24.94179499 149.41141131 27.12168566 157.62890625 29.14453125 C169.8389274 32.15029759 181.93184788 35.46701005 194 39 C193.67 39.66 193.34 40.32 193 41 C176.9566524 37.45302744 161.12225669 33.0828834 145.26058578 28.81261444 C141.33996047 27.75762133 137.41861183 26.70532388 133.49731445 25.65283203 C128.70305839 24.36588193 123.90887214 23.07867471 119.11503601 21.79016113 C109.40714943 19.1810585 99.69692294 16.58091842 89.98394585 13.99083138 C86.69366149 13.11332436 83.40360778 12.23495334 80.11352539 11.35668945 C76.41969783 10.37065752 72.72572906 9.38517653 69.03121948 8.40170288 C65.6700259 7.50674064 62.30954369 6.60915473 58.94921875 5.7109375 C57.96000427 5.44830612 56.97078979 5.18567474 55.95159912 4.91508484 C55.05709045 4.67546524 54.16258179 4.43584564 53.2409668 4.18896484 C52.46472458 3.98201996 51.68848236 3.77507507 50.88871765 3.56185913 C49 3 49 3 47 2 C45.4892243 1.88194823 43.97361169 1.82303551 42.45849609 1.79467773 C41.51767181 1.77473251 40.57684753 1.75478729 39.60751343 1.73423767 C38.58976837 1.71752518 37.57202332 1.70081268 36.5234375 1.68359375 C35.48305328 1.66281265 34.44266907 1.64203156 33.37075806 1.62062073 C30.03890751 1.55510128 26.7069765 1.49622908 23.375 1.4375 C21.11978326 1.39431706 18.86457473 1.35070285 16.609375 1.30664062 C11.07300236 1.19941748 5.53654922 1.09765554 0 1 C0 0.67 0 0.34 0 0 Z " fill="#311A1A" transform="translate(158,134)"/>
<path d="M0 0 C26.07 0 52.14 0 79 0 C79 0.33 79 0.66 79 1 C60.19 1 41.38 1 22 1 C22 17.5 22 34 22 51 C27.28 51 32.56 51 38 51 C38 45.39 38 39.78 38 34 C45.92 34 53.84 34 62 34 C62 34.33 62 34.66 62 35 C54.74 35 47.48 35 40 35 C40.03957157 40.22063275 40.03957157 40.22063275 40.09008789 45.44116211 C40.09723945 47.29433759 40.0502852 49.14749308 40 51 C39 52 39 52 37.14233398 52.11352539 C35.95619507 52.10567017 35.95619507 52.10567017 34.74609375 52.09765625 C33.89208984 52.09443359 33.03808594 52.09121094 32.15820312 52.08789062 C31.26037109 52.07951172 30.36253906 52.07113281 29.4375 52.0625 C28.53580078 52.05798828 27.63410156 52.05347656 26.70507812 52.04882812 C24.47002411 52.03700244 22.23500398 52.01906638 20 52 C20 46.39 20 40.78 20 35 C12.74 35 5.48 35 -2 35 C-1.01 34.505 -1.01 34.505 0 34 C0 22.78 0 11.56 0 0 Z M1 1 C1 11.89 1 22.78 1 34 C7.27 34 13.54 34 20 34 C20 23.11 20 12.22 20 1 C13.73 1 7.46 1 1 1 Z " fill="#110606" transform="translate(303,527)"/>
<path d="M0 0 C5.94 0 11.88 0 18 0 C18 5.28 18 10.56 18 16 C12.06 16 6.12 16 0 16 C0 10.72 0 5.44 0 0 Z " fill="#D03333" transform="translate(366,562)"/>
<path d="M0 0 C0.33 0 0.66 0 1 0 C1 8.25 1 16.5 1 25 C6.94 25 12.88 25 19 25 C19 25.33 19 25.66 19 26 C13.06 26 7.12 26 1 26 C1 48.44 1 70.88 1 94 C0.67 94 0.34 94 0 94 C0 92.35 0 90.7 0 89 C-56.1 89 -112.2 89 -170 89 C-169.505 88.01 -169.505 88.01 -169 87 C-155.635 87.495 -155.635 87.495 -142 88 C-141.67 87.34 -141.34 86.68 -141 86 C-141 86.66 -141 87.32 -141 88 C-94.47 88 -47.94 88 0 88 C-0.33 67.21 -0.66 46.42 -1 25 C-0.67 16.75 -0.34 8.5 0 0 Z " fill="#000000" transform="translate(297,610)"/>
<path d="M0 0 C3.3 0 6.6 0 10 0 C10 4.29 10 8.58 10 13 C9.34 13.33 8.68 13.66 8 14 C8 10.04 8 6.08 8 2 C5.69 2 3.38 2 1 2 C1 25.43 1 48.86 1 73 C-17.48 73 -35.96 73 -55 73 C-55 63.43 -55 53.86 -55 44 C-61.93 44 -68.86 44 -76 44 C-76 43.67 -76 43.34 -76 43 C-68.74 43 -61.48 43 -54 43 C-54 52.57 -54 62.14 -54 72 C-27.27 71.505 -27.27 71.505 0 71 C0 47.57 0 24.14 0 0 Z " fill="#483F3F" transform="translate(210,38)"/>
<path d="M0 0 C0.33 0 0.66 0 1 0 C1 1.65 1 3.3 1 5 C12.88 5 24.76 5 37 5 C37 7.31 37 9.62 37 12 C72.97 12.33 108.94 12.66 146 13 C146 13.33 146 13.66 146 14 C109.37 14 72.74 14 35 14 C35 11.69 35 9.38 35 7 C23.45 7 11.9 7 0 7 C0 4.69 0 2.38 0 0 Z " fill="#3F3F3F" transform="translate(296,699)"/>
<path d="M0 0 C9.24 0 18.48 0 28 0 C28 0.33 28 0.66 28 1 C19.09 1 10.18 1 1 1 C1.56847656 2.86398437 2.13695313 4.72796875 2.72265625 6.6484375 C6.87777642 20.34541361 10.88714652 34.05117619 14.53198242 47.89501953 C16.51156468 55.35406221 18.70489498 62.71716666 21.13549805 70.04174805 C22.43541183 73.99495395 23.66261567 77.82643088 24 82 C23.01 82.99 23.01 82.99 22 84 C9.07030973 39.38921438 9.07030973 39.38921438 4.875 24.4375 C4.61710693 23.52170166 4.35921387 22.60590332 4.09350586 21.66235352 C3.38199935 19.11169235 2.68654198 16.55748889 2 14 C1.7102832 12.93152832 1.42056641 11.86305664 1.12207031 10.76220703 C0.83686523 9.67665527 0.55166016 8.59110352 0.2578125 7.47265625 C-0.00628418 6.4762915 -0.27038086 5.47992676 -0.54248047 4.45336914 C-1 2 -1 2 0 0 Z " fill="#413D3D" transform="translate(104,615)"/>
<path d="M0 0 C4.95 0 9.9 0 15 0 C15 4.29 15 8.58 15 13 C10.05 13 5.1 13 0 13 C0 8.71 0 4.42 0 0 Z " fill="#DA3636" transform="translate(208,521)"/>
<path d="M0 0 C0.33 0 0.66 0 1 0 C1 9.57 1 19.14 1 29 C10.24 29 19.48 29 29 29 C29 29.33 29 29.66 29 30 C19.76 30 10.52 30 1 30 C1 44.52 1 59.04 1 74 C17.5 74 34 74 51 74 C50.67 74.66 50.34 75.32 50 76 C25.745 75.505 25.745 75.505 1 75 C1 87.21 1 99.42 1 112 C0.67 112 0.34 112 0 112 C-1.20033503 86.20232322 -0.95083196 60.43765412 -0.5625 34.625 C-0.54968616 33.77265022 -0.53687233 32.92030045 -0.5236702 32.04212189 C-0.36190888 21.36119388 -0.18692851 10.68051661 0 0 Z " fill="#000000" transform="translate(207,423)"/>
<path d="M0 0 C10.23 0 20.46 0 31 0 C31 0.33 31 0.66 31 1 C21.1 1 11.2 1 1 1 C1.32798584 3.34077637 1.65597168 5.68155273 1.99389648 8.09326172 C3.08133575 15.85620534 4.16661566 23.61944975 5.25085354 31.38284111 C5.9078247 36.0864268 6.56550649 40.78991078 7.22485352 45.49316406 C7.86198639 50.03815449 8.49719875 54.58340968 9.13112068 59.12884903 C9.37243351 60.8567357 9.61442012 62.58452841 9.85711479 64.31222153 C10.59107776 69.53900634 11.30543126 74.76782744 12 80 C12.14760773 81.07187561 12.29521545 82.14375122 12.44729614 83.24810791 C12.55758148 84.14092468 12.66786682 85.03374146 12.78149414 85.95361328 C12.92162682 87.04647141 12.92162682 87.04647141 13.06459045 88.16140747 C13 90 13 90 11 93 C10.62107011 90.28646163 10.24216686 87.57291955 9.86328125 84.859375 C9.7435495 84.00192688 9.62381775 83.14447876 9.50045776 82.26104736 C8.83149549 77.46968753 8.16302289 72.67826002 7.49536133 67.88671875 C7.21827485 65.89843567 6.94117515 63.91015443 6.6640625 61.921875 C6.52479843 60.92265015 6.38553436 59.92342529 6.24205017 58.8939209 C5.45796543 53.27182716 4.67025533 47.65026384 3.87770081 42.02935791 C3.42018679 38.78299278 2.96463841 35.53635342 2.5093689 32.28967285 C2.29728757 30.78099384 2.08427713 29.2724451 1.87026978 27.76403809 C-1.45036379 4.35109138 -1.45036379 4.35109138 0 0 Z " fill="#4D4747" transform="translate(53,333)"/>
<path d="M0 0 C1.65 0 3.3 0 5 0 C5 10.89 5 21.78 5 33 C3.35 33 1.7 33 0 33 C0 22.11 0 11.22 0 0 Z " fill="#CB3232" transform="translate(298,528)"/>
<path d="M0 0 C6.93 0 13.86 0 21 0 C21.99 3.196875 22.98 6.39375 24 9.6875 C24.31324219 10.68612061 24.62648437 11.68474121 24.94921875 12.71362305 C25.19285156 13.51324463 25.43648437 14.31286621 25.6875 15.13671875 C25.93886719 15.94842529 26.19023437 16.76013184 26.44921875 17.59643555 C27.03200496 20.13966705 27.09712888 22.39977907 27 25 C26.34 24.01 25.68 23.02 25 22 C22.09386566 21.48853802 22.09386566 21.48853802 18.6796875 21.48828125 C16.79443359 21.43510742 16.79443359 21.43510742 14.87109375 21.38085938 C13.55238281 21.35830078 12.23367187 21.33574219 10.875 21.3125 C9.53512241 21.27933471 8.19527689 21.24484578 6.85546875 21.20898438 C3.5703967 21.12626673 0.28559968 21.05719307 -3 21 C-3.33 21.66 -3.66 22.32 -4 23 C-7.96 22.67 -11.92 22.34 -16 22 C-16 20.35 -16 18.7 -16 17 C-15.67 17.99 -15.34 18.98 -15 20 C-2.13 20 10.74 20 24 20 C21.525 12.08 21.525 12.08 19 4 C19 3.01 19 2.02 19 1 C12.73 1 6.46 1 0 1 C0 0.67 0 0.34 0 0 Z " fill="#1A1919" transform="translate(107,594)"/>
<path d="M0 0 C8.91 0 17.82 0 27 0 C25 2 25 2 22.66162109 2.22705078 C21.70852051 2.21657715 20.75541992 2.20610352 19.7734375 2.1953125 C18.84450684 2.19031738 17.91557617 2.18532227 16.95849609 2.18017578 C15.77594238 2.16196777 14.59338867 2.14375977 13.375 2.125 C9.62125 2.08375 5.8675 2.0425 2 2 C2 13.55 2 25.1 2 37 C1.34 37 0.68 37 0 37 C0 24.79 0 12.58 0 0 Z " fill="#281313" transform="translate(43,26)"/>
<path d="M0 0 C5.61 0 11.22 0 17 0 C17 4.95 17 9.9 17 15 C24.26 15 31.52 15 39 15 C39 15.33 39 15.66 39 16 C25.92279225 16.71649256 13.05027735 17.35940389 0 16 C0 15.67 0 15.34 0 15 C4.95 15 9.9 15 15 15 C15 10.71 15 6.42 15 2 C10.05 2 5.1 2 0 2 C0 1.34 0 0.68 0 0 Z " fill="#390E0E" transform="translate(208,519)"/>
<path d="M0 0 C5.88421366 0.62398161 11.46009535 1.71662444 17.1875 3.1875 C18.46125488 3.50980591 18.46125488 3.50980591 19.76074219 3.83862305 C29.56519995 6.35063474 39.28734281 9.15658869 49 12 C48.67 12.66 48.34 13.32 48 14 C37.63285264 11.68943343 27.33522257 9.10894741 17.06182861 6.41430664 C15.68524144 6.05423665 14.30791423 5.69698437 12.92987061 5.3425293 C10.97199333 4.83794537 9.01717137 4.32155131 7.0625 3.8046875 C5.34740234 3.35585205 5.34740234 3.35585205 3.59765625 2.89794922 C1 2 1 2 0 0 Z " fill="#280B0B" transform="translate(303,161)"/>
<path d="M0 0 C0.33 0 0.66 0 1 0 C1 1.65 1 3.3 1 5 C12.88 5 24.76 5 37 5 C37 7.31 37 9.62 37 12 C36.34 12.33 35.68 12.66 35 13 C35 11.02 35 9.04 35 7 C23.45 7 11.9 7 0 7 C0 4.69 0 2.38 0 0 Z " fill="#221F1F" transform="translate(296,699)"/>
<path d="M0 0 C9.24 0 18.48 0 28 0 C28 0.33 28 0.66 28 1 C19.09 1 10.18 1 1 1 C3.62659225 9.37842391 3.62659225 9.37842391 6.265625 17.75292969 C6.59046875 18.79868164 6.9153125 19.84443359 7.25 20.921875 C7.58515625 21.99018555 7.9203125 23.05849609 8.265625 24.15917969 C9 27 9 27 9 31 C8.34 31 7.68 31 7 31 C5.8478638 27.29359533 4.70441993 23.58456376 3.5625 19.875 C3.23701172 18.82828125 2.91152344 17.7815625 2.57617188 16.703125 C2.26357422 15.68476562 1.95097656 14.66640625 1.62890625 13.6171875 C1.34088135 12.68503418 1.05285645 11.75288086 0.75610352 10.79248047 C-1.40517241 2.81034483 -1.40517241 2.81034483 0 0 Z " fill="#4F4646" transform="translate(104,615)"/>
<path d="M0 0 C2.13652392 3.59964001 2.6541295 7.10577328 3.2890625 11.21484375 C3.39721283 11.90759903 3.50536316 12.60035431 3.61679077 13.31410217 C3.84343099 14.77523344 4.06680399 16.23687478 4.28710938 17.69897461 C4.62350311 19.92758313 4.97105725 22.15423416 5.3203125 24.38085938 C7.14898493 36.2466983 7.14898493 36.2466983 7 41 C6.01 41.495 6.01 41.495 5 42 C3.52252629 32.38657104 2.0485315 22.7729767 0.8125 13.125 C0.65394531 11.89007813 0.49539062 10.65515625 0.33203125 9.3828125 C0.02232072 6.22740878 -0.06296758 3.16775368 0 0 Z " fill="#343131" transform="translate(22,117)"/>
<path d="M0 0 C6.93 0 13.86 0 21 0 C21.845625 2.743125 22.69125 5.48625 23.5625 8.3125 C23.83263916 9.17270752 24.10277832 10.03291504 24.38110352 10.91918945 C24.58662842 11.60198975 24.79215332 12.28479004 25.00390625 12.98828125 C25.32597046 14.03302612 25.32597046 14.03302612 25.65454102 15.09887695 C26 17 26 17 25 20 C22.88565935 16.82848903 21.98044063 14.13567139 20.875 10.5 C20.52179688 9.3553125 20.16859375 8.210625 19.8046875 7.03125 C19 4 19 4 19 1 C12.73 1 6.46 1 0 1 C0 0.67 0 0.34 0 0 Z " fill="#1D1919" transform="translate(107,594)"/>
<path d="M0 0 C2.97 0 5.94 0 9 0 C9 4.29 9 8.58 9 13 C8.01 13.495 8.01 13.495 7 14 C7 10.04 7 6.08 7 2 C4.69 2 2.38 2 0 2 C0 1.34 0 0.68 0 0 Z " fill="#220E0E" transform="translate(211,38)"/>
<path d="M0 0 C0.66 0 1.32 0 2 0 C2.53251766 1.91345327 3.05059483 3.8309295 3.5625 5.75 C3.85253906 6.81734375 4.14257812 7.8846875 4.44140625 8.984375 C4.97098494 11.84335927 4.98370862 13.31597383 4 16 C1.76108858 10.54873741 0.52393706 5.86809507 0 0 Z " fill="#333030" transform="translate(112,646)"/>
<path d="M0 0 C2.98479194 4.47718792 4 8.63824093 4 14 C3.34 14 2.68 14 2 14 C1.47061343 12.04396149 0.95173199 10.08507711 0.4375 8.125 C0.14746094 7.03445313 -0.14257812 5.94390625 -0.44140625 4.8203125 C-1 2 -1 2 0 0 Z " fill="#423C3C" transform="translate(109,632)"/>
<path d="M0 0 C0.33 0 0.66 0 1 0 C1.33 3.96 1.66 7.92 2 12 C1.01 12.495 1.01 12.495 0 13 C-0.19658808 11.58456585 -0.38187546 10.16755969 -0.5625 8.75 C-0.66691406 7.96109375 -0.77132813 7.1721875 -0.87890625 6.359375 C-1.00027349 3.99467126 -0.69633257 2.2488963 0 0 Z " fill="#605858" transform="translate(27,146)"/>
<path d="M0 0 C-3.3 0.66 -6.6 1.32 -10 2 C-10.33 1.34 -10.66 0.68 -11 0 C-4.5 -2.25 -4.5 -2.25 0 0 Z " fill="#3C0F0F" transform="translate(261,336)"/>
<path d="M0 0 C-1.62171239 0.38897161 -3.24754925 0.76078298 -4.875 1.125 C-5.77992188 1.33382813 -6.68484375 1.54265625 -7.6171875 1.7578125 C-8.40351563 1.83773438 -9.18984375 1.91765625 -10 2 C-10.66 1.34 -11.32 0.68 -12 0 C-3.96428571 -2.41071429 -3.96428571 -2.41071429 0 0 Z " fill="#3B0E0E" transform="translate(306,324)"/>
<path d="M0 0 C2.12508244 3.18762365 2.5020163 5.26512223 3 9 C2.01 9.495 2.01 9.495 1 10 C0.63720544 8.71073008 0.28503302 7.41846728 -0.0625 6.125 C-0.35833984 5.04605469 -0.35833984 5.04605469 -0.66015625 3.9453125 C-1 2 -1 2 0 0 Z " fill="#4A4040" transform="translate(127,594)"/>
</svg>
