<?xml version="1.0" standalone="no"?>
<!DOCTYPE svg PUBLIC "-//W3C//DTD SVG 20010904//EN"
 "http://www.w3.org/TR/2001/REC-SVG-20010904/DTD/svg10.dtd">
<svg version="1.0" xmlns="http://www.w3.org/2000/svg"
 width="787.000000pt" height="761.000000pt" viewBox="0 0 787.000000 761.000000"
 preserveAspectRatio="xMidYMid meet">

<g transform="translate(0.000000,761.000000) scale(0.100000,-0.100000)"
fill="#000000" stroke="none">
<path d="M3627 7593 c-13 -13 -7 -30 16 -41 l22 -11 -22 0 c-13 -1 -23 -5 -23
-11 0 -15 47 -12 53 3 4 10 6 10 6 0 1 -18 21 -16 21 2 0 8 9 15 20 15 11 0
20 -7 20 -15 0 -11 11 -15 40 -15 41 0 57 19 18 21 -17 1 -19 2 -5 6 9 2 17 8
17 13 0 5 -8 11 -17 13 -14 4 -12 5 5 6 39 2 23 21 -18 21 -29 0 -40 -4 -40
-15 0 -8 -9 -15 -20 -15 -11 0 -20 7 -20 15 0 8 -4 15 -10 15 -5 0 -10 -11
-10 -25 0 -23 -2 -24 -20 -13 -17 10 -18 14 -5 16 8 2 15 8 15 13 0 10 -33 12
-43 2z"/>
<path d="M3830 7559 c0 -21 5 -39 10 -39 6 0 10 5 10 11 0 8 4 8 14 0 17 -14
116 -12 116 3 0 6 5 5 12 -2 18 -18 27 -14 21 11 l-5 22 16 -22 c20 -27 48
-30 67 -7 11 14 13 14 21 0 11 -19 39 -21 56 -4 9 9 12 9 12 0 0 -19 20 -14
20 6 1 16 1 16 14 0 9 -12 27 -18 55 -18 42 0 59 19 19 21 -17 1 -19 2 -5 6 9
2 17 8 17 13 0 5 -8 11 -17 13 -14 4 -12 5 5 6 40 2 23 21 -19 21 -28 0 -46
-6 -55 -17 -13 -17 -13 -17 -14 0 0 19 -20 24 -20 5 0 -9 -3 -9 -12 0 -17 17
-45 15 -56 -4 -8 -14 -10 -14 -21 0 -15 18 -47 21 -56 6 -4 -7 -11 -8 -18 -1
-7 5 -51 9 -99 9 l-88 0 0 -39z m420 -1 c0 -30 -1 -31 -17 -16 -13 14 -14 20
-3 32 18 22 20 20 20 -16z m-380 12 c0 -5 -4 -10 -10 -10 -5 0 -10 5 -10 10 0
6 5 10 10 10 6 0 10 -4 10 -10z m65 0 c-3 -5 -10 -10 -16 -10 -5 0 -9 5 -9 10
0 6 7 10 16 10 8 0 12 -4 9 -10z m65 0 c0 -5 -4 -10 -10 -10 -5 0 -10 5 -10
10 0 6 5 10 10 10 6 0 10 -4 10 -10z m80 -10 c0 -13 -7 -20 -20 -20 -13 0 -20
7 -20 20 0 13 7 20 20 20 13 0 20 -7 20 -20z m80 0 c0 -13 -7 -20 -20 -20 -13
0 -20 7 -20 20 0 13 7 20 20 20 13 0 20 -7 20 -20z m-273 -22 c-3 -8 -6 -5 -6
6 -1 11 2 17 5 13 3 -3 4 -12 1 -19z m50 6 c-3 -3 -12 -4 -19 -1 -8 3 -5 6 6
6 11 1 17 -2 13 -5z"/>
<path d="M4357 7593 c-13 -13 -7 -32 13 -38 27 -9 25 -25 -2 -26 -19 -1 -20
-2 -4 -6 10 -3 23 0 30 7 8 9 6 16 -11 27 -30 20 -29 33 1 33 21 0 25 -5 29
-37 l4 -38 1 37 c1 25 7 38 20 41 9 3 -4 5 -29 6 -25 0 -49 -2 -52 -6z"/>
<path d="M4478 7590 c27 -11 28 -18 4 -28 -17 -7 -17 -8 2 -26 13 -13 18 -15
14 -4 -4 8 -2 21 2 29 11 16 -6 39 -29 38 -11 0 -9 -3 7 -9z"/>
<path d="M4528 7593 c6 -2 18 -2 25 0 6 3 1 5 -13 5 -14 0 -19 -2 -12 -5z"/>
<path d="M4570 7560 c0 -37 2 -40 28 -39 23 2 24 2 5 6 -27 5 -30 20 -5 26 16
4 16 5 0 6 -10 0 -18 8 -18 16 0 10 10 15 34 15 33 0 35 -2 39 -37 l4 -38 1
37 c1 25 7 38 20 41 9 3 -11 5 -45 6 l-63 1 0 -40z"/>
<path d="M3415 7555 c1 -48 10 -52 12 -5 1 22 -2 40 -6 40 -4 0 -7 -16 -6 -35z"/>
<path d="M4520 7560 c0 -6 7 -10 15 -10 8 0 15 2 15 4 0 2 -7 6 -15 10 -8 3
-15 1 -15 -4z"/>
<path d="M3538 7553 c7 -3 16 -2 19 1 4 3 -2 6 -13 5 -11 0 -14 -3 -6 -6z"/>
<path d="M3450 7532 c0 -13 26 -23 45 -16 8 4 15 11 15 16 0 6 -6 5 -15 -2
-12 -10 -18 -10 -30 0 -9 7 -15 8 -15 2z"/>
<path d="M3530 7519 c0 -5 9 -9 20 -9 11 0 20 2 20 4 0 2 -9 6 -20 9 -11 3
-20 1 -20 -4z"/>
<path d="M4528 7523 c6 -2 18 -2 25 0 6 3 1 5 -13 5 -14 0 -19 -2 -12 -5z"/>
<path d="M1350 7148 c0 -62 -4 -119 -9 -127 -7 -11 -80 -13 -435 -9 l-426 4 0
-1338 0 -1338 618 -2 617 -3 0 -200 0 -200 -81 -3 -82 -3 -6 -342 c-3 -188 -8
-1011 -11 -1829 l-5 -1488 2720 0 2720 0 0 1155 0 1155 -675 0 -675 0 0 1355
0 1355 55 0 55 0 -2 175 -3 176 -155 3 c-85 2 -334 4 -552 5 l-398 1 0 245 0
245 -225 0 -225 0 0 220 0 220 -225 0 -225 0 0 230 0 230 -235 0 -235 0 0 110
0 110 -950 0 -950 0 0 -112z m1868 -150 l-3 -233 -112 -3 c-159 -4 -145 -22
17 -22 l130 0 0 140 0 140 223 -2 222 -3 3 -232 2 -233 225 0 225 0 0 -470 0
-470 -222 -2 -223 -3 -3 -157 -3 -158 286 0 c247 0 285 2 285 15 0 11 -12 15
-50 15 l-50 0 0 50 c0 28 -4 50 -10 50 -5 0 -10 -22 -10 -50 l0 -50 -210 0
-210 0 0 130 0 130 220 0 220 0 2 263 3 262 210 0 210 0 1 -240 1 -240 96 -3
97 -3 0 -149 0 -150 -200 0 c-171 0 -200 -2 -200 -15 0 -12 14 -15 65 -15 l65
0 0 -270 0 -270 410 0 c263 0 410 4 410 10 0 6 -144 11 -397 12 l-398 3 -3
258 -2 257 385 0 385 0 0 -200 c0 -171 2 -200 15 -200 13 0 15 31 15 215 l0
215 -50 0 -50 0 0 150 0 150 228 -2 227 -3 3 -147 3 -148 -56 0 -55 0 0 -1700
c0 -1504 2 -1700 15 -1700 13 0 15 42 15 320 l0 320 30 0 30 0 2 -247 c1 -137
3 -229 5 -205 l4 43 115 -2 c63 -1 118 1 121 5 4 3 -48 6 -115 6 -102 0 -122
2 -122 15 0 12 21 15 123 17 l122 2 -122 3 c-100 3 -123 6 -123 18 0 12 21 15
122 15 67 0 119 3 115 6 -3 4 -58 6 -122 5 -111 -2 -115 -1 -115 19 0 20 4 21
115 19 64 -1 119 1 122 5 4 3 -48 6 -115 6 -102 0 -122 2 -122 15 0 12 21 15
118 17 l117 2 -117 3 -118 4 0 115 0 115 118 -3 117 -3 -3 -102 -3 -103 96 0
95 0 1 -97 c0 -54 3 -92 6 -85 7 17 309 17 316 0 3 -7 6 31 6 85 l1 97 90 0
90 0 0 -140 0 -141 -350 3 c-193 2 -350 0 -350 -4 0 -5 159 -8 354 -8 l355 0
3 43 3 42 115 0 115 0 6 -40 c3 -22 7 71 8 208 l1 247 30 0 30 0 0 -1130 0
-1130 -660 0 -660 0 0 370 0 370 600 0 600 0 0 226 c0 176 -3 225 -12 222 -10
-4 -14 -57 -16 -211 l-2 -207 -285 0 -285 0 0 200 0 200 215 0 c184 0 215 2
215 15 0 13 -54 15 -425 15 -371 0 -425 -2 -425 -15 0 -13 28 -15 195 -15
l195 0 0 -200 0 -200 -285 0 -285 0 -2 207 c-2 154 -6 207 -15 211 -10 3 -13
-120 -13 -592 l0 -596 -170 0 -170 0 0 85 c0 69 -3 85 -15 85 -12 0 -15 -16
-15 -85 l0 -85 -380 0 -380 0 0 220 0 220 380 0 380 0 0 -75 c0 -60 3 -75 15
-75 12 0 15 15 15 75 l0 75 50 0 50 0 0 80 c0 64 -3 80 -15 80 -12 0 -15 -14
-15 -65 l0 -65 -360 0 -360 0 0 50 c0 28 -4 50 -10 50 -5 0 -10 -22 -10 -50
l0 -50 -70 0 -70 0 0 -235 0 -235 -760 0 -760 0 0 285 c0 247 -2 285 -15 285
-13 0 -15 -38 -15 -285 l0 -285 -355 0 -355 0 0 70 0 69 77 3 c50 2 78 7 81
16 3 9 -20 12 -92 12 l-96 0 0 -85 0 -85 -295 0 -295 0 0 155 0 155 391 0
c308 0 390 3 387 13 -4 9 -93 13 -392 15 l-387 2 7 1623 c3 892 7 1628 10
1635 2 8 28 12 84 12 l80 0 0 230 0 230 -615 0 -615 0 0 1310 0 1310 418 -2
417 -3 3 -127 3 -128 129 0 c109 0 130 2 130 15 0 12 -20 15 -119 15 l-120 0
0 235 0 235 925 0 924 0 -2 -232z m1622 -1448 c0 -63 -2 -70 -20 -70 -18 0
-20 7 -20 70 0 63 2 70 20 70 18 0 20 -7 20 -70z m50 0 c0 -63 -2 -70 -20 -70
-18 0 -20 7 -20 70 0 63 2 70 20 70 18 0 20 -7 20 -70z m60 0 c0 -68 -1 -70
-25 -70 -24 0 -25 2 -25 70 0 68 1 70 25 70 24 0 25 -2 25 -70z m50 0 c0 -63
-2 -70 -20 -70 -18 0 -20 7 -20 70 0 63 2 70 20 70 18 0 20 -7 20 -70z m50 0
c0 -63 -2 -70 -20 -70 -18 0 -20 7 -20 70 0 63 2 70 20 70 18 0 20 -7 20 -70z
m50 0 c0 -63 -2 -70 -20 -70 -18 0 -20 7 -20 70 0 63 2 70 20 70 18 0 20 -7
20 -70z m60 0 c0 -68 -1 -70 -25 -70 -24 0 -25 2 -25 70 0 68 1 70 25 70 24 0
25 -2 25 -70z m50 0 c0 -63 -2 -70 -20 -70 -18 0 -20 7 -20 70 0 63 2 70 20
70 18 0 20 -7 20 -70z m-370 -155 c0 -68 -2 -75 -20 -75 -18 0 -20 7 -20 75 0
68 2 75 20 75 18 0 20 -7 20 -75z m50 0 c0 -68 -2 -75 -20 -75 -18 0 -20 7
-20 68 0 71 4 82 27 82 10 0 13 -19 13 -75z m58 -3 c3 -71 3 -72 -23 -72 -24
0 -25 2 -25 68 0 72 4 85 30 80 11 -3 16 -20 18 -76z m52 3 c0 -68 -2 -75 -20
-75 -18 0 -20 7 -20 75 0 68 2 75 20 75 18 0 20 -7 20 -75z m50 0 c0 -68 -2
-75 -20 -75 -18 0 -20 7 -20 75 0 68 2 75 20 75 18 0 20 -7 20 -75z m50 0 c0
-68 -2 -75 -20 -75 -18 0 -20 7 -20 75 0 68 2 75 20 75 18 0 20 -7 20 -75z
m58 -3 c3 -71 3 -72 -23 -72 -24 0 -25 2 -25 68 0 72 4 85 30 80 11 -3 16 -20
18 -76z m52 3 c0 -68 -2 -75 -20 -75 -18 0 -20 7 -20 75 0 68 2 75 20 75 18 0
20 -7 20 -75z m760 -2935 c0 -80 -3 -100 -14 -100 -24 0 -26 13 -19 109 4 67
10 91 19 91 11 0 14 -23 14 -100z m40 0 c0 -82 -3 -100 -15 -100 -12 0 -15 18
-15 100 0 82 3 100 15 100 12 0 15 -18 15 -100z m45 -1 c0 -81 -2 -94 -17 -97
-16 -3 -18 6 -18 91 0 51 3 97 7 101 20 20 28 -7 28 -95z m45 1 c0 -82 -3
-100 -15 -100 -12 0 -15 18 -15 100 0 82 3 100 15 100 12 0 15 -18 15 -100z
m340 11 c0 -49 -3 -103 -6 -120 l-6 -31 -153 0 -152 0 -7 31 c-3 17 -6 71 -6
120 l0 89 165 0 165 0 0 -89z m44 71 c-1 -7 -2 -50 -2 -97 -2 -68 -5 -85 -17
-85 -12 0 -15 17 -15 93 0 52 3 97 7 101 10 9 28 1 27 -12z m44 -86 c2 -89 1
-97 -15 -94 -15 3 -19 15 -21 68 -4 80 5 133 21 127 8 -2 13 -37 15 -101z m42
4 c0 -82 -3 -100 -15 -100 -12 0 -15 18 -15 100 0 82 3 100 15 100 12 0 15
-18 15 -100z m298 -17 l3 -113 -121 0 c-114 0 -120 1 -120 20 0 17 -5 19 -25
14 l-25 -6 0 94 c0 52 2 97 6 100 3 3 67 5 142 4 l137 -1 3 -112z m2 -138 c0
-12 -20 -15 -120 -15 -100 0 -120 3 -120 15 0 13 20 15 120 15 100 0 120 -2
120 -15z m-442 -12 c-3 -16 -20 -18 -156 -21 -147 -2 -152 -2 -152 18 0 19 6
20 156 20 143 0 155 -1 152 -17z m440 -35 c3 -16 -8 -18 -117 -18 -94 0 -121
3 -121 13 0 25 14 28 124 25 96 -3 111 -5 114 -20z m-438 -13 c0 -13 -24 -15
-155 -15 -131 0 -155 2 -155 15 0 13 24 15 155 15 131 0 155 -2 155 -15z m440
-30 c0 -12 -20 -15 -120 -15 -100 0 -120 3 -120 15 0 13 20 15 120 15 100 0
120 -2 120 -15z m-440 -10 c0 -13 -24 -15 -155 -15 -131 0 -155 2 -155 15 0
13 24 15 155 15 131 0 155 -2 155 -15z m440 -30 c0 -12 -20 -15 -120 -15 -100
0 -120 3 -120 15 0 13 20 15 120 15 100 0 120 -2 120 -15z"/>
<path d="M1851 7038 c-1 -24 -5 -27 -43 -31 l-43 -4 43 -1 c36 -2 42 -5 43
-24 l2 -23 4 23 c4 18 11 22 43 22 32 0 39 -4 43 -22 l4 -23 2 23 c1 21 5 22
80 22 75 0 80 -1 84 -22 l4 -23 2 22 c1 19 8 22 49 26 l47 3 -47 2 c-43 2 -47
4 -51 30 l-4 27 -2 -27 -1 -28 -79 0 c-79 0 -80 0 -84 28 l-4 27 -2 -27 c-1
-26 -4 -28 -40 -28 -36 0 -40 3 -44 28 l-4 27 -2 -27z"/>
<path d="M2441 7038 c-1 -24 -5 -27 -43 -31 l-43 -4 42 -1 c37 -2 42 -5 46
-29 l4 -28 2 28 1 27 79 0 c79 0 80 0 84 -27 l4 -28 2 28 c1 25 4 27 40 27 36
0 40 -3 44 -27 l4 -28 2 27 c1 24 5 27 44 31 l42 4 -42 1 c-37 2 -42 5 -46 30
l-4 27 -2 -27 c-1 -26 -4 -28 -40 -28 -36 0 -40 3 -44 28 l-4 27 -2 -27 -1
-28 -79 0 c-79 0 -80 0 -84 28 l-4 27 -2 -27z"/>
<path d="M640 6853 c1 -58 3 -73 11 -61 5 10 9 24 8 30 -3 27 2 35 28 47 20 9
29 9 31 2 2 -6 10 -18 18 -25 12 -13 11 -15 -8 -18 -18 -2 -22 -9 -20 -29 1
-15 -5 -32 -14 -40 -16 -13 -17 -11 -11 16 l7 30 -20 -25 c-11 -14 -27 -32
-35 -41 -8 -9 -15 -19 -15 -22 0 -14 96 -7 118 9 20 14 22 23 22 110 l0 94
-60 0 -60 0 0 -77z m97 31 c-9 -9 -28 6 -21 18 4 6 10 6 17 -1 6 -6 8 -13 4
-17z"/>
<path d="M560 6881 c-16 -31 -13 -51 8 -45 16 5 16 5 0 -6 -10 -6 -18 -23 -18
-37 0 -20 4 -24 18 -19 16 6 16 5 0 -8 -22 -16 -23 -26 -3 -26 23 0 45 43 51
101 5 48 4 52 -10 40 -15 -12 -20 -8 -17 12 2 15 -19 6 -29 -12z"/>
<path d="M1040 6580 c0 -20 7 -20 385 -20 378 0 385 0 385 20 0 20 -7 20 -385
20 -378 0 -385 0 -385 -20z"/>
<path d="M2092 6583 c3 -17 30 -18 388 -18 358 0 385 1 388 18 3 16 -21 17
-388 17 -367 0 -391 -1 -388 -17z"/>
<path d="M722 6463 c-2 -37 -5 -42 -29 -46 l-28 -4 28 -2 27 -1 0 -79 c0 -79
0 -80 -27 -84 l-28 -4 28 -2 c25 -1 27 -4 27 -40 0 -36 -3 -40 -27 -44 l-28
-4 27 -2 c24 -1 27 -5 31 -43 l4 -43 1 42 c2 37 5 42 30 46 l27 4 -27 2 c-26
1 -28 4 -28 40 0 36 3 40 28 44 l27 4 -27 2 -28 1 0 79 c0 79 0 80 28 84 l27
4 -27 2 c-24 1 -27 5 -31 44 l-4 42 -1 -42z"/>
<path d="M2090 6430 c0 -20 7 -20 390 -20 383 0 390 0 390 20 0 20 -7 20 -390
20 -383 0 -390 0 -390 -20z"/>
<path d="M1040 6420 c0 -20 7 -20 385 -20 378 0 385 0 385 20 0 20 -7 20 -385
20 -378 0 -385 0 -385 -20z"/>
<path d="M3686 6332 c-2 -4 4 -8 14 -8 10 0 16 4 14 8 -3 4 -9 8 -14 8 -5 0
-11 -4 -14 -8z"/>
<path d="M3876 6332 c-2 -4 4 -8 14 -8 10 0 16 4 14 8 -3 4 -9 8 -14 8 -5 0
-11 -4 -14 -8z"/>
<path d="M3966 6332 c-2 -4 4 -8 14 -8 10 0 16 4 14 8 -3 4 -9 8 -14 8 -5 0
-11 -4 -14 -8z"/>
<path d="M3580 6300 c0 -5 14 -10 30 -10 17 0 30 5 30 10 0 6 -13 10 -30 10
-16 0 -30 -4 -30 -10z"/>
<path d="M3670 6300 c0 -5 14 -10 30 -10 17 0 30 5 30 10 0 6 -13 10 -30 10
-16 0 -30 -4 -30 -10z"/>
<path d="M3760 6300 c0 -5 13 -10 29 -10 17 0 33 5 36 10 4 6 -8 10 -29 10
-20 0 -36 -4 -36 -10z"/>
<path d="M3855 6300 c3 -5 19 -10 36 -10 16 0 29 5 29 10 0 6 -16 10 -36 10
-21 0 -33 -4 -29 -10z"/>
<path d="M3950 6300 c0 -5 14 -10 30 -10 17 0 30 5 30 10 0 6 -13 10 -30 10
-16 0 -30 -4 -30 -10z"/>
<path d="M1040 6270 c0 -20 7 -20 385 -20 378 0 385 0 385 20 0 20 -7 20 -385
20 -378 0 -385 0 -385 -20z"/>
<path d="M2090 6270 c0 -20 7 -20 390 -20 383 0 390 0 390 20 0 20 -7 20 -390
20 -383 0 -390 0 -390 -20z"/>
<path d="M3588 6233 c12 -2 30 -2 40 0 9 3 -1 5 -23 4 -22 0 -30 -2 -17 -4z"/>
<path d="M3688 6233 c12 -2 30 -2 40 0 9 3 -1 5 -23 4 -22 0 -30 -2 -17 -4z"/>
<path d="M3778 6233 c12 -2 30 -2 40 0 9 3 -1 5 -23 4 -22 0 -30 -2 -17 -4z"/>
<path d="M3868 6233 c12 -2 30 -2 40 0 9 3 -1 5 -23 4 -22 0 -30 -2 -17 -4z"/>
<path d="M3958 6233 c12 -2 30 -2 40 0 9 3 -1 5 -23 4 -22 0 -30 -2 -17 -4z"/>
<path d="M1040 6110 c0 -20 7 -20 385 -20 378 0 385 0 385 20 0 20 -7 20 -385
20 -378 0 -385 0 -385 -20z"/>
<path d="M2092 6113 c3 -17 30 -18 388 -18 358 0 385 1 388 18 3 16 -21 17
-388 17 -367 0 -391 -1 -388 -17z"/>
<path d="M3588 6103 c12 -2 30 -2 40 0 9 3 -1 5 -23 4 -22 0 -30 -2 -17 -4z"/>
<path d="M3688 6103 c12 -2 30 -2 40 0 9 3 -1 5 -23 4 -22 0 -30 -2 -17 -4z"/>
<path d="M3778 6103 c12 -2 30 -2 40 0 9 3 -1 5 -23 4 -22 0 -30 -2 -17 -4z"/>
<path d="M3868 6103 c12 -2 30 -2 40 0 9 3 -1 5 -23 4 -22 0 -30 -2 -17 -4z"/>
<path d="M3958 6103 c12 -2 30 -2 40 0 9 3 -1 5 -23 4 -22 0 -30 -2 -17 -4z"/>
<path d="M3580 6040 c0 -5 14 -10 30 -10 17 0 30 5 30 10 0 6 -13 10 -30 10
-16 0 -30 -4 -30 -10z"/>
<path d="M3670 6040 c0 -5 14 -10 30 -10 17 0 30 5 30 10 0 6 -13 10 -30 10
-16 0 -30 -4 -30 -10z"/>
<path d="M3760 6040 c0 -5 13 -10 29 -10 17 0 33 5 36 10 4 6 -8 10 -29 10
-20 0 -36 -4 -36 -10z"/>
<path d="M3855 6040 c3 -5 19 -10 36 -10 16 0 29 5 29 10 0 6 -16 10 -36 10
-21 0 -33 -4 -29 -10z"/>
<path d="M3950 6040 c0 -5 14 -10 30 -10 17 0 30 5 30 10 0 6 -13 10 -30 10
-16 0 -30 -4 -30 -10z"/>
<path d="M2090 5960 c0 -20 7 -20 390 -20 383 0 390 0 390 20 0 20 -7 20 -390
20 -383 0 -390 0 -390 -20z"/>
<path d="M1040 5950 c0 -20 7 -20 385 -20 378 0 385 0 385 20 0 20 -7 20 -385
20 -378 0 -385 0 -385 -20z"/>
<path d="M3686 5942 c-2 -4 4 -8 14 -8 10 0 16 4 14 8 -3 4 -9 8 -14 8 -5 0
-11 -4 -14 -8z"/>
<path d="M3876 5942 c-2 -4 4 -8 14 -8 10 0 16 4 14 8 -3 4 -9 8 -14 8 -5 0
-11 -4 -14 -8z"/>
<path d="M3966 5942 c-2 -4 4 -8 14 -8 10 0 16 4 14 8 -3 4 -9 8 -14 8 -5 0
-11 -4 -14 -8z"/>
<path d="M3580 5910 c0 -5 14 -10 30 -10 17 0 30 5 30 10 0 6 -13 10 -30 10
-16 0 -30 -4 -30 -10z"/>
<path d="M3670 5910 c0 -5 14 -10 30 -10 17 0 30 5 30 10 0 6 -13 10 -30 10
-16 0 -30 -4 -30 -10z"/>
<path d="M3760 5910 c0 -5 13 -10 29 -10 17 0 33 5 36 10 4 6 -8 10 -29 10
-20 0 -36 -4 -36 -10z"/>
<path d="M3860 5910 c0 -5 14 -10 30 -10 17 0 30 5 30 10 0 6 -13 10 -30 10
-16 0 -30 -4 -30 -10z"/>
<path d="M3950 5910 c0 -5 14 -10 30 -10 17 0 30 5 30 10 0 6 -13 10 -30 10
-16 0 -30 -4 -30 -10z"/>
<path d="M722 5768 c-2 -86 -2 -87 -29 -91 l-28 -4 28 -2 c25 -1 27 -4 27 -40
0 -36 -3 -40 -27 -44 l-28 -4 27 -2 c27 -1 27 -1 31 -88 l3 -88 2 87 c2 81 3
87 25 91 l22 4 -22 2 c-20 1 -23 7 -23 40 0 33 4 40 23 44 l22 4 -22 2 c-21 1
-22 6 -26 89 l-3 87 -2 -87z"/>
<path d="M3593 5843 c9 -2 25 -2 35 0 9 3 1 5 -18 5 -19 0 -27 -2 -17 -5z"/>
<path d="M3688 5843 c12 -2 30 -2 40 0 9 3 -1 5 -23 4 -22 0 -30 -2 -17 -4z"/>
<path d="M3778 5843 c12 -2 30 -2 40 0 9 3 -1 5 -23 4 -22 0 -30 -2 -17 -4z"/>
<path d="M3868 5843 c12 -2 30 -2 40 0 9 3 -1 5 -23 4 -22 0 -30 -2 -17 -4z"/>
<path d="M3958 5843 c12 -2 30 -2 40 0 9 3 -1 5 -23 4 -22 0 -30 -2 -17 -4z"/>
<path d="M774 5800 c0 -13 4 -16 10 -10 7 7 7 13 0 20 -6 6 -10 3 -10 -10z"/>
<path d="M1040 5800 c0 -20 7 -20 385 -20 378 0 385 0 385 20 0 20 -7 20 -385
20 -378 0 -385 0 -385 -20z"/>
<path d="M2090 5800 c0 -20 7 -20 390 -20 383 0 390 0 390 20 0 20 -7 20 -390
20 -383 0 -390 0 -390 -20z"/>
<path d="M1040 5640 c0 -20 7 -20 385 -20 378 0 385 0 385 20 0 20 -7 20 -385
20 -378 0 -385 0 -385 -20z"/>
<path d="M2092 5643 c3 -17 30 -18 388 -18 358 0 385 1 388 18 3 16 -21 17
-388 17 -367 0 -391 -1 -388 -17z"/>
<path d="M774 5630 c0 -13 4 -16 10 -10 7 7 7 13 0 20 -6 6 -10 3 -10 -10z"/>
<path d="M5467 5573 c-4 -3 -7 -38 -7 -76 0 -60 2 -68 15 -57 9 8 13 21 9 37
-5 20 -1 26 25 36 17 6 31 17 31 24 0 7 4 13 10 13 5 0 7 -13 4 -30 -5 -23 -3
-30 10 -30 12 0 16 10 16 45 l0 45 -53 0 c-30 0 -57 -3 -60 -7z"/>
<path d="M5386 5528 c-9 -12 -16 -31 -16 -41 0 -15 4 -16 23 -7 l22 11 -22
-17 c-28 -20 -32 -66 -5 -58 15 5 14 3 -2 -10 -11 -9 -17 -19 -13 -22 10 -11
57 25 58 44 2 28 7 56 14 78 6 19 4 21 -22 16 -25 -5 -27 -4 -14 11 8 10 9 17
3 17 -6 0 -18 -10 -26 -22z"/>
<path d="M3920 5450 l0 -90 60 0 60 0 0 90 0 90 -60 0 -60 0 0 -90z m108 -12
l3 -68 -51 0 -50 0 0 71 0 70 48 -3 47 -3 3 -67z"/>
<path d="M3963 5471 c-15 -23 -6 -91 12 -91 17 0 29 68 16 84 -6 7 -8 16 -4
19 3 4 2 7 -3 7 -5 0 -15 -9 -21 -19z"/>
<path d="M4703 5515 c-8 -22 0 -27 28 -16 18 7 20 10 6 10 -10 1 -15 6 -12 11
3 6 1 10 -5 10 -6 0 -13 -7 -17 -15z"/>
<path d="M2090 5490 c0 -20 7 -20 390 -20 383 0 390 0 390 20 0 20 -7 20 -390
20 -383 0 -390 0 -390 -20z"/>
<path d="M1040 5480 c0 -20 7 -20 385 -20 378 0 385 0 385 20 0 20 -7 20 -385
20 -378 0 -385 0 -385 -20z"/>
<path d="M654 5469 c-3 -6 -2 -15 3 -20 5 -5 9 -1 9 11 0 23 -2 24 -12 9z"/>
<path d="M5530 5443 c0 -17 -4 -35 -10 -38 -6 -4 -10 6 -10 22 -1 26 -1 26
-12 8 -6 -11 -22 -32 -36 -47 l-26 -28 60 0 c33 0 65 5 72 12 7 7 12 32 12 58
0 41 -2 45 -25 45 -21 0 -25 -5 -25 -32z"/>
<path d="M4715 5450 c-16 -7 -17 -9 -3 -9 9 -1 18 -7 21 -13 3 -10 7 -10 17
-1 7 6 9 16 6 22 -8 13 -14 13 -41 1z"/>
<path d="M1040 5330 c0 -20 7 -20 385 -20 378 0 385 0 385 20 0 20 -7 20 -385
20 -378 0 -385 0 -385 -20z"/>
<path d="M2090 5330 c0 -20 7 -20 390 -20 383 0 390 0 390 20 0 20 -7 20 -390
20 -383 0 -390 0 -390 -20z"/>
<path d="M1040 5170 c0 -20 7 -20 385 -20 378 0 385 0 385 20 0 20 -7 20 -385
20 -378 0 -385 0 -385 -20z"/>
<path d="M2092 5173 c3 -17 30 -18 388 -18 358 0 385 1 388 18 3 16 -21 17
-388 17 -367 0 -391 -1 -388 -17z"/>
<path d="M722 5118 c-2 -43 -4 -47 -29 -51 l-28 -4 28 -2 27 -1 0 -79 c0 -79
0 -80 -27 -84 l-28 -4 28 -2 c25 -1 27 -4 27 -40 0 -36 -3 -40 -27 -44 l-28
-4 27 -2 c24 -1 27 -5 31 -43 l4 -43 1 42 c2 35 6 42 25 46 l22 4 -22 2 c-20
1 -23 7 -23 40 0 33 4 40 23 44 l22 4 -22 2 c-22 1 -23 5 -23 80 0 75 1 80 23
84 l22 4 -22 2 c-19 1 -22 8 -26 49 l-3 47 -2 -47z"/>
<path d="M774 5110 c0 -13 4 -16 10 -10 7 7 7 13 0 20 -6 6 -10 3 -10 -10z"/>
<path d="M655 5029 c-4 -6 -5 -12 -2 -15 2 -3 7 2 10 11 7 17 1 20 -8 4z"/>
<path d="M774 5020 c0 -13 4 -16 10 -10 7 7 7 13 0 20 -6 6 -10 3 -10 -10z"/>
<path d="M2090 5020 c0 -20 7 -20 390 -20 383 0 390 0 390 20 0 20 -7 20 -390
20 -383 0 -390 0 -390 -20z"/>
<path d="M3120 5020 c0 -20 7 -20 390 -20 383 0 390 0 390 20 0 20 -7 20 -390
20 -383 0 -390 0 -390 -20z"/>
<path d="M1040 5010 c0 -20 7 -20 385 -20 378 0 385 0 385 20 0 20 -7 20 -385
20 -378 0 -385 0 -385 -20z"/>
<path d="M774 4940 c0 -13 4 -16 10 -10 7 7 7 13 0 20 -6 6 -10 3 -10 -10z"/>
<path d="M1040 4860 c0 -20 7 -20 385 -20 378 0 385 0 385 20 0 20 -7 20 -385
20 -378 0 -385 0 -385 -20z"/>
<path d="M2090 4860 c0 -20 7 -20 390 -20 383 0 390 0 390 20 0 20 -7 20 -390
20 -383 0 -390 0 -390 -20z"/>
<path d="M3120 4860 c0 -20 7 -20 390 -20 383 0 390 0 390 20 0 20 -7 20 -390
20 -383 0 -390 0 -390 -20z"/>
<path d="M655 4859 c-4 -6 -5 -12 -2 -15 2 -3 7 2 10 11 7 17 1 20 -8 4z"/>
<path d="M774 4850 c0 -13 4 -16 10 -10 7 7 7 13 0 20 -6 6 -10 3 -10 -10z"/>
<path d="M650 4771 c0 -6 4 -13 10 -16 6 -3 7 1 4 9 -7 18 -14 21 -14 7z"/>
<path d="M1040 4700 c0 -20 7 -20 385 -20 378 0 385 0 385 20 0 20 -7 20 -385
20 -378 0 -385 0 -385 -20z"/>
<path d="M2092 4703 c3 -17 30 -18 388 -18 358 0 385 1 388 18 3 16 -21 17
-388 17 -367 0 -391 -1 -388 -17z"/>
<path d="M3120 4700 c0 -20 7 -20 390 -20 383 0 390 0 390 20 0 20 -7 20 -390
20 -383 0 -390 0 -390 -20z"/>
<path d="M4932 4613 c12 -15 68 -18 68 -4 0 5 -18 11 -39 13 -31 3 -37 1 -29
-9z"/>
<path d="M2405 4595 c-52 -51 -17 -135 57 -135 34 0 78 39 78 70 0 77 -84 117
-135 65z m45 -53 c0 -35 6 -41 31 -35 16 5 18 8 7 14 -11 7 -10 11 2 19 13 8
12 10 -2 10 -10 0 -18 5 -18 11 0 6 10 9 23 7 18 -2 22 -9 22 -38 l0 -35 -52
-3 c-32 -2 -53 1 -53 7 0 6 5 11 10 11 6 0 10 9 10 20 0 11 -4 20 -10 20 -5 0
-10 5 -10 10 0 6 9 10 20 10 15 0 20 -7 20 -28z"/>
<path d="M4750 4610 c0 -5 13 -10 29 -10 17 0 33 5 36 10 4 6 -8 10 -29 10
-20 0 -36 -4 -36 -10z"/>
<path d="M4845 4610 c3 -5 19 -10 36 -10 16 0 29 5 29 10 0 6 -16 10 -36 10
-21 0 -33 -4 -29 -10z"/>
<path d="M5030 4610 c0 -5 14 -10 30 -10 17 0 30 5 30 10 0 6 -13 10 -30 10
-16 0 -30 -4 -30 -10z"/>
<path d="M5120 4610 c0 -5 13 -10 29 -10 17 0 33 5 36 10 4 6 -8 10 -29 10
-20 0 -36 -4 -36 -10z"/>
<path d="M2090 4550 c0 -19 7 -20 135 -20 128 0 135 1 135 20 0 19 -7 20 -135
20 -128 0 -135 -1 -135 -20z"/>
<path d="M2554 4554 c3 -9 6 -18 6 -20 0 -2 70 -4 155 -4 148 0 155 1 155 20
0 19 -7 20 -161 20 -143 0 -160 -2 -155 -16z"/>
<path d="M3123 4554 c-3 -8 -1 -20 4 -25 5 -5 160 -8 389 -7 371 3 379 3 379
23 0 20 -8 20 -383 23 -341 2 -383 1 -389 -14z"/>
<path d="M1040 4540 c0 -20 7 -20 385 -20 378 0 385 0 385 20 0 20 -7 20 -385
20 -378 0 -385 0 -385 -20z"/>
<path d="M4768 4543 c12 -2 30 -2 40 0 9 3 -1 5 -23 4 -22 0 -30 -2 -17 -4z"/>
<path d="M4858 4543 c12 -2 30 -2 40 0 9 3 -1 5 -23 4 -22 0 -30 -2 -17 -4z"/>
<path d="M4948 4543 c12 -2 30 -2 40 0 9 3 -1 5 -23 4 -22 0 -30 -2 -17 -4z"/>
<path d="M5048 4543 c12 -2 30 -2 40 0 9 3 -1 5 -23 4 -22 0 -30 -2 -17 -4z"/>
<path d="M5138 4543 c12 -2 30 -2 40 0 9 3 -1 5 -23 4 -22 0 -30 -2 -17 -4z"/>
<path d="M4768 4413 c12 -2 30 -2 40 0 9 3 -1 5 -23 4 -22 0 -30 -2 -17 -4z"/>
<path d="M4858 4413 c12 -2 30 -2 40 0 9 3 -1 5 -23 4 -22 0 -30 -2 -17 -4z"/>
<path d="M4948 4413 c12 -2 30 -2 40 0 9 3 -1 5 -23 4 -22 0 -30 -2 -17 -4z"/>
<path d="M5048 4413 c12 -2 30 -2 40 0 9 3 -1 5 -23 4 -22 0 -30 -2 -17 -4z"/>
<path d="M5138 4413 c12 -2 30 -2 40 0 9 3 -1 5 -23 4 -22 0 -30 -2 -17 -4z"/>
<path d="M3127 4403 c-4 -3 -7 -12 -7 -20 0 -11 72 -13 391 -13 366 0 390 1
387 18 -3 16 -31 17 -384 20 -209 1 -383 -1 -387 -5z"/>
<path d="M2090 4370 c0 -20 7 -20 390 -20 383 0 390 0 390 20 0 20 -7 20 -390
20 -383 0 -390 0 -390 -20z"/>
<path d="M4750 4350 c0 -5 13 -10 29 -10 17 0 33 5 36 10 4 6 -8 10 -29 10
-20 0 -36 -4 -36 -10z"/>
<path d="M4845 4350 c3 -5 19 -10 36 -10 16 0 29 5 29 10 0 6 -16 10 -36 10
-21 0 -33 -4 -29 -10z"/>
<path d="M4940 4350 c0 -5 14 -10 30 -10 17 0 30 5 30 10 0 6 -13 10 -30 10
-16 0 -30 -4 -30 -10z"/>
<path d="M5030 4350 c0 -5 14 -10 30 -10 17 0 30 5 30 10 0 6 -13 10 -30 10
-16 0 -30 -4 -30 -10z"/>
<path d="M5120 4350 c0 -5 14 -10 30 -10 17 0 30 5 30 10 0 6 -13 10 -30 10
-16 0 -30 -4 -30 -10z"/>
<path d="M5050 4316 c7 -7 13 -7 20 0 6 6 3 10 -10 10 -13 0 -16 -4 -10 -10z"/>
<path d="M3120 4230 c0 -20 7 -20 390 -20 383 0 390 0 390 20 0 20 -7 20 -390
20 -383 0 -390 0 -390 -20z"/>
<path d="M3974 4226 c-3 -7 -4 -40 -2 -72 l3 -59 48 -3 c39 -3 47 -6 47 -23 0
-10 -7 -19 -15 -19 -8 0 -15 -4 -15 -10 0 -5 22 -10 49 -10 28 0 53 5 56 10 3
6 -3 10 -14 10 -14 0 -21 6 -21 20 0 17 7 20 50 20 l50 0 0 75 0 75 -115 0
c-88 0 -117 -3 -121 -14z m82 -19 c-21 -15 -18 -46 4 -57 8 -4 26 -12 38 -19
29 -15 40 -6 24 19 -7 11 -12 26 -12 34 0 8 -8 20 -17 25 -14 8 -4 10 40 11
l57 0 0 -55 0 -55 -100 0 -100 0 0 55 0 55 42 0 c37 0 40 -2 24 -13z m40 -18
c3 -6 0 -17 -7 -25 -18 -17 -44 -2 -36 20 7 18 33 21 43 5z"/>
<path d="M2090 4210 c0 -20 7 -20 390 -20 383 0 390 0 390 20 0 20 -7 20 -390
20 -383 0 -390 0 -390 -20z"/>
<path d="M4750 4220 c0 -5 13 -10 29 -10 17 0 33 5 36 10 4 6 -8 10 -29 10
-20 0 -36 -4 -36 -10z"/>
<path d="M4845 4220 c3 -5 19 -10 36 -10 16 0 29 5 29 10 0 6 -16 10 -36 10
-21 0 -33 -4 -29 -10z"/>
<path d="M4940 4220 c0 -5 14 -10 30 -10 17 0 30 5 30 10 0 6 -13 10 -30 10
-16 0 -30 -4 -30 -10z"/>
<path d="M5030 4220 c0 -5 14 -10 30 -10 17 0 30 5 30 10 0 6 -13 10 -30 10
-16 0 -30 -4 -30 -10z"/>
<path d="M5120 4220 c0 -5 13 -10 29 -10 17 0 33 5 36 10 4 6 -8 10 -29 10
-20 0 -36 -4 -36 -10z"/>
<path d="M4768 4153 c12 -2 30 -2 40 0 9 3 -1 5 -23 4 -22 0 -30 -2 -17 -4z"/>
<path d="M4858 4153 c12 -2 30 -2 40 0 9 3 -1 5 -23 4 -22 0 -30 -2 -17 -4z"/>
<path d="M4948 4153 c12 -2 30 -2 40 0 9 3 -1 5 -23 4 -22 0 -30 -2 -17 -4z"/>
<path d="M5048 4153 c12 -2 30 -2 40 0 9 3 -1 5 -23 4 -22 0 -30 -2 -17 -4z"/>
<path d="M5138 4153 c12 -2 30 -2 40 0 9 3 -1 5 -23 4 -22 0 -30 -2 -17 -4z"/>
<path d="M3120 4070 c0 -20 7 -20 390 -20 383 0 390 0 390 20 0 20 -7 20 -390
20 -383 0 -390 0 -390 -20z"/>
<path d="M2090 4050 c0 -20 7 -20 390 -20 383 0 390 0 390 20 0 20 -7 20 -390
20 -383 0 -390 0 -390 -20z"/>
<path d="M4932 3953 c12 -15 68 -18 68 -4 0 5 -18 11 -39 13 -31 3 -37 1 -29
-9z"/>
<path d="M4750 3950 c0 -5 13 -10 29 -10 17 0 33 5 36 10 4 6 -8 10 -29 10
-20 0 -36 -4 -36 -10z"/>
<path d="M4845 3950 c3 -5 19 -10 36 -10 16 0 29 5 29 10 0 6 -16 10 -36 10
-21 0 -33 -4 -29 -10z"/>
<path d="M5030 3950 c0 -5 14 -10 30 -10 17 0 30 5 30 10 0 6 -13 10 -30 10
-16 0 -30 -4 -30 -10z"/>
<path d="M5120 3950 c0 -5 14 -10 30 -10 17 0 30 5 30 10 0 6 -13 10 -30 10
-16 0 -30 -4 -30 -10z"/>
<path d="M3120 3910 c0 -20 7 -20 390 -20 383 0 390 0 390 20 0 20 -7 20 -390
20 -383 0 -390 0 -390 -20z"/>
<path d="M2092 3893 c3 -17 30 -18 388 -18 358 0 385 1 388 18 3 16 -21 17
-388 17 -367 0 -391 -1 -388 -17z"/>
<path d="M4768 3883 c12 -2 30 -2 40 0 9 3 -1 5 -23 4 -22 0 -30 -2 -17 -4z"/>
<path d="M4858 3883 c12 -2 30 -2 40 0 9 3 -1 5 -23 4 -22 0 -30 -2 -17 -4z"/>
<path d="M4948 3883 c12 -2 30 -2 40 0 9 3 -1 5 -23 4 -22 0 -30 -2 -17 -4z"/>
<path d="M5043 3883 c9 -2 25 -2 35 0 9 3 1 5 -18 5 -19 0 -27 -2 -17 -5z"/>
<path d="M5138 3883 c12 -2 30 -2 40 0 9 3 -1 5 -23 4 -22 0 -30 -2 -17 -4z"/>
<path d="M3122 3753 c3 -17 30 -18 388 -18 358 0 385 1 388 18 3 16 -21 17
-388 17 -367 0 -391 -1 -388 -17z"/>
<path d="M2093 3744 c-3 -8 -1 -20 4 -25 5 -5 160 -8 389 -7 371 3 379 3 379
23 0 20 -8 20 -383 23 -341 2 -383 1 -389 -14z"/>
<path d="M4768 3753 c12 -2 30 -2 40 0 9 3 -1 5 -23 4 -22 0 -30 -2 -17 -4z"/>
<path d="M4858 3753 c12 -2 30 -2 40 0 9 3 -1 5 -23 4 -22 0 -30 -2 -17 -4z"/>
<path d="M4948 3753 c12 -2 30 -2 40 0 9 3 -1 5 -23 4 -22 0 -30 -2 -17 -4z"/>
<path d="M5043 3753 c9 -2 25 -2 35 0 9 3 1 5 -18 5 -19 0 -27 -2 -17 -5z"/>
<path d="M5138 3753 c12 -2 30 -2 40 0 9 3 -1 5 -23 4 -22 0 -30 -2 -17 -4z"/>
<path d="M4750 3690 c0 -5 13 -10 29 -10 17 0 33 5 36 10 4 6 -8 10 -29 10
-20 0 -36 -4 -36 -10z"/>
<path d="M4845 3690 c3 -5 17 -10 30 -10 13 0 27 5 30 10 4 6 -8 10 -30 10
-22 0 -34 -4 -30 -10z"/>
<path d="M4935 3690 c3 -5 19 -10 36 -10 16 0 29 5 29 10 0 6 -16 10 -36 10
-21 0 -33 -4 -29 -10z"/>
<path d="M5030 3690 c0 -5 14 -10 30 -10 17 0 30 5 30 10 0 6 -13 10 -30 10
-16 0 -30 -4 -30 -10z"/>
<path d="M5120 3690 c0 -5 14 -10 30 -10 17 0 30 5 30 10 0 6 -13 10 -30 10
-16 0 -30 -4 -30 -10z"/>
<path d="M4770 3656 c7 -7 13 -7 20 0 6 6 3 10 -10 10 -13 0 -16 -4 -10 -10z"/>
<path d="M5050 3656 c7 -7 13 -7 20 0 6 6 3 10 -10 10 -13 0 -16 -4 -10 -10z"/>
<path d="M5140 3656 c7 -7 13 -7 20 0 6 6 3 10 -10 10 -13 0 -16 -4 -10 -10z"/>
<path d="M3127 3613 c-4 -3 -7 -12 -7 -20 0 -11 72 -13 391 -13 366 0 390 1
387 18 -3 16 -31 17 -384 20 -209 1 -383 -1 -387 -5z"/>
<path d="M2097 3593 c-4 -3 -7 -12 -7 -20 0 -11 72 -13 391 -13 366 0 390 1
387 18 -3 16 -31 17 -384 20 -209 1 -383 -1 -387 -5z"/>
<path d="M4932 3563 c12 -15 68 -18 68 -4 0 5 -18 11 -39 13 -31 3 -37 1 -29
-9z"/>
<path d="M4750 3560 c0 -5 13 -10 29 -10 17 0 33 5 36 10 4 6 -8 10 -29 10
-20 0 -36 -4 -36 -10z"/>
<path d="M4845 3560 c3 -5 19 -10 36 -10 16 0 29 5 29 10 0 6 -16 10 -36 10
-21 0 -33 -4 -29 -10z"/>
<path d="M5030 3560 c0 -5 14 -10 30 -10 17 0 30 5 30 10 0 6 -13 10 -30 10
-16 0 -30 -4 -30 -10z"/>
<path d="M5120 3560 c0 -5 13 -10 29 -10 17 0 33 5 36 10 4 6 -8 10 -29 10
-20 0 -36 -4 -36 -10z"/>
<path d="M1762 3523 c-2 -35 -6 -42 -24 -46 l-23 -4 23 -2 c19 -1 22 -7 22
-40 0 -33 -4 -40 -22 -44 l-23 -4 23 -2 c21 -1 22 -5 22 -80 0 -75 -1 -80 -22
-84 l-23 -4 22 -2 c19 -1 22 -8 26 -48 l3 -48 2 47 c2 43 4 47 30 51 l27 4
-27 2 -28 1 0 79 c0 79 0 80 28 84 l27 4 -27 2 c-26 1 -28 4 -28 40 0 36 3 40
28 44 l27 4 -27 2 c-24 1 -27 5 -31 44 l-4 42 -1 -42z"/>
<path d="M4768 3493 c12 -2 30 -2 40 0 9 3 -1 5 -23 4 -22 0 -30 -2 -17 -4z"/>
<path d="M4858 3493 c12 -2 30 -2 40 0 9 3 -1 5 -23 4 -22 0 -30 -2 -17 -4z"/>
<path d="M4948 3493 c12 -2 30 -2 40 0 9 3 -1 5 -23 4 -22 0 -30 -2 -17 -4z"/>
<path d="M5048 3493 c12 -2 30 -2 40 0 9 3 -1 5 -23 4 -22 0 -30 -2 -17 -4z"/>
<path d="M5138 3493 c12 -2 30 -2 40 0 9 3 -1 5 -23 4 -22 0 -30 -2 -17 -4z"/>
<path d="M3120 3440 c0 -20 7 -20 390 -20 383 0 390 0 390 20 0 20 -7 20 -390
20 -383 0 -390 0 -390 -20z"/>
<path d="M2090 3420 c0 -20 7 -20 390 -20 383 0 390 0 390 20 0 20 -7 20 -390
20 -383 0 -390 0 -390 -20z"/>
<path d="M3120 3280 c0 -20 7 -20 390 -20 383 0 390 0 390 20 0 20 -7 20 -390
20 -383 0 -390 0 -390 -20z"/>
<path d="M2090 3260 c0 -20 7 -20 390 -20 383 0 390 0 390 20 0 20 -7 20 -390
20 -383 0 -390 0 -390 -20z"/>
<path d="M3120 3120 c0 -20 7 -20 390 -20 383 0 390 0 390 20 0 20 -7 20 -390
20 -383 0 -390 0 -390 -20z"/>
<path d="M2090 3100 c0 -20 7 -20 390 -20 383 0 390 0 390 20 0 20 -7 20 -390
20 -383 0 -390 0 -390 -20z"/>
<path d="M4646 3012 c-2 -4 4 -8 14 -8 10 0 16 4 14 8 -3 4 -9 8 -14 8 -5 0
-11 -4 -14 -8z"/>
<path d="M5016 3012 c-2 -4 4 -8 14 -8 10 0 16 4 14 8 -3 4 -9 8 -14 8 -5 0
-11 -4 -14 -8z"/>
<path d="M5106 3012 c-2 -4 4 -8 14 -8 10 0 16 4 14 8 -3 4 -9 8 -14 8 -5 0
-11 -4 -14 -8z"/>
<path d="M5196 3012 c-2 -4 4 -8 14 -8 10 0 16 4 14 8 -3 4 -9 8 -14 8 -5 0
-11 -4 -14 -8z"/>
<path d="M4630 2980 c0 -5 14 -10 30 -10 17 0 30 5 30 10 0 6 -13 10 -30 10
-16 0 -30 -4 -30 -10z"/>
<path d="M4720 2980 c0 -5 16 -10 36 -10 21 0 33 4 29 10 -3 6 -19 10 -36 10
-16 0 -29 -4 -29 -10z"/>
<path d="M4815 2980 c-4 -6 8 -10 29 -10 20 0 36 5 36 10 0 6 -13 10 -29 10
-17 0 -33 -4 -36 -10z"/>
<path d="M4905 2980 c-4 -6 8 -10 29 -10 20 0 36 5 36 10 0 6 -13 10 -29 10
-17 0 -33 -4 -36 -10z"/>
<path d="M5000 2980 c0 -5 14 -10 30 -10 17 0 30 5 30 10 0 6 -13 10 -30 10
-16 0 -30 -4 -30 -10z"/>
<path d="M3122 2963 c3 -17 30 -18 388 -18 358 0 385 1 388 18 3 16 -21 17
-388 17 -367 0 -391 -1 -388 -17z"/>
<path d="M5108 2973 c12 -2 30 -2 40 0 9 3 -1 5 -23 4 -22 0 -30 -2 -17 -4z"/>
<path d="M5198 2973 c12 -2 30 -2 40 0 9 3 -1 5 -23 4 -22 0 -30 -2 -17 -4z"/>
<path d="M2093 2954 c-3 -8 -1 -20 4 -25 5 -5 160 -8 389 -7 371 3 379 3 379
23 0 20 -8 20 -383 23 -341 2 -383 1 -389 -14z"/>
<path d="M4648 2913 c12 -2 30 -2 40 0 9 3 -1 5 -23 4 -22 0 -30 -2 -17 -4z"/>
<path d="M4738 2913 c12 -2 30 -2 40 0 9 3 -1 5 -23 4 -22 0 -30 -2 -17 -4z"/>
<path d="M4828 2913 c12 -2 30 -2 40 0 9 3 -1 5 -23 4 -22 0 -30 -2 -17 -4z"/>
<path d="M4918 2913 c12 -2 30 -2 40 0 9 3 -1 5 -23 4 -22 0 -30 -2 -17 -4z"/>
<path d="M5008 2913 c12 -2 30 -2 40 0 9 3 -1 5 -23 4 -22 0 -30 -2 -17 -4z"/>
<path d="M5090 2910 c0 -5 14 -10 30 -10 17 0 30 5 30 10 0 6 -13 10 -30 10
-16 0 -30 -4 -30 -10z"/>
<path d="M5180 2910 c0 -5 13 -10 29 -10 17 0 33 5 36 10 4 6 -8 10 -29 10
-20 0 -36 -4 -36 -10z"/>
<path d="M3127 2823 c-4 -3 -7 -12 -7 -20 0 -11 72 -13 391 -13 366 0 390 1
387 18 -3 16 -31 17 -384 20 -209 1 -383 -1 -387 -5z"/>
<path d="M2097 2803 c-4 -3 -7 -12 -7 -20 0 -11 72 -13 391 -13 366 0 390 1
387 18 -3 16 -31 17 -384 20 -209 1 -383 -1 -387 -5z"/>
<path d="M4800 2725 l0 -75 55 0 c52 0 55 -2 55 -24 0 -18 -7 -26 -22 -29 -13
-2 4 -4 37 -4 33 -1 52 1 43 4 -11 3 -18 14 -18 29 0 23 3 24 55 24 l56 0 -3
73 -3 72 -127 3 -128 3 0 -76z m240 0 l0 -65 -110 0 -110 0 0 65 0 65 110 0
110 0 0 -65z"/>
<path d="M1762 2743 c-2 -35 -6 -42 -24 -46 l-23 -4 23 -2 c19 -1 22 -7 22
-40 0 -33 -4 -40 -22 -44 l-23 -4 23 -2 c21 -1 22 -5 22 -80 0 -75 -1 -80 -22
-84 l-23 -4 22 -2 c18 -1 22 -8 26 -43 l4 -43 1 42 c2 37 5 42 30 46 l27 4
-27 2 -28 1 0 79 c0 79 0 80 28 84 l27 4 -27 2 c-26 1 -28 4 -28 40 0 36 3 40
28 44 l27 4 -27 2 c-24 1 -27 5 -31 44 l-4 42 -1 -42z"/>
<path d="M3120 2650 c0 -20 7 -20 390 -20 383 0 390 0 390 20 0 20 -7 20 -390
20 -383 0 -390 0 -390 -20z"/>
<path d="M2090 2630 c0 -20 7 -20 390 -20 383 0 390 0 390 20 0 20 -7 20 -390
20 -383 0 -390 0 -390 -20z"/>
<path d="M2090 2470 c0 -20 7 -20 390 -20 383 0 390 0 390 20 0 20 -7 20 -390
20 -383 0 -390 0 -390 -20z"/>
<path d="M3120 2470 c0 -20 7 -20 390 -20 383 0 390 0 390 20 0 20 -7 20 -390
20 -383 0 -390 0 -390 -20z"/>
<path d="M4630 2470 c0 -5 16 -10 35 -10 19 0 35 5 35 10 0 6 -16 10 -35 10
-19 0 -35 -4 -35 -10z"/>
<path d="M4725 2470 c3 -5 19 -10 36 -10 16 0 29 5 29 10 0 6 -16 10 -36 10
-21 0 -33 -4 -29 -10z"/>
<path d="M4820 2470 c0 -5 14 -10 30 -10 17 0 30 5 30 10 0 6 -13 10 -30 10
-16 0 -30 -4 -30 -10z"/>
<path d="M4910 2470 c0 -5 14 -10 30 -10 17 0 30 5 30 10 0 6 -13 10 -30 10
-16 0 -30 -4 -30 -10z"/>
<path d="M5000 2470 c0 -5 16 -10 36 -10 21 0 33 4 29 10 -3 6 -19 10 -36 10
-16 0 -29 -4 -29 -10z"/>
<path d="M5090 2470 c0 -5 16 -10 35 -10 19 0 35 5 35 10 0 6 -16 10 -35 10
-19 0 -35 -4 -35 -10z"/>
<path d="M5185 2470 c-4 -6 8 -10 29 -10 20 0 36 5 36 10 0 6 -13 10 -29 10
-17 0 -33 -4 -36 -10z"/>
<path d="M4648 2403 c12 -2 30 -2 40 0 9 3 -1 5 -23 4 -22 0 -30 -2 -17 -4z"/>
<path d="M4738 2403 c12 -2 30 -2 40 0 9 3 -1 5 -23 4 -22 0 -30 -2 -17 -4z"/>
<path d="M4828 2403 c12 -2 30 -2 40 0 9 3 -1 5 -23 4 -22 0 -30 -2 -17 -4z"/>
<path d="M4928 2403 c12 -2 30 -2 40 0 9 3 -1 5 -23 4 -22 0 -30 -2 -17 -4z"/>
<path d="M5018 2403 c12 -2 30 -2 40 0 9 3 -1 5 -23 4 -22 0 -30 -2 -17 -4z"/>
<path d="M5108 2403 c12 -2 30 -2 40 0 9 3 -1 5 -23 4 -22 0 -30 -2 -17 -4z"/>
<path d="M5198 2403 c12 -2 30 -2 40 0 9 3 -1 5 -23 4 -22 0 -30 -2 -17 -4z"/>
<path d="M2090 2310 c0 -20 7 -20 390 -20 383 0 390 0 390 20 0 20 -7 20 -390
20 -383 0 -390 0 -390 -20z"/>
<path d="M3120 2310 c0 -20 7 -20 390 -20 383 0 390 0 390 20 0 20 -7 20 -390
20 -383 0 -390 0 -390 -20z"/>
<path d="M4836 2262 c-2 -4 4 -8 14 -8 10 0 16 4 14 8 -3 4 -9 8 -14 8 -5 0
-11 -4 -14 -8z"/>
<path d="M5206 2262 c-2 -4 4 -8 14 -8 10 0 16 4 14 8 -3 4 -9 8 -14 8 -5 0
-11 -4 -14 -8z"/>
<path d="M4635 2230 c-4 -6 8 -10 30 -10 22 0 34 4 30 10 -3 6 -17 10 -30 10
-13 0 -27 -4 -30 -10z"/>
<path d="M4725 2230 c-4 -6 8 -10 29 -10 20 0 36 5 36 10 0 6 -13 10 -29 10
-17 0 -33 -4 -36 -10z"/>
<path d="M4820 2230 c0 -5 14 -10 30 -10 17 0 30 5 30 10 0 6 -13 10 -30 10
-16 0 -30 -4 -30 -10z"/>
<path d="M4910 2230 c0 -5 14 -10 32 -10 36 0 35 4 -4 14 -17 4 -28 2 -28 -4z"/>
<path d="M5018 2223 c12 -2 30 -2 40 0 9 3 -1 5 -23 4 -22 0 -30 -2 -17 -4z"/>
<path d="M5108 2223 c12 -2 30 -2 40 0 9 3 -1 5 -23 4 -22 0 -30 -2 -17 -4z"/>
<path d="M5198 2223 c12 -2 30 -2 40 0 9 3 -1 5 -23 4 -22 0 -30 -2 -17 -4z"/>
<path d="M2092 2153 c3 -17 30 -18 388 -18 358 0 385 1 388 18 3 16 -21 17
-388 17 -367 0 -391 -1 -388 -17z"/>
<path d="M3122 2153 c3 -17 30 -18 388 -18 358 0 385 1 388 18 3 16 -21 17
-388 17 -367 0 -391 -1 -388 -17z"/>
<path d="M4648 2163 c12 -2 30 -2 40 0 9 3 -1 5 -23 4 -22 0 -30 -2 -17 -4z"/>
<path d="M4738 2163 c12 -2 30 -2 40 0 9 3 -1 5 -23 4 -22 0 -30 -2 -17 -4z"/>
<path d="M4828 2163 c12 -2 30 -2 40 0 9 3 -1 5 -23 4 -22 0 -30 -2 -17 -4z"/>
<path d="M4910 2166 c0 -2 14 -6 30 -8 17 -3 30 -1 30 4 0 4 -13 8 -30 8 -16
0 -30 -2 -30 -4z"/>
<path d="M5000 2160 c0 -5 13 -10 29 -10 17 0 33 5 36 10 4 6 -8 10 -29 10
-20 0 -36 -4 -36 -10z"/>
<path d="M5095 2160 c3 -5 17 -10 30 -10 13 0 27 5 30 10 4 6 -8 10 -30 10
-22 0 -34 -4 -30 -10z"/>
<path d="M5185 2160 c3 -5 19 -10 36 -10 16 0 29 5 29 10 0 6 -16 10 -36 10
-21 0 -33 -4 -29 -10z"/>
<path d="M2417 2050 c-33 -26 -41 -63 -23 -99 17 -32 34 -41 77 -41 69 0 97
89 43 138 -31 27 -63 28 -97 2z m33 -38 c0 -39 8 -44 31 -21 23 23 24 29 4 29
-8 0 -15 5 -15 10 0 6 9 10 20 10 29 0 38 -30 15 -46 -17 -13 -17 -14 -2 -14
9 0 17 -4 17 -10 0 -5 -25 -10 -55 -10 -30 0 -55 5 -55 10 0 6 5 10 10 10 6 0
10 9 10 20 0 11 -4 20 -10 20 -5 0 -10 5 -10 10 0 6 9 10 20 10 15 0 20 -7 20
-28z"/>
<path d="M3463 2060 c-45 -18 -58 -95 -23 -130 25 -25 80 -26 109 -2 11 9 24
31 27 49 5 27 1 37 -24 63 -31 31 -51 35 -89 20z m17 -58 c0 -34 7 -43 26 -35
16 6 19 43 4 43 -5 0 -10 5 -10 10 0 6 9 10 20 10 15 0 20 -7 20 -28 0 -15 5
-33 12 -40 9 -9 -2 -12 -50 -12 -60 0 -62 1 -50 20 10 16 10 24 0 40 -11 18
-10 20 8 20 15 0 20 -7 20 -28z"/>
<path d="M2097 2013 c-4 -3 -7 -12 -7 -20 0 -10 30 -13 140 -13 133 0 140 1
140 20 0 19 -7 20 -133 20 -74 0 -137 -3 -140 -7z"/>
<path d="M2560 2000 c0 -19 6 -20 156 -20 143 0 155 1 152 18 -3 15 -20 17
-156 20 -147 2 -152 2 -152 -18z"/>
<path d="M3127 2013 c-4 -3 -7 -12 -7 -20 0 -10 30 -13 140 -13 133 0 140 1
140 20 0 19 -7 20 -133 20 -74 0 -137 -3 -140 -7z"/>
<path d="M3590 2000 c0 -19 6 -20 156 -20 143 0 155 1 152 18 -3 15 -20 17
-156 20 -147 2 -152 2 -152 -18z"/>
<path d="M4184 1785 c-59 -41 -79 -61 -79 -78 0 -21 3 -22 105 -22 101 0 105
1 108 22 3 21 0 22 -89 25 l-92 3 64 44 c79 55 73 50 67 56 -2 3 -40 -20 -84
-50z m126 -75 c0 -6 -40 -10 -101 -10 -64 0 -98 4 -94 10 3 6 48 10 101 10 56
0 94 -4 94 -10z"/>
<path d="M3794 1775 c-6 -44 4 -132 13 -107 3 6 18 12 34 12 16 0 29 -5 29
-12 0 -9 4 -8 10 2 9 13 11 13 20 0 6 -10 10 -11 10 -2 0 6 6 12 14 12 8 0 16
-6 19 -12 9 -25 19 63 13 107 l-7 45 -74 0 -74 0 -7 -45z m76 23 c0 -4 -13 -8
-30 -8 -16 0 -30 4 -30 9 0 5 14 9 30 9 17 -1 30 -5 30 -10z m30 2 c0 -5 -4
-10 -10 -10 -5 0 -10 5 -10 10 0 6 5 10 10 10 6 0 10 -4 10 -10z m40 0 c0 -5
-7 -10 -15 -10 -8 0 -15 5 -15 10 0 6 7 10 15 10 8 0 15 -4 15 -10z"/>
<path d="M6130 1675 l0 -85 35 0 c28 0 35 -4 35 -20 0 -18 7 -20 60 -20 l60 0
0 73 c0 78 -9 97 -46 97 -13 0 -24 8 -27 20 -4 17 -14 20 -61 20 l-56 0 0 -85z
m96 60 c14 -13 13 -15 -5 -15 -12 0 -21 -4 -21 -10 0 -5 -12 -11 -27 -11 -24
-2 -25 -2 -5 -6 13 -3 22 -12 22 -23 0 -11 -9 -20 -22 -23 -19 -4 -18 -5 5 -6
37 -1 34 -36 -3 -36 -23 0 -25 4 -28 59 -2 32 -1 65 2 72 7 19 64 18 82 -1z
m68 -44 c13 -14 16 -33 14 -72 l-3 -54 -47 -3 -48 -3 0 75 0 76 33 0 c21 0 41
-8 51 -19z"/>
<path d="M6238 1643 c12 -2 32 -2 45 0 12 2 2 4 -23 4 -25 0 -35 -2 -22 -4z"/>
<path d="M6238 1623 c12 -2 32 -2 45 0 12 2 2 4 -23 4 -25 0 -35 -2 -22 -4z"/>
<path d="M6238 1603 c12 -2 32 -2 45 0 12 2 2 4 -23 4 -25 0 -35 -2 -22 -4z"/>
<path d="M4233 1743 c15 -2 37 -2 50 0 12 2 0 4 -28 4 -27 0 -38 -2 -22 -4z"/>
<path d="M6003 1657 c-13 -18 -23 -43 -23 -54 0 -26 25 -53 49 -53 20 0 51 30
51 49 0 16 -41 91 -49 91 -3 0 -16 -15 -28 -33z m32 -45 c-35 -4 -39 1 -23 27
l13 22 19 -23 c18 -23 18 -23 -9 -26z m22 -27 c-5 -14 -49 -13 -54 1 -2 7 8
11 27 10 16 -1 28 -5 27 -11z"/>
<path d="M2890 1290 c0 -224 2 -260 15 -260 13 0 15 34 15 250 l0 250 265 0
c170 0 265 4 265 10 0 6 -100 10 -280 10 l-280 0 0 -260z"/>
<path d="M3570 1540 c0 -6 179 -11 503 -12 l502 -3 3 -272 c1 -171 6 -273 12
-273 6 0 10 105 10 285 l0 285 -515 0 c-333 0 -515 -3 -515 -10z"/>
<path d="M4710 1540 c0 -6 108 -10 305 -10 197 0 305 -4 305 -10 0 -5 7 -10
15 -10 8 0 15 9 15 20 0 20 -7 20 -320 20 -207 0 -320 -4 -320 -10z"/>
<path d="M5320 1205 c0 -167 2 -195 15 -195 13 0 15 28 15 195 0 167 -2 195
-15 195 -13 0 -15 -28 -15 -195z"/>
<path d="M6434 1389 c-10 -17 13 -36 27 -22 12 12 4 33 -11 33 -5 0 -12 -5
-16 -11z"/>
<path d="M5785 1380 c-8 -14 3 -30 21 -30 8 0 14 9 14 20 0 21 -24 28 -35 10z"/>
<path d="M6616 1383 c-11 -11 -6 -23 9 -23 8 0 15 4 15 9 0 13 -16 22 -24 14z"/>
<path d="M1684 1346 c-28 -28 -34 -42 -34 -76 0 -52 25 -95 66 -115 44 -21 75
-19 115 8 108 72 60 217 -72 217 -33 0 -47 -6 -75 -34z m129 13 c38 -19 57
-51 57 -97 0 -90 -99 -135 -169 -76 -91 77 6 227 112 173z"/>
<path d="M1735 1351 c-37 -16 -83 -91 -56 -91 6 0 11 6 11 14 0 8 9 24 21 37
l21 24 -16 -25 c-9 -13 -16 -34 -16 -45 1 -15 4 -12 15 12 9 21 23 35 42 40
l28 7 -25 7 c-16 4 -19 7 -7 8 9 1 17 6 17 11 0 12 -8 12 -35 1z"/>
<path d="M1744 1275 c-8 -21 2 -45 19 -45 20 0 40 27 33 45 -7 19 -45 20 -52
0z m36 -10 c0 -8 -7 -15 -15 -15 -16 0 -20 12 -8 23 11 12 23 8 23 -8z"/>
<path d="M1820 1252 c0 -23 -19 -42 -42 -42 -10 0 -18 -4 -18 -10 0 -5 6 -10
13 -10 8 0 7 -4 -3 -10 -12 -8 -11 -10 7 -10 33 0 83 47 82 78 l0 27 -10 -25
c-11 -28 -38 -60 -50 -60 -4 0 3 11 16 25 25 24 33 55 15 55 -5 0 -10 -8 -10
-18z"/>
<path d="M5966 1373 c-11 -11 -6 -23 9 -23 8 0 15 4 15 9 0 13 -16 22 -24 14z"/>
<path d="M2210 1276 l0 -75 53 -3 c45 -3 52 -6 55 -25 2 -16 -3 -23 -20 -26
-13 -2 4 -4 37 -4 33 -1 52 1 43 4 -11 3 -18 14 -18 29 0 22 4 24 50 24 l50 0
0 75 0 75 -125 0 -125 0 0 -74z m240 -1 l0 -66 -112 3 -113 3 -3 49 c-5 77 -7
76 118 76 l110 0 0 -65z"/>
<path d="M2270 1279 c0 -10 7 -19 15 -19 8 0 15 6 15 13 0 8 4 7 10 -3 8 -12
10 -12 10 -1 0 9 4 10 13 3 19 -15 72 -10 72 8 0 12 -15 15 -67 17 -61 2 -68
0 -68 -18z m90 1 c0 -5 -4 -10 -10 -10 -5 0 -10 5 -10 10 0 6 5 10 10 10 6 0
10 -4 10 -10z m40 0 c0 -5 -4 -10 -10 -10 -5 0 -10 5 -10 10 0 6 5 10 10 10 6
0 10 -4 10 -10z"/>
<path d="M6410 1305 c0 -25 5 -45 10 -45 6 0 10 -20 10 -45 0 -38 3 -45 20
-45 17 0 20 7 20 45 0 25 5 45 10 45 6 0 10 20 10 45 l0 45 -40 0 -40 0 0 -45z"/>
<path d="M6616 1343 c-3 -3 -6 -17 -6 -30 0 -16 -6 -23 -20 -23 -12 0 -28 -13
-40 -32 -20 -34 -27 -63 -11 -54 4 3 16 -3 26 -14 22 -24 43 -25 74 -4 19 14
22 23 18 55 -3 26 0 42 9 50 8 6 14 14 14 18 0 11 -57 41 -64 34z m28 -95 c12
-20 2 -44 -27 -62 -13 -8 -22 -6 -39 11 -19 19 -20 26 -10 48 9 20 18 26 39
23 14 -2 31 -11 37 -20z"/>
<path d="M5764 1309 c-11 -23 -13 -34 -5 -39 7 -3 9 -14 5 -23 -4 -12 -1 -17
10 -17 11 0 16 -9 16 -30 0 -16 5 -30 10 -30 6 0 10 12 10 26 0 17 6 28 20 31
23 6 24 8 9 35 -8 15 -8 19 0 14 14 -9 14 6 -1 39 -16 36 -53 34 -74 -6z"/>
<path d="M5966 1333 c-3 -3 -6 -17 -6 -30 0 -16 -6 -23 -19 -23 -11 0 -28 -15
-41 -35 l-22 -35 24 -20 c28 -23 81 -26 98 -5 8 9 10 29 7 49 -4 24 -1 39 9
47 8 6 14 14 14 18 0 11 -57 41 -64 34z m30 -98 c8 -31 -10 -55 -41 -55 -34 0
-51 25 -37 55 16 36 69 36 78 0z"/>
<path d="M1644 1067 c-3 -8 -4 -49 -2 -93 l3 -79 130 0 130 0 0 90 0 90 -128
3 c-100 2 -129 0 -133 -11z m231 -67 l0 -45 -97 -3 -98 -3 0 51 0 51 98 -3 97
-3 0 -45z"/>
<path d="M1704 1015 c-14 -36 3 -46 73 -43 65 3 68 4 68 28 0 24 -3 25 -68 28
-53 2 -68 0 -73 -13z"/>
<path d="M5400 543 c0 -68 2 -75 14 -58 8 11 12 25 9 32 -7 17 15 43 36 43 9
0 24 -9 34 -20 17 -20 16 -22 -13 -24 -9 -1 -15 -11 -16 -26 -1 -42 -4 -50
-15 -50 -7 0 -9 10 -5 28 5 24 5 25 -7 7 -6 -11 -25 -32 -41 -47 l-28 -28 58
0 c88 1 94 9 94 124 l0 96 -60 0 -60 0 0 -77z m100 37 c0 -5 -4 -10 -9 -10 -6
0 -13 5 -16 10 -3 6 1 10 9 10 9 0 16 -4 16 -10z"/>
<path d="M5320 571 c-14 -28 -13 -111 2 -111 9 0 9 -3 0 -12 -18 -18 -14 -27
8 -21 25 7 41 34 45 77 1 17 4 38 6 46 3 10 -2 14 -13 12 -11 -2 -18 3 -18 13
0 21 -17 19 -30 -4z"/>
<path d="M1727 563 c-4 -3 -7 -38 -7 -77 1 -63 2 -69 15 -53 7 11 11 26 8 34
-7 18 22 43 49 43 10 0 18 -7 18 -15 0 -8 5 -15 10 -15 6 0 10 -5 10 -11 0 -5
-10 -9 -22 -7 -19 2 -23 -2 -24 -22 -1 -43 -4 -51 -13 -46 -5 3 -7 16 -5 29 5
21 4 21 -8 2 -7 -10 -25 -32 -40 -47 l-26 -28 54 0 c91 0 94 4 94 120 l0 100
-53 0 c-30 0 -57 -3 -60 -7z m93 -33 c0 -5 -4 -10 -9 -10 -6 0 -13 5 -16 10
-3 6 1 10 9 10 9 0 16 -4 16 -10z"/>
<path d="M1640 514 c-6 -14 -10 -32 -10 -41 0 -13 3 -13 18 -2 16 13 16 13 0
-7 -23 -26 -23 -54 -1 -54 15 0 14 -2 -3 -14 -24 -18 -13 -31 14 -17 21 11 33
37 38 78 1 11 5 30 9 42 6 19 3 20 -27 15 -32 -6 -32 -6 -13 9 18 15 18 16 2
17 -10 0 -22 -11 -27 -26z"/>
<path d="M12 4140 c0 -14 2 -19 5 -12 2 6 2 18 0 25 -3 6 -5 1 -5 -13z"/>
<path d="M82 4140 c0 -14 2 -19 5 -12 2 6 2 18 0 25 -3 6 -5 1 -5 -13z"/>
<path d="M40 4135 c0 -8 4 -15 10 -15 5 0 7 7 4 15 -4 8 -8 15 -10 15 -2 0 -4
-7 -4 -15z"/>
<path d="M38 4093 c39 -5 53 -30 27 -49 -16 -12 -16 -14 -3 -14 22 0 33 37 18
55 -7 8 -27 14 -44 13 l-31 -1 33 -4z"/>
<path d="M40 4000 c20 -5 39 -5 45 1 5 5 -8 9 -35 8 l-45 -1 35 -8z"/>
<path d="M35 3980 c-3 -5 -2 -10 4 -10 5 0 13 5 16 10 3 6 2 10 -4 10 -5 0
-13 -4 -16 -10z"/>
<path d="M10 3959 c0 -5 19 -9 42 -9 49 0 47 5 -4 13 -21 3 -38 2 -38 -4z"/>
<path d="M12 3920 c0 -14 2 -19 5 -12 2 6 2 18 0 25 -3 6 -5 1 -5 -13z"/>
<path d="M82 3920 c0 -14 2 -19 5 -12 2 6 2 18 0 25 -3 6 -5 1 -5 -13z"/>
<path d="M41 3914 c0 -11 3 -14 6 -6 3 7 2 16 -1 19 -3 4 -6 -2 -5 -13z"/>
<path d="M10 3875 c0 -3 14 -11 31 -17 l32 -11 -34 -18 c-19 -10 -31 -18 -28
-19 12 0 81 31 77 35 -9 9 -78 35 -78 30z"/>
<path d="M45 3801 l-40 -19 37 -16 c41 -18 63 -21 36 -5 -10 5 -18 15 -18 21
0 6 8 17 18 24 24 18 14 17 -33 -5z m5 -21 c0 -5 -2 -10 -4 -10 -3 0 -8 5 -11
10 -3 6 -1 10 4 10 6 0 11 -4 11 -10z"/>
<path d="M10 3650 c0 -28 2 -30 40 -30 38 0 40 2 40 30 0 35 -19 41 -21 8 -1
-17 -2 -19 -6 -5 -2 9 -8 17 -13 17 -5 0 -11 -8 -13 -17 -4 -14 -5 -12 -6 5
-2 33 -21 27 -21 -8z"/>
<path d="M16 3603 c-3 -3 -6 -15 -6 -25 0 -15 8 -18 43 -17 32 0 37 2 22 9
-18 7 -19 8 -2 15 9 4 17 10 17 14 0 10 -65 13 -74 4z m29 -23 c3 -5 1 -10 -4
-10 -6 0 -11 5 -11 10 0 6 2 10 4 10 3 0 8 -4 11 -10z"/>
<path d="M14 3526 c-12 -31 0 -51 30 -51 36 0 56 26 37 49 -17 20 -60 21 -67
2z m56 -21 c0 -18 -27 -26 -39 -11 -7 9 -7 16 0 23 14 14 39 6 39 -12z"/>
<path d="M10 3442 c0 -5 12 -14 27 -21 l28 -13 -28 -14 c-39 -21 -34 -34 13
-34 22 0 40 5 40 10 0 6 -8 10 -17 10 -15 0 -14 2 3 14 18 14 18 15 2 21 -23
9 -23 22 0 28 9 3 -2 5 -25 6 -24 0 -43 -3 -43 -7z"/>
<path d="M70 3331 c0 -15 -8 -21 -32 -24 -29 -3 -27 -4 10 -5 39 -2 42 0 42
23 0 14 -4 25 -10 25 -5 0 -10 -9 -10 -19z"/>
<path d="M10 3255 c0 -22 4 -25 40 -25 36 0 40 3 40 25 0 29 -16 34 -23 8 -4
-17 -5 -17 -6 0 0 9 -5 17 -10 17 -5 0 -12 -8 -14 -17 -4 -17 -5 -17 -6 0 -2
27 -21 20 -21 -8z"/>
<path d="M16 3212 c-3 -3 -6 -16 -6 -29 0 -20 5 -23 40 -23 31 0 40 4 40 18 0
9 -4 22 -8 27 -8 11 -57 16 -66 7z"/>
<path d="M11 3068 c-1 -26 2 -28 39 -28 37 0 40 2 39 28 -2 23 -2 24 -6 5 -3
-18 -11 -23 -33 -23 -22 0 -30 5 -33 23 -4 19 -4 18 -6 -5z"/>
<path d="M65 3006 c26 -19 12 -44 -27 -49 l-33 -4 31 -1 c17 -1 37 5 44 13 15
18 4 55 -18 55 -13 0 -13 -2 3 -14z"/>
<path d="M35 2905 c-39 -32 -24 -32 23 0 20 14 30 25 22 25 -8 -1 -28 -12 -45
-25z"/>
<path d="M11 2848 c-1 -26 2 -28 39 -28 37 0 40 2 39 28 -2 23 -2 24 -6 5 -3
-18 -11 -23 -33 -23 -22 0 -30 5 -33 23 -4 19 -4 18 -6 -5z"/>
<path d="M32 2788 c35 -12 36 -26 3 -34 -14 -3 -25 -10 -25 -14 0 -9 80 22 80
30 0 7 -62 30 -76 29 -5 0 3 -5 18 -11z"/>
<path d="M37 2727 c-36 -15 -34 -21 13 -40 48 -18 54 -12 8 8 l-33 13 35 15
c40 17 20 21 -23 4z"/>
</g>
</svg>
