<?xml version="1.0" standalone="no"?>
<!DOCTYPE svg PUBLIC "-//W3C//DTD SVG 20010904//EN"
 "http://www.w3.org/TR/2001/REC-SVG-20010904/DTD/svg10.dtd">
<svg version="1.0" xmlns="http://www.w3.org/2000/svg"
 width="785.000000pt" height="752.000000pt" viewBox="0 0 785.000000 752.000000"
 preserveAspectRatio="xMidYMid meet">

<g transform="translate(0.000000,752.000000) scale(0.100000,-0.100000)"
fill="#000000" stroke="none">
<path d="M3516 7503 c-12 -13 -5 -30 17 -41 l22 -11 -22 0 c-13 -1 -23 -5 -23
-11 0 -5 18 -9 40 -8 26 1 40 6 40 15 0 7 9 13 20 13 11 0 20 -7 20 -15 0 -8
5 -15 10 -15 6 0 10 18 10 40 0 22 -4 40 -10 40 -5 0 -10 -7 -10 -15 0 -8 -9
-15 -20 -15 -11 0 -20 6 -20 13 0 14 -62 22 -74 10z m54 -23 c0 -13 -11 -13
-30 0 -12 8 -11 10 8 10 12 0 22 -4 22 -10z"/>
<path d="M3660 7470 c0 -40 0 -40 40 -40 23 0 40 5 40 11 0 8 4 8 14 0 17 -14
116 -12 116 3 0 6 5 5 12 -2 18 -18 27 -14 22 11 l-5 22 17 -22 c19 -27 46
-30 65 -7 11 14 13 14 21 0 12 -21 55 -20 67 2 10 16 10 16 11 0 0 -10 5 -18
10 -18 6 0 10 5 10 12 0 9 3 9 12 0 14 -14 88 -16 88 -2 0 6 -10 11 -22 11
-17 1 -19 2 -5 6 9 2 17 8 17 13 0 5 -8 11 -17 13 -14 4 -12 5 5 6 39 2 24 21
-18 21 -27 0 -42 -6 -49 -17 -10 -17 -10 -17 -11 0 0 9 -4 17 -10 17 -5 0 -10
-8 -10 -17 -1 -17 -1 -17 -11 0 -12 21 -55 22 -67 1 -8 -14 -10 -14 -21 0 -17
21 -48 20 -59 0 -8 -14 -10 -14 -15 -1 -4 12 -29 15 -126 16 l-121 1 0 -40z
m60 1 c0 -25 -3 -28 -22 -23 -19 5 -20 7 -5 10 9 2 17 8 17 13 0 5 -8 9 -17
10 -15 0 -15 2 2 9 11 5 21 9 23 9 1 1 2 -12 2 -28z m420 -3 c-1 -28 -2 -30
-11 -15 -6 10 -8 25 -5 33 9 24 16 16 16 -18z m-380 12 c0 -5 -4 -10 -10 -10
-5 0 -10 5 -10 10 0 6 5 10 10 10 6 0 10 -4 10 -10z m65 0 c-3 -5 -10 -10 -16
-10 -5 0 -9 5 -9 10 0 6 7 10 16 10 8 0 12 -4 9 -10z m65 0 c0 -5 -4 -10 -10
-10 -5 0 -10 5 -10 10 0 6 5 10 10 10 6 0 10 -4 10 -10z m80 -10 c0 -13 -7
-20 -20 -20 -13 0 -20 7 -20 20 0 13 7 20 20 20 13 0 20 -7 20 -20z m88 3 c5
-17 -26 -29 -40 -15 -6 6 -7 15 -3 22 9 14 37 9 43 -7z m-281 -25 c-3 -8 -6
-5 -6 6 -1 11 2 17 5 13 3 -3 4 -12 1 -19z m50 6 c-3 -3 -12 -4 -19 -1 -8 3
-5 6 6 6 11 1 17 -2 13 -5z"/>
<path d="M4246 7495 c-3 -9 3 -20 14 -27 26 -17 25 -26 -2 -31 -20 -4 -19 -4
5 -6 34 -1 39 34 5 43 -32 8 -12 24 37 29 l40 4 -46 1 c-34 2 -48 -2 -53 -13z"/>
<path d="M4351 7468 c1 -24 3 -35 6 -25 6 21 12 22 27 2 9 -12 11 -8 11 22 0
32 -4 39 -22 41 -21 3 -23 0 -22 -40z m31 17 c0 -5 -5 -11 -11 -13 -6 -2 -11
4 -11 13 0 9 5 15 11 13 6 -2 11 -8 11 -13z"/>
<path d="M4410 7470 c0 -35 3 -40 23 -39 16 1 18 2 5 6 -27 7 -25 63 2 63 16
0 20 -7 20 -35 0 -32 2 -35 28 -34 21 1 22 3 6 6 -31 6 -31 60 -1 66 12 2 -2
5 -30 6 l-53 1 0 -40z"/>
<path d="M4533 7503 c9 -2 25 -2 35 0 9 3 1 5 -18 5 -19 0 -27 -2 -17 -5z"/>
<path d="M3308 7493 c19 -8 14 -23 -8 -23 -11 0 -20 -5 -20 -11 0 -5 4 -8 9
-4 6 3 15 -3 21 -12 9 -14 10 -15 7 -2 -3 9 -1 21 5 27 12 12 2 32 -15 31 -9
0 -9 -2 1 -6z"/>
<path d="M3401 7480 c-1 -15 -6 -31 -13 -38 -9 -9 -9 -12 0 -12 13 0 26 43 19
62 -3 7 -6 2 -6 -12z"/>
<path d="M3422 7465 c0 -22 2 -32 5 -22 2 9 10 17 16 17 9 0 9 2 1 8 -6 4 -14
14 -17 22 -3 8 -5 -3 -5 -25z"/>
<path d="M3340 7451 c0 -6 4 -13 10 -16 6 -3 7 1 4 9 -7 18 -14 21 -14 7z"/>
<path d="M1348 7138 l-3 -123 -432 1 -433 0 0 -1338 0 -1338 595 0 595 0 0
-205 0 -205 -65 0 -65 0 0 -1102 c0 -607 -3 -1430 -7 -1830 l-6 -728 1156 0
1157 0 0 245 0 245 690 0 690 0 0 -370 0 -369 198 -3 c108 -2 502 -2 874 0
l678 2 2 403 c2 221 2 797 0 1280 l-2 877 -675 0 -675 0 0 1355 0 1355 55 0
55 0 -2 175 -3 176 -155 3 c-85 2 -334 4 -552 5 l-398 1 0 245 0 245 -225 0
-225 0 0 220 0 220 -225 0 -225 0 0 230 0 230 -235 0 -235 0 0 110 0 110 -950
0 -949 0 -3 -122z m1872 -20 l0 -111 -265 7 c-235 6 -265 5 -265 -9 0 -13 35
-15 280 -15 244 0 280 2 280 15 0 13 29 15 223 13 l222 -3 3 -232 2 -233 225
0 225 0 0 -470 0 -470 -222 -2 -223 -3 -3 -157 -3 -158 286 0 c247 0 285 2
285 15 0 11 -12 15 -50 15 l-50 0 0 35 c0 19 -4 35 -10 35 -5 0 -10 -16 -10
-35 l0 -35 -210 0 -210 0 0 130 0 130 220 0 220 0 2 263 3 262 210 0 210 0 1
-240 1 -240 96 -3 97 -3 0 -149 0 -150 -200 0 c-171 0 -200 -2 -200 -15 0 -12
14 -15 66 -15 l65 0 -1 -272 c-3 -539 -2 -578 16 -578 14 0 15 19 12 153 l-3
152 185 0 185 0 0 -225 0 -225 -182 -3 -182 -2 -3 32 c-2 17 -9 33 -15 36 -10
3 -13 -59 -13 -287 l0 -291 40 0 c29 0 40 4 40 15 0 9 -9 15 -25 15 l-25 0 0
225 0 225 185 0 185 0 0 -225 0 -225 -120 0 c-100 0 -120 -2 -120 -15 0 -13
35 -15 256 -15 200 0 255 3 252 13 -3 8 -40 13 -126 15 l-122 3 0 224 0 225
185 0 185 0 0 -225 0 -225 -25 0 c-16 0 -25 -6 -25 -15 0 -11 11 -15 40 -15
l40 0 0 291 c0 228 -3 290 -12 287 -7 -3 -14 -19 -16 -36 l-3 -32 -182 2 -182
3 0 225 0 225 183 3 182 2 0 -155 c0 -131 2 -155 15 -155 13 0 15 25 15 168
l0 167 -397 0 -398 0 -3 258 -2 257 385 0 385 0 2 -197 c2 -146 6 -197 16
-201 9 -3 12 44 12 212 l0 216 -50 0 -50 0 0 150 0 150 228 -2 227 -3 3 -147
3 -148 -56 0 -55 0 0 -1700 c0 -1504 2 -1700 15 -1700 13 0 15 42 15 320 l0
320 30 0 30 0 2 -247 c1 -137 3 -229 5 -205 l4 43 115 -2 c63 -1 118 1 121 5
4 3 -48 6 -115 6 -102 0 -122 2 -122 15 0 12 21 15 123 17 l122 2 -122 3
c-100 3 -123 6 -123 18 0 12 21 15 122 15 67 0 119 3 115 6 -3 4 -58 6 -122 5
-111 -2 -115 -1 -115 19 0 20 4 21 115 19 64 -1 119 1 122 5 4 3 -48 6 -115 6
-102 0 -122 2 -122 15 0 12 21 15 118 17 l117 2 -117 3 -118 4 0 115 0 115
118 -3 117 -3 -3 -102 -3 -103 96 0 95 0 1 -97 c0 -54 3 -92 6 -85 7 17 309
17 316 0 3 -7 6 31 6 85 l1 97 90 0 90 0 0 -140 0 -141 -350 3 c-193 2 -350 0
-350 -4 0 -5 159 -8 354 -8 l355 0 3 43 3 42 115 0 115 0 6 -40 c3 -22 7 71 8
208 l1 247 29 0 29 0 4 -852 c3 -469 3 -856 1 -861 -2 -4 -303 -7 -669 -7
-584 0 -664 -2 -664 -15 0 -13 81 -15 670 -15 l670 0 -2 -382 -3 -383 -662 -3
-663 -2 0 320 0 320 -110 0 c-91 0 -110 -3 -110 -15 0 -12 17 -15 95 -15 l95
0 0 -145 0 -145 -95 0 c-78 0 -95 -3 -95 -15 0 -12 17 -15 94 -15 l95 0 -2
-143 -2 -142 -167 -3 -168 -2 0 145 0 145 25 0 c16 0 25 6 25 15 0 9 -9 15
-25 15 l-25 0 0 145 0 145 25 0 c16 0 25 6 25 15 0 9 -9 15 -25 15 -24 0 -25
3 -25 55 l0 55 -395 0 -395 0 0 115 0 115 380 0 380 0 0 -65 c0 -51 3 -65 15
-65 13 0 15 43 15 330 l0 330 -45 0 c-25 0 -45 -4 -45 -10 0 -5 14 -10 30 -10
l30 0 0 -240 0 -240 -184 0 -184 0 -7 62 c-3 35 -5 142 -3 238 l3 175 108 3
c60 1 107 7 107 12 0 6 -83 10 -215 10 -131 0 -215 -4 -215 -10 0 -5 42 -11
93 -12 l92 -3 3 -237 2 -238 -180 0 -180 0 2 238 3 237 28 3 c15 2 27 7 27 12
0 5 -66 11 -147 12 l-148 3 -3 128 -3 127 -374 0 c-327 0 -375 -2 -375 -15 0
-13 47 -15 360 -15 l360 0 0 -57 c0 -32 3 -88 7 -125 l6 -68 113 0 114 0 0
-370 0 -370 -305 0 -305 0 0 -245 0 -245 -820 0 -820 0 0 70 0 70 85 0 85 0 0
100 0 100 -270 0 -270 0 0 230 0 230 285 0 285 0 0 345 0 345 225 0 c143 0
225 4 225 10 0 6 -87 10 -240 10 l-240 0 0 -340 0 -340 -285 0 -285 0 0 -245
0 -245 -35 0 c-24 0 -35 -5 -35 -15 0 -13 41 -15 305 -15 l305 0 0 -70 0 -70
-85 0 -85 0 0 -85 0 -85 -295 0 -295 0 0 155 0 155 35 0 c24 0 35 5 35 15 0
10 -11 15 -35 15 l-35 0 0 393 c0 217 3 664 7 995 l6 602 692 0 c686 0 905 5
905 22 0 4 -360 8 -800 8 l-800 0 2 623 3 622 63 3 62 3 0 379 0 380 736 0
c584 0 735 3 732 13 -3 6 -24 14 -49 15 -24 2 -360 1 -746 -3 l-703 -7 0 -159
0 -159 -580 0 -580 0 0 1310 0 1310 1037 0 c570 0 1038 2 1041 4 22 23 -46 26
-614 26 l-604 0 0 105 0 105 925 0 925 0 0 -112z m1620 -1568 c0 -63 -2 -70
-20 -70 -18 0 -20 7 -20 70 0 63 2 70 20 70 18 0 20 -7 20 -70z m50 0 c0 -63
-2 -70 -20 -70 -18 0 -20 7 -20 70 0 63 2 70 20 70 18 0 20 -7 20 -70z m60 0
c0 -68 -1 -70 -25 -70 -24 0 -25 2 -25 70 0 68 1 70 25 70 24 0 25 -2 25 -70z
m50 0 c0 -63 -2 -70 -20 -70 -18 0 -20 7 -20 70 0 63 2 70 20 70 18 0 20 -7
20 -70z m50 0 c0 -63 -2 -70 -20 -70 -18 0 -20 7 -20 70 0 63 2 70 20 70 18 0
20 -7 20 -70z m50 0 c0 -63 -2 -70 -20 -70 -18 0 -20 7 -20 70 0 63 2 70 20
70 18 0 20 -7 20 -70z m60 0 c0 -68 -1 -70 -25 -70 -24 0 -25 2 -25 70 0 68 1
70 25 70 24 0 25 -2 25 -70z m50 0 c0 -63 -2 -70 -20 -70 -18 0 -20 7 -20 70
0 63 2 70 20 70 18 0 20 -7 20 -70z m-370 -155 c0 -68 -2 -75 -20 -75 -18 0
-20 7 -20 75 0 68 2 75 20 75 18 0 20 -7 20 -75z m50 0 c0 -68 -2 -75 -20 -75
-18 0 -20 7 -20 68 0 71 4 82 27 82 10 0 13 -19 13 -75z m58 -3 c3 -71 3 -72
-23 -72 -24 0 -25 2 -25 68 0 72 4 85 30 80 11 -3 16 -20 18 -76z m52 3 c0
-68 -2 -75 -20 -75 -18 0 -20 7 -20 75 0 68 2 75 20 75 18 0 20 -7 20 -75z
m50 0 c0 -68 -2 -75 -20 -75 -18 0 -20 7 -20 75 0 68 2 75 20 75 18 0 20 -7
20 -75z m50 0 c0 -68 -2 -75 -20 -75 -18 0 -20 7 -20 75 0 68 2 75 20 75 18 0
20 -7 20 -75z m58 -3 c3 -71 3 -72 -23 -72 -24 0 -25 2 -25 68 0 72 4 85 30
80 11 -3 16 -20 18 -76z m52 3 c0 -68 -2 -75 -20 -75 -18 0 -20 7 -20 75 0 68
2 75 20 75 18 0 20 -7 20 -75z m760 -2935 c0 -80 -3 -100 -14 -100 -24 0 -26
13 -19 109 4 67 10 91 19 91 11 0 14 -23 14 -100z m40 0 c0 -82 -3 -100 -15
-100 -12 0 -15 18 -15 100 0 82 3 100 15 100 12 0 15 -18 15 -100z m45 -1 c0
-81 -2 -94 -17 -97 -16 -3 -18 6 -18 91 0 51 3 97 7 101 20 20 28 -7 28 -95z
m45 1 c0 -82 -3 -100 -15 -100 -12 0 -15 18 -15 100 0 82 3 100 15 100 12 0
15 -18 15 -100z m340 11 c0 -49 -3 -103 -6 -120 l-6 -31 -153 0 -152 0 -7 31
c-3 17 -6 71 -6 120 l0 89 165 0 165 0 0 -89z m44 71 c-1 -7 -2 -50 -2 -97 -2
-68 -5 -85 -17 -85 -12 0 -15 17 -15 93 0 52 3 97 7 101 10 9 28 1 27 -12z
m44 -86 c2 -89 1 -97 -15 -94 -15 3 -19 15 -21 68 -4 80 5 133 21 127 8 -2 13
-37 15 -101z m42 4 c0 -82 -3 -100 -15 -100 -12 0 -15 18 -15 100 0 82 3 100
15 100 12 0 15 -18 15 -100z m298 -17 l3 -113 -121 0 c-114 0 -120 1 -120 20
0 17 -5 19 -25 14 l-25 -6 0 94 c0 52 2 97 6 100 3 3 67 5 142 4 l137 -1 3
-112z m2 -138 c0 -12 -20 -15 -120 -15 -100 0 -120 3 -120 15 0 13 20 15 120
15 100 0 120 -2 120 -15z m-442 -12 c-3 -16 -20 -18 -156 -21 -147 -2 -152 -2
-152 18 0 19 6 20 156 20 143 0 155 -1 152 -17z m440 -35 c3 -16 -8 -18 -117
-18 -94 0 -121 3 -121 13 0 25 14 28 124 25 96 -3 111 -5 114 -20z m-438 -13
c0 -13 -24 -15 -155 -15 -131 0 -155 2 -155 15 0 13 24 15 155 15 131 0 155
-2 155 -15z m440 -30 c0 -12 -20 -15 -120 -15 -100 0 -120 3 -120 15 0 13 20
15 120 15 100 0 120 -2 120 -15z m-440 -10 c0 -13 -24 -15 -155 -15 -131 0
-155 2 -155 15 0 13 24 15 155 15 131 0 155 -2 155 -15z m440 -30 c0 -12 -20
-15 -120 -15 -100 0 -120 3 -120 15 0 13 20 15 120 15 100 0 120 -2 120 -15z"/>
<path d="M647 6933 c-4 -3 -7 -38 -7 -77 1 -62 2 -69 14 -53 8 10 12 27 9 38
-4 15 2 22 26 32 17 6 31 17 31 24 0 7 4 13 10 13 5 0 7 -13 4 -30 -4 -19 -2
-30 5 -30 6 0 11 -5 11 -11 0 -6 -9 -9 -19 -6 -17 4 -20 -1 -23 -32 -2 -20 -7
-34 -13 -31 -5 3 -8 14 -6 25 2 12 -10 2 -31 -25 l-34 -45 48 -3 c82 -5 88 3
88 118 l0 100 -53 0 c-30 0 -57 -3 -60 -7z"/>
<path d="M573 6902 c-7 -4 -16 -23 -19 -42 -6 -27 -4 -32 7 -25 11 6 12 5 2
-6 -19 -19 -16 -49 5 -49 15 -1 15 -2 -2 -15 -11 -8 -17 -18 -13 -21 10 -11
57 25 58 44 2 28 7 56 15 79 6 21 4 23 -27 17 -32 -6 -33 -6 -14 9 20 17 10
23 -12 9z"/>
<path d="M2386 6902 c-2 -4 4 -8 14 -8 10 0 16 4 14 8 -3 4 -9 8 -14 8 -5 0
-11 -4 -14 -8z"/>
<path d="M1851 6873 c-1 -18 -8 -22 -43 -26 l-43 -4 42 -1 c37 -2 42 -5 46
-29 l4 -28 2 28 1 27 79 0 c79 0 80 0 84 -27 l4 -28 2 28 c1 25 4 27 40 27 36
0 40 -3 44 -27 l4 -28 2 27 c1 24 5 27 44 31 l42 4 -42 1 c-35 2 -42 6 -46 25
l-4 22 -2 -22 c-1 -20 -7 -23 -40 -23 -33 0 -40 4 -44 23 l-4 22 -2 -22 c-1
-22 -5 -23 -80 -23 -75 0 -80 1 -84 23 l-4 22 -2 -22z"/>
<path d="M2521 6873 c-1 -21 -6 -22 -88 -26 l-88 -3 87 -2 c86 -2 87 -2 91
-29 l4 -28 2 28 c1 25 4 27 40 27 36 0 40 -3 44 -27 l4 -28 2 27 c1 27 1 27
89 31 l87 3 -87 2 c-81 2 -87 3 -91 25 l-4 22 -2 -22 c-1 -20 -7 -23 -40 -23
-33 0 -40 4 -44 23 l-4 22 -2 -22z"/>
<path d="M2730 6776 c7 -7 13 -7 20 0 6 6 3 10 -10 10 -13 0 -16 -4 -10 -10z"/>
<path d="M970 6620 c0 -20 7 -20 385 -20 378 0 385 0 385 20 0 20 -7 20 -385
20 -378 0 -385 0 -385 -20z"/>
<path d="M1950 6620 c0 -20 7 -20 385 -20 378 0 385 0 385 20 0 20 -7 20 -385
20 -378 0 -385 0 -385 -20z"/>
<path d="M1950 6465 l0 -25 385 0 385 0 0 25 0 25 -385 0 -385 0 0 -25z"/>
<path d="M712 6443 c-2 -37 -5 -42 -29 -46 l-28 -4 28 -2 c25 -1 27 -4 27 -40
0 -36 -3 -40 -27 -44 l-28 -4 28 -2 c25 -1 27 -4 27 -40 0 -36 -3 -40 -27 -44
l-28 -4 27 -2 c27 -1 27 -1 31 -88 l3 -88 2 87 c2 81 3 87 25 91 l22 4 -22 2
c-20 1 -23 7 -23 40 0 33 4 40 23 44 l22 4 -22 2 c-20 1 -23 7 -23 40 0 33 4
40 23 44 l22 4 -22 2 c-18 1 -22 8 -26 44 l-4 42 -1 -42z"/>
<path d="M970 6460 c0 -20 7 -20 385 -20 378 0 385 0 385 20 0 20 -7 20 -385
20 -378 0 -385 0 -385 -20z"/>
<path d="M3686 6332 c-2 -4 4 -8 14 -8 10 0 16 4 14 8 -3 4 -9 8 -14 8 -5 0
-11 -4 -14 -8z"/>
<path d="M3876 6332 c-2 -4 4 -8 14 -8 10 0 16 4 14 8 -3 4 -9 8 -14 8 -5 0
-11 -4 -14 -8z"/>
<path d="M3966 6332 c-2 -4 4 -8 14 -8 10 0 16 4 14 8 -3 4 -9 8 -14 8 -5 0
-11 -4 -14 -8z"/>
<path d="M1950 6310 c0 -20 7 -20 385 -20 378 0 385 0 385 20 0 20 -7 20 -385
20 -378 0 -385 0 -385 -20z"/>
<path d="M970 6300 c0 -20 7 -20 385 -20 378 0 385 0 385 20 0 20 -7 20 -385
20 -378 0 -385 0 -385 -20z"/>
<path d="M3580 6300 c0 -5 14 -10 30 -10 17 0 30 5 30 10 0 6 -13 10 -30 10
-16 0 -30 -4 -30 -10z"/>
<path d="M3670 6300 c0 -5 14 -10 30 -10 17 0 30 5 30 10 0 6 -13 10 -30 10
-16 0 -30 -4 -30 -10z"/>
<path d="M3760 6300 c0 -5 13 -10 29 -10 17 0 33 5 36 10 4 6 -8 10 -29 10
-20 0 -36 -4 -36 -10z"/>
<path d="M3855 6300 c3 -5 19 -10 36 -10 16 0 29 5 29 10 0 6 -16 10 -36 10
-21 0 -33 -4 -29 -10z"/>
<path d="M3950 6300 c0 -5 14 -10 30 -10 17 0 30 5 30 10 0 6 -13 10 -30 10
-16 0 -30 -4 -30 -10z"/>
<path d="M3588 6233 c12 -2 30 -2 40 0 9 3 -1 5 -23 4 -22 0 -30 -2 -17 -4z"/>
<path d="M3688 6233 c12 -2 30 -2 40 0 9 3 -1 5 -23 4 -22 0 -30 -2 -17 -4z"/>
<path d="M3778 6233 c12 -2 30 -2 40 0 9 3 -1 5 -23 4 -22 0 -30 -2 -17 -4z"/>
<path d="M3868 6233 c12 -2 30 -2 40 0 9 3 -1 5 -23 4 -22 0 -30 -2 -17 -4z"/>
<path d="M3958 6233 c12 -2 30 -2 40 0 9 3 -1 5 -23 4 -22 0 -30 -2 -17 -4z"/>
<path d="M970 6150 c0 -20 7 -20 385 -20 378 0 385 0 385 20 0 20 -7 20 -385
20 -378 0 -385 0 -385 -20z"/>
<path d="M1950 6150 c0 -20 7 -20 385 -20 378 0 385 0 385 20 0 20 -7 20 -385
20 -378 0 -385 0 -385 -20z"/>
<path d="M644 6099 c-3 -6 -2 -15 3 -20 5 -5 9 -1 9 11 0 23 -2 24 -12 9z"/>
<path d="M3588 6103 c12 -2 30 -2 40 0 9 3 -1 5 -23 4 -22 0 -30 -2 -17 -4z"/>
<path d="M3688 6103 c12 -2 30 -2 40 0 9 3 -1 5 -23 4 -22 0 -30 -2 -17 -4z"/>
<path d="M3778 6103 c12 -2 30 -2 40 0 9 3 -1 5 -23 4 -22 0 -30 -2 -17 -4z"/>
<path d="M3868 6103 c12 -2 30 -2 40 0 9 3 -1 5 -23 4 -22 0 -30 -2 -17 -4z"/>
<path d="M3958 6103 c12 -2 30 -2 40 0 9 3 -1 5 -23 4 -22 0 -30 -2 -17 -4z"/>
<path d="M3580 6040 c0 -5 14 -10 30 -10 17 0 30 5 30 10 0 6 -13 10 -30 10
-16 0 -30 -4 -30 -10z"/>
<path d="M3670 6040 c0 -5 14 -10 30 -10 17 0 30 5 30 10 0 6 -13 10 -30 10
-16 0 -30 -4 -30 -10z"/>
<path d="M3760 6040 c0 -5 13 -10 29 -10 17 0 33 5 36 10 4 6 -8 10 -29 10
-20 0 -36 -4 -36 -10z"/>
<path d="M3855 6040 c3 -5 19 -10 36 -10 16 0 29 5 29 10 0 6 -16 10 -36 10
-21 0 -33 -4 -29 -10z"/>
<path d="M3950 6040 c0 -5 14 -10 30 -10 17 0 30 5 30 10 0 6 -13 10 -30 10
-16 0 -30 -4 -30 -10z"/>
<path d="M1950 5995 l0 -25 385 0 385 0 0 25 0 25 -385 0 -385 0 0 -25z"/>
<path d="M970 5990 c0 -20 7 -20 385 -20 378 0 385 0 385 20 0 20 -7 20 -385
20 -378 0 -385 0 -385 -20z"/>
<path d="M3686 5942 c-2 -4 4 -8 14 -8 10 0 16 4 14 8 -3 4 -9 8 -14 8 -5 0
-11 -4 -14 -8z"/>
<path d="M3876 5942 c-2 -4 4 -8 14 -8 10 0 16 4 14 8 -3 4 -9 8 -14 8 -5 0
-11 -4 -14 -8z"/>
<path d="M3966 5942 c-2 -4 4 -8 14 -8 10 0 16 4 14 8 -3 4 -9 8 -14 8 -5 0
-11 -4 -14 -8z"/>
<path d="M2270 5905 c-25 -14 -25 -14 -2 -15 19 0 22 -5 22 -40 0 -22 5 -40
10 -40 6 0 10 -4 10 -10 0 -5 -15 -10 -32 -10 -31 -1 -32 -1 -14 -15 23 -18
77 -20 93 -4 15 15 5 39 -16 39 -10 0 -20 3 -24 6 -9 10 25 74 40 74 11 0 10
-6 -2 -30 -9 -16 -11 -30 -6 -30 5 0 12 6 14 13 4 9 8 8 16 -3 9 -12 11 -10
11 12 0 31 -41 68 -74 68 -11 -1 -32 -7 -46 -15z"/>
<path d="M3580 5910 c0 -5 14 -10 30 -10 17 0 30 5 30 10 0 6 -13 10 -30 10
-16 0 -30 -4 -30 -10z"/>
<path d="M3670 5910 c0 -5 14 -10 30 -10 17 0 30 5 30 10 0 6 -13 10 -30 10
-16 0 -30 -4 -30 -10z"/>
<path d="M3760 5910 c0 -5 13 -10 29 -10 17 0 33 5 36 10 4 6 -8 10 -29 10
-20 0 -36 -4 -36 -10z"/>
<path d="M3860 5910 c0 -5 14 -10 30 -10 17 0 30 5 30 10 0 6 -13 10 -30 10
-16 0 -30 -4 -30 -10z"/>
<path d="M3950 5910 c0 -5 14 -10 30 -10 17 0 30 5 30 10 0 6 -13 10 -30 10
-16 0 -30 -4 -30 -10z"/>
<path d="M2234 5855 c-9 -21 3 -45 21 -45 10 0 15 10 15 30 0 32 -26 43 -36
15z"/>
<path d="M1950 5840 c0 -19 7 -20 135 -20 128 0 135 1 135 20 0 19 -7 20 -135
20 -128 0 -135 -1 -135 -20z"/>
<path d="M2410 5840 c0 -19 7 -20 155 -20 148 0 155 1 155 20 0 19 -7 20 -155
20 -148 0 -155 -1 -155 -20z"/>
<path d="M970 5830 c0 -20 7 -20 385 -20 378 0 385 0 385 20 0 20 -7 20 -385
20 -378 0 -385 0 -385 -20z"/>
<path d="M3593 5843 c9 -2 25 -2 35 0 9 3 1 5 -18 5 -19 0 -27 -2 -17 -5z"/>
<path d="M3688 5843 c12 -2 30 -2 40 0 9 3 -1 5 -23 4 -22 0 -30 -2 -17 -4z"/>
<path d="M3778 5843 c12 -2 30 -2 40 0 9 3 -1 5 -23 4 -22 0 -30 -2 -17 -4z"/>
<path d="M3868 5843 c12 -2 30 -2 40 0 9 3 -1 5 -23 4 -22 0 -30 -2 -17 -4z"/>
<path d="M3958 5843 c12 -2 30 -2 40 0 9 3 -1 5 -23 4 -22 0 -30 -2 -17 -4z"/>
<path d="M712 5738 c-2 -86 -2 -87 -29 -91 l-28 -4 28 -2 c25 -1 27 -4 27 -40
0 -36 -3 -40 -27 -44 l-28 -4 27 -2 c27 -1 27 -1 31 -88 l3 -88 2 87 c2 81 3
87 25 91 l22 4 -22 2 c-20 1 -23 7 -23 40 0 33 4 40 23 44 l22 4 -22 2 c-21 1
-22 6 -26 89 l-3 87 -2 -87z"/>
<path d="M764 5770 c0 -13 4 -16 10 -10 7 7 7 13 0 20 -6 6 -10 3 -10 -10z"/>
<path d="M970 5680 c0 -20 7 -20 385 -20 378 0 385 0 385 20 0 20 -7 20 -385
20 -378 0 -385 0 -385 -20z"/>
<path d="M1950 5680 c0 -20 7 -20 385 -20 378 0 385 0 385 20 0 20 -7 20 -385
20 -378 0 -385 0 -385 -20z"/>
<path d="M764 5600 c0 -13 4 -16 10 -10 7 7 7 13 0 20 -6 6 -10 3 -10 -10z"/>
<path d="M5477 5593 c-4 -3 -7 -38 -7 -76 0 -60 2 -68 15 -57 9 8 13 21 9 37
-5 20 -1 26 25 36 17 6 31 17 31 24 0 7 4 13 10 13 5 0 7 -13 4 -30 -5 -23 -3
-30 10 -30 12 0 16 10 16 45 l0 45 -53 0 c-30 0 -57 -3 -60 -7z"/>
<path d="M5396 5548 c-9 -12 -16 -31 -16 -41 0 -15 4 -16 23 -7 l22 11 -22
-17 c-28 -20 -32 -66 -5 -58 15 5 14 3 -2 -10 -11 -9 -17 -19 -13 -22 10 -11
57 25 58 44 2 28 7 56 14 78 6 19 4 21 -22 16 -25 -5 -27 -4 -14 11 8 10 9 17
3 17 -6 0 -18 -10 -26 -22z"/>
<path d="M1950 5525 l0 -25 385 0 385 0 0 25 0 25 -385 0 -385 0 0 -25z"/>
<path d="M970 5520 c0 -20 7 -20 385 -20 378 0 385 0 385 20 0 20 -7 20 -385
20 -378 0 -385 0 -385 -20z"/>
<path d="M3920 5450 l0 -90 60 0 60 0 0 90 0 90 -60 0 -60 0 0 -90z m108 -12
l3 -68 -51 0 -50 0 0 71 0 70 48 -3 47 -3 3 -67z"/>
<path d="M3963 5471 c-15 -23 -6 -91 12 -91 17 0 29 68 16 84 -6 7 -8 16 -4
19 3 4 2 7 -3 7 -5 0 -15 -9 -21 -19z"/>
<path d="M4703 5515 c-8 -22 0 -27 28 -16 18 7 20 10 6 10 -10 1 -15 6 -12 11
3 6 1 10 -5 10 -6 0 -13 -7 -17 -15z"/>
<path d="M5540 5463 c0 -17 -4 -35 -10 -38 -6 -4 -10 6 -10 22 -1 26 -1 26
-12 8 -6 -11 -22 -32 -36 -47 l-26 -28 60 0 c33 0 65 5 72 12 7 7 12 32 12 58
0 41 -2 45 -25 45 -21 0 -25 -5 -25 -32z"/>
<path d="M4715 5450 c-16 -7 -17 -9 -3 -9 9 -1 18 -7 21 -13 3 -10 7 -10 17
-1 7 6 9 16 6 22 -8 13 -14 13 -41 1z"/>
<path d="M644 5439 c-3 -6 -2 -15 3 -20 5 -5 9 -1 9 11 0 23 -2 24 -12 9z"/>
<path d="M1950 5370 c0 -20 7 -20 385 -20 378 0 385 0 385 20 0 20 -7 20 -385
20 -378 0 -385 0 -385 -20z"/>
<path d="M970 5360 c0 -20 7 -20 385 -20 378 0 385 0 385 20 0 20 -7 20 -385
20 -378 0 -385 0 -385 -20z"/>
<path d="M970 5210 c0 -20 7 -20 385 -20 378 0 385 0 385 20 0 20 -7 20 -385
20 -378 0 -385 0 -385 -20z"/>
<path d="M1950 5210 c0 -20 7 -20 385 -20 378 0 385 0 385 20 0 20 -7 20 -385
20 -378 0 -385 0 -385 -20z"/>
<path d="M2940 5210 c0 -19 7 -20 255 -20 248 0 255 1 255 20 0 19 -7 20 -255
20 -248 0 -255 -1 -255 -20z"/>
<path d="M712 5118 c-2 -43 -4 -47 -29 -51 l-28 -4 28 -2 27 -1 0 -79 c0 -79
0 -80 -27 -84 l-28 -4 28 -2 c25 -1 27 -4 27 -40 0 -36 -3 -40 -27 -44 l-28
-4 27 -2 c24 -1 27 -5 31 -43 l4 -43 1 42 c2 35 6 42 25 46 l22 4 -22 2 c-20
1 -23 7 -23 40 0 33 4 40 23 44 l22 4 -22 2 c-22 1 -23 5 -23 80 0 75 1 80 23
84 l22 4 -22 2 c-19 1 -22 8 -26 49 l-3 47 -2 -47z"/>
<path d="M764 5110 c0 -13 4 -16 10 -10 7 7 7 13 0 20 -6 6 -10 3 -10 -10z"/>
<path d="M1950 5055 l0 -25 385 0 385 0 0 25 0 25 -385 0 -385 0 0 -25z"/>
<path d="M2940 5055 l0 -25 385 0 385 0 0 25 0 25 -385 0 -385 0 0 -25z"/>
<path d="M3754 5067 c-3 -8 -4 -41 -2 -73 l3 -59 53 -3 c44 -3 52 -6 52 -23 0
-12 -7 -19 -20 -19 -11 0 -20 -4 -20 -10 0 -5 25 -10 55 -10 30 0 55 5 55 10
0 6 -9 10 -20 10 -13 0 -20 7 -20 19 0 17 8 20 53 23 l52 3 0 70 0 70 -118 3
c-93 2 -118 0 -123 -11z m226 -62 l0 -55 -105 0 -105 0 0 55 0 55 105 0 105 0
0 -55z"/>
<path d="M3830 5035 c-15 -18 -7 -44 17 -51 10 -3 26 -10 36 -15 23 -13 32 -6
23 18 -4 10 -6 18 -5 18 1 0 -3 10 -10 23 -13 25 -43 29 -61 7z m47 -11 c3 -8
1 -20 -5 -26 -15 -15 -43 8 -35 28 7 19 32 18 40 -2z"/>
<path d="M970 5050 c0 -20 7 -20 385 -20 378 0 385 0 385 20 0 20 -7 20 -385
20 -378 0 -385 0 -385 -20z"/>
<path d="M645 5029 c-4 -6 -5 -12 -2 -15 2 -3 7 2 10 11 7 17 1 20 -8 4z"/>
<path d="M764 5020 c0 -13 4 -16 10 -10 7 7 7 13 0 20 -6 6 -10 3 -10 -10z"/>
<path d="M764 4940 c0 -13 4 -16 10 -10 7 7 7 13 0 20 -6 6 -10 3 -10 -10z"/>
<path d="M1950 4900 c0 -20 7 -20 385 -20 378 0 385 0 385 20 0 20 -7 20 -385
20 -378 0 -385 0 -385 -20z"/>
<path d="M2940 4900 c0 -20 7 -20 385 -20 378 0 385 0 385 20 0 20 -7 20 -385
20 -378 0 -385 0 -385 -20z"/>
<path d="M970 4890 c0 -20 7 -20 385 -20 378 0 385 0 385 20 0 20 -7 20 -385
20 -378 0 -385 0 -385 -20z"/>
<path d="M645 4859 c-4 -6 -5 -12 -2 -15 2 -3 7 2 10 11 7 17 1 20 -8 4z"/>
<path d="M640 4771 c0 -6 4 -13 10 -16 6 -3 7 1 4 9 -7 18 -14 21 -14 7z"/>
<path d="M3370 4675 c0 -13 23 -15 150 -15 l150 0 0 -1000 0 -1000 -140 0
c-118 0 -140 -2 -140 -15 0 -13 23 -15 150 -15 l150 0 0 1030 0 1030 -160 0
c-136 0 -160 -2 -160 -15z"/>
<path d="M4625 4600 c-3 -6 4 -10 17 -10 19 0 20 -2 8 -10 -13 -9 -13 -11 0
-20 12 -8 11 -10 -7 -10 -13 0 -23 -4 -23 -10 0 -13 47 -13 55 0 4 6 13 5 25
-2 14 -9 22 -9 34 1 35 29 3 87 -34 63 -12 -7 -21 -8 -25 -2 -8 13 -42 13 -50
0z m105 -30 c0 -11 -7 -20 -15 -20 -8 0 -15 9 -15 20 0 11 7 20 15 20 8 0 15
-9 15 -20z"/>
<path d="M4750 4600 c0 -5 5 -10 10 -10 6 0 10 -9 10 -20 0 -11 -4 -20 -10
-20 -5 0 -10 -4 -10 -10 0 -5 14 -10 32 -10 25 0 29 3 20 12 -7 7 -12 25 -12
40 0 21 -5 28 -20 28 -11 0 -20 -4 -20 -10z"/>
<path d="M5020 4600 c0 -5 8 -10 18 -10 14 0 15 -2 2 -10 -13 -9 -13 -11 0
-20 13 -8 12 -10 -2 -10 -10 0 -18 -4 -18 -10 0 -13 37 -13 46 1 4 8 9 8 17 0
30 -30 66 4 52 49 -7 22 -34 27 -52 9 -8 -8 -13 -8 -17 0 -9 14 -46 14 -46 1z
m100 -30 c0 -11 -7 -20 -15 -20 -8 0 -15 9 -15 20 0 11 7 20 15 20 8 0 15 -9
15 -20z"/>
<path d="M5152 4590 c10 -16 10 -24 0 -40 -11 -18 -10 -20 20 -20 25 0 29 3
20 12 -7 7 -12 25 -12 40 0 21 -5 28 -20 28 -18 0 -19 -2 -8 -20z"/>
<path d="M4805 4570 c-3 -5 3 -10 14 -10 12 0 21 5 21 10 0 6 -6 10 -14 10 -8
0 -18 -4 -21 -10z"/>
<path d="M5195 4570 c-3 -5 3 -10 14 -10 12 0 21 5 21 10 0 6 -6 10 -14 10 -8
0 -18 -4 -21 -10z"/>
<path d="M4680 4480 c0 -5 8 -10 17 -10 14 0 13 -3 -5 -23 -29 -31 -28 -37 11
-37 28 1 30 2 15 14 -16 11 -16 14 -1 28 8 9 12 21 9 27 -9 14 -46 15 -46 1z"/>
<path d="M4741 4463 c-13 -28 -8 -37 25 -47 25 -8 38 13 22 35 -7 11 -11 11
-15 2 -2 -7 -9 -13 -14 -13 -6 0 -6 8 1 19 12 24 13 31 2 31 -5 0 -14 -12 -21
-27z"/>
<path d="M5080 4479 c0 -5 8 -9 17 -9 14 0 13 -3 -5 -23 -12 -13 -22 -26 -22
-30 0 -4 23 -7 50 -7 38 0 52 4 57 17 4 10 0 21 -9 27 -15 9 -15 11 0 22 14
11 9 13 -35 12 -29 0 -53 -4 -53 -9z m65 -49 c-29 -10 -48 -1 -34 16 9 11 16
11 32 2 21 -11 21 -11 2 -18z"/>
<path d="M3806 4472 c-2 -4 4 -8 14 -8 10 0 16 4 14 8 -3 4 -9 8 -14 8 -5 0
-11 -4 -14 -8z"/>
<path d="M3861 4443 c-1 -19 -8 -22 -48 -26 l-48 -3 47 -2 c43 -2 47 -4 51
-29 l4 -28 2 27 c1 24 5 27 44 31 l42 4 -42 1 c-35 2 -42 6 -46 25 l-4 22 -2
-22z"/>
<path d="M3807 4349 c7 -7 15 -10 18 -7 3 3 -2 9 -12 12 -14 6 -15 5 -6 -5z"/>
<path d="M3897 4349 c7 -7 15 -10 18 -7 3 3 -2 9 -12 12 -14 6 -15 5 -6 -5z"/>
<path d="M4625 4110 c-3 -6 4 -10 17 -10 19 0 20 -2 8 -10 -13 -9 -13 -11 0
-20 12 -8 11 -10 -7 -10 -13 0 -23 -4 -23 -10 0 -13 47 -13 55 0 4 6 13 5 25
-2 14 -9 22 -9 34 1 35 29 3 87 -34 63 -12 -7 -21 -8 -25 -2 -8 13 -42 13 -50
0z m105 -30 c0 -11 -7 -20 -15 -20 -8 0 -15 9 -15 20 0 11 7 20 15 20 8 0 15
-9 15 -20z"/>
<path d="M4750 4110 c0 -5 5 -10 10 -10 6 0 10 -9 10 -20 0 -11 -4 -20 -10
-20 -5 0 -10 -4 -10 -10 0 -5 14 -10 32 -10 25 0 29 3 20 12 -7 7 -12 25 -12
40 0 21 -5 28 -20 28 -11 0 -20 -4 -20 -10z"/>
<path d="M5020 4110 c0 -5 8 -10 18 -10 14 0 15 -2 2 -10 -13 -9 -13 -11 0
-20 13 -8 12 -10 -2 -10 -10 0 -18 -4 -18 -10 0 -13 37 -13 46 1 4 8 9 8 17 0
30 -30 66 4 52 49 -7 22 -34 27 -52 9 -8 -8 -13 -8 -17 0 -9 14 -46 14 -46 1z
m100 -30 c0 -11 -7 -20 -15 -20 -8 0 -15 9 -15 20 0 11 7 20 15 20 8 0 15 -9
15 -20z"/>
<path d="M5152 4100 c10 -16 10 -24 0 -40 -11 -18 -10 -20 20 -20 25 0 29 3
20 12 -7 7 -12 25 -12 40 0 21 -5 28 -20 28 -18 0 -19 -2 -8 -20z"/>
<path d="M4805 4080 c-3 -5 3 -10 14 -10 12 0 21 5 21 10 0 6 -6 10 -14 10 -8
0 -18 -4 -21 -10z"/>
<path d="M5195 4080 c-3 -5 3 -10 14 -10 12 0 21 5 21 10 0 6 -6 10 -14 10 -8
0 -18 -4 -21 -10z"/>
<path d="M3861 4058 c-1 -25 -5 -27 -48 -31 l-48 -3 47 -2 c43 -2 47 -4 51
-29 l4 -28 2 27 c1 24 5 27 44 31 l42 4 -42 1 c-37 2 -42 5 -46 30 l-4 27 -2
-27z"/>
<path d="M4680 3990 c0 -5 7 -10 15 -10 8 0 15 -4 15 -10 0 -5 -4 -10 -10 -10
-5 0 -14 -9 -20 -20 -10 -18 -8 -20 20 -20 16 0 30 5 30 10 0 6 -8 10 -17 10
-15 0 -15 1 2 14 23 16 14 46 -15 46 -11 0 -20 -4 -20 -10z"/>
<path d="M4740 3991 c0 -6 8 -11 18 -11 14 0 15 -2 2 -10 -13 -9 -13 -11 0
-20 13 -8 12 -10 -2 -10 -10 0 -18 -5 -18 -11 0 -6 10 -9 23 -7 18 2 22 9 22
38 0 29 -4 36 -22 38 -13 2 -23 -1 -23 -7z"/>
<path d="M5080 3989 c0 -5 8 -9 17 -9 14 0 13 -3 -5 -23 -12 -13 -22 -26 -22
-30 0 -4 25 -7 55 -7 30 0 55 5 55 10 0 6 -8 10 -17 10 -15 0 -15 1 2 14 31
23 12 44 -39 44 -25 0 -46 -4 -46 -9z m80 -14 c0 -12 -37 -41 -49 -37 -9 3 -8
9 5 23 16 17 44 26 44 14z"/>
<path d="M3861 3668 c-1 -25 -5 -27 -48 -31 l-48 -3 48 -2 c41 -2 47 -5 48
-24 l2 -23 4 22 c3 18 13 23 46 26 l42 4 -42 1 c-37 2 -42 5 -46 30 l-4 27 -2
-27z"/>
<path d="M4706 3672 c-2 -4 4 -8 14 -8 10 0 16 4 14 8 -3 4 -9 8 -14 8 -5 0
-11 -4 -14 -8z"/>
<path d="M5126 3672 c-2 -4 4 -8 14 -8 10 0 16 4 14 8 -3 4 -9 8 -14 8 -5 0
-11 -4 -14 -8z"/>
<path d="M4671 3643 c-1 -19 -8 -22 -48 -26 l-48 -3 47 -2 c43 -2 47 -4 51
-29 l4 -28 2 27 c1 24 5 27 44 31 l42 4 -42 1 c-35 2 -42 6 -46 25 l-4 22 -2
-22z"/>
<path d="M5091 3643 c-1 -18 -8 -22 -43 -26 l-43 -4 42 -1 c37 -2 42 -5 46
-29 l4 -28 2 27 c1 24 5 27 44 31 l42 4 -42 1 c-35 2 -42 6 -46 25 l-4 22 -2
-22z"/>
<path d="M4710 3546 c7 -7 13 -7 20 0 6 6 3 10 -10 10 -13 0 -16 -4 -10 -10z"/>
<path d="M5040 3546 c7 -7 13 -7 20 0 6 6 3 10 -10 10 -13 0 -16 -4 -10 -10z"/>
<path d="M5130 3546 c7 -7 13 -7 20 0 6 6 3 10 -10 10 -13 0 -16 -4 -10 -10z"/>
<path d="M4520 3015 l0 -435 40 0 c29 0 40 4 40 15 0 9 -9 15 -25 15 l-25 0 0
180 0 180 180 0 180 0 0 -180 0 -180 -115 0 c-96 0 -115 -3 -115 -15 0 -13 35
-15 255 -15 220 0 255 2 255 15 0 13 -21 15 -130 15 l-130 0 0 180 0 180 193
0 192 0 -3 -180 -3 -180 -24 0 c-16 0 -25 -6 -25 -15 0 -11 11 -15 40 -15 l40
0 0 435 0 435 -40 0 c-45 0 -55 -17 -12 -22 l27 -3 3 -213 2 -212 -192 2 -193
3 0 210 0 210 128 3 c73 1 127 7 127 12 0 6 -97 10 -255 10 -158 0 -255 -4
-255 -10 0 -5 49 -11 113 -12 l112 -3 0 -210 0 -210 -177 -3 -178 -2 0 215 0
215 25 0 c14 0 25 5 25 10 0 6 -18 10 -40 10 l-40 0 0 -435z"/>
<path d="M3863 3250 c0 -30 2 -43 4 -27 2 15 2 39 0 55 -2 15 -4 2 -4 -28z"/>
<path d="M4620 3290 c0 -5 8 -10 18 -10 14 0 15 -2 2 -10 -13 -9 -13 -11 0
-20 13 -8 12 -10 -2 -10 -10 0 -18 -4 -18 -10 0 -13 37 -13 46 1 4 8 9 8 17 0
18 -18 45 -13 52 9 14 45 -22 79 -52 49 -8 -8 -13 -8 -17 0 -9 14 -46 14 -46
1z m100 -30 c0 -11 -7 -20 -15 -20 -8 0 -15 9 -15 20 0 11 7 20 15 20 8 0 15
-9 15 -20z"/>
<path d="M4752 3280 c10 -16 10 -24 0 -40 -11 -18 -10 -20 20 -20 25 0 29 3
20 12 -7 7 -12 25 -12 40 0 21 -5 28 -20 28 -18 0 -19 -2 -8 -20z"/>
<path d="M5010 3290 c0 -5 8 -10 18 -10 14 0 15 -2 2 -10 -13 -9 -13 -11 0
-20 13 -8 12 -10 -2 -10 -10 0 -18 -4 -18 -10 0 -13 37 -13 46 1 4 8 9 8 17 0
18 -18 45 -13 52 9 14 45 -22 79 -52 49 -8 -8 -13 -8 -17 0 -9 14 -46 14 -46
1z m100 -30 c0 -11 -7 -20 -15 -20 -8 0 -15 9 -15 20 0 11 7 20 15 20 8 0 15
-9 15 -20z"/>
<path d="M5142 3280 c10 -16 10 -24 0 -40 -11 -18 -10 -20 20 -20 25 0 29 3
20 12 -7 7 -12 25 -12 40 0 21 -5 28 -20 28 -18 0 -19 -2 -8 -20z"/>
<path d="M4795 3260 c-3 -5 3 -10 14 -10 12 0 21 5 21 10 0 6 -6 10 -14 10 -8
0 -18 -4 -21 -10z"/>
<path d="M5185 3260 c-3 -5 3 -10 14 -10 12 0 21 5 21 10 0 6 -6 10 -14 10 -8
0 -18 -4 -21 -10z"/>
<path d="M4680 3169 c0 -5 8 -9 17 -9 14 0 13 -3 -5 -23 -12 -13 -22 -26 -22
-30 0 -4 28 -7 62 -7 48 0 59 3 50 12 -7 7 -12 24 -12 39 0 26 -3 27 -45 27
-25 0 -45 -4 -45 -9z m70 -28 c0 -20 -17 -31 -38 -23 -10 3 -9 8 4 23 22 24
34 24 34 0z"/>
<path d="M5060 3170 c0 -5 7 -10 15 -10 8 0 15 -4 15 -10 0 -5 -4 -10 -10 -10
-5 0 -14 -9 -20 -20 -10 -18 -8 -20 20 -20 16 0 30 5 30 10 0 6 -8 10 -17 10
-15 0 -15 2 -4 9 10 6 20 3 32 -12 14 -18 21 -20 36 -11 24 15 28 47 8 64 -13
11 -21 11 -35 2 -12 -7 -21 -8 -25 -2 -8 13 -45 13 -45 0z m100 -30 c0 -11 -7
-20 -15 -20 -8 0 -15 9 -15 20 0 11 7 20 15 20 8 0 15 -9 15 -20z"/>
<path d="M2280 2950 c0 -5 8 -10 18 -10 14 0 15 -2 2 -10 -13 -9 -13 -11 0
-20 12 -8 11 -10 -7 -10 -13 0 -23 -4 -23 -10 0 -13 47 -13 55 0 4 7 11 8 18
2 16 -13 117 -14 117 -2 0 6 -4 10 -10 10 -5 0 -10 13 -10 29 0 28 -2 30 -42
29 -24 0 -48 -4 -55 -10 -7 -6 -14 -5 -18 2 -8 13 -45 13 -45 0z m100 -30 c0
-11 -7 -20 -15 -20 -8 0 -15 9 -15 20 0 11 7 20 15 20 8 0 15 -9 15 -20z m40
0 c0 -11 -4 -20 -10 -20 -5 0 -10 9 -10 20 0 11 5 20 10 20 6 0 10 -9 10 -20z"/>
<path d="M2510 2946 c-18 -23 -8 -61 18 -64 30 -5 42 26 17 44 -10 8 -13 14
-7 14 7 0 12 5 12 10 0 15 -26 12 -40 -4z m30 -36 c0 -5 -4 -10 -10 -10 -5 0
-10 5 -10 10 0 6 5 10 10 10 6 0 10 -4 10 -10z"/>
<path d="M2574 2946 c-3 -8 -4 -25 -2 -38 2 -17 9 -23 28 -23 22 0 25 4 25 35
0 29 -4 36 -23 38 -13 2 -24 -3 -28 -12z m36 -26 c0 -11 -4 -20 -10 -20 -5 0
-10 9 -10 20 0 11 5 20 10 20 6 0 10 -9 10 -20z"/>
<path d="M2740 2950 c0 -6 10 -10 23 -10 18 0 19 -2 7 -10 -13 -9 -13 -11 0
-20 12 -8 11 -10 -7 -10 -13 0 -23 -4 -23 -10 0 -5 25 -8 56 -7 42 1 60 7 68
20 20 32 -4 52 -68 54 -31 1 -56 -2 -56 -7z m110 -30 c0 -11 -7 -20 -15 -20
-8 0 -15 9 -15 20 0 11 7 20 15 20 8 0 15 -9 15 -20z"/>
<path d="M2870 2950 c0 -5 5 -10 10 -10 6 0 10 -9 10 -20 0 -11 -4 -20 -10
-20 -5 0 -10 -4 -10 -10 0 -5 14 -10 32 -10 25 0 29 3 20 12 -7 7 -12 25 -12
40 0 21 -5 28 -20 28 -11 0 -20 -4 -20 -10z"/>
<path d="M2974 2941 c-10 -11 -24 -16 -35 -14 -11 3 -19 0 -19 -6 0 -6 8 -11
19 -11 10 0 24 -7 31 -15 15 -17 50 -20 50 -4 0 8 4 8 14 -1 8 -6 25 -10 38
-8 19 2 23 9 23 38 0 32 -2 35 -30 35 -22 0 -30 -4 -29 -17 2 -20 -2 -21 -31
-8 -17 7 -17 9 -2 9 9 1 17 6 17 11 0 17 -29 11 -46 -9z m101 -1 c3 -5 1 -10
-4 -10 -6 0 -11 5 -11 10 0 6 2 10 4 10 3 0 8 -4 11 -10z m-70 -30 c3 -5 -1
-10 -10 -10 -9 0 -13 5 -10 10 3 6 8 10 10 10 2 0 7 -4 10 -10z m72 -6 c-3 -3
-12 -4 -19 -1 -8 3 -5 6 6 6 11 1 17 -2 13 -5z"/>
<path d="M2455 2920 c-3 -5 3 -10 14 -10 12 0 21 5 21 10 0 6 -6 10 -14 10 -8
0 -18 -4 -21 -10z"/>
<path d="M2670 2920 c0 -5 9 -10 21 -10 11 0 17 5 14 10 -3 6 -13 10 -21 10
-8 0 -14 -4 -14 -10z"/>
<path d="M3806 2922 c-2 -4 4 -8 14 -8 10 0 16 4 14 8 -3 4 -9 8 -14 8 -5 0
-11 -4 -14 -8z"/>
<path d="M3896 2922 c-2 -4 4 -8 14 -8 10 0 16 4 14 8 -3 4 -9 8 -14 8 -5 0
-11 -4 -14 -8z"/>
<path d="M3863 2860 c0 -30 2 -43 4 -27 2 15 2 39 0 55 -2 15 -4 2 -4 -28z"/>
<path d="M4620 2870 c0 -5 8 -10 18 -10 14 0 15 -2 2 -10 -13 -9 -13 -11 0
-20 13 -8 12 -10 -2 -10 -10 0 -18 -4 -18 -10 0 -13 37 -13 46 1 4 8 9 8 17 0
18 -18 45 -13 52 9 14 45 -22 79 -52 49 -8 -8 -13 -8 -17 0 -9 14 -46 14 -46
1z m100 -30 c0 -11 -7 -20 -15 -20 -8 0 -15 9 -15 20 0 11 7 20 15 20 8 0 15
-9 15 -20z"/>
<path d="M4752 2860 c10 -16 10 -24 0 -40 -11 -18 -10 -20 20 -20 25 0 29 3
20 12 -7 7 -12 25 -12 40 0 21 -5 28 -20 28 -18 0 -19 -2 -8 -20z"/>
<path d="M5010 2870 c0 -5 8 -10 18 -10 14 0 15 -2 2 -10 -13 -9 -13 -11 0
-20 13 -8 12 -10 -2 -10 -10 0 -18 -4 -18 -10 0 -13 37 -13 46 1 4 8 9 8 17 0
18 -18 45 -13 52 9 14 45 -22 79 -52 49 -8 -8 -13 -8 -17 0 -9 14 -46 14 -46
1z m100 -30 c0 -11 -7 -20 -15 -20 -8 0 -15 9 -15 20 0 11 7 20 15 20 8 0 15
-9 15 -20z"/>
<path d="M5142 2860 c10 -16 10 -24 0 -40 -11 -18 -10 -20 20 -20 25 0 29 3
20 12 -7 7 -12 25 -12 40 0 21 -5 28 -20 28 -18 0 -19 -2 -8 -20z"/>
<path d="M4795 2840 c-3 -5 3 -10 14 -10 12 0 21 5 21 10 0 6 -6 10 -14 10 -8
0 -18 -4 -21 -10z"/>
<path d="M5185 2840 c-3 -5 3 -10 14 -10 12 0 21 5 21 10 0 6 -6 10 -14 10 -8
0 -18 -4 -21 -10z"/>
<path d="M3810 2796 c7 -7 13 -7 20 0 6 6 3 10 -10 10 -13 0 -16 -4 -10 -10z"/>
<path d="M4670 2750 c0 -5 5 -10 10 -10 6 0 10 -9 10 -20 0 -11 -4 -20 -10
-20 -5 0 -10 -5 -10 -11 0 -6 21 -9 53 -7 l52 3 0 35 c0 29 -4 36 -22 38 -13
2 -23 -1 -23 -7 0 -6 8 -11 18 -11 14 0 15 -2 2 -10 -12 -8 -13 -12 -2 -19 11
-6 9 -9 -7 -14 -25 -6 -31 0 -31 35 0 21 -5 28 -20 28 -11 0 -20 -4 -20 -10z"/>
<path d="M5060 2750 c0 -5 5 -10 10 -10 6 0 10 -9 10 -20 0 -11 -4 -20 -10
-20 -5 0 -10 -4 -10 -10 0 -5 25 -10 55 -10 30 0 55 5 55 10 0 6 -8 10 -17 10
-15 0 -15 1 2 14 23 16 14 46 -15 46 -11 0 -20 -4 -20 -10 0 -5 7 -10 15 -10
20 0 19 -6 -4 -29 -23 -23 -31 -18 -31 21 0 21 -5 28 -20 28 -11 0 -20 -4 -20
-10z"/>
<path d="M1834 2370 c0 -13 4 -16 10 -10 7 7 7 13 0 20 -6 6 -10 3 -10 -10z"/>
<path d="M1770 2330 c0 -5 5 -10 10 -10 6 0 10 5 10 10 0 6 -4 10 -10 10 -5 0
-10 -4 -10 -10z"/>
<path d="M4616 2322 c-2 -4 4 -8 14 -8 10 0 16 4 14 8 -3 4 -9 8 -14 8 -5 0
-11 -4 -14 -8z"/>
<path d="M4706 2322 c-2 -4 4 -8 14 -8 10 0 16 4 14 8 -3 4 -9 8 -14 8 -5 0
-11 -4 -14 -8z"/>
<path d="M5126 2322 c-2 -4 4 -8 14 -8 10 0 16 4 14 8 -3 4 -9 8 -14 8 -5 0
-11 -4 -14 -8z"/>
<path d="M4671 2293 c-1 -19 -8 -22 -48 -26 l-48 -3 47 -2 c43 -2 47 -4 51
-29 l4 -28 2 27 c1 24 5 27 44 31 l42 4 -42 1 c-35 2 -42 6 -46 25 l-4 22 -2
-22z"/>
<path d="M5091 2293 c-1 -18 -8 -22 -43 -26 l-43 -4 42 -1 c37 -2 42 -5 46
-29 l4 -28 2 27 c1 24 5 27 44 31 l42 4 -42 1 c-35 2 -42 6 -46 25 l-4 22 -2
-22z"/>
<path d="M1753 2243 c15 -2 39 -2 55 0 15 2 2 4 -28 4 -30 0 -43 -2 -27 -4z"/>
<path d="M1834 2200 c0 -13 4 -16 10 -10 7 7 7 13 0 20 -6 6 -10 3 -10 -10z"/>
<path d="M4620 2196 c7 -7 13 -7 20 0 6 6 3 10 -10 10 -13 0 -16 -4 -10 -10z"/>
<path d="M4710 2196 c7 -7 13 -7 20 0 6 6 3 10 -10 10 -13 0 -16 -4 -10 -10z"/>
<path d="M5040 2196 c7 -7 13 -7 20 0 6 6 3 10 -10 10 -13 0 -16 -4 -10 -10z"/>
<path d="M5130 2196 c7 -7 13 -7 20 0 6 6 3 10 -10 10 -13 0 -16 -4 -10 -10z"/>
<path d="M1753 2153 c15 -2 39 -2 55 0 15 2 2 4 -28 4 -30 0 -43 -2 -27 -4z"/>
<path d="M1711 2114 c0 -11 3 -14 6 -6 3 7 2 16 -1 19 -3 4 -6 -2 -5 -13z"/>
<path d="M1841 2114 c0 -11 3 -14 6 -6 3 7 2 16 -1 19 -3 4 -6 -2 -5 -13z"/>
<path d="M4330 2106 c0 -7 -9 -16 -19 -19 -24 -6 -65 -69 -50 -77 5 -4 13 -20
18 -37 9 -32 -1 -53 -26 -53 -7 0 -13 -4 -13 -10 0 -6 38 -10 94 -10 l93 0 -2
38 c-3 52 -3 52 -24 52 -26 0 -35 27 -10 33 10 3 19 13 18 24 0 10 -3 13 -5 6
-6 -14 -56 -2 -62 15 -2 7 1 12 7 12 6 0 11 9 11 20 0 11 -7 20 -15 20 -8 0
-15 -6 -15 -14z m5 -66 c3 -6 -1 -7 -9 -4 -18 7 -21 14 -7 14 6 0 13 -4 16
-10z m19 -29 c3 -4 -4 -17 -15 -27 -21 -19 -21 -18 -8 9 13 30 15 31 23 18z
m10 -45 c-4 -17 0 -27 13 -35 14 -8 8 -10 -32 -10 -40 0 -45 2 -27 9 12 5 22
15 22 23 0 11 19 37 27 37 2 0 1 -11 -3 -24z"/>
<path d="M1770 2070 c0 -5 5 -10 10 -10 6 0 10 5 10 10 0 6 -4 10 -10 10 -5 0
-10 -4 -10 -10z"/>
<path d="M1714 2039 c-3 -6 -2 -15 3 -20 5 -5 9 -1 9 11 0 23 -2 24 -12 9z"/>
<path d="M5126 1932 c-2 -4 4 -8 14 -8 10 0 16 4 14 8 -3 4 -9 8 -14 8 -5 0
-11 -4 -14 -8z"/>
<path d="M4671 1903 c-1 -19 -8 -22 -48 -26 l-48 -3 47 -2 c43 -2 47 -4 51
-29 l4 -28 2 27 c1 24 5 27 44 31 l42 4 -42 1 c-35 2 -42 6 -46 25 l-4 22 -2
-22z"/>
<path d="M5091 1903 c-1 -18 -8 -22 -43 -26 l-43 -4 42 -1 c37 -2 42 -5 46
-29 l4 -28 2 27 c1 24 5 27 44 31 l42 4 -42 1 c-35 2 -42 6 -46 25 l-4 22 -2
-22z"/>
<path d="M4267 1853 c-4 -3 1 -16 12 -27 10 -12 22 -40 26 -63 6 -39 5 -43
-14 -43 -27 0 -36 -17 -22 -43 11 -20 19 -22 99 -21 90 2 112 12 99 48 -5 12
-20 16 -67 16 -64 0 -64 0 -74 58 -5 27 -3 32 14 32 11 0 20 5 20 10 0 6 -12
10 -27 10 -14 0 -34 7 -43 15 -9 8 -20 12 -23 8z m16 -159 c-5 -13 6 -15 85
-12 49 2 88 0 85 -4 -7 -12 -171 -10 -178 2 -3 6 -3 15 0 20 10 16 15 12 8 -6z
m114 -1 c-20 -2 -52 -2 -70 0 -17 2 0 4 38 4 39 0 53 -2 32 -4z"/>
<path d="M4710 1806 c7 -7 13 -7 20 0 6 6 3 10 -10 10 -13 0 -16 -4 -10 -10z"/>
<path d="M5130 1806 c7 -7 13 -7 20 0 6 6 3 10 -10 10 -13 0 -16 -4 -10 -10z"/>
<path d="M2960 1801 c0 -24 340 -27 348 -3 3 9 -36 12 -172 12 -99 0 -176 -4
-176 -9z"/>
<path d="M6110 1670 l0 -80 30 0 c23 0 30 -4 30 -20 0 -18 7 -20 60 -20 l61 0
-3 78 c-3 75 -4 77 -29 80 -17 2 -29 11 -32 23 -4 16 -14 19 -61 19 l-56 0 0
-80z m93 58 c2 -8 -12 -17 -37 -25 -33 -9 -36 -11 -16 -13 l25 -2 -25 -8 -25
-8 25 -2 25 -2 -25 -8 -25 -8 25 -2 25 -2 -25 -8 c-24 -8 -24 -8 -2 -9 31 -1
29 -31 -3 -31 -24 0 -25 2 -25 70 l0 70 39 0 c23 0 41 -5 44 -12z m63 -42 c9
-9 14 -35 14 -70 l0 -56 -50 0 -50 0 0 70 0 70 36 0 c19 0 42 -6 50 -14z"/>
<path d="M6207 1662 c-22 -24 -21 -45 1 -65 21 -19 48 -22 57 -7 3 6 -3 10
-13 10 -11 0 -25 7 -32 15 -16 19 3 45 32 45 10 0 16 5 13 10 -10 16 -40 12
-58 -8z"/>
<path d="M5991 1647 c-26 -43 -27 -83 -2 -97 31 -16 49 -12 68 16 16 24 16 28
-2 60 -30 56 -40 59 -64 21z m57 -61 c-4 -26 -40 -33 -57 -12 -10 12 -9 21 6
46 l18 31 18 -22 c10 -12 17 -32 15 -43z"/>
<path d="M6000 1590 c20 -13 40 -13 40 0 0 6 -12 10 -27 10 -22 0 -25 -2 -13
-10z"/>
<path d="M5800 1485 c0 -13 28 -15 195 -15 l195 0 0 -200 0 -200 -285 0 -285
0 -2 207 c-2 154 -6 207 -15 211 -10 3 -13 -46 -13 -222 l0 -226 615 0 615 0
0 226 c0 176 -3 225 -12 222 -10 -4 -14 -57 -16 -211 l-2 -207 -285 0 -285 0
0 200 0 200 215 0 c184 0 215 2 215 15 0 13 -54 15 -425 15 -371 0 -425 -2
-425 -15z"/>
<path d="M6434 1389 c-10 -17 13 -36 27 -22 12 12 4 33 -11 33 -5 0 -12 -5
-16 -11z"/>
<path d="M5785 1380 c-8 -14 3 -30 21 -30 8 0 14 9 14 20 0 21 -24 28 -35 10z"/>
<path d="M6616 1383 c-11 -11 -6 -23 9 -23 8 0 15 4 15 9 0 13 -16 22 -24 14z"/>
<path d="M5966 1373 c-11 -11 -6 -23 9 -23 8 0 15 4 15 9 0 13 -16 22 -24 14z"/>
<path d="M6410 1305 c0 -25 5 -45 10 -45 6 0 10 -20 10 -45 0 -38 3 -45 20
-45 17 0 20 7 20 45 0 25 5 45 10 45 6 0 10 20 10 45 l0 45 -40 0 -40 0 0 -45z"/>
<path d="M6616 1343 c-3 -3 -6 -17 -6 -30 0 -16 -6 -23 -20 -23 -12 0 -28 -13
-40 -32 -20 -34 -27 -63 -11 -54 4 3 16 -3 26 -14 22 -24 43 -25 74 -4 19 14
22 23 18 55 -3 26 0 42 9 50 8 6 14 14 14 18 0 11 -57 41 -64 34z m28 -95 c12
-20 2 -44 -27 -62 -13 -8 -22 -6 -39 11 -19 19 -20 26 -10 48 9 20 18 26 39
23 14 -2 31 -11 37 -20z"/>
<path d="M5764 1309 c-11 -23 -13 -34 -5 -39 7 -3 9 -14 5 -23 -4 -12 -1 -17
10 -17 11 0 16 -9 16 -30 0 -16 5 -30 10 -30 6 0 10 12 10 26 0 17 6 28 20 31
23 6 24 8 9 35 -8 15 -8 19 0 14 14 -9 14 6 -1 39 -16 36 -53 34 -74 -6z"/>
<path d="M5966 1333 c-3 -3 -6 -17 -6 -30 0 -16 -6 -23 -19 -23 -11 0 -28 -15
-41 -35 l-22 -35 24 -20 c28 -23 81 -26 98 -5 8 9 10 29 7 49 -4 24 -1 39 9
47 8 6 14 14 14 18 0 11 -57 41 -64 34z m30 -98 c8 -31 -10 -55 -41 -55 -34 0
-51 25 -37 55 16 36 69 36 78 0z"/>
<path d="M4560 1300 c0 -5 8 -10 18 -10 14 0 15 -2 2 -10 -13 -9 -13 -11 0
-20 13 -8 12 -10 -2 -10 -10 0 -18 -4 -18 -10 0 -13 37 -13 46 1 4 8 9 8 17 0
18 -18 45 -13 52 9 14 45 -22 79 -52 49 -8 -8 -13 -8 -17 0 -9 14 -46 14 -46
1z m100 -30 c0 -11 -7 -20 -15 -20 -8 0 -15 9 -15 20 0 11 7 20 15 20 8 0 15
-9 15 -20z"/>
<path d="M4692 1290 c10 -16 10 -24 0 -40 -11 -18 -10 -20 20 -20 25 0 29 3
20 12 -7 7 -12 25 -12 40 0 21 -5 28 -20 28 -18 0 -19 -2 -8 -20z"/>
<path d="M4930 1301 c0 -6 8 -11 18 -11 14 0 15 -2 2 -10 -13 -9 -13 -11 0
-20 13 -8 12 -10 -2 -10 -10 0 -18 -5 -18 -11 0 -6 10 -9 23 -7 18 2 22 9 22
38 0 29 -4 36 -22 38 -13 2 -23 -1 -23 -7z"/>
<path d="M4995 1289 c-14 -42 2 -57 62 -58 43 0 53 3 45 11 -7 7 -12 24 -12
39 0 26 -3 27 -45 27 -35 0 -45 -4 -50 -19z m75 -19 c0 -10 -4 -22 -10 -25 -6
-4 -10 7 -10 25 0 18 4 29 10 25 6 -3 10 -15 10 -25z m-40 0 c0 -11 -4 -20
-10 -20 -5 0 -10 9 -10 20 0 11 5 20 10 20 6 0 10 -9 10 -20z"/>
<path d="M4735 1270 c-3 -5 3 -10 14 -10 12 0 21 5 21 10 0 6 -6 10 -14 10 -8
0 -18 -4 -21 -10z"/>
<path d="M5110 1270 c0 -5 9 -10 21 -10 11 0 17 5 14 10 -3 6 -13 10 -21 10
-8 0 -14 -4 -14 -10z"/>
<path d="M4610 1180 c0 -5 5 -10 10 -10 6 0 10 -9 10 -20 0 -11 -4 -20 -10
-20 -5 0 -10 -4 -10 -10 0 -5 26 -10 57 -10 44 0 54 3 45 12 -7 7 -12 25 -12
40 0 21 -5 28 -20 28 -17 0 -18 -3 -9 -19 13 -20 5 -56 -11 -46 -5 3 -10 19
-10 36 0 22 -5 29 -20 29 -11 0 -20 -4 -20 -10z"/>
<path d="M4982 1170 c10 -16 10 -24 0 -40 -11 -18 -10 -20 20 -20 25 0 29 3
20 12 -7 7 -12 25 -12 40 0 21 -5 28 -20 28 -18 0 -19 -2 -8 -20z"/>
<path d="M5040 1175 c-26 -31 13 -82 44 -56 19 16 21 42 4 59 -16 16 -33 15
-48 -3z m40 -25 c0 -11 -7 -20 -15 -20 -8 0 -15 9 -15 20 0 11 7 20 15 20 8 0
15 -9 15 -20z"/>
<path d="M1727 563 c-4 -3 -7 -38 -7 -77 1 -63 2 -69 15 -53 7 11 11 26 8 34
-7 18 22 43 49 43 10 0 18 -7 18 -15 0 -8 5 -15 10 -15 6 0 10 -5 10 -11 0 -5
-10 -9 -22 -7 -19 2 -23 -2 -24 -22 -1 -43 -4 -51 -13 -46 -5 3 -7 16 -5 29 5
21 4 21 -8 2 -7 -10 -25 -32 -40 -47 l-26 -28 54 0 c91 0 94 4 94 120 l0 100
-53 0 c-30 0 -57 -3 -60 -7z m93 -33 c0 -5 -4 -10 -9 -10 -6 0 -13 5 -16 10
-3 6 1 10 9 10 9 0 16 -4 16 -10z"/>
<path d="M5330 540 c0 -5 8 -10 18 -10 14 0 15 -2 2 -10 -13 -9 -13 -11 0 -20
13 -8 12 -10 -2 -10 -10 0 -18 -4 -18 -10 0 -13 37 -13 46 1 4 8 9 8 17 0 18
-18 45 -13 52 9 7 21 30 27 40 10 3 -5 -3 -10 -14 -10 -12 0 -21 -5 -21 -11 0
-6 12 -9 27 -7 36 4 43 35 12 46 l-23 9 25 8 c24 8 24 8 -5 12 -17 3 -32 -1
-37 -9 -7 -10 -9 -10 -9 0 0 15 -32 16 -47 1 -8 -8 -13 -8 -17 0 -9 14 -46 14
-46 1z m100 -30 c0 -11 -7 -20 -15 -20 -8 0 -15 9 -15 20 0 11 7 20 15 20 8 0
15 -9 15 -20z"/>
<path d="M1640 514 c-6 -14 -10 -32 -10 -41 0 -13 3 -13 18 -2 16 13 16 13 0
-7 -23 -26 -23 -54 -1 -54 15 0 14 -2 -3 -14 -24 -18 -13 -31 14 -17 21 11 33
37 38 78 1 11 5 30 9 42 6 19 3 20 -27 15 -32 -6 -32 -6 -13 9 18 15 18 16 2
17 -10 0 -22 -11 -27 -26z"/>
<path d="M5400 186 c0 -53 -4 -98 -10 -101 -23 -14 -7 -25 38 -25 62 0 92 21
92 64 0 25 -5 35 -19 39 -17 4 -20 -1 -23 -32 -2 -20 -7 -34 -13 -32 -5 2 -9
14 -7 25 2 16 -3 12 -20 -13 -25 -39 -37 -27 -15 16 8 15 12 34 9 42 -6 17 24
41 50 41 10 0 18 -7 18 -15 0 -8 5 -15 10 -15 6 0 10 23 10 50 l0 50 -60 0
-60 0 0 -94z m100 59 c0 -8 -4 -15 -10 -15 -5 0 -10 7 -10 15 0 8 5 15 10 15
6 0 10 -7 10 -15z"/>
<path d="M5326 238 c-9 -13 -16 -43 -16 -71 0 -42 2 -48 18 -43 16 6 16 5 0
-8 -21 -16 -23 -26 -5 -26 22 0 46 33 51 70 2 19 8 45 11 58 7 22 -8 32 -20
12 -4 -6 -11 -8 -16 -4 -6 4 -6 11 2 20 7 9 8 14 1 14 -6 0 -18 -10 -26 -22z"/>
<path d="M12 4140 c0 -14 2 -19 5 -12 2 6 2 18 0 25 -3 6 -5 1 -5 -13z"/>
<path d="M82 4140 c0 -14 2 -19 5 -12 2 6 2 18 0 25 -3 6 -5 1 -5 -13z"/>
<path d="M40 4135 c0 -8 4 -15 10 -15 5 0 7 7 4 15 -4 8 -8 15 -10 15 -2 0 -4
-7 -4 -15z"/>
<path d="M38 4093 c39 -5 53 -30 27 -49 -16 -12 -16 -14 -3 -14 22 0 33 37 18
55 -7 8 -27 14 -44 13 l-31 -1 33 -4z"/>
<path d="M40 4000 c20 -5 39 -5 45 1 5 5 -8 9 -35 8 l-45 -1 35 -8z"/>
<path d="M35 3980 c-3 -5 -2 -10 4 -10 5 0 13 5 16 10 3 6 2 10 -4 10 -5 0
-13 -4 -16 -10z"/>
<path d="M10 3959 c0 -5 19 -9 42 -9 49 0 47 5 -4 13 -21 3 -38 2 -38 -4z"/>
<path d="M12 3920 c0 -14 2 -19 5 -12 2 6 2 18 0 25 -3 6 -5 1 -5 -13z"/>
<path d="M82 3920 c0 -14 2 -19 5 -12 2 6 2 18 0 25 -3 6 -5 1 -5 -13z"/>
<path d="M41 3914 c0 -11 3 -14 6 -6 3 7 2 16 -1 19 -3 4 -6 -2 -5 -13z"/>
<path d="M10 3875 c0 -3 14 -11 31 -17 l32 -11 -34 -18 c-19 -10 -31 -18 -28
-19 12 0 81 31 77 35 -9 9 -78 35 -78 30z"/>
<path d="M45 3801 l-40 -19 37 -16 c41 -18 63 -21 36 -5 -10 5 -18 15 -18 21
0 6 8 17 18 24 24 18 14 17 -33 -5z m5 -21 c0 -5 -2 -10 -4 -10 -3 0 -8 5 -11
10 -3 6 -1 10 4 10 6 0 11 -4 11 -10z"/>
<path d="M10 3650 c0 -28 2 -30 40 -30 38 0 40 2 40 30 0 35 -19 41 -21 8 -1
-17 -2 -19 -6 -5 -2 9 -8 17 -13 17 -5 0 -11 -8 -13 -17 -4 -14 -5 -12 -6 5
-2 33 -21 27 -21 -8z"/>
<path d="M16 3603 c-3 -3 -6 -15 -6 -25 0 -15 8 -18 43 -17 32 0 37 2 22 9
-18 7 -19 8 -2 15 9 4 17 10 17 14 0 10 -65 13 -74 4z m29 -23 c3 -5 1 -10 -4
-10 -6 0 -11 5 -11 10 0 6 2 10 4 10 3 0 8 -4 11 -10z"/>
<path d="M14 3526 c-12 -31 0 -51 30 -51 36 0 56 26 37 49 -17 20 -60 21 -67
2z m56 -21 c0 -18 -27 -26 -39 -11 -7 9 -7 16 0 23 14 14 39 6 39 -12z"/>
<path d="M10 3442 c0 -5 12 -14 27 -21 l28 -13 -28 -14 c-39 -21 -34 -34 13
-34 22 0 40 5 40 10 0 6 -8 10 -17 10 -15 0 -14 2 3 14 18 14 18 15 2 21 -23
9 -23 22 0 28 9 3 -2 5 -25 6 -24 0 -43 -3 -43 -7z"/>
<path d="M70 3331 c0 -15 -8 -21 -32 -24 -29 -3 -27 -4 10 -5 39 -2 42 0 42
23 0 14 -4 25 -10 25 -5 0 -10 -9 -10 -19z"/>
<path d="M10 3255 c0 -22 4 -25 40 -25 36 0 40 3 40 25 0 29 -16 34 -23 8 -4
-17 -5 -17 -6 0 0 9 -5 17 -10 17 -5 0 -12 -8 -14 -17 -4 -17 -5 -17 -6 0 -2
27 -21 20 -21 -8z"/>
<path d="M16 3212 c-3 -3 -6 -16 -6 -29 0 -20 5 -23 40 -23 31 0 40 4 40 18 0
9 -4 22 -8 27 -8 11 -57 16 -66 7z"/>
<path d="M11 3068 c-1 -26 2 -28 39 -28 37 0 40 2 39 28 -2 23 -2 24 -6 5 -3
-18 -11 -23 -33 -23 -22 0 -30 5 -33 23 -4 19 -4 18 -6 -5z"/>
<path d="M65 3006 c26 -19 12 -44 -27 -49 l-33 -4 31 -1 c17 -1 37 5 44 13 15
18 4 55 -18 55 -13 0 -13 -2 3 -14z"/>
<path d="M35 2905 c-39 -32 -24 -32 23 0 20 14 30 25 22 25 -8 -1 -28 -12 -45
-25z"/>
<path d="M11 2848 c-1 -26 2 -28 39 -28 37 0 40 2 39 28 -2 23 -2 24 -6 5 -3
-18 -11 -23 -33 -23 -22 0 -30 5 -33 23 -4 19 -4 18 -6 -5z"/>
<path d="M32 2788 c35 -12 36 -26 3 -34 -14 -3 -25 -10 -25 -14 0 -9 80 22 80
30 0 7 -62 30 -76 29 -5 0 3 -5 18 -11z"/>
<path d="M37 2727 c-36 -15 -34 -21 13 -40 48 -18 54 -12 8 8 l-33 13 35 15
c40 17 20 21 -23 4z"/>
</g>
</svg>
